<?xml version="1.0" standalone="no"?>
 <!DOCTYPE svg PUBLIC "-//W3C//DTD SVG 1.1//EN" 
 "http://www.w3.org/Graphics/SVG/1.1/DTD/svg11.dtd"> 
<svg
  xmlns:svg="http://www.w3.org/2000/svg"
  xmlns="http://www.w3.org/2000/svg"
  xmlns:xlink="http://www.w3.org/1999/xlink"
  version="1.1"
  width="297.002200mm" height="210.007200mm" viewBox="0.000000 0.000000 297.002200 210.007200">
<title>SVG Image created as MiniOSC-B_Paste.svg date 2024/09/08 19:04:05 </title>
  <desc>Image generated by PCBNEW </desc>
<g style="fill:#000000; fill-opacity:1.000000;stroke:#000000; stroke-opacity:1.000000;
stroke-linecap:round; stroke-linejoin:round;"
 transform="translate(0 0) scale(1 1)">
<path style="fill:#000000; fill-opacity:1.000000; stroke:none;fill-rule:evenodd;"
d="M 165.230000,117.520000
165.210970,117.615671
165.156777,117.696777
165.075671,117.750970
164.980000,117.770000
164.480000,117.770000
164.384329,117.750970
164.303223,117.696777
164.249030,117.615671
164.230000,117.520000
164.230000,116.020000
164.249030,115.924329
164.303223,115.843223
164.384329,115.789030
164.480000,115.770000
164.980000,115.770000
165.075671,115.789030
165.156777,115.843223
165.210970,115.924329
165.230000,116.020000
Z" /> 
<path style="fill:#000000; fill-opacity:1.000000; stroke:none;fill-rule:evenodd;"
d="M 206.350000,118.525000
206.367127,118.438896
206.415901,118.365901
206.488896,118.317127
206.575000,118.300000
207.025000,118.300000
207.111104,118.317127
207.184099,118.365901
207.232873,118.438896
207.250000,118.525000
207.250000,119.275000
207.232873,119.361104
207.184099,119.434099
207.111104,119.482873
207.025000,119.500000
206.575000,119.500000
206.488896,119.482873
206.415901,119.434099
206.367127,119.361104
206.350000,119.275000
Z" /> 
<path style="fill:#000000; fill-opacity:1.000000; stroke:none;fill-rule:evenodd;"
d="M 209.650000,118.525000
209.667127,118.438896
209.715901,118.365901
209.788896,118.317127
209.875000,118.300000
210.325000,118.300000
210.411104,118.317127
210.484099,118.365901
210.532873,118.438896
210.550000,118.525000
210.550000,119.275000
210.532873,119.361104
210.484099,119.434099
210.411104,119.482873
210.325000,119.500000
209.875000,119.500000
209.788896,119.482873
209.715901,119.434099
209.667127,119.361104
209.650000,119.275000
Z" /> 
<path style="fill:#000000; fill-opacity:1.000000; stroke:none;fill-rule:evenodd;"
d="M 158.942500,81.445000
158.925373,81.531104
158.876599,81.604099
158.803604,81.652873
158.717500,81.670000
158.267500,81.670000
158.181396,81.652873
158.108401,81.604099
158.059627,81.531104
158.042500,81.445000
158.042500,80.695000
158.059627,80.608896
158.108401,80.535901
158.181396,80.487127
158.267500,80.470000
158.717500,80.470000
158.803604,80.487127
158.876599,80.535901
158.925373,80.608896
158.942500,80.695000
Z" /> 
<path style="fill:#000000; fill-opacity:1.000000; stroke:none;fill-rule:evenodd;"
d="M 155.642500,81.445000
155.625373,81.531104
155.576599,81.604099
155.503604,81.652873
155.417500,81.670000
154.967500,81.670000
154.881396,81.652873
154.808401,81.604099
154.759627,81.531104
154.742500,81.445000
154.742500,80.695000
154.759627,80.608896
154.808401,80.535901
154.881396,80.487127
154.967500,80.470000
155.417500,80.470000
155.503604,80.487127
155.576599,80.535901
155.625373,80.608896
155.642500,80.695000
Z" /> 
<path style="fill:#000000; fill-opacity:1.000000; stroke:none;fill-rule:evenodd;"
d="M 158.500000,92.250000
158.480970,92.345671
158.426777,92.426777
158.345671,92.480970
158.250000,92.500000
157.750000,92.500000
157.654329,92.480970
157.573223,92.426777
157.519030,92.345671
157.500000,92.250000
157.500000,90.750000
157.519030,90.654329
157.573223,90.573223
157.654329,90.519030
157.750000,90.500000
158.250000,90.500000
158.345671,90.519030
158.426777,90.573223
158.480970,90.654329
158.500000,90.750000
Z" /> 
<path style="fill:#000000; fill-opacity:1.000000; stroke:none;fill-rule:evenodd;"
d="M 200.402500,67.462500
200.384421,67.553387
200.332938,67.630438
200.255887,67.681921
200.165000,67.700000
199.665000,67.700000
199.574113,67.681921
199.497062,67.630438
199.445579,67.553387
199.427500,67.462500
199.427500,66.987500
199.445579,66.896613
199.497062,66.819562
199.574113,66.768079
199.665000,66.750000
200.165000,66.750000
200.255887,66.768079
200.332938,66.819562
200.384421,66.896613
200.402500,66.987500
Z" /> 
<path style="fill:#000000; fill-opacity:1.000000; stroke:none;fill-rule:evenodd;"
d="M 198.577500,67.462500
198.559421,67.553387
198.507938,67.630438
198.430887,67.681921
198.340000,67.700000
197.840000,67.700000
197.749113,67.681921
197.672062,67.630438
197.620579,67.553387
197.602500,67.462500
197.602500,66.987500
197.620579,66.896613
197.672062,66.819562
197.749113,66.768079
197.840000,66.750000
198.340000,66.750000
198.430887,66.768079
198.507938,66.819562
198.559421,66.896613
198.577500,66.987500
Z" /> 
<path style="fill:#000000; fill-opacity:1.000000; stroke:none;fill-rule:evenodd;"
d="M 209.112500,112.737500
209.094421,112.828387
209.042938,112.905438
208.965887,112.956921
208.875000,112.975000
208.375000,112.975000
208.284113,112.956921
208.207062,112.905438
208.155579,112.828387
208.137500,112.737500
208.137500,112.262500
208.155579,112.171613
208.207062,112.094562
208.284113,112.043079
208.375000,112.025000
208.875000,112.025000
208.965887,112.043079
209.042938,112.094562
209.094421,112.171613
209.112500,112.262500
Z" /> 
<path style="fill:#000000; fill-opacity:1.000000; stroke:none;fill-rule:evenodd;"
d="M 207.287500,112.737500
207.269421,112.828387
207.217938,112.905438
207.140887,112.956921
207.050000,112.975000
206.550000,112.975000
206.459113,112.956921
206.382062,112.905438
206.330579,112.828387
206.312500,112.737500
206.312500,112.262500
206.330579,112.171613
206.382062,112.094562
206.459113,112.043079
206.550000,112.025000
207.050000,112.025000
207.140887,112.043079
207.217938,112.094562
207.269421,112.171613
207.287500,112.262500
Z" /> 
<path style="fill:#000000; fill-opacity:1.000000; stroke:none;fill-rule:evenodd;"
d="M 193.466500,106.142000
193.447470,106.237671
193.393277,106.318777
193.312171,106.372970
193.216500,106.392000
192.716500,106.392000
192.620829,106.372970
192.539723,106.318777
192.485530,106.237671
192.466500,106.142000
192.466500,104.642000
192.485530,104.546329
192.539723,104.465223
192.620829,104.411030
192.716500,104.392000
193.216500,104.392000
193.312171,104.411030
193.393277,104.465223
193.447470,104.546329
193.466500,104.642000
Z" /> 
<path style="fill:#000000; fill-opacity:1.000000; stroke:none;fill-rule:evenodd;"
d="M 195.100000,42.950000
195.080970,43.045671
195.026777,43.126777
194.945671,43.180970
194.850000,43.200000
194.150000,43.200000
194.054329,43.180970
193.973223,43.126777
193.919030,43.045671
193.900000,42.950000
193.900000,42.050000
193.919030,41.954329
193.973223,41.873223
194.054329,41.819030
194.150000,41.800000
194.850000,41.800000
194.945671,41.819030
195.026777,41.873223
195.080970,41.954329
195.100000,42.050000
Z" /> 
<path style="fill:#000000; fill-opacity:1.000000; stroke:none;fill-rule:evenodd;"
d="M 193.100000,42.950000
193.080970,43.045671
193.026777,43.126777
192.945671,43.180970
192.850000,43.200000
192.150000,43.200000
192.054329,43.180970
191.973223,43.126777
191.919030,43.045671
191.900000,42.950000
191.900000,42.050000
191.919030,41.954329
191.973223,41.873223
192.054329,41.819030
192.150000,41.800000
192.850000,41.800000
192.945671,41.819030
193.026777,41.873223
193.080970,41.954329
193.100000,42.050000
Z" /> 
<path style="fill:#000000; fill-opacity:1.000000; stroke:none;fill-rule:evenodd;"
d="M 182.312500,89.737500
182.294421,89.828387
182.242938,89.905438
182.165887,89.956921
182.075000,89.975000
181.575000,89.975000
181.484113,89.956921
181.407062,89.905438
181.355579,89.828387
181.337500,89.737500
181.337500,89.262500
181.355579,89.171613
181.407062,89.094562
181.484113,89.043079
181.575000,89.025000
182.075000,89.025000
182.165887,89.043079
182.242938,89.094562
182.294421,89.171613
182.312500,89.262500
Z" /> 
<path style="fill:#000000; fill-opacity:1.000000; stroke:none;fill-rule:evenodd;"
d="M 180.487500,89.737500
180.469421,89.828387
180.417938,89.905438
180.340887,89.956921
180.250000,89.975000
179.750000,89.975000
179.659113,89.956921
179.582062,89.905438
179.530579,89.828387
179.512500,89.737500
179.512500,89.262500
179.530579,89.171613
179.582062,89.094562
179.659113,89.043079
179.750000,89.025000
180.250000,89.025000
180.340887,89.043079
180.417938,89.094562
180.469421,89.171613
180.487500,89.262500
Z" /> 
<path style="fill:#000000; fill-opacity:1.000000; stroke:none;fill-rule:evenodd;"
d="M 208.975000,123.650000
208.963582,123.707403
208.931066,123.756066
208.882403,123.788582
208.825000,123.800000
207.175000,123.800000
207.117597,123.788582
207.068934,123.756066
207.036418,123.707403
207.025000,123.650000
207.025000,123.350000
207.036418,123.292597
207.068934,123.243934
207.117597,123.211418
207.175000,123.200000
208.825000,123.200000
208.882403,123.211418
208.931066,123.243934
208.963582,123.292597
208.975000,123.350000
Z" /> 
<path style="fill:#000000; fill-opacity:1.000000; stroke:none;fill-rule:evenodd;"
d="M 208.975000,124.920000
208.963582,124.977403
208.931066,125.026066
208.882403,125.058582
208.825000,125.070000
207.175000,125.070000
207.117597,125.058582
207.068934,125.026066
207.036418,124.977403
207.025000,124.920000
207.025000,124.620000
207.036418,124.562597
207.068934,124.513934
207.117597,124.481418
207.175000,124.470000
208.825000,124.470000
208.882403,124.481418
208.931066,124.513934
208.963582,124.562597
208.975000,124.620000
Z" /> 
<path style="fill:#000000; fill-opacity:1.000000; stroke:none;fill-rule:evenodd;"
d="M 208.975000,126.190000
208.963582,126.247403
208.931066,126.296066
208.882403,126.328582
208.825000,126.340000
207.175000,126.340000
207.117597,126.328582
207.068934,126.296066
207.036418,126.247403
207.025000,126.190000
207.025000,125.890000
207.036418,125.832597
207.068934,125.783934
207.117597,125.751418
207.175000,125.740000
208.825000,125.740000
208.882403,125.751418
208.931066,125.783934
208.963582,125.832597
208.975000,125.890000
Z" /> 
<path style="fill:#000000; fill-opacity:1.000000; stroke:none;fill-rule:evenodd;"
d="M 208.975000,127.460000
208.963582,127.517403
208.931066,127.566066
208.882403,127.598582
208.825000,127.610000
207.175000,127.610000
207.117597,127.598582
207.068934,127.566066
207.036418,127.517403
207.025000,127.460000
207.025000,127.160000
207.036418,127.102597
207.068934,127.053934
207.117597,127.021418
207.175000,127.010000
208.825000,127.010000
208.882403,127.021418
208.931066,127.053934
208.963582,127.102597
208.975000,127.160000
Z" /> 
<path style="fill:#000000; fill-opacity:1.000000; stroke:none;fill-rule:evenodd;"
d="M 208.975000,128.730000
208.963582,128.787403
208.931066,128.836066
208.882403,128.868582
208.825000,128.880000
207.175000,128.880000
207.117597,128.868582
207.068934,128.836066
207.036418,128.787403
207.025000,128.730000
207.025000,128.430000
207.036418,128.372597
207.068934,128.323934
207.117597,128.291418
207.175000,128.280000
208.825000,128.280000
208.882403,128.291418
208.931066,128.323934
208.963582,128.372597
208.975000,128.430000
Z" /> 
<path style="fill:#000000; fill-opacity:1.000000; stroke:none;fill-rule:evenodd;"
d="M 208.975000,130.000000
208.963582,130.057403
208.931066,130.106066
208.882403,130.138582
208.825000,130.150000
207.175000,130.150000
207.117597,130.138582
207.068934,130.106066
207.036418,130.057403
207.025000,130.000000
207.025000,129.700000
207.036418,129.642597
207.068934,129.593934
207.117597,129.561418
207.175000,129.550000
208.825000,129.550000
208.882403,129.561418
208.931066,129.593934
208.963582,129.642597
208.975000,129.700000
Z" /> 
<path style="fill:#000000; fill-opacity:1.000000; stroke:none;fill-rule:evenodd;"
d="M 208.975000,131.270000
208.963582,131.327403
208.931066,131.376066
208.882403,131.408582
208.825000,131.420000
207.175000,131.420000
207.117597,131.408582
207.068934,131.376066
207.036418,131.327403
207.025000,131.270000
207.025000,130.970000
207.036418,130.912597
207.068934,130.863934
207.117597,130.831418
207.175000,130.820000
208.825000,130.820000
208.882403,130.831418
208.931066,130.863934
208.963582,130.912597
208.975000,130.970000
Z" /> 
<path style="fill:#000000; fill-opacity:1.000000; stroke:none;fill-rule:evenodd;"
d="M 204.025000,131.270000
204.013582,131.327403
203.981066,131.376066
203.932403,131.408582
203.875000,131.420000
202.225000,131.420000
202.167597,131.408582
202.118934,131.376066
202.086418,131.327403
202.075000,131.270000
202.075000,130.970000
202.086418,130.912597
202.118934,130.863934
202.167597,130.831418
202.225000,130.820000
203.875000,130.820000
203.932403,130.831418
203.981066,130.863934
204.013582,130.912597
204.025000,130.970000
Z" /> 
<path style="fill:#000000; fill-opacity:1.000000; stroke:none;fill-rule:evenodd;"
d="M 204.025000,130.000000
204.013582,130.057403
203.981066,130.106066
203.932403,130.138582
203.875000,130.150000
202.225000,130.150000
202.167597,130.138582
202.118934,130.106066
202.086418,130.057403
202.075000,130.000000
202.075000,129.700000
202.086418,129.642597
202.118934,129.593934
202.167597,129.561418
202.225000,129.550000
203.875000,129.550000
203.932403,129.561418
203.981066,129.593934
204.013582,129.642597
204.025000,129.700000
Z" /> 
<path style="fill:#000000; fill-opacity:1.000000; stroke:none;fill-rule:evenodd;"
d="M 204.025000,128.730000
204.013582,128.787403
203.981066,128.836066
203.932403,128.868582
203.875000,128.880000
202.225000,128.880000
202.167597,128.868582
202.118934,128.836066
202.086418,128.787403
202.075000,128.730000
202.075000,128.430000
202.086418,128.372597
202.118934,128.323934
202.167597,128.291418
202.225000,128.280000
203.875000,128.280000
203.932403,128.291418
203.981066,128.323934
204.013582,128.372597
204.025000,128.430000
Z" /> 
<path style="fill:#000000; fill-opacity:1.000000; stroke:none;fill-rule:evenodd;"
d="M 204.025000,127.460000
204.013582,127.517403
203.981066,127.566066
203.932403,127.598582
203.875000,127.610000
202.225000,127.610000
202.167597,127.598582
202.118934,127.566066
202.086418,127.517403
202.075000,127.460000
202.075000,127.160000
202.086418,127.102597
202.118934,127.053934
202.167597,127.021418
202.225000,127.010000
203.875000,127.010000
203.932403,127.021418
203.981066,127.053934
204.013582,127.102597
204.025000,127.160000
Z" /> 
<path style="fill:#000000; fill-opacity:1.000000; stroke:none;fill-rule:evenodd;"
d="M 204.025000,126.190000
204.013582,126.247403
203.981066,126.296066
203.932403,126.328582
203.875000,126.340000
202.225000,126.340000
202.167597,126.328582
202.118934,126.296066
202.086418,126.247403
202.075000,126.190000
202.075000,125.890000
202.086418,125.832597
202.118934,125.783934
202.167597,125.751418
202.225000,125.740000
203.875000,125.740000
203.932403,125.751418
203.981066,125.783934
204.013582,125.832597
204.025000,125.890000
Z" /> 
<path style="fill:#000000; fill-opacity:1.000000; stroke:none;fill-rule:evenodd;"
d="M 204.025000,124.920000
204.013582,124.977403
203.981066,125.026066
203.932403,125.058582
203.875000,125.070000
202.225000,125.070000
202.167597,125.058582
202.118934,125.026066
202.086418,124.977403
202.075000,124.920000
202.075000,124.620000
202.086418,124.562597
202.118934,124.513934
202.167597,124.481418
202.225000,124.470000
203.875000,124.470000
203.932403,124.481418
203.981066,124.513934
204.013582,124.562597
204.025000,124.620000
Z" /> 
<path style="fill:#000000; fill-opacity:1.000000; stroke:none;fill-rule:evenodd;"
d="M 204.025000,123.650000
204.013582,123.707403
203.981066,123.756066
203.932403,123.788582
203.875000,123.800000
202.225000,123.800000
202.167597,123.788582
202.118934,123.756066
202.086418,123.707403
202.075000,123.650000
202.075000,123.350000
202.086418,123.292597
202.118934,123.243934
202.167597,123.211418
202.225000,123.200000
203.875000,123.200000
203.932403,123.211418
203.981066,123.243934
204.013582,123.292597
204.025000,123.350000
Z" /> 
<path style="fill:#000000; fill-opacity:1.000000; stroke:none;fill-rule:evenodd;"
d="M 129.737500,155.320000
129.828387,155.338079
129.905438,155.389562
129.956921,155.466613
129.975000,155.557500
129.975000,156.057500
129.956921,156.148387
129.905438,156.225438
129.828387,156.276921
129.737500,156.295000
129.262500,156.295000
129.171613,156.276921
129.094562,156.225438
129.043079,156.148387
129.025000,156.057500
129.025000,155.557500
129.043079,155.466613
129.094562,155.389562
129.171613,155.338079
129.262500,155.320000
Z" /> 
<path style="fill:#000000; fill-opacity:1.000000; stroke:none;fill-rule:evenodd;"
d="M 129.737500,157.145000
129.828387,157.163079
129.905438,157.214562
129.956921,157.291613
129.975000,157.382500
129.975000,157.882500
129.956921,157.973387
129.905438,158.050438
129.828387,158.101921
129.737500,158.120000
129.262500,158.120000
129.171613,158.101921
129.094562,158.050438
129.043079,157.973387
129.025000,157.882500
129.025000,157.382500
129.043079,157.291613
129.094562,157.214562
129.171613,157.163079
129.262500,157.145000
Z" /> 
<path style="fill:#000000; fill-opacity:1.000000; stroke:none;fill-rule:evenodd;"
d="M 109.737500,155.320000
109.828387,155.338079
109.905438,155.389562
109.956921,155.466613
109.975000,155.557500
109.975000,156.057500
109.956921,156.148387
109.905438,156.225438
109.828387,156.276921
109.737500,156.295000
109.262500,156.295000
109.171613,156.276921
109.094562,156.225438
109.043079,156.148387
109.025000,156.057500
109.025000,155.557500
109.043079,155.466613
109.094562,155.389562
109.171613,155.338079
109.262500,155.320000
Z" /> 
<path style="fill:#000000; fill-opacity:1.000000; stroke:none;fill-rule:evenodd;"
d="M 109.737500,157.145000
109.828387,157.163079
109.905438,157.214562
109.956921,157.291613
109.975000,157.382500
109.975000,157.882500
109.956921,157.973387
109.905438,158.050438
109.828387,158.101921
109.737500,158.120000
109.262500,158.120000
109.171613,158.101921
109.094562,158.050438
109.043079,157.973387
109.025000,157.882500
109.025000,157.382500
109.043079,157.291613
109.094562,157.214562
109.171613,157.163079
109.262500,157.145000
Z" /> 
<path style="fill:#000000; fill-opacity:1.000000; stroke:none;fill-rule:evenodd;"
d="M 191.812500,53.012500
191.830579,52.921613
191.882062,52.844562
191.959113,52.793079
192.050000,52.775000
192.650000,52.775000
192.740887,52.793079
192.817938,52.844562
192.869421,52.921613
192.887500,53.012500
192.887500,53.487500
192.869421,53.578387
192.817938,53.655438
192.740887,53.706921
192.650000,53.725000
192.050000,53.725000
191.959113,53.706921
191.882062,53.655438
191.830579,53.578387
191.812500,53.487500
Z" /> 
<path style="fill:#000000; fill-opacity:1.000000; stroke:none;fill-rule:evenodd;"
d="M 193.537500,53.012500
193.555579,52.921613
193.607062,52.844562
193.684113,52.793079
193.775000,52.775000
194.375000,52.775000
194.465887,52.793079
194.542938,52.844562
194.594421,52.921613
194.612500,53.012500
194.612500,53.487500
194.594421,53.578387
194.542938,53.655438
194.465887,53.706921
194.375000,53.725000
193.775000,53.725000
193.684113,53.706921
193.607062,53.655438
193.555579,53.578387
193.537500,53.487500
Z" /> 
<path style="fill:#000000; fill-opacity:1.000000; stroke:none;fill-rule:evenodd;"
d="M 162.487500,67.737500
162.469421,67.828387
162.417938,67.905438
162.340887,67.956921
162.250000,67.975000
161.750000,67.975000
161.659113,67.956921
161.582062,67.905438
161.530579,67.828387
161.512500,67.737500
161.512500,67.262500
161.530579,67.171613
161.582062,67.094562
161.659113,67.043079
161.750000,67.025000
162.250000,67.025000
162.340887,67.043079
162.417938,67.094562
162.469421,67.171613
162.487500,67.262500
Z" /> 
<path style="fill:#000000; fill-opacity:1.000000; stroke:none;fill-rule:evenodd;"
d="M 160.662500,67.737500
160.644421,67.828387
160.592938,67.905438
160.515887,67.956921
160.425000,67.975000
159.925000,67.975000
159.834113,67.956921
159.757062,67.905438
159.705579,67.828387
159.687500,67.737500
159.687500,67.262500
159.705579,67.171613
159.757062,67.094562
159.834113,67.043079
159.925000,67.025000
160.425000,67.025000
160.515887,67.043079
160.592938,67.094562
160.644421,67.171613
160.662500,67.262500
Z" /> 
<path style="fill:#000000; fill-opacity:1.000000; stroke:none;fill-rule:evenodd;"
d="M 190.350000,54.375000
190.332873,54.461104
190.284099,54.534099
190.211104,54.582873
190.125000,54.600000
189.675000,54.600000
189.588896,54.582873
189.515901,54.534099
189.467127,54.461104
189.450000,54.375000
189.450000,53.625000
189.467127,53.538896
189.515901,53.465901
189.588896,53.417127
189.675000,53.400000
190.125000,53.400000
190.211104,53.417127
190.284099,53.465901
190.332873,53.538896
190.350000,53.625000
Z" /> 
<path style="fill:#000000; fill-opacity:1.000000; stroke:none;fill-rule:evenodd;"
d="M 187.050000,54.375000
187.032873,54.461104
186.984099,54.534099
186.911104,54.582873
186.825000,54.600000
186.375000,54.600000
186.288896,54.582873
186.215901,54.534099
186.167127,54.461104
186.150000,54.375000
186.150000,53.625000
186.167127,53.538896
186.215901,53.465901
186.288896,53.417127
186.375000,53.400000
186.825000,53.400000
186.911104,53.417127
186.984099,53.465901
187.032873,53.538896
187.050000,53.625000
Z" /> 
<path style="fill:#000000; fill-opacity:1.000000; stroke:none;fill-rule:evenodd;"
d="M 206.337500,113.825000
206.356530,113.729329
206.410723,113.648223
206.491829,113.594030
206.587500,113.575000
207.262500,113.575000
207.358171,113.594030
207.439277,113.648223
207.493470,113.729329
207.512500,113.825000
207.512500,114.775000
207.493470,114.870671
207.439277,114.951777
207.358171,115.005970
207.262500,115.025000
206.587500,115.025000
206.491829,115.005970
206.410723,114.951777
206.356530,114.870671
206.337500,114.775000
Z" /> 
<path style="fill:#000000; fill-opacity:1.000000; stroke:none;fill-rule:evenodd;"
d="M 208.412500,113.825000
208.431530,113.729329
208.485723,113.648223
208.566829,113.594030
208.662500,113.575000
209.337500,113.575000
209.433171,113.594030
209.514277,113.648223
209.568470,113.729329
209.587500,113.825000
209.587500,114.775000
209.568470,114.870671
209.514277,114.951777
209.433171,115.005970
209.337500,115.025000
208.662500,115.025000
208.566829,115.005970
208.485723,114.951777
208.431530,114.870671
208.412500,114.775000
Z" /> 
<path style="fill:#000000; fill-opacity:1.000000; stroke:none;fill-rule:evenodd;"
d="M 188.512500,45.262500
188.530579,45.171613
188.582062,45.094562
188.659113,45.043079
188.750000,45.025000
189.250000,45.025000
189.340887,45.043079
189.417938,45.094562
189.469421,45.171613
189.487500,45.262500
189.487500,45.737500
189.469421,45.828387
189.417938,45.905438
189.340887,45.956921
189.250000,45.975000
188.750000,45.975000
188.659113,45.956921
188.582062,45.905438
188.530579,45.828387
188.512500,45.737500
Z" /> 
<path style="fill:#000000; fill-opacity:1.000000; stroke:none;fill-rule:evenodd;"
d="M 190.337500,45.262500
190.355579,45.171613
190.407062,45.094562
190.484113,45.043079
190.575000,45.025000
191.075000,45.025000
191.165887,45.043079
191.242938,45.094562
191.294421,45.171613
191.312500,45.262500
191.312500,45.737500
191.294421,45.828387
191.242938,45.905438
191.165887,45.956921
191.075000,45.975000
190.575000,45.975000
190.484113,45.956921
190.407062,45.905438
190.355579,45.828387
190.337500,45.737500
Z" /> 
<path style="fill:#000000; fill-opacity:1.000000; stroke:none;fill-rule:evenodd;"
d="M 195.826500,106.142000
195.807470,106.237671
195.753277,106.318777
195.672171,106.372970
195.576500,106.392000
195.076500,106.392000
194.980829,106.372970
194.899723,106.318777
194.845530,106.237671
194.826500,106.142000
194.826500,104.642000
194.845530,104.546329
194.899723,104.465223
194.980829,104.411030
195.076500,104.392000
195.576500,104.392000
195.672171,104.411030
195.753277,104.465223
195.807470,104.546329
195.826500,104.642000
Z" /> 
<path style="fill:#000000; fill-opacity:1.000000; stroke:none;fill-rule:evenodd;"
d="M 206.312500,110.662500
206.330579,110.571613
206.382062,110.494562
206.459113,110.443079
206.550000,110.425000
207.050000,110.425000
207.140887,110.443079
207.217938,110.494562
207.269421,110.571613
207.287500,110.662500
207.287500,111.137500
207.269421,111.228387
207.217938,111.305438
207.140887,111.356921
207.050000,111.375000
206.550000,111.375000
206.459113,111.356921
206.382062,111.305438
206.330579,111.228387
206.312500,111.137500
Z" /> 
<path style="fill:#000000; fill-opacity:1.000000; stroke:none;fill-rule:evenodd;"
d="M 208.137500,110.662500
208.155579,110.571613
208.207062,110.494562
208.284113,110.443079
208.375000,110.425000
208.875000,110.425000
208.965887,110.443079
209.042938,110.494562
209.094421,110.571613
209.112500,110.662500
209.112500,111.137500
209.094421,111.228387
209.042938,111.305438
208.965887,111.356921
208.875000,111.375000
208.375000,111.375000
208.284113,111.356921
208.207062,111.305438
208.155579,111.228387
208.137500,111.137500
Z" /> 
<path style="fill:#000000; fill-opacity:1.000000; stroke:none;fill-rule:evenodd;"
d="M 188.750000,106.250000
188.730970,106.345671
188.676777,106.426777
188.595671,106.480970
188.500000,106.500000
188.000000,106.500000
187.904329,106.480970
187.823223,106.426777
187.769030,106.345671
187.750000,106.250000
187.750000,104.750000
187.769030,104.654329
187.823223,104.573223
187.904329,104.519030
188.000000,104.500000
188.500000,104.500000
188.595671,104.519030
188.676777,104.573223
188.730970,104.654329
188.750000,104.750000
Z" /> 
<path style="fill:#000000; fill-opacity:1.000000; stroke:none;fill-rule:evenodd;"
d="M 182.312500,92.737500
182.294421,92.828387
182.242938,92.905438
182.165887,92.956921
182.075000,92.975000
181.575000,92.975000
181.484113,92.956921
181.407062,92.905438
181.355579,92.828387
181.337500,92.737500
181.337500,92.262500
181.355579,92.171613
181.407062,92.094562
181.484113,92.043079
181.575000,92.025000
182.075000,92.025000
182.165887,92.043079
182.242938,92.094562
182.294421,92.171613
182.312500,92.262500
Z" /> 
<path style="fill:#000000; fill-opacity:1.000000; stroke:none;fill-rule:evenodd;"
d="M 180.487500,92.737500
180.469421,92.828387
180.417938,92.905438
180.340887,92.956921
180.250000,92.975000
179.750000,92.975000
179.659113,92.956921
179.582062,92.905438
179.530579,92.828387
179.512500,92.737500
179.512500,92.262500
179.530579,92.171613
179.582062,92.094562
179.659113,92.043079
179.750000,92.025000
180.250000,92.025000
180.340887,92.043079
180.417938,92.094562
180.469421,92.171613
180.487500,92.262500
Z" /> 
<path style="fill:#000000; fill-opacity:1.000000; stroke:none;fill-rule:evenodd;"
d="M 182.312500,91.237500
182.294421,91.328387
182.242938,91.405438
182.165887,91.456921
182.075000,91.475000
181.575000,91.475000
181.484113,91.456921
181.407062,91.405438
181.355579,91.328387
181.337500,91.237500
181.337500,90.762500
181.355579,90.671613
181.407062,90.594562
181.484113,90.543079
181.575000,90.525000
182.075000,90.525000
182.165887,90.543079
182.242938,90.594562
182.294421,90.671613
182.312500,90.762500
Z" /> 
<path style="fill:#000000; fill-opacity:1.000000; stroke:none;fill-rule:evenodd;"
d="M 180.487500,91.237500
180.469421,91.328387
180.417938,91.405438
180.340887,91.456921
180.250000,91.475000
179.750000,91.475000
179.659113,91.456921
179.582062,91.405438
179.530579,91.328387
179.512500,91.237500
179.512500,90.762500
179.530579,90.671613
179.582062,90.594562
179.659113,90.543079
179.750000,90.525000
180.250000,90.525000
180.340887,90.543079
180.417938,90.594562
180.469421,90.671613
180.487500,90.762500
Z" /> 
<path style="fill:#000000; fill-opacity:1.000000; stroke:none;fill-rule:evenodd;"
d="M 195.100000,46.950000
195.080970,47.045671
195.026777,47.126777
194.945671,47.180970
194.850000,47.200000
194.150000,47.200000
194.054329,47.180970
193.973223,47.126777
193.919030,47.045671
193.900000,46.950000
193.900000,46.050000
193.919030,45.954329
193.973223,45.873223
194.054329,45.819030
194.150000,45.800000
194.850000,45.800000
194.945671,45.819030
195.026777,45.873223
195.080970,45.954329
195.100000,46.050000
Z" /> 
<path style="fill:#000000; fill-opacity:1.000000; stroke:none;fill-rule:evenodd;"
d="M 193.100000,46.950000
193.080970,47.045671
193.026777,47.126777
192.945671,47.180970
192.850000,47.200000
192.150000,47.200000
192.054329,47.180970
191.973223,47.126777
191.919030,47.045671
191.900000,46.950000
191.900000,46.050000
191.919030,45.954329
191.973223,45.873223
192.054329,45.819030
192.150000,45.800000
192.850000,45.800000
192.945671,45.819030
193.026777,45.873223
193.080970,45.954329
193.100000,46.050000
Z" /> 
<path style="fill:#000000; fill-opacity:1.000000; stroke:none;fill-rule:evenodd;"
d="M 198.712500,126.762500
198.730579,126.671613
198.782062,126.594562
198.859113,126.543079
198.950000,126.525000
199.550000,126.525000
199.640887,126.543079
199.717938,126.594562
199.769421,126.671613
199.787500,126.762500
199.787500,127.237500
199.769421,127.328387
199.717938,127.405438
199.640887,127.456921
199.550000,127.475000
198.950000,127.475000
198.859113,127.456921
198.782062,127.405438
198.730579,127.328387
198.712500,127.237500
Z" /> 
<path style="fill:#000000; fill-opacity:1.000000; stroke:none;fill-rule:evenodd;"
d="M 200.437500,126.762500
200.455579,126.671613
200.507062,126.594562
200.584113,126.543079
200.675000,126.525000
201.275000,126.525000
201.365887,126.543079
201.442938,126.594562
201.494421,126.671613
201.512500,126.762500
201.512500,127.237500
201.494421,127.328387
201.442938,127.405438
201.365887,127.456921
201.275000,127.475000
200.675000,127.475000
200.584113,127.456921
200.507062,127.405438
200.455579,127.328387
200.437500,127.237500
Z" /> 
<path style="fill:#000000; fill-opacity:1.000000; stroke:none;fill-rule:evenodd;"
d="M 188.512500,46.762500
188.530579,46.671613
188.582062,46.594562
188.659113,46.543079
188.750000,46.525000
189.250000,46.525000
189.340887,46.543079
189.417938,46.594562
189.469421,46.671613
189.487500,46.762500
189.487500,47.237500
189.469421,47.328387
189.417938,47.405438
189.340887,47.456921
189.250000,47.475000
188.750000,47.475000
188.659113,47.456921
188.582062,47.405438
188.530579,47.328387
188.512500,47.237500
Z" /> 
<path style="fill:#000000; fill-opacity:1.000000; stroke:none;fill-rule:evenodd;"
d="M 190.337500,46.762500
190.355579,46.671613
190.407062,46.594562
190.484113,46.543079
190.575000,46.525000
191.075000,46.525000
191.165887,46.543079
191.242938,46.594562
191.294421,46.671613
191.312500,46.762500
191.312500,47.237500
191.294421,47.328387
191.242938,47.405438
191.165887,47.456921
191.075000,47.475000
190.575000,47.475000
190.484113,47.456921
190.407062,47.405438
190.355579,47.328387
190.337500,47.237500
Z" /> 
<path style="fill:#000000; fill-opacity:1.000000; stroke:none;fill-rule:evenodd;"
d="M 191.862500,50.012500
191.880579,49.921613
191.932062,49.844562
192.009113,49.793079
192.100000,49.775000
192.600000,49.775000
192.690887,49.793079
192.767938,49.844562
192.819421,49.921613
192.837500,50.012500
192.837500,50.487500
192.819421,50.578387
192.767938,50.655438
192.690887,50.706921
192.600000,50.725000
192.100000,50.725000
192.009113,50.706921
191.932062,50.655438
191.880579,50.578387
191.862500,50.487500
Z" /> 
<path style="fill:#000000; fill-opacity:1.000000; stroke:none;fill-rule:evenodd;"
d="M 193.687500,50.012500
193.705579,49.921613
193.757062,49.844562
193.834113,49.793079
193.925000,49.775000
194.425000,49.775000
194.515887,49.793079
194.592938,49.844562
194.644421,49.921613
194.662500,50.012500
194.662500,50.487500
194.644421,50.578387
194.592938,50.655438
194.515887,50.706921
194.425000,50.725000
193.925000,50.725000
193.834113,50.706921
193.757062,50.655438
193.705579,50.578387
193.687500,50.487500
Z" /> 
<path style="fill:#000000; fill-opacity:1.000000; stroke:none;fill-rule:evenodd;"
d="M 198.186500,106.142000
198.167470,106.237671
198.113277,106.318777
198.032171,106.372970
197.936500,106.392000
197.436500,106.392000
197.340829,106.372970
197.259723,106.318777
197.205530,106.237671
197.186500,106.142000
197.186500,104.642000
197.205530,104.546329
197.259723,104.465223
197.340829,104.411030
197.436500,104.392000
197.936500,104.392000
198.032171,104.411030
198.113277,104.465223
198.167470,104.546329
198.186500,104.642000
Z" /> 
<path style="fill:#000000; fill-opacity:1.000000; stroke:none;fill-rule:evenodd;"
d="M 189.952500,69.537500
189.861613,69.519421
189.784562,69.467938
189.733079,69.390887
189.715000,69.300000
189.715000,68.700000
189.733079,68.609113
189.784562,68.532062
189.861613,68.480579
189.952500,68.462500
190.427500,68.462500
190.518387,68.480579
190.595438,68.532062
190.646921,68.609113
190.665000,68.700000
190.665000,69.300000
190.646921,69.390887
190.595438,69.467938
190.518387,69.519421
190.427500,69.537500
Z" /> 
<path style="fill:#000000; fill-opacity:1.000000; stroke:none;fill-rule:evenodd;"
d="M 189.952500,67.812500
189.861613,67.794421
189.784562,67.742938
189.733079,67.665887
189.715000,67.575000
189.715000,66.975000
189.733079,66.884113
189.784562,66.807062
189.861613,66.755579
189.952500,66.737500
190.427500,66.737500
190.518387,66.755579
190.595438,66.807062
190.646921,66.884113
190.665000,66.975000
190.665000,67.575000
190.646921,67.665887
190.595438,67.742938
190.518387,67.794421
190.427500,67.812500
Z" /> 
<path style="fill:#000000; fill-opacity:1.000000; stroke:none;fill-rule:evenodd;"
d="M 119.737500,155.320000
119.828387,155.338079
119.905438,155.389562
119.956921,155.466613
119.975000,155.557500
119.975000,156.057500
119.956921,156.148387
119.905438,156.225438
119.828387,156.276921
119.737500,156.295000
119.262500,156.295000
119.171613,156.276921
119.094562,156.225438
119.043079,156.148387
119.025000,156.057500
119.025000,155.557500
119.043079,155.466613
119.094562,155.389562
119.171613,155.338079
119.262500,155.320000
Z" /> 
<path style="fill:#000000; fill-opacity:1.000000; stroke:none;fill-rule:evenodd;"
d="M 119.737500,157.145000
119.828387,157.163079
119.905438,157.214562
119.956921,157.291613
119.975000,157.382500
119.975000,157.882500
119.956921,157.973387
119.905438,158.050438
119.828387,158.101921
119.737500,158.120000
119.262500,158.120000
119.171613,158.101921
119.094562,158.050438
119.043079,157.973387
119.025000,157.882500
119.025000,157.382500
119.043079,157.291613
119.094562,157.214562
119.171613,157.163079
119.262500,157.145000
Z" /> 
<path style="fill:#000000; fill-opacity:1.000000; stroke:none;fill-rule:evenodd;"
d="M 187.987500,63.262500
188.005579,63.171613
188.057062,63.094562
188.134113,63.043079
188.225000,63.025000
188.825000,63.025000
188.915887,63.043079
188.992938,63.094562
189.044421,63.171613
189.062500,63.262500
189.062500,63.737500
189.044421,63.828387
188.992938,63.905438
188.915887,63.956921
188.825000,63.975000
188.225000,63.975000
188.134113,63.956921
188.057062,63.905438
188.005579,63.828387
187.987500,63.737500
Z" /> 
<path style="fill:#000000; fill-opacity:1.000000; stroke:none;fill-rule:evenodd;"
d="M 189.712500,63.262500
189.730579,63.171613
189.782062,63.094562
189.859113,63.043079
189.950000,63.025000
190.550000,63.025000
190.640887,63.043079
190.717938,63.094562
190.769421,63.171613
190.787500,63.262500
190.787500,63.737500
190.769421,63.828387
190.717938,63.905438
190.640887,63.956921
190.550000,63.975000
189.950000,63.975000
189.859113,63.956921
189.782062,63.905438
189.730579,63.828387
189.712500,63.737500
Z" /> 
<path style="fill:#000000; fill-opacity:1.000000; stroke:none;fill-rule:evenodd;"
d="M 211.987500,129.187500
212.078387,129.205579
212.155438,129.257062
212.206921,129.334113
212.225000,129.425000
212.225000,129.925000
212.206921,130.015887
212.155438,130.092938
212.078387,130.144421
211.987500,130.162500
211.512500,130.162500
211.421613,130.144421
211.344562,130.092938
211.293079,130.015887
211.275000,129.925000
211.275000,129.425000
211.293079,129.334113
211.344562,129.257062
211.421613,129.205579
211.512500,129.187500
Z" /> 
<path style="fill:#000000; fill-opacity:1.000000; stroke:none;fill-rule:evenodd;"
d="M 211.987500,131.012500
212.078387,131.030579
212.155438,131.082062
212.206921,131.159113
212.225000,131.250000
212.225000,131.750000
212.206921,131.840887
212.155438,131.917938
212.078387,131.969421
211.987500,131.987500
211.512500,131.987500
211.421613,131.969421
211.344562,131.917938
211.293079,131.840887
211.275000,131.750000
211.275000,131.250000
211.293079,131.159113
211.344562,131.082062
211.421613,131.030579
211.512500,131.012500
Z" /> 
<path style="fill:#000000; fill-opacity:1.000000; stroke:none;fill-rule:evenodd;"
d="M 188.850000,48.262500
188.907403,48.273918
188.956066,48.306434
188.988582,48.355097
189.000000,48.412500
189.000000,49.587500
188.988582,49.644903
188.956066,49.693566
188.907403,49.726082
188.850000,49.737500
188.550000,49.737500
188.492597,49.726082
188.443934,49.693566
188.411418,49.644903
188.400000,49.587500
188.400000,48.412500
188.411418,48.355097
188.443934,48.306434
188.492597,48.273918
188.550000,48.262500
Z" /> 
<path style="fill:#000000; fill-opacity:1.000000; stroke:none;fill-rule:evenodd;"
d="M 190.750000,48.262500
190.807403,48.273918
190.856066,48.306434
190.888582,48.355097
190.900000,48.412500
190.900000,49.587500
190.888582,49.644903
190.856066,49.693566
190.807403,49.726082
190.750000,49.737500
190.450000,49.737500
190.392597,49.726082
190.343934,49.693566
190.311418,49.644903
190.300000,49.587500
190.300000,48.412500
190.311418,48.355097
190.343934,48.306434
190.392597,48.273918
190.450000,48.262500
Z" /> 
<path style="fill:#000000; fill-opacity:1.000000; stroke:none;fill-rule:evenodd;"
d="M 189.800000,50.137500
189.857403,50.148918
189.906066,50.181434
189.938582,50.230097
189.950000,50.287500
189.950000,51.462500
189.938582,51.519903
189.906066,51.568566
189.857403,51.601082
189.800000,51.612500
189.500000,51.612500
189.442597,51.601082
189.393934,51.568566
189.361418,51.519903
189.350000,51.462500
189.350000,50.287500
189.361418,50.230097
189.393934,50.181434
189.442597,50.148918
189.500000,50.137500
Z" /> 
<path style="fill:#000000; fill-opacity:1.000000; stroke:none;fill-rule:evenodd;"
d="M 210.012500,131.987500
209.921613,131.969421
209.844562,131.917938
209.793079,131.840887
209.775000,131.750000
209.775000,131.250000
209.793079,131.159113
209.844562,131.082062
209.921613,131.030579
210.012500,131.012500
210.487500,131.012500
210.578387,131.030579
210.655438,131.082062
210.706921,131.159113
210.725000,131.250000
210.725000,131.750000
210.706921,131.840887
210.655438,131.917938
210.578387,131.969421
210.487500,131.987500
Z" /> 
<path style="fill:#000000; fill-opacity:1.000000; stroke:none;fill-rule:evenodd;"
d="M 210.012500,130.162500
209.921613,130.144421
209.844562,130.092938
209.793079,130.015887
209.775000,129.925000
209.775000,129.425000
209.793079,129.334113
209.844562,129.257062
209.921613,129.205579
210.012500,129.187500
210.487500,129.187500
210.578387,129.205579
210.655438,129.257062
210.706921,129.334113
210.725000,129.425000
210.725000,129.925000
210.706921,130.015887
210.655438,130.092938
210.578387,130.144421
210.487500,130.162500
Z" /> 
<path style="fill:#000000; fill-opacity:1.000000; stroke:none;fill-rule:evenodd;"
d="M 192.030000,70.575000
192.087403,70.586418
192.136066,70.618934
192.168582,70.667597
192.180000,70.725000
192.180000,72.375000
192.168582,72.432403
192.136066,72.481066
192.087403,72.513582
192.030000,72.525000
191.730000,72.525000
191.672597,72.513582
191.623934,72.481066
191.591418,72.432403
191.580000,72.375000
191.580000,70.725000
191.591418,70.667597
191.623934,70.618934
191.672597,70.586418
191.730000,70.575000
Z" /> 
<path style="fill:#000000; fill-opacity:1.000000; stroke:none;fill-rule:evenodd;"
d="M 193.300000,70.575000
193.357403,70.586418
193.406066,70.618934
193.438582,70.667597
193.450000,70.725000
193.450000,72.375000
193.438582,72.432403
193.406066,72.481066
193.357403,72.513582
193.300000,72.525000
193.000000,72.525000
192.942597,72.513582
192.893934,72.481066
192.861418,72.432403
192.850000,72.375000
192.850000,70.725000
192.861418,70.667597
192.893934,70.618934
192.942597,70.586418
193.000000,70.575000
Z" /> 
<path style="fill:#000000; fill-opacity:1.000000; stroke:none;fill-rule:evenodd;"
d="M 194.570000,70.575000
194.627403,70.586418
194.676066,70.618934
194.708582,70.667597
194.720000,70.725000
194.720000,72.375000
194.708582,72.432403
194.676066,72.481066
194.627403,72.513582
194.570000,72.525000
194.270000,72.525000
194.212597,72.513582
194.163934,72.481066
194.131418,72.432403
194.120000,72.375000
194.120000,70.725000
194.131418,70.667597
194.163934,70.618934
194.212597,70.586418
194.270000,70.575000
Z" /> 
<path style="fill:#000000; fill-opacity:1.000000; stroke:none;fill-rule:evenodd;"
d="M 195.840000,70.575000
195.897403,70.586418
195.946066,70.618934
195.978582,70.667597
195.990000,70.725000
195.990000,72.375000
195.978582,72.432403
195.946066,72.481066
195.897403,72.513582
195.840000,72.525000
195.540000,72.525000
195.482597,72.513582
195.433934,72.481066
195.401418,72.432403
195.390000,72.375000
195.390000,70.725000
195.401418,70.667597
195.433934,70.618934
195.482597,70.586418
195.540000,70.575000
Z" /> 
<path style="fill:#000000; fill-opacity:1.000000; stroke:none;fill-rule:evenodd;"
d="M 197.110000,70.575000
197.167403,70.586418
197.216066,70.618934
197.248582,70.667597
197.260000,70.725000
197.260000,72.375000
197.248582,72.432403
197.216066,72.481066
197.167403,72.513582
197.110000,72.525000
196.810000,72.525000
196.752597,72.513582
196.703934,72.481066
196.671418,72.432403
196.660000,72.375000
196.660000,70.725000
196.671418,70.667597
196.703934,70.618934
196.752597,70.586418
196.810000,70.575000
Z" /> 
<path style="fill:#000000; fill-opacity:1.000000; stroke:none;fill-rule:evenodd;"
d="M 198.380000,70.575000
198.437403,70.586418
198.486066,70.618934
198.518582,70.667597
198.530000,70.725000
198.530000,72.375000
198.518582,72.432403
198.486066,72.481066
198.437403,72.513582
198.380000,72.525000
198.080000,72.525000
198.022597,72.513582
197.973934,72.481066
197.941418,72.432403
197.930000,72.375000
197.930000,70.725000
197.941418,70.667597
197.973934,70.618934
198.022597,70.586418
198.080000,70.575000
Z" /> 
<path style="fill:#000000; fill-opacity:1.000000; stroke:none;fill-rule:evenodd;"
d="M 199.650000,70.575000
199.707403,70.586418
199.756066,70.618934
199.788582,70.667597
199.800000,70.725000
199.800000,72.375000
199.788582,72.432403
199.756066,72.481066
199.707403,72.513582
199.650000,72.525000
199.350000,72.525000
199.292597,72.513582
199.243934,72.481066
199.211418,72.432403
199.200000,72.375000
199.200000,70.725000
199.211418,70.667597
199.243934,70.618934
199.292597,70.586418
199.350000,70.575000
Z" /> 
<path style="fill:#000000; fill-opacity:1.000000; stroke:none;fill-rule:evenodd;"
d="M 199.650000,75.525000
199.707403,75.536418
199.756066,75.568934
199.788582,75.617597
199.800000,75.675000
199.800000,77.325000
199.788582,77.382403
199.756066,77.431066
199.707403,77.463582
199.650000,77.475000
199.350000,77.475000
199.292597,77.463582
199.243934,77.431066
199.211418,77.382403
199.200000,77.325000
199.200000,75.675000
199.211418,75.617597
199.243934,75.568934
199.292597,75.536418
199.350000,75.525000
Z" /> 
<path style="fill:#000000; fill-opacity:1.000000; stroke:none;fill-rule:evenodd;"
d="M 198.380000,75.525000
198.437403,75.536418
198.486066,75.568934
198.518582,75.617597
198.530000,75.675000
198.530000,77.325000
198.518582,77.382403
198.486066,77.431066
198.437403,77.463582
198.380000,77.475000
198.080000,77.475000
198.022597,77.463582
197.973934,77.431066
197.941418,77.382403
197.930000,77.325000
197.930000,75.675000
197.941418,75.617597
197.973934,75.568934
198.022597,75.536418
198.080000,75.525000
Z" /> 
<path style="fill:#000000; fill-opacity:1.000000; stroke:none;fill-rule:evenodd;"
d="M 197.110000,75.525000
197.167403,75.536418
197.216066,75.568934
197.248582,75.617597
197.260000,75.675000
197.260000,77.325000
197.248582,77.382403
197.216066,77.431066
197.167403,77.463582
197.110000,77.475000
196.810000,77.475000
196.752597,77.463582
196.703934,77.431066
196.671418,77.382403
196.660000,77.325000
196.660000,75.675000
196.671418,75.617597
196.703934,75.568934
196.752597,75.536418
196.810000,75.525000
Z" /> 
<path style="fill:#000000; fill-opacity:1.000000; stroke:none;fill-rule:evenodd;"
d="M 195.840000,75.525000
195.897403,75.536418
195.946066,75.568934
195.978582,75.617597
195.990000,75.675000
195.990000,77.325000
195.978582,77.382403
195.946066,77.431066
195.897403,77.463582
195.840000,77.475000
195.540000,77.475000
195.482597,77.463582
195.433934,77.431066
195.401418,77.382403
195.390000,77.325000
195.390000,75.675000
195.401418,75.617597
195.433934,75.568934
195.482597,75.536418
195.540000,75.525000
Z" /> 
<path style="fill:#000000; fill-opacity:1.000000; stroke:none;fill-rule:evenodd;"
d="M 194.570000,75.525000
194.627403,75.536418
194.676066,75.568934
194.708582,75.617597
194.720000,75.675000
194.720000,77.325000
194.708582,77.382403
194.676066,77.431066
194.627403,77.463582
194.570000,77.475000
194.270000,77.475000
194.212597,77.463582
194.163934,77.431066
194.131418,77.382403
194.120000,77.325000
194.120000,75.675000
194.131418,75.617597
194.163934,75.568934
194.212597,75.536418
194.270000,75.525000
Z" /> 
<path style="fill:#000000; fill-opacity:1.000000; stroke:none;fill-rule:evenodd;"
d="M 193.300000,75.525000
193.357403,75.536418
193.406066,75.568934
193.438582,75.617597
193.450000,75.675000
193.450000,77.325000
193.438582,77.382403
193.406066,77.431066
193.357403,77.463582
193.300000,77.475000
193.000000,77.475000
192.942597,77.463582
192.893934,77.431066
192.861418,77.382403
192.850000,77.325000
192.850000,75.675000
192.861418,75.617597
192.893934,75.568934
192.942597,75.536418
193.000000,75.525000
Z" /> 
<path style="fill:#000000; fill-opacity:1.000000; stroke:none;fill-rule:evenodd;"
d="M 192.030000,75.525000
192.087403,75.536418
192.136066,75.568934
192.168582,75.617597
192.180000,75.675000
192.180000,77.325000
192.168582,77.382403
192.136066,77.431066
192.087403,77.463582
192.030000,77.475000
191.730000,77.475000
191.672597,77.463582
191.623934,77.431066
191.591418,77.382403
191.580000,77.325000
191.580000,75.675000
191.591418,75.617597
191.623934,75.568934
191.672597,75.536418
191.730000,75.525000
Z" /> 
<path style="fill:#000000; fill-opacity:1.000000; stroke:none;fill-rule:evenodd;"
d="M 191.106500,106.142000
191.087470,106.237671
191.033277,106.318777
190.952171,106.372970
190.856500,106.392000
190.356500,106.392000
190.260829,106.372970
190.179723,106.318777
190.125530,106.237671
190.106500,106.142000
190.106500,104.642000
190.125530,104.546329
190.179723,104.465223
190.260829,104.411030
190.356500,104.392000
190.856500,104.392000
190.952171,104.411030
191.033277,104.465223
191.087470,104.546329
191.106500,104.642000
Z" /> 
<path style="fill:#000000; fill-opacity:1.000000; stroke:none;fill-rule:evenodd;"
d="M 191.702500,67.287500
191.720579,67.196613
191.772062,67.119562
191.849113,67.068079
191.940000,67.050000
192.440000,67.050000
192.530887,67.068079
192.607938,67.119562
192.659421,67.196613
192.677500,67.287500
192.677500,67.762500
192.659421,67.853387
192.607938,67.930438
192.530887,67.981921
192.440000,68.000000
191.940000,68.000000
191.849113,67.981921
191.772062,67.930438
191.720579,67.853387
191.702500,67.762500
Z" /> 
<path style="fill:#000000; fill-opacity:1.000000; stroke:none;fill-rule:evenodd;"
d="M 193.527500,67.287500
193.545579,67.196613
193.597062,67.119562
193.674113,67.068079
193.765000,67.050000
194.265000,67.050000
194.355887,67.068079
194.432938,67.119562
194.484421,67.196613
194.502500,67.287500
194.502500,67.762500
194.484421,67.853387
194.432938,67.930438
194.355887,67.981921
194.265000,68.000000
193.765000,68.000000
193.674113,67.981921
193.597062,67.930438
193.545579,67.853387
193.527500,67.762500
Z" /> 
<path style="fill:#000000; fill-opacity:1.000000; stroke:none;fill-rule:evenodd;"
d="M 158.987500,84.237500
158.969421,84.328387
158.917938,84.405438
158.840887,84.456921
158.750000,84.475000
158.250000,84.475000
158.159113,84.456921
158.082062,84.405438
158.030579,84.328387
158.012500,84.237500
158.012500,83.762500
158.030579,83.671613
158.082062,83.594562
158.159113,83.543079
158.250000,83.525000
158.750000,83.525000
158.840887,83.543079
158.917938,83.594562
158.969421,83.671613
158.987500,83.762500
Z" /> 
<path style="fill:#000000; fill-opacity:1.000000; stroke:none;fill-rule:evenodd;"
d="M 157.162500,84.237500
157.144421,84.328387
157.092938,84.405438
157.015887,84.456921
156.925000,84.475000
156.425000,84.475000
156.334113,84.456921
156.257062,84.405438
156.205579,84.328387
156.187500,84.237500
156.187500,83.762500
156.205579,83.671613
156.257062,83.594562
156.334113,83.543079
156.425000,83.525000
156.925000,83.525000
157.015887,83.543079
157.092938,83.594562
157.144421,83.671613
157.162500,83.762500
Z" /> 
<path style="fill:#000000; fill-opacity:1.000000; stroke:none;fill-rule:evenodd;"
d="M 162.487500,69.237500
162.469421,69.328387
162.417938,69.405438
162.340887,69.456921
162.250000,69.475000
161.750000,69.475000
161.659113,69.456921
161.582062,69.405438
161.530579,69.328387
161.512500,69.237500
161.512500,68.762500
161.530579,68.671613
161.582062,68.594562
161.659113,68.543079
161.750000,68.525000
162.250000,68.525000
162.340887,68.543079
162.417938,68.594562
162.469421,68.671613
162.487500,68.762500
Z" /> 
<path style="fill:#000000; fill-opacity:1.000000; stroke:none;fill-rule:evenodd;"
d="M 160.662500,69.237500
160.644421,69.328387
160.592938,69.405438
160.515887,69.456921
160.425000,69.475000
159.925000,69.475000
159.834113,69.456921
159.757062,69.405438
159.705579,69.328387
159.687500,69.237500
159.687500,68.762500
159.705579,68.671613
159.757062,68.594562
159.834113,68.543079
159.925000,68.525000
160.425000,68.525000
160.515887,68.543079
160.592938,68.594562
160.644421,68.671613
160.662500,68.762500
Z" /> 
<path style="fill:#000000; fill-opacity:1.000000; stroke:none;fill-rule:evenodd;"
d="M 200.415000,69.500000
200.395970,69.595671
200.341777,69.676777
200.260671,69.730970
200.165000,69.750000
199.490000,69.750000
199.394329,69.730970
199.313223,69.676777
199.259030,69.595671
199.240000,69.500000
199.240000,68.550000
199.259030,68.454329
199.313223,68.373223
199.394329,68.319030
199.490000,68.300000
200.165000,68.300000
200.260671,68.319030
200.341777,68.373223
200.395970,68.454329
200.415000,68.550000
Z" /> 
<path style="fill:#000000; fill-opacity:1.000000; stroke:none;fill-rule:evenodd;"
d="M 198.340000,69.500000
198.320970,69.595671
198.266777,69.676777
198.185671,69.730970
198.090000,69.750000
197.415000,69.750000
197.319329,69.730970
197.238223,69.676777
197.184030,69.595671
197.165000,69.500000
197.165000,68.550000
197.184030,68.454329
197.238223,68.373223
197.319329,68.319030
197.415000,68.300000
198.090000,68.300000
198.185671,68.319030
198.266777,68.373223
198.320970,68.454329
198.340000,68.550000
Z" /> 
<path style="fill:#000000; fill-opacity:1.000000; stroke:none;fill-rule:evenodd;"
d="M 199.262500,132.487500
199.171613,132.469421
199.094562,132.417938
199.043079,132.340887
199.025000,132.250000
199.025000,131.750000
199.043079,131.659113
199.094562,131.582062
199.171613,131.530579
199.262500,131.512500
199.737500,131.512500
199.828387,131.530579
199.905438,131.582062
199.956921,131.659113
199.975000,131.750000
199.975000,132.250000
199.956921,132.340887
199.905438,132.417938
199.828387,132.469421
199.737500,132.487500
Z" /> 
<path style="fill:#000000; fill-opacity:1.000000; stroke:none;fill-rule:evenodd;"
d="M 199.262500,130.662500
199.171613,130.644421
199.094562,130.592938
199.043079,130.515887
199.025000,130.425000
199.025000,129.925000
199.043079,129.834113
199.094562,129.757062
199.171613,129.705579
199.262500,129.687500
199.737500,129.687500
199.828387,129.705579
199.905438,129.757062
199.956921,129.834113
199.975000,129.925000
199.975000,130.425000
199.956921,130.515887
199.905438,130.592938
199.828387,130.644421
199.737500,130.662500
Z" /> 
<path style="fill:#000000; fill-opacity:1.000000; stroke:none;fill-rule:evenodd;"
d="M 185.350000,48.262500
185.407403,48.273918
185.456066,48.306434
185.488582,48.355097
185.500000,48.412500
185.500000,49.587500
185.488582,49.644903
185.456066,49.693566
185.407403,49.726082
185.350000,49.737500
185.050000,49.737500
184.992597,49.726082
184.943934,49.693566
184.911418,49.644903
184.900000,49.587500
184.900000,48.412500
184.911418,48.355097
184.943934,48.306434
184.992597,48.273918
185.050000,48.262500
Z" /> 
<path style="fill:#000000; fill-opacity:1.000000; stroke:none;fill-rule:evenodd;"
d="M 187.250000,48.262500
187.307403,48.273918
187.356066,48.306434
187.388582,48.355097
187.400000,48.412500
187.400000,49.587500
187.388582,49.644903
187.356066,49.693566
187.307403,49.726082
187.250000,49.737500
186.950000,49.737500
186.892597,49.726082
186.843934,49.693566
186.811418,49.644903
186.800000,49.587500
186.800000,48.412500
186.811418,48.355097
186.843934,48.306434
186.892597,48.273918
186.950000,48.262500
Z" /> 
<path style="fill:#000000; fill-opacity:1.000000; stroke:none;fill-rule:evenodd;"
d="M 186.300000,50.137500
186.357403,50.148918
186.406066,50.181434
186.438582,50.230097
186.450000,50.287500
186.450000,51.462500
186.438582,51.519903
186.406066,51.568566
186.357403,51.601082
186.300000,51.612500
186.000000,51.612500
185.942597,51.601082
185.893934,51.568566
185.861418,51.519903
185.850000,51.462500
185.850000,50.287500
185.861418,50.230097
185.893934,50.181434
185.942597,50.148918
186.000000,50.137500
Z" /> 
<path style="fill:#000000; fill-opacity:1.000000; stroke:none;fill-rule:evenodd;"
d="M 188.512500,43.762500
188.530579,43.671613
188.582062,43.594562
188.659113,43.543079
188.750000,43.525000
189.250000,43.525000
189.340887,43.543079
189.417938,43.594562
189.469421,43.671613
189.487500,43.762500
189.487500,44.237500
189.469421,44.328387
189.417938,44.405438
189.340887,44.456921
189.250000,44.475000
188.750000,44.475000
188.659113,44.456921
188.582062,44.405438
188.530579,44.328387
188.512500,44.237500
Z" /> 
<path style="fill:#000000; fill-opacity:1.000000; stroke:none;fill-rule:evenodd;"
d="M 190.337500,43.762500
190.355579,43.671613
190.407062,43.594562
190.484113,43.543079
190.575000,43.525000
191.075000,43.525000
191.165887,43.543079
191.242938,43.594562
191.294421,43.671613
191.312500,43.762500
191.312500,44.237500
191.294421,44.328387
191.242938,44.405438
191.165887,44.456921
191.075000,44.475000
190.575000,44.475000
190.484113,44.456921
190.407062,44.405438
190.355579,44.328387
190.337500,44.237500
Z" /> 
<path style="fill:#000000; fill-opacity:1.000000; stroke:none;fill-rule:evenodd;"
d="M 188.650000,55.550000
188.707403,55.561418
188.756066,55.593934
188.788582,55.642597
188.800000,55.700000
188.800000,57.350000
188.788582,57.407403
188.756066,57.456066
188.707403,57.488582
188.650000,57.500000
188.350000,57.500000
188.292597,57.488582
188.243934,57.456066
188.211418,57.407403
188.200000,57.350000
188.200000,55.700000
188.211418,55.642597
188.243934,55.593934
188.292597,55.561418
188.350000,55.550000
Z" /> 
<path style="fill:#000000; fill-opacity:1.000000; stroke:none;fill-rule:evenodd;"
d="M 189.920000,55.550000
189.977403,55.561418
190.026066,55.593934
190.058582,55.642597
190.070000,55.700000
190.070000,57.350000
190.058582,57.407403
190.026066,57.456066
189.977403,57.488582
189.920000,57.500000
189.620000,57.500000
189.562597,57.488582
189.513934,57.456066
189.481418,57.407403
189.470000,57.350000
189.470000,55.700000
189.481418,55.642597
189.513934,55.593934
189.562597,55.561418
189.620000,55.550000
Z" /> 
<path style="fill:#000000; fill-opacity:1.000000; stroke:none;fill-rule:evenodd;"
d="M 191.190000,55.550000
191.247403,55.561418
191.296066,55.593934
191.328582,55.642597
191.340000,55.700000
191.340000,57.350000
191.328582,57.407403
191.296066,57.456066
191.247403,57.488582
191.190000,57.500000
190.890000,57.500000
190.832597,57.488582
190.783934,57.456066
190.751418,57.407403
190.740000,57.350000
190.740000,55.700000
190.751418,55.642597
190.783934,55.593934
190.832597,55.561418
190.890000,55.550000
Z" /> 
<path style="fill:#000000; fill-opacity:1.000000; stroke:none;fill-rule:evenodd;"
d="M 192.460000,55.550000
192.517403,55.561418
192.566066,55.593934
192.598582,55.642597
192.610000,55.700000
192.610000,57.350000
192.598582,57.407403
192.566066,57.456066
192.517403,57.488582
192.460000,57.500000
192.160000,57.500000
192.102597,57.488582
192.053934,57.456066
192.021418,57.407403
192.010000,57.350000
192.010000,55.700000
192.021418,55.642597
192.053934,55.593934
192.102597,55.561418
192.160000,55.550000
Z" /> 
<path style="fill:#000000; fill-opacity:1.000000; stroke:none;fill-rule:evenodd;"
d="M 193.730000,55.550000
193.787403,55.561418
193.836066,55.593934
193.868582,55.642597
193.880000,55.700000
193.880000,57.350000
193.868582,57.407403
193.836066,57.456066
193.787403,57.488582
193.730000,57.500000
193.430000,57.500000
193.372597,57.488582
193.323934,57.456066
193.291418,57.407403
193.280000,57.350000
193.280000,55.700000
193.291418,55.642597
193.323934,55.593934
193.372597,55.561418
193.430000,55.550000
Z" /> 
<path style="fill:#000000; fill-opacity:1.000000; stroke:none;fill-rule:evenodd;"
d="M 195.000000,55.550000
195.057403,55.561418
195.106066,55.593934
195.138582,55.642597
195.150000,55.700000
195.150000,57.350000
195.138582,57.407403
195.106066,57.456066
195.057403,57.488582
195.000000,57.500000
194.700000,57.500000
194.642597,57.488582
194.593934,57.456066
194.561418,57.407403
194.550000,57.350000
194.550000,55.700000
194.561418,55.642597
194.593934,55.593934
194.642597,55.561418
194.700000,55.550000
Z" /> 
<path style="fill:#000000; fill-opacity:1.000000; stroke:none;fill-rule:evenodd;"
d="M 196.270000,55.550000
196.327403,55.561418
196.376066,55.593934
196.408582,55.642597
196.420000,55.700000
196.420000,57.350000
196.408582,57.407403
196.376066,57.456066
196.327403,57.488582
196.270000,57.500000
195.970000,57.500000
195.912597,57.488582
195.863934,57.456066
195.831418,57.407403
195.820000,57.350000
195.820000,55.700000
195.831418,55.642597
195.863934,55.593934
195.912597,55.561418
195.970000,55.550000
Z" /> 
<path style="fill:#000000; fill-opacity:1.000000; stroke:none;fill-rule:evenodd;"
d="M 196.270000,60.500000
196.327403,60.511418
196.376066,60.543934
196.408582,60.592597
196.420000,60.650000
196.420000,62.300000
196.408582,62.357403
196.376066,62.406066
196.327403,62.438582
196.270000,62.450000
195.970000,62.450000
195.912597,62.438582
195.863934,62.406066
195.831418,62.357403
195.820000,62.300000
195.820000,60.650000
195.831418,60.592597
195.863934,60.543934
195.912597,60.511418
195.970000,60.500000
Z" /> 
<path style="fill:#000000; fill-opacity:1.000000; stroke:none;fill-rule:evenodd;"
d="M 195.000000,60.500000
195.057403,60.511418
195.106066,60.543934
195.138582,60.592597
195.150000,60.650000
195.150000,62.300000
195.138582,62.357403
195.106066,62.406066
195.057403,62.438582
195.000000,62.450000
194.700000,62.450000
194.642597,62.438582
194.593934,62.406066
194.561418,62.357403
194.550000,62.300000
194.550000,60.650000
194.561418,60.592597
194.593934,60.543934
194.642597,60.511418
194.700000,60.500000
Z" /> 
<path style="fill:#000000; fill-opacity:1.000000; stroke:none;fill-rule:evenodd;"
d="M 193.730000,60.500000
193.787403,60.511418
193.836066,60.543934
193.868582,60.592597
193.880000,60.650000
193.880000,62.300000
193.868582,62.357403
193.836066,62.406066
193.787403,62.438582
193.730000,62.450000
193.430000,62.450000
193.372597,62.438582
193.323934,62.406066
193.291418,62.357403
193.280000,62.300000
193.280000,60.650000
193.291418,60.592597
193.323934,60.543934
193.372597,60.511418
193.430000,60.500000
Z" /> 
<path style="fill:#000000; fill-opacity:1.000000; stroke:none;fill-rule:evenodd;"
d="M 192.460000,60.500000
192.517403,60.511418
192.566066,60.543934
192.598582,60.592597
192.610000,60.650000
192.610000,62.300000
192.598582,62.357403
192.566066,62.406066
192.517403,62.438582
192.460000,62.450000
192.160000,62.450000
192.102597,62.438582
192.053934,62.406066
192.021418,62.357403
192.010000,62.300000
192.010000,60.650000
192.021418,60.592597
192.053934,60.543934
192.102597,60.511418
192.160000,60.500000
Z" /> 
<path style="fill:#000000; fill-opacity:1.000000; stroke:none;fill-rule:evenodd;"
d="M 191.190000,60.500000
191.247403,60.511418
191.296066,60.543934
191.328582,60.592597
191.340000,60.650000
191.340000,62.300000
191.328582,62.357403
191.296066,62.406066
191.247403,62.438582
191.190000,62.450000
190.890000,62.450000
190.832597,62.438582
190.783934,62.406066
190.751418,62.357403
190.740000,62.300000
190.740000,60.650000
190.751418,60.592597
190.783934,60.543934
190.832597,60.511418
190.890000,60.500000
Z" /> 
<path style="fill:#000000; fill-opacity:1.000000; stroke:none;fill-rule:evenodd;"
d="M 189.920000,60.500000
189.977403,60.511418
190.026066,60.543934
190.058582,60.592597
190.070000,60.650000
190.070000,62.300000
190.058582,62.357403
190.026066,62.406066
189.977403,62.438582
189.920000,62.450000
189.620000,62.450000
189.562597,62.438582
189.513934,62.406066
189.481418,62.357403
189.470000,62.300000
189.470000,60.650000
189.481418,60.592597
189.513934,60.543934
189.562597,60.511418
189.620000,60.500000
Z" /> 
<path style="fill:#000000; fill-opacity:1.000000; stroke:none;fill-rule:evenodd;"
d="M 188.650000,60.500000
188.707403,60.511418
188.756066,60.543934
188.788582,60.592597
188.800000,60.650000
188.800000,62.300000
188.788582,62.357403
188.756066,62.406066
188.707403,62.438582
188.650000,62.450000
188.350000,62.450000
188.292597,62.438582
188.243934,62.406066
188.211418,62.357403
188.200000,62.300000
188.200000,60.650000
188.211418,60.592597
188.243934,60.543934
188.292597,60.511418
188.350000,60.500000
Z" /> 
<path style="fill:#000000; fill-opacity:1.000000; stroke:none;fill-rule:evenodd;"
d="M 191.702500,68.787500
191.720579,68.696613
191.772062,68.619562
191.849113,68.568079
191.940000,68.550000
192.440000,68.550000
192.530887,68.568079
192.607938,68.619562
192.659421,68.696613
192.677500,68.787500
192.677500,69.262500
192.659421,69.353387
192.607938,69.430438
192.530887,69.481921
192.440000,69.500000
191.940000,69.500000
191.849113,69.481921
191.772062,69.430438
191.720579,69.353387
191.702500,69.262500
Z" /> 
<path style="fill:#000000; fill-opacity:1.000000; stroke:none;fill-rule:evenodd;"
d="M 193.527500,68.787500
193.545579,68.696613
193.597062,68.619562
193.674113,68.568079
193.765000,68.550000
194.265000,68.550000
194.355887,68.568079
194.432938,68.619562
194.484421,68.696613
194.502500,68.787500
194.502500,69.262500
194.484421,69.353387
194.432938,69.430438
194.355887,69.481921
194.265000,69.500000
193.765000,69.500000
193.674113,69.481921
193.597062,69.430438
193.545579,69.353387
193.527500,69.262500
Z" /> 
<path style="fill:#000000; fill-opacity:1.000000; stroke:none;fill-rule:evenodd;"
d="M 201.237500,129.687500
201.328387,129.705579
201.405438,129.757062
201.456921,129.834113
201.475000,129.925000
201.475000,130.425000
201.456921,130.515887
201.405438,130.592938
201.328387,130.644421
201.237500,130.662500
200.762500,130.662500
200.671613,130.644421
200.594562,130.592938
200.543079,130.515887
200.525000,130.425000
200.525000,129.925000
200.543079,129.834113
200.594562,129.757062
200.671613,129.705579
200.762500,129.687500
Z" /> 
<path style="fill:#000000; fill-opacity:1.000000; stroke:none;fill-rule:evenodd;"
d="M 201.237500,131.512500
201.328387,131.530579
201.405438,131.582062
201.456921,131.659113
201.475000,131.750000
201.475000,132.250000
201.456921,132.340887
201.405438,132.417938
201.328387,132.469421
201.237500,132.487500
200.762500,132.487500
200.671613,132.469421
200.594562,132.417938
200.543079,132.340887
200.525000,132.250000
200.525000,131.750000
200.543079,131.659113
200.594562,131.582062
200.671613,131.530579
200.762500,131.512500
Z" /> 
<path style="fill:#000000; fill-opacity:1.000000; stroke:none;fill-rule:evenodd;"
d="M 191.312500,42.737500
191.294421,42.828387
191.242938,42.905438
191.165887,42.956921
191.075000,42.975000
190.575000,42.975000
190.484113,42.956921
190.407062,42.905438
190.355579,42.828387
190.337500,42.737500
190.337500,42.262500
190.355579,42.171613
190.407062,42.094562
190.484113,42.043079
190.575000,42.025000
191.075000,42.025000
191.165887,42.043079
191.242938,42.094562
191.294421,42.171613
191.312500,42.262500
Z" /> 
<path style="fill:#000000; fill-opacity:1.000000; stroke:none;fill-rule:evenodd;"
d="M 189.487500,42.737500
189.469421,42.828387
189.417938,42.905438
189.340887,42.956921
189.250000,42.975000
188.750000,42.975000
188.659113,42.956921
188.582062,42.905438
188.530579,42.828387
188.512500,42.737500
188.512500,42.262500
188.530579,42.171613
188.582062,42.094562
188.659113,42.043079
188.750000,42.025000
189.250000,42.025000
189.340887,42.043079
189.417938,42.094562
189.469421,42.171613
189.487500,42.262500
Z" /> 
<path style="fill:#000000; fill-opacity:1.000000; stroke:none;fill-rule:evenodd;"
d="M 176.537500,61.737500
176.519421,61.828387
176.467938,61.905438
176.390887,61.956921
176.300000,61.975000
175.700000,61.975000
175.609113,61.956921
175.532062,61.905438
175.480579,61.828387
175.462500,61.737500
175.462500,61.262500
175.480579,61.171613
175.532062,61.094562
175.609113,61.043079
175.700000,61.025000
176.300000,61.025000
176.390887,61.043079
176.467938,61.094562
176.519421,61.171613
176.537500,61.262500
Z" /> 
<path style="fill:#000000; fill-opacity:1.000000; stroke:none;fill-rule:evenodd;"
d="M 174.812500,61.737500
174.794421,61.828387
174.742938,61.905438
174.665887,61.956921
174.575000,61.975000
173.975000,61.975000
173.884113,61.956921
173.807062,61.905438
173.755579,61.828387
173.737500,61.737500
173.737500,61.262500
173.755579,61.171613
173.807062,61.094562
173.884113,61.043079
173.975000,61.025000
174.575000,61.025000
174.665887,61.043079
174.742938,61.094562
174.794421,61.171613
174.812500,61.262500
Z" /> 
<path style="fill:#000000; fill-opacity:1.000000; stroke:none;fill-rule:evenodd;"
d="M 194.662500,51.987500
194.644421,52.078387
194.592938,52.155438
194.515887,52.206921
194.425000,52.225000
193.925000,52.225000
193.834113,52.206921
193.757062,52.155438
193.705579,52.078387
193.687500,51.987500
193.687500,51.512500
193.705579,51.421613
193.757062,51.344562
193.834113,51.293079
193.925000,51.275000
194.425000,51.275000
194.515887,51.293079
194.592938,51.344562
194.644421,51.421613
194.662500,51.512500
Z" /> 
<path style="fill:#000000; fill-opacity:1.000000; stroke:none;fill-rule:evenodd;"
d="M 192.837500,51.987500
192.819421,52.078387
192.767938,52.155438
192.690887,52.206921
192.600000,52.225000
192.100000,52.225000
192.009113,52.206921
191.932062,52.155438
191.880579,52.078387
191.862500,51.987500
191.862500,51.512500
191.880579,51.421613
191.932062,51.344562
192.009113,51.293079
192.100000,51.275000
192.600000,51.275000
192.690887,51.293079
192.767938,51.344562
192.819421,51.421613
192.837500,51.512500
Z" /> 
<path style="fill:#000000; fill-opacity:1.000000; stroke:none;fill-rule:evenodd;"
d="M 212.512500,128.237500
212.494421,128.328387
212.442938,128.405438
212.365887,128.456921
212.275000,128.475000
211.675000,128.475000
211.584113,128.456921
211.507062,128.405438
211.455579,128.328387
211.437500,128.237500
211.437500,127.762500
211.455579,127.671613
211.507062,127.594562
211.584113,127.543079
211.675000,127.525000
212.275000,127.525000
212.365887,127.543079
212.442938,127.594562
212.494421,127.671613
212.512500,127.762500
Z" /> 
<path style="fill:#000000; fill-opacity:1.000000; stroke:none;fill-rule:evenodd;"
d="M 210.787500,128.237500
210.769421,128.328387
210.717938,128.405438
210.640887,128.456921
210.550000,128.475000
209.950000,128.475000
209.859113,128.456921
209.782062,128.405438
209.730579,128.328387
209.712500,128.237500
209.712500,127.762500
209.730579,127.671613
209.782062,127.594562
209.859113,127.543079
209.950000,127.525000
210.550000,127.525000
210.640887,127.543079
210.717938,127.594562
210.769421,127.671613
210.787500,127.762500
Z" /> 
<path style="fill:#000000; fill-opacity:1.000000; stroke:none;fill-rule:evenodd;"
d="M 195.100000,48.950000
195.080970,49.045671
195.026777,49.126777
194.945671,49.180970
194.850000,49.200000
194.150000,49.200000
194.054329,49.180970
193.973223,49.126777
193.919030,49.045671
193.900000,48.950000
193.900000,48.050000
193.919030,47.954329
193.973223,47.873223
194.054329,47.819030
194.150000,47.800000
194.850000,47.800000
194.945671,47.819030
195.026777,47.873223
195.080970,47.954329
195.100000,48.050000
Z" /> 
<path style="fill:#000000; fill-opacity:1.000000; stroke:none;fill-rule:evenodd;"
d="M 193.100000,48.950000
193.080970,49.045671
193.026777,49.126777
192.945671,49.180970
192.850000,49.200000
192.150000,49.200000
192.054329,49.180970
191.973223,49.126777
191.919030,49.045671
191.900000,48.950000
191.900000,48.050000
191.919030,47.954329
191.973223,47.873223
192.054329,47.819030
192.150000,47.800000
192.850000,47.800000
192.945671,47.819030
193.026777,47.873223
193.080970,47.954329
193.100000,48.050000
Z" /> 
<path style="fill:#000000; fill-opacity:1.000000; stroke:none;fill-rule:evenodd;"
d="M 206.350000,116.125000
206.367127,116.038896
206.415901,115.965901
206.488896,115.917127
206.575000,115.900000
207.025000,115.900000
207.111104,115.917127
207.184099,115.965901
207.232873,116.038896
207.250000,116.125000
207.250000,116.875000
207.232873,116.961104
207.184099,117.034099
207.111104,117.082873
207.025000,117.100000
206.575000,117.100000
206.488896,117.082873
206.415901,117.034099
206.367127,116.961104
206.350000,116.875000
Z" /> 
<path style="fill:#000000; fill-opacity:1.000000; stroke:none;fill-rule:evenodd;"
d="M 209.650000,116.125000
209.667127,116.038896
209.715901,115.965901
209.788896,115.917127
209.875000,115.900000
210.325000,115.900000
210.411104,115.917127
210.484099,115.965901
210.532873,116.038896
210.550000,116.125000
210.550000,116.875000
210.532873,116.961104
210.484099,117.034099
210.411104,117.082873
210.325000,117.100000
209.875000,117.100000
209.788896,117.082873
209.715901,117.034099
209.667127,116.961104
209.650000,116.875000
Z" /> 
<path style="fill:#000000; fill-opacity:1.000000; stroke:none;fill-rule:evenodd;"
d="M 195.100000,44.950000
195.080970,45.045671
195.026777,45.126777
194.945671,45.180970
194.850000,45.200000
194.150000,45.200000
194.054329,45.180970
193.973223,45.126777
193.919030,45.045671
193.900000,44.950000
193.900000,44.050000
193.919030,43.954329
193.973223,43.873223
194.054329,43.819030
194.150000,43.800000
194.850000,43.800000
194.945671,43.819030
195.026777,43.873223
195.080970,43.954329
195.100000,44.050000
Z" /> 
<path style="fill:#000000; fill-opacity:1.000000; stroke:none;fill-rule:evenodd;"
d="M 193.100000,44.950000
193.080970,45.045671
193.026777,45.126777
192.945671,45.180970
192.850000,45.200000
192.150000,45.200000
192.054329,45.180970
191.973223,45.126777
191.919030,45.045671
191.900000,44.950000
191.900000,44.050000
191.919030,43.954329
191.973223,43.873223
192.054329,43.819030
192.150000,43.800000
192.850000,43.800000
192.945671,43.819030
193.026777,43.873223
193.080970,43.954329
193.100000,44.050000
Z" /> 
</g> 
</svg>
