<?xml version="1.0" standalone="no"?>
 <!DOCTYPE svg PUBLIC "-//W3C//DTD SVG 1.1//EN" 
 "http://www.w3.org/Graphics/SVG/1.1/DTD/svg11.dtd"> 
<svg
  xmlns:svg="http://www.w3.org/2000/svg"
  xmlns="http://www.w3.org/2000/svg"
  xmlns:xlink="http://www.w3.org/1999/xlink"
  version="1.1"
  width="297.002200mm" height="210.007200mm" viewBox="0.000000 0.000000 297.002200 210.007200">
<title>SVG Image created as MiniOSC-Edge_Cuts.svg date 2024/09/08 19:04:05 </title>
  <desc>Image generated by PCBNEW </desc>
<g style="fill:#000000; fill-opacity:1.000000;stroke:#000000; stroke-opacity:1.000000;
stroke-linecap:round; stroke-linejoin:round;"
 transform="translate(0 0) scale(1 1)">
<path style="fill:none; 
stroke:#000000; stroke-width:0.100000; stroke-opacity:1; 
stroke-linecap:round; stroke-linejoin:round;fill:none"
d="M 70.000000,40.000000
100.000000,40.000000
100.000000,168.500000
70.000000,168.500000
Z" /> 
</g>
<g style="fill:none; 
stroke:#000000; stroke-width:0.150000; stroke-opacity:1; 
stroke-linecap:round; stroke-linejoin:round;">
<g transform="rotate(-90.000000 62.850000 114.000000)">
<text x="62.850000" y="114.500000"
textLength="8.916666" font-size="1.333333" lengthAdjust="spacingAndGlyphs"
text-anchor="middle" opacity="0" stroke-opacity="0">4.0000 mm</text>
</g>
<g class="stroked-text"><desc>4.0000 mm</desc>
<path d="M62.638152 117.666666
L63.304819 117.666666
" />
<path d="M62.257200 117.904761
L62.971485 118.142856
" />
<path d="M62.971485 118.142856
L62.971485 117.523809
" />
<path d="M63.209580 117.142856
L63.257200 117.095237
" />
<path d="M63.257200 117.095237
L63.304819 117.142856
" />
<path d="M63.304819 117.142856
L63.257200 117.190475
" />
<path d="M63.257200 117.190475
L63.209580 117.142856
" />
<path d="M63.209580 117.142856
L63.304819 117.142856
" />
<path d="M62.304819 116.476190
L62.304819 116.380952
" />
<path d="M62.304819 116.380952
L62.352438 116.285714
" />
<path d="M62.352438 116.285714
L62.400057 116.238095
" />
<path d="M62.400057 116.238095
L62.495295 116.190476
" />
<path d="M62.495295 116.190476
L62.685771 116.142857
" />
<path d="M62.685771 116.142857
L62.923866 116.142857
" />
<path d="M62.923866 116.142857
L63.114342 116.190476
" />
<path d="M63.114342 116.190476
L63.209580 116.238095
" />
<path d="M63.209580 116.238095
L63.257200 116.285714
" />
<path d="M63.257200 116.285714
L63.304819 116.380952
" />
<path d="M63.304819 116.380952
L63.304819 116.476190
" />
<path d="M63.304819 116.476190
L63.257200 116.571428
" />
<path d="M63.257200 116.571428
L63.209580 116.619047
" />
<path d="M63.209580 116.619047
L63.114342 116.666666
" />
<path d="M63.114342 116.666666
L62.923866 116.714285
" />
<path d="M62.923866 116.714285
L62.685771 116.714285
" />
<path d="M62.685771 116.714285
L62.495295 116.666666
" />
<path d="M62.495295 116.666666
L62.400057 116.619047
" />
<path d="M62.400057 116.619047
L62.352438 116.571428
" />
<path d="M62.352438 116.571428
L62.304819 116.476190
" />
<path d="M62.304819 115.523809
L62.304819 115.428571
" />
<path d="M62.304819 115.428571
L62.352438 115.333333
" />
<path d="M62.352438 115.333333
L62.400057 115.285714
" />
<path d="M62.400057 115.285714
L62.495295 115.238095
" />
<path d="M62.495295 115.238095
L62.685771 115.190476
" />
<path d="M62.685771 115.190476
L62.923866 115.190476
" />
<path d="M62.923866 115.190476
L63.114342 115.238095
" />
<path d="M63.114342 115.238095
L63.209580 115.285714
" />
<path d="M63.209580 115.285714
L63.257200 115.333333
" />
<path d="M63.257200 115.333333
L63.304819 115.428571
" />
<path d="M63.304819 115.428571
L63.304819 115.523809
" />
<path d="M63.304819 115.523809
L63.257200 115.619047
" />
<path d="M63.257200 115.619047
L63.209580 115.666666
" />
<path d="M63.209580 115.666666
L63.114342 115.714285
" />
<path d="M63.114342 115.714285
L62.923866 115.761904
" />
<path d="M62.923866 115.761904
L62.685771 115.761904
" />
<path d="M62.685771 115.761904
L62.495295 115.714285
" />
<path d="M62.495295 115.714285
L62.400057 115.666666
" />
<path d="M62.400057 115.666666
L62.352438 115.619047
" />
<path d="M62.352438 115.619047
L62.304819 115.523809
" />
<path d="M62.304819 114.571428
L62.304819 114.476190
" />
<path d="M62.304819 114.476190
L62.352438 114.380952
" />
<path d="M62.352438 114.380952
L62.400057 114.333333
" />
<path d="M62.400057 114.333333
L62.495295 114.285714
" />
<path d="M62.495295 114.285714
L62.685771 114.238095
" />
<path d="M62.685771 114.238095
L62.923866 114.238095
" />
<path d="M62.923866 114.238095
L63.114342 114.285714
" />
<path d="M63.114342 114.285714
L63.209580 114.333333
" />
<path d="M63.209580 114.333333
L63.257200 114.380952
" />
<path d="M63.257200 114.380952
L63.304819 114.476190
" />
<path d="M63.304819 114.476190
L63.304819 114.571428
" />
<path d="M63.304819 114.571428
L63.257200 114.666666
" />
<path d="M63.257200 114.666666
L63.209580 114.714285
" />
<path d="M63.209580 114.714285
L63.114342 114.761904
" />
<path d="M63.114342 114.761904
L62.923866 114.809523
" />
<path d="M62.923866 114.809523
L62.685771 114.809523
" />
<path d="M62.685771 114.809523
L62.495295 114.761904
" />
<path d="M62.495295 114.761904
L62.400057 114.714285
" />
<path d="M62.400057 114.714285
L62.352438 114.666666
" />
<path d="M62.352438 114.666666
L62.304819 114.571428
" />
<path d="M62.304819 113.619047
L62.304819 113.523809
" />
<path d="M62.304819 113.523809
L62.352438 113.428571
" />
<path d="M62.352438 113.428571
L62.400057 113.380952
" />
<path d="M62.400057 113.380952
L62.495295 113.333333
" />
<path d="M62.495295 113.333333
L62.685771 113.285714
" />
<path d="M62.685771 113.285714
L62.923866 113.285714
" />
<path d="M62.923866 113.285714
L63.114342 113.333333
" />
<path d="M63.114342 113.333333
L63.209580 113.380952
" />
<path d="M63.209580 113.380952
L63.257200 113.428571
" />
<path d="M63.257200 113.428571
L63.304819 113.523809
" />
<path d="M63.304819 113.523809
L63.304819 113.619047
" />
<path d="M63.304819 113.619047
L63.257200 113.714285
" />
<path d="M63.257200 113.714285
L63.209580 113.761904
" />
<path d="M63.209580 113.761904
L63.114342 113.809523
" />
<path d="M63.114342 113.809523
L62.923866 113.857142
" />
<path d="M62.923866 113.857142
L62.685771 113.857142
" />
<path d="M62.685771 113.857142
L62.495295 113.809523
" />
<path d="M62.495295 113.809523
L62.400057 113.761904
" />
<path d="M62.400057 113.761904
L62.352438 113.714285
" />
<path d="M62.352438 113.714285
L62.304819 113.619047
" />
<path d="M63.304819 112.095237
L62.638152 112.095237
" />
<path d="M62.733390 112.095237
L62.685771 112.047618
" />
<path d="M62.685771 112.047618
L62.638152 111.952380
" />
<path d="M62.638152 111.952380
L62.638152 111.809523
" />
<path d="M62.638152 111.809523
L62.685771 111.714285
" />
<path d="M62.685771 111.714285
L62.781009 111.666666
" />
<path d="M62.781009 111.666666
L63.304819 111.666666
" />
<path d="M62.781009 111.666666
L62.685771 111.619047
" />
<path d="M62.685771 111.619047
L62.638152 111.523809
" />
<path d="M62.638152 111.523809
L62.638152 111.380952
" />
<path d="M62.638152 111.380952
L62.685771 111.285713
" />
<path d="M62.685771 111.285713
L62.781009 111.238094
" />
<path d="M62.781009 111.238094
L63.304819 111.238094
" />
<path d="M63.304819 110.761904
L62.638152 110.761904
" />
<path d="M62.733390 110.761904
L62.685771 110.714285
" />
<path d="M62.685771 110.714285
L62.638152 110.619047
" />
<path d="M62.638152 110.619047
L62.638152 110.476190
" />
<path d="M62.638152 110.476190
L62.685771 110.380952
" />
<path d="M62.685771 110.380952
L62.781009 110.333333
" />
<path d="M62.781009 110.333333
L63.304819 110.333333
" />
<path d="M62.781009 110.333333
L62.685771 110.285714
" />
<path d="M62.685771 110.285714
L62.638152 110.190476
" />
<path d="M62.638152 110.190476
L62.638152 110.047619
" />
<path d="M62.638152 110.047619
L62.685771 109.952380
" />
<path d="M62.685771 109.952380
L62.781009 109.904761
" />
<path d="M62.781009 109.904761
L63.304819 109.904761
" />
</g></g>
<g style="fill:none; 
stroke:#000000; stroke-width:0.100000; stroke-opacity:1; 
stroke-linecap:round; stroke-linejoin:round;">
<path d="M109.500000 116.000000
L63.413580 116.000000
" />
<path d="M109.500000 112.000000
L63.413580 112.000000
" />
<path d="M64.000000 116.000000
L64.000000 112.000000
" />
<path d="M64.000000 116.000000
L64.000000 112.000000
" />
<path d="M64.000000 116.000000
L63.413579 114.873496
" />
<path d="M64.000000 116.000000
L64.586421 114.873496
" />
<path d="M64.000000 112.000000
L64.586421 113.126504
" />
<path d="M64.000000 112.000000
L63.413579 113.126504
" />
</g>
<g style="fill:none; 
stroke:#000000; stroke-width:0.150000; stroke-opacity:1; 
stroke-linecap:round; stroke-linejoin:round;">
<text x="74.000000" y="171.350000"
textLength="8.916666" font-size="1.333333" lengthAdjust="spacingAndGlyphs"
text-anchor="middle" opacity="0" stroke-opacity="0">8.0000 mm</text>
<g class="stroked-text"><desc>8.0000 mm</desc>
<path d="M70.047619 170.733390
L69.952381 170.685771
" />
<path d="M69.952381 170.685771
L69.904762 170.638152
" />
<path d="M69.904762 170.638152
L69.857143 170.542914
" />
<path d="M69.857143 170.542914
L69.857143 170.495295
" />
<path d="M69.857143 170.495295
L69.904762 170.400057
" />
<path d="M69.904762 170.400057
L69.952381 170.352438
" />
<path d="M69.952381 170.352438
L70.047619 170.304819
" />
<path d="M70.047619 170.304819
L70.238095 170.304819
" />
<path d="M70.238095 170.304819
L70.333333 170.352438
" />
<path d="M70.333333 170.352438
L70.380952 170.400057
" />
<path d="M70.380952 170.400057
L70.428571 170.495295
" />
<path d="M70.428571 170.495295
L70.428571 170.542914
" />
<path d="M70.428571 170.542914
L70.380952 170.638152
" />
<path d="M70.380952 170.638152
L70.333333 170.685771
" />
<path d="M70.333333 170.685771
L70.238095 170.733390
" />
<path d="M70.238095 170.733390
L70.047619 170.733390
" />
<path d="M70.047619 170.733390
L69.952381 170.781009
" />
<path d="M69.952381 170.781009
L69.904762 170.828628
" />
<path d="M69.904762 170.828628
L69.857143 170.923866
" />
<path d="M69.857143 170.923866
L69.857143 171.114342
" />
<path d="M69.857143 171.114342
L69.904762 171.209580
" />
<path d="M69.904762 171.209580
L69.952381 171.257200
" />
<path d="M69.952381 171.257200
L70.047619 171.304819
" />
<path d="M70.047619 171.304819
L70.238095 171.304819
" />
<path d="M70.238095 171.304819
L70.333333 171.257200
" />
<path d="M70.333333 171.257200
L70.380952 171.209580
" />
<path d="M70.380952 171.209580
L70.428571 171.114342
" />
<path d="M70.428571 171.114342
L70.428571 170.923866
" />
<path d="M70.428571 170.923866
L70.380952 170.828628
" />
<path d="M70.380952 170.828628
L70.333333 170.781009
" />
<path d="M70.333333 170.781009
L70.238095 170.733390
" />
<path d="M70.857143 171.209580
L70.904762 171.257200
" />
<path d="M70.904762 171.257200
L70.857143 171.304819
" />
<path d="M70.857143 171.304819
L70.809524 171.257200
" />
<path d="M70.809524 171.257200
L70.857143 171.209580
" />
<path d="M70.857143 171.209580
L70.857143 171.304819
" />
<path d="M71.523809 170.304819
L71.619047 170.304819
" />
<path d="M71.619047 170.304819
L71.714285 170.352438
" />
<path d="M71.714285 170.352438
L71.761904 170.400057
" />
<path d="M71.761904 170.400057
L71.809523 170.495295
" />
<path d="M71.809523 170.495295
L71.857142 170.685771
" />
<path d="M71.857142 170.685771
L71.857142 170.923866
" />
<path d="M71.857142 170.923866
L71.809523 171.114342
" />
<path d="M71.809523 171.114342
L71.761904 171.209580
" />
<path d="M71.761904 171.209580
L71.714285 171.257200
" />
<path d="M71.714285 171.257200
L71.619047 171.304819
" />
<path d="M71.619047 171.304819
L71.523809 171.304819
" />
<path d="M71.523809 171.304819
L71.428571 171.257200
" />
<path d="M71.428571 171.257200
L71.380952 171.209580
" />
<path d="M71.380952 171.209580
L71.333333 171.114342
" />
<path d="M71.333333 171.114342
L71.285714 170.923866
" />
<path d="M71.285714 170.923866
L71.285714 170.685771
" />
<path d="M71.285714 170.685771
L71.333333 170.495295
" />
<path d="M71.333333 170.495295
L71.380952 170.400057
" />
<path d="M71.380952 170.400057
L71.428571 170.352438
" />
<path d="M71.428571 170.352438
L71.523809 170.304819
" />
<path d="M72.476190 170.304819
L72.571428 170.304819
" />
<path d="M72.571428 170.304819
L72.666666 170.352438
" />
<path d="M72.666666 170.352438
L72.714285 170.400057
" />
<path d="M72.714285 170.400057
L72.761904 170.495295
" />
<path d="M72.761904 170.495295
L72.809523 170.685771
" />
<path d="M72.809523 170.685771
L72.809523 170.923866
" />
<path d="M72.809523 170.923866
L72.761904 171.114342
" />
<path d="M72.761904 171.114342
L72.714285 171.209580
" />
<path d="M72.714285 171.209580
L72.666666 171.257200
" />
<path d="M72.666666 171.257200
L72.571428 171.304819
" />
<path d="M72.571428 171.304819
L72.476190 171.304819
" />
<path d="M72.476190 171.304819
L72.380952 171.257200
" />
<path d="M72.380952 171.257200
L72.333333 171.209580
" />
<path d="M72.333333 171.209580
L72.285714 171.114342
" />
<path d="M72.285714 171.114342
L72.238095 170.923866
" />
<path d="M72.238095 170.923866
L72.238095 170.685771
" />
<path d="M72.238095 170.685771
L72.285714 170.495295
" />
<path d="M72.285714 170.495295
L72.333333 170.400057
" />
<path d="M72.333333 170.400057
L72.380952 170.352438
" />
<path d="M72.380952 170.352438
L72.476190 170.304819
" />
<path d="M73.428571 170.304819
L73.523809 170.304819
" />
<path d="M73.523809 170.304819
L73.619047 170.352438
" />
<path d="M73.619047 170.352438
L73.666666 170.400057
" />
<path d="M73.666666 170.400057
L73.714285 170.495295
" />
<path d="M73.714285 170.495295
L73.761904 170.685771
" />
<path d="M73.761904 170.685771
L73.761904 170.923866
" />
<path d="M73.761904 170.923866
L73.714285 171.114342
" />
<path d="M73.714285 171.114342
L73.666666 171.209580
" />
<path d="M73.666666 171.209580
L73.619047 171.257200
" />
<path d="M73.619047 171.257200
L73.523809 171.304819
" />
<path d="M73.523809 171.304819
L73.428571 171.304819
" />
<path d="M73.428571 171.304819
L73.333333 171.257200
" />
<path d="M73.333333 171.257200
L73.285714 171.209580
" />
<path d="M73.285714 171.209580
L73.238095 171.114342
" />
<path d="M73.238095 171.114342
L73.190476 170.923866
" />
<path d="M73.190476 170.923866
L73.190476 170.685771
" />
<path d="M73.190476 170.685771
L73.238095 170.495295
" />
<path d="M73.238095 170.495295
L73.285714 170.400057
" />
<path d="M73.285714 170.400057
L73.333333 170.352438
" />
<path d="M73.333333 170.352438
L73.428571 170.304819
" />
<path d="M74.380952 170.304819
L74.476190 170.304819
" />
<path d="M74.476190 170.304819
L74.571428 170.352438
" />
<path d="M74.571428 170.352438
L74.619047 170.400057
" />
<path d="M74.619047 170.400057
L74.666666 170.495295
" />
<path d="M74.666666 170.495295
L74.714285 170.685771
" />
<path d="M74.714285 170.685771
L74.714285 170.923866
" />
<path d="M74.714285 170.923866
L74.666666 171.114342
" />
<path d="M74.666666 171.114342
L74.619047 171.209580
" />
<path d="M74.619047 171.209580
L74.571428 171.257200
" />
<path d="M74.571428 171.257200
L74.476190 171.304819
" />
<path d="M74.476190 171.304819
L74.380952 171.304819
" />
<path d="M74.380952 171.304819
L74.285714 171.257200
" />
<path d="M74.285714 171.257200
L74.238095 171.209580
" />
<path d="M74.238095 171.209580
L74.190476 171.114342
" />
<path d="M74.190476 171.114342
L74.142857 170.923866
" />
<path d="M74.142857 170.923866
L74.142857 170.685771
" />
<path d="M74.142857 170.685771
L74.190476 170.495295
" />
<path d="M74.190476 170.495295
L74.238095 170.400057
" />
<path d="M74.238095 170.400057
L74.285714 170.352438
" />
<path d="M74.285714 170.352438
L74.380952 170.304819
" />
<path d="M75.904762 171.304819
L75.904762 170.638152
" />
<path d="M75.904762 170.733390
L75.952381 170.685771
" />
<path d="M75.952381 170.685771
L76.047619 170.638152
" />
<path d="M76.047619 170.638152
L76.190476 170.638152
" />
<path d="M76.190476 170.638152
L76.285714 170.685771
" />
<path d="M76.285714 170.685771
L76.333333 170.781009
" />
<path d="M76.333333 170.781009
L76.333333 171.304819
" />
<path d="M76.333333 170.781009
L76.380952 170.685771
" />
<path d="M76.380952 170.685771
L76.476190 170.638152
" />
<path d="M76.476190 170.638152
L76.619047 170.638152
" />
<path d="M76.619047 170.638152
L76.714286 170.685771
" />
<path d="M76.714286 170.685771
L76.761905 170.781009
" />
<path d="M76.761905 170.781009
L76.761905 171.304819
" />
<path d="M77.238095 171.304819
L77.238095 170.638152
" />
<path d="M77.238095 170.733390
L77.285714 170.685771
" />
<path d="M77.285714 170.685771
L77.380952 170.638152
" />
<path d="M77.380952 170.638152
L77.523809 170.638152
" />
<path d="M77.523809 170.638152
L77.619047 170.685771
" />
<path d="M77.619047 170.685771
L77.666666 170.781009
" />
<path d="M77.666666 170.781009
L77.666666 171.304819
" />
<path d="M77.666666 170.781009
L77.714285 170.685771
" />
<path d="M77.714285 170.685771
L77.809523 170.638152
" />
<path d="M77.809523 170.638152
L77.952380 170.638152
" />
<path d="M77.952380 170.638152
L78.047619 170.685771
" />
<path d="M78.047619 170.685771
L78.095238 170.781009
" />
<path d="M78.095238 170.781009
L78.095238 171.304819
" />
</g></g>
<g style="fill:none; 
stroke:#000000; stroke-width:0.100000; stroke-opacity:1; 
stroke-linecap:round; stroke-linejoin:round;">
<path d="M70.000000 40.500000
L70.000000 172.586420
" />
<path d="M78.000000 40.500000
L78.000000 172.586420
" />
<path d="M70.000000 172.000000
L78.000000 172.000000
" />
<path d="M70.000000 172.000000
L78.000000 172.000000
" />
<path d="M70.000000 172.000000
L71.126504 171.413579
" />
<path d="M70.000000 172.000000
L71.126504 172.586421
" />
<path d="M78.000000 172.000000
L76.873496 172.586421
" />
<path d="M78.000000 172.000000
L76.873496 171.413579
" />
</g>
<g style="fill:none; 
stroke:#000000; stroke-width:0.150000; stroke-opacity:1; 
stroke-linecap:round; stroke-linejoin:round;">
<text x="96.000000" y="174.850000"
textLength="8.916666" font-size="1.333333" lengthAdjust="spacingAndGlyphs"
text-anchor="middle" opacity="0" stroke-opacity="0">8.0000 mm</text>
<g class="stroked-text"><desc>8.0000 mm</desc>
<path d="M92.047619 174.233390
L91.952381 174.185771
" />
<path d="M91.952381 174.185771
L91.904762 174.138152
" />
<path d="M91.904762 174.138152
L91.857143 174.042914
" />
<path d="M91.857143 174.042914
L91.857143 173.995295
" />
<path d="M91.857143 173.995295
L91.904762 173.900057
" />
<path d="M91.904762 173.900057
L91.952381 173.852438
" />
<path d="M91.952381 173.852438
L92.047619 173.804819
" />
<path d="M92.047619 173.804819
L92.238095 173.804819
" />
<path d="M92.238095 173.804819
L92.333333 173.852438
" />
<path d="M92.333333 173.852438
L92.380952 173.900057
" />
<path d="M92.380952 173.900057
L92.428571 173.995295
" />
<path d="M92.428571 173.995295
L92.428571 174.042914
" />
<path d="M92.428571 174.042914
L92.380952 174.138152
" />
<path d="M92.380952 174.138152
L92.333333 174.185771
" />
<path d="M92.333333 174.185771
L92.238095 174.233390
" />
<path d="M92.238095 174.233390
L92.047619 174.233390
" />
<path d="M92.047619 174.233390
L91.952381 174.281009
" />
<path d="M91.952381 174.281009
L91.904762 174.328628
" />
<path d="M91.904762 174.328628
L91.857143 174.423866
" />
<path d="M91.857143 174.423866
L91.857143 174.614342
" />
<path d="M91.857143 174.614342
L91.904762 174.709580
" />
<path d="M91.904762 174.709580
L91.952381 174.757200
" />
<path d="M91.952381 174.757200
L92.047619 174.804819
" />
<path d="M92.047619 174.804819
L92.238095 174.804819
" />
<path d="M92.238095 174.804819
L92.333333 174.757200
" />
<path d="M92.333333 174.757200
L92.380952 174.709580
" />
<path d="M92.380952 174.709580
L92.428571 174.614342
" />
<path d="M92.428571 174.614342
L92.428571 174.423866
" />
<path d="M92.428571 174.423866
L92.380952 174.328628
" />
<path d="M92.380952 174.328628
L92.333333 174.281009
" />
<path d="M92.333333 174.281009
L92.238095 174.233390
" />
<path d="M92.857143 174.709580
L92.904762 174.757200
" />
<path d="M92.904762 174.757200
L92.857143 174.804819
" />
<path d="M92.857143 174.804819
L92.809524 174.757200
" />
<path d="M92.809524 174.757200
L92.857143 174.709580
" />
<path d="M92.857143 174.709580
L92.857143 174.804819
" />
<path d="M93.523809 173.804819
L93.619047 173.804819
" />
<path d="M93.619047 173.804819
L93.714285 173.852438
" />
<path d="M93.714285 173.852438
L93.761904 173.900057
" />
<path d="M93.761904 173.900057
L93.809523 173.995295
" />
<path d="M93.809523 173.995295
L93.857142 174.185771
" />
<path d="M93.857142 174.185771
L93.857142 174.423866
" />
<path d="M93.857142 174.423866
L93.809523 174.614342
" />
<path d="M93.809523 174.614342
L93.761904 174.709580
" />
<path d="M93.761904 174.709580
L93.714285 174.757200
" />
<path d="M93.714285 174.757200
L93.619047 174.804819
" />
<path d="M93.619047 174.804819
L93.523809 174.804819
" />
<path d="M93.523809 174.804819
L93.428571 174.757200
" />
<path d="M93.428571 174.757200
L93.380952 174.709580
" />
<path d="M93.380952 174.709580
L93.333333 174.614342
" />
<path d="M93.333333 174.614342
L93.285714 174.423866
" />
<path d="M93.285714 174.423866
L93.285714 174.185771
" />
<path d="M93.285714 174.185771
L93.333333 173.995295
" />
<path d="M93.333333 173.995295
L93.380952 173.900057
" />
<path d="M93.380952 173.900057
L93.428571 173.852438
" />
<path d="M93.428571 173.852438
L93.523809 173.804819
" />
<path d="M94.476190 173.804819
L94.571428 173.804819
" />
<path d="M94.571428 173.804819
L94.666666 173.852438
" />
<path d="M94.666666 173.852438
L94.714285 173.900057
" />
<path d="M94.714285 173.900057
L94.761904 173.995295
" />
<path d="M94.761904 173.995295
L94.809523 174.185771
" />
<path d="M94.809523 174.185771
L94.809523 174.423866
" />
<path d="M94.809523 174.423866
L94.761904 174.614342
" />
<path d="M94.761904 174.614342
L94.714285 174.709580
" />
<path d="M94.714285 174.709580
L94.666666 174.757200
" />
<path d="M94.666666 174.757200
L94.571428 174.804819
" />
<path d="M94.571428 174.804819
L94.476190 174.804819
" />
<path d="M94.476190 174.804819
L94.380952 174.757200
" />
<path d="M94.380952 174.757200
L94.333333 174.709580
" />
<path d="M94.333333 174.709580
L94.285714 174.614342
" />
<path d="M94.285714 174.614342
L94.238095 174.423866
" />
<path d="M94.238095 174.423866
L94.238095 174.185771
" />
<path d="M94.238095 174.185771
L94.285714 173.995295
" />
<path d="M94.285714 173.995295
L94.333333 173.900057
" />
<path d="M94.333333 173.900057
L94.380952 173.852438
" />
<path d="M94.380952 173.852438
L94.476190 173.804819
" />
<path d="M95.428571 173.804819
L95.523809 173.804819
" />
<path d="M95.523809 173.804819
L95.619047 173.852438
" />
<path d="M95.619047 173.852438
L95.666666 173.900057
" />
<path d="M95.666666 173.900057
L95.714285 173.995295
" />
<path d="M95.714285 173.995295
L95.761904 174.185771
" />
<path d="M95.761904 174.185771
L95.761904 174.423866
" />
<path d="M95.761904 174.423866
L95.714285 174.614342
" />
<path d="M95.714285 174.614342
L95.666666 174.709580
" />
<path d="M95.666666 174.709580
L95.619047 174.757200
" />
<path d="M95.619047 174.757200
L95.523809 174.804819
" />
<path d="M95.523809 174.804819
L95.428571 174.804819
" />
<path d="M95.428571 174.804819
L95.333333 174.757200
" />
<path d="M95.333333 174.757200
L95.285714 174.709580
" />
<path d="M95.285714 174.709580
L95.238095 174.614342
" />
<path d="M95.238095 174.614342
L95.190476 174.423866
" />
<path d="M95.190476 174.423866
L95.190476 174.185771
" />
<path d="M95.190476 174.185771
L95.238095 173.995295
" />
<path d="M95.238095 173.995295
L95.285714 173.900057
" />
<path d="M95.285714 173.900057
L95.333333 173.852438
" />
<path d="M95.333333 173.852438
L95.428571 173.804819
" />
<path d="M96.380952 173.804819
L96.476190 173.804819
" />
<path d="M96.476190 173.804819
L96.571428 173.852438
" />
<path d="M96.571428 173.852438
L96.619047 173.900057
" />
<path d="M96.619047 173.900057
L96.666666 173.995295
" />
<path d="M96.666666 173.995295
L96.714285 174.185771
" />
<path d="M96.714285 174.185771
L96.714285 174.423866
" />
<path d="M96.714285 174.423866
L96.666666 174.614342
" />
<path d="M96.666666 174.614342
L96.619047 174.709580
" />
<path d="M96.619047 174.709580
L96.571428 174.757200
" />
<path d="M96.571428 174.757200
L96.476190 174.804819
" />
<path d="M96.476190 174.804819
L96.380952 174.804819
" />
<path d="M96.380952 174.804819
L96.285714 174.757200
" />
<path d="M96.285714 174.757200
L96.238095 174.709580
" />
<path d="M96.238095 174.709580
L96.190476 174.614342
" />
<path d="M96.190476 174.614342
L96.142857 174.423866
" />
<path d="M96.142857 174.423866
L96.142857 174.185771
" />
<path d="M96.142857 174.185771
L96.190476 173.995295
" />
<path d="M96.190476 173.995295
L96.238095 173.900057
" />
<path d="M96.238095 173.900057
L96.285714 173.852438
" />
<path d="M96.285714 173.852438
L96.380952 173.804819
" />
<path d="M97.904762 174.804819
L97.904762 174.138152
" />
<path d="M97.904762 174.233390
L97.952381 174.185771
" />
<path d="M97.952381 174.185771
L98.047619 174.138152
" />
<path d="M98.047619 174.138152
L98.190476 174.138152
" />
<path d="M98.190476 174.138152
L98.285714 174.185771
" />
<path d="M98.285714 174.185771
L98.333333 174.281009
" />
<path d="M98.333333 174.281009
L98.333333 174.804819
" />
<path d="M98.333333 174.281009
L98.380952 174.185771
" />
<path d="M98.380952 174.185771
L98.476190 174.138152
" />
<path d="M98.476190 174.138152
L98.619047 174.138152
" />
<path d="M98.619047 174.138152
L98.714286 174.185771
" />
<path d="M98.714286 174.185771
L98.761905 174.281009
" />
<path d="M98.761905 174.281009
L98.761905 174.804819
" />
<path d="M99.238095 174.804819
L99.238095 174.138152
" />
<path d="M99.238095 174.233390
L99.285714 174.185771
" />
<path d="M99.285714 174.185771
L99.380952 174.138152
" />
<path d="M99.380952 174.138152
L99.523809 174.138152
" />
<path d="M99.523809 174.138152
L99.619047 174.185771
" />
<path d="M99.619047 174.185771
L99.666666 174.281009
" />
<path d="M99.666666 174.281009
L99.666666 174.804819
" />
<path d="M99.666666 174.281009
L99.714285 174.185771
" />
<path d="M99.714285 174.185771
L99.809523 174.138152
" />
<path d="M99.809523 174.138152
L99.952380 174.138152
" />
<path d="M99.952380 174.138152
L100.047619 174.185771
" />
<path d="M100.047619 174.185771
L100.095238 174.281009
" />
<path d="M100.095238 174.281009
L100.095238 174.804819
" />
</g></g>
<g style="fill:none; 
stroke:#000000; stroke-width:0.100000; stroke-opacity:1; 
stroke-linecap:round; stroke-linejoin:round;">
<path d="M100.000000 40.500000
L100.000000 176.086420
" />
<path d="M92.000000 40.500000
L92.000000 176.086420
" />
<path d="M100.000000 175.500000
L92.000000 175.500000
" />
<path d="M100.000000 175.500000
L92.000000 175.500000
" />
<path d="M100.000000 175.500000
L98.873496 176.086421
" />
<path d="M100.000000 175.500000
L98.873496 174.913579
" />
<path d="M92.000000 175.500000
L93.126504 174.913579
" />
<path d="M92.000000 175.500000
L93.126504 176.086421
" />
<path style="fill:none; 
stroke:#000000; stroke-width:0.100000; stroke-opacity:1; 
stroke-linecap:round; stroke-linejoin:round;fill:none"
d="M 105.000000,49.500000
135.000000,49.500000
135.000000,159.000000
105.000000,159.000000
Z" /> 
</g> 
</svg>
