<?xml version="1.0" standalone="no"?>
 <!DOCTYPE svg PUBLIC "-//W3C//DTD SVG 1.1//EN" 
 "http://www.w3.org/Graphics/SVG/1.1/DTD/svg11.dtd"> 
<svg
  xmlns:svg="http://www.w3.org/2000/svg"
  xmlns="http://www.w3.org/2000/svg"
  xmlns:xlink="http://www.w3.org/1999/xlink"
  version="1.1"
  width="297.002200mm" height="210.007200mm" viewBox="0.000000 0.000000 297.002200 210.007200">
<title>SVG Image created as MiniOSC-F_Paste.svg date 2024/10/08 00:30:05 </title>
  <desc>Image generated by PCBNEW </desc>
<g style="fill:#000000; fill-opacity:1.000000;stroke:#000000; stroke-opacity:1.000000;
stroke-linecap:round; stroke-linejoin:round;"
 transform="translate(0 0) scale(1 1)">
<path style="fill:#000000; fill-opacity:1.000000; stroke:none;fill-rule:evenodd;"
d="M 193.550000,62.700000
193.645671,62.719030
193.726777,62.773223
193.780970,62.854329
193.800000,62.950000
193.800000,65.050000
193.780970,65.145671
193.726777,65.226777
193.645671,65.280970
193.550000,65.300000
192.450000,65.300000
192.354329,65.280970
192.273223,65.226777
192.219030,65.145671
192.200000,65.050000
192.200000,62.950000
192.219030,62.854329
192.273223,62.773223
192.354329,62.719030
192.450000,62.700000
Z" /> 
<path style="fill:#000000; fill-opacity:1.000000; stroke:none;fill-rule:evenodd;"
d="M 193.550000,66.300000
193.645671,66.319030
193.726777,66.373223
193.780970,66.454329
193.800000,66.550000
193.800000,68.650000
193.780970,68.745671
193.726777,68.826777
193.645671,68.880970
193.550000,68.900000
192.450000,68.900000
192.354329,68.880970
192.273223,68.826777
192.219030,68.745671
192.200000,68.650000
192.200000,66.550000
192.219030,66.454329
192.273223,66.373223
192.354329,66.319030
192.450000,66.300000
Z" /> 
<path style="fill:#000000; fill-opacity:1.000000; stroke:none;fill-rule:evenodd;"
d="M 193.550000,53.200000
193.645671,53.219030
193.726777,53.273223
193.780970,53.354329
193.800000,53.450000
193.800000,55.550000
193.780970,55.645671
193.726777,55.726777
193.645671,55.780970
193.550000,55.800000
192.450000,55.800000
192.354329,55.780970
192.273223,55.726777
192.219030,55.645671
192.200000,55.550000
192.200000,53.450000
192.219030,53.354329
192.273223,53.273223
192.354329,53.219030
192.450000,53.200000
Z" /> 
<path style="fill:#000000; fill-opacity:1.000000; stroke:none;fill-rule:evenodd;"
d="M 193.550000,56.800000
193.645671,56.819030
193.726777,56.873223
193.780970,56.954329
193.800000,57.050000
193.800000,59.150000
193.780970,59.245671
193.726777,59.326777
193.645671,59.380970
193.550000,59.400000
192.450000,59.400000
192.354329,59.380970
192.273223,59.326777
192.219030,59.245671
192.200000,59.150000
192.200000,57.050000
192.219030,56.954329
192.273223,56.873223
192.354329,56.819030
192.450000,56.800000
Z" /> 
</g> 
</svg>
