<?xml version="1.0" standalone="no"?>
 <!DOCTYPE svg PUBLIC "-//W3C//DTD SVG 1.1//EN" 
 "http://www.w3.org/Graphics/SVG/1.1/DTD/svg11.dtd"> 
<svg
  xmlns:svg="http://www.w3.org/2000/svg"
  xmlns="http://www.w3.org/2000/svg"
  xmlns:xlink="http://www.w3.org/1999/xlink"
  version="1.1"
  width="297.002200mm" height="210.007200mm" viewBox="0.000000 0.000000 297.002200 210.007200">
<title>SVG Image created as MiniOSC-F_Mask.svg date 2024/09/08 19:04:05 </title>
  <desc>Image generated by PCBNEW </desc>
<g style="fill:#000000; fill-opacity:1.000000;stroke:#000000; stroke-opacity:1.000000;
stroke-linecap:round; stroke-linejoin:round;"
 transform="translate(0 0) scale(1 1)">
</g>
<g style="fill:#000000; fill-opacity:1.000000; stroke:none;">
<circle cx="118.000000" cy="140.000000" r="0.762000" /> 
</g>
<g style="fill:#000000; fill-opacity:1.000000; stroke:none;">
<circle cx="120.000000" cy="140.000000" r="0.762000" /> 
</g>
<g style="fill:#000000; fill-opacity:1.000000; stroke:none;">
<circle cx="122.000000" cy="140.000000" r="0.762000" /> 
</g>
<g style="fill:#000000; fill-opacity:1.000000; stroke:none;">
<circle cx="122.000000" cy="135.000000" r="0.762000" /> 
</g>
<g style="fill:#000000; fill-opacity:1.000000; stroke:none;">
<circle cx="120.000000" cy="135.000000" r="0.762000" /> 
<path style="fill:#000000; fill-opacity:1.000000; stroke:none;fill-rule:evenodd;"
d="M 117.238000,134.488000
117.257030,134.392329
117.311223,134.311223
117.392329,134.257030
117.488000,134.238000
118.512000,134.238000
118.607671,134.257030
118.688777,134.311223
118.742970,134.392329
118.762000,134.488000
118.762000,135.512000
118.742970,135.607671
118.688777,135.688777
118.607671,135.742970
118.512000,135.762000
117.488000,135.762000
117.392329,135.742970
117.311223,135.688777
117.257030,135.607671
117.238000,135.512000
Z" /> 
</g>
<g style="fill:#000000; fill-opacity:1.000000; stroke:none;">
<circle cx="95.000000" cy="122.500000" r="3.500000" /> 
</g>
<g style="fill:#000000; fill-opacity:1.000000; stroke:none;">
<circle cx="85.000000" cy="122.500000" r="3.500000" /> 
</g>
<g style="fill:none; 
stroke:#000000; stroke-width:4.200000; stroke-opacity:1; 
stroke-linecap:round; stroke-linejoin:round;">
<path d="M76.100000 43.000000
L78.900000 43.000000
" />
<path d="M76.100000 165.500000
L78.900000 165.500000
" />
</g>
<g style="fill:none; 
stroke:#000000; stroke-width:2.720000; stroke-opacity:1; 
stroke-linecap:round; stroke-linejoin:round;">
<path d="M108.200000 54.760000
L108.200000 54.240000
" />
<path d="M117.800000 54.760000
L117.800000 54.240000
" />
<path style="fill:#000000; fill-opacity:1.000000; stroke:none;fill-rule:evenodd;"
d="M 111.400000,61.100000
111.400000,62.900000
109.600000,62.900000
109.600000,61.100000
Z" /> 
</g>
<g style="fill:#000000; fill-opacity:1.000000; stroke:none;">
<circle cx="113.000000" cy="62.000000" r="0.900000" /> 
</g>
<g style="fill:#000000; fill-opacity:1.000000; stroke:none;">
<circle cx="115.500000" cy="62.000000" r="0.900000" /> 
<path style="fill:#000000; fill-opacity:1.000000; stroke:none;fill-rule:evenodd;"
d="M 130.965000,145.085000
130.965000,146.915000
129.035000,146.915000
129.035000,145.085000
Z" /> 
</g>
<g style="fill:#000000; fill-opacity:1.000000; stroke:none;">
<circle cx="130.000000" cy="157.400000" r="1.065000" /> 
</g>
<g style="fill:#000000; fill-opacity:1.000000; stroke:none;">
<circle cx="130.000000" cy="149.100000" r="1.065000" /> 
<path style="fill:#000000; fill-opacity:1.000000; stroke:none;fill-rule:evenodd;"
d="M 125.350000,74.450000
125.369030,74.354329
125.423223,74.273223
125.504329,74.219030
125.600000,74.200000
128.600000,74.200000
128.695671,74.219030
128.776777,74.273223
128.830970,74.354329
128.850000,74.450000
128.850000,75.550000
128.830970,75.645671
128.776777,75.726777
128.695671,75.780970
128.600000,75.800000
125.600000,75.800000
125.504329,75.780970
125.423223,75.726777
125.369030,75.645671
125.350000,75.550000
Z" /> 
<path style="fill:#000000; fill-opacity:1.000000; stroke:none;fill-rule:evenodd;"
d="M 130.750000,74.450000
130.769030,74.354329
130.823223,74.273223
130.904329,74.219030
131.000000,74.200000
134.000000,74.200000
134.095671,74.219030
134.176777,74.273223
134.230970,74.354329
134.250000,74.450000
134.250000,75.550000
134.230970,75.645671
134.176777,75.726777
134.095671,75.780970
134.000000,75.800000
131.000000,75.800000
130.904329,75.780970
130.823223,75.726777
130.769030,75.645671
130.750000,75.550000
Z" /> 
<path style="fill:#000000; fill-opacity:1.000000; stroke:none;fill-rule:evenodd;"
d="M 110.965000,145.085000
110.965000,146.915000
109.035000,146.915000
109.035000,145.085000
Z" /> 
</g>
<g style="fill:#000000; fill-opacity:1.000000; stroke:none;">
<circle cx="110.000000" cy="157.400000" r="1.065000" /> 
</g>
<g style="fill:#000000; fill-opacity:1.000000; stroke:none;">
<circle cx="110.000000" cy="149.100000" r="1.065000" /> 
</g>
<g style="fill:none; 
stroke:#000000; stroke-width:2.720000; stroke-opacity:1; 
stroke-linecap:round; stroke-linejoin:round;">
<path d="M106.600000 104.760000
L106.600000 104.240000
" />
<path d="M116.200000 104.760000
L116.200000 104.240000
" />
<path style="fill:#000000; fill-opacity:1.000000; stroke:none;fill-rule:evenodd;"
d="M 109.800000,111.100000
109.800000,112.900000
108.000000,112.900000
108.000000,111.100000
Z" /> 
</g>
<g style="fill:#000000; fill-opacity:1.000000; stroke:none;">
<circle cx="111.400000" cy="112.000000" r="0.900000" /> 
</g>
<g style="fill:#000000; fill-opacity:1.000000; stroke:none;">
<circle cx="113.900000" cy="112.000000" r="0.900000" /> 
</g>
<g style="fill:#000000; fill-opacity:1.000000; stroke:none;">
<circle cx="78.000000" cy="71.500000" r="4.000000" /> 
<path style="fill:#000000; fill-opacity:1.000000; stroke:none;fill-rule:evenodd;"
d="M 130.965000,115.085000
130.965000,116.915000
129.035000,116.915000
129.035000,115.085000
Z" /> 
</g>
<g style="fill:#000000; fill-opacity:1.000000; stroke:none;">
<circle cx="130.000000" cy="127.400000" r="1.065000" /> 
</g>
<g style="fill:#000000; fill-opacity:1.000000; stroke:none;">
<circle cx="130.000000" cy="119.100000" r="1.065000" /> 
</g>
<g style="fill:#000000; fill-opacity:1.000000; stroke:none;">
<circle cx="75.000000" cy="137.500000" r="3.500000" /> 
</g>
<g style="fill:#000000; fill-opacity:1.000000; stroke:none;">
<circle cx="76.400000" cy="104.500000" r="4.000000" /> 
</g>
<g style="fill:#000000; fill-opacity:1.000000; stroke:none;">
<circle cx="75.000000" cy="152.500000" r="3.500000" /> 
<path style="fill:#000000; fill-opacity:1.000000; stroke:none;fill-rule:evenodd;"
d="M 110.965000,130.085000
110.965000,131.915000
109.035000,131.915000
109.035000,130.085000
Z" /> 
</g>
<g style="fill:#000000; fill-opacity:1.000000; stroke:none;">
<circle cx="110.000000" cy="142.400000" r="1.065000" /> 
</g>
<g style="fill:#000000; fill-opacity:1.000000; stroke:none;">
<circle cx="110.000000" cy="134.100000" r="1.065000" /> 
</g>
<g style="fill:none; 
stroke:#000000; stroke-width:2.720000; stroke-opacity:1; 
stroke-linecap:round; stroke-linejoin:round;">
<path d="M123.800000 104.760000
L123.800000 104.240000
" />
<path d="M133.400000 104.760000
L133.400000 104.240000
" />
<path style="fill:#000000; fill-opacity:1.000000; stroke:none;fill-rule:evenodd;"
d="M 127.000000,111.100000
127.000000,112.900000
125.200000,112.900000
125.200000,111.100000
Z" /> 
</g>
<g style="fill:#000000; fill-opacity:1.000000; stroke:none;">
<circle cx="128.600000" cy="112.000000" r="0.900000" /> 
</g>
<g style="fill:#000000; fill-opacity:1.000000; stroke:none;">
<circle cx="131.100000" cy="112.000000" r="0.900000" /> 
<path style="fill:#000000; fill-opacity:1.000000; stroke:none;fill-rule:evenodd;"
d="M 120.965000,115.085000
120.965000,116.915000
119.035000,116.915000
119.035000,115.085000
Z" /> 
</g>
<g style="fill:#000000; fill-opacity:1.000000; stroke:none;">
<circle cx="120.000000" cy="127.400000" r="1.065000" /> 
</g>
<g style="fill:#000000; fill-opacity:1.000000; stroke:none;">
<circle cx="120.000000" cy="119.100000" r="1.065000" /> 
</g>
<g style="fill:#000000; fill-opacity:1.000000; stroke:none;">
<circle cx="92.000000" cy="88.000000" r="4.000000" /> 
</g>
<g style="fill:#000000; fill-opacity:1.000000; stroke:none;">
<circle cx="93.600000" cy="104.500000" r="4.000000" /> 
</g>
<g style="fill:#000000; fill-opacity:1.000000; stroke:none;">
<circle cx="95.000000" cy="152.500000" r="3.500000" /> 
</g>
<g style="fill:#000000; fill-opacity:1.000000; stroke:none;">
<circle cx="78.000000" cy="54.500000" r="4.000000" /> 
</g>
<g style="fill:none; 
stroke:#000000; stroke-width:2.720000; stroke-opacity:1; 
stroke-linecap:round; stroke-linejoin:round;">
<path d="M108.200000 71.760000
L108.200000 71.240000
" />
<path d="M117.800000 71.760000
L117.800000 71.240000
" />
<path style="fill:#000000; fill-opacity:1.000000; stroke:none;fill-rule:evenodd;"
d="M 111.400000,78.100000
111.400000,79.900000
109.600000,79.900000
109.600000,78.100000
Z" /> 
</g>
<g style="fill:#000000; fill-opacity:1.000000; stroke:none;">
<circle cx="113.000000" cy="79.000000" r="0.900000" /> 
</g>
<g style="fill:#000000; fill-opacity:1.000000; stroke:none;">
<circle cx="115.500000" cy="79.000000" r="0.900000" /> 
</g>
<g style="fill:none; 
stroke:#000000; stroke-width:2.720000; stroke-opacity:1; 
stroke-linecap:round; stroke-linejoin:round;">
<path d="M122.200000 88.260000
L122.200000 87.740000
" />
<path d="M131.800000 88.260000
L131.800000 87.740000
" />
<path style="fill:#000000; fill-opacity:1.000000; stroke:none;fill-rule:evenodd;"
d="M 125.400000,94.600000
125.400000,96.400000
123.600000,96.400000
123.600000,94.600000
Z" /> 
</g>
<g style="fill:#000000; fill-opacity:1.000000; stroke:none;">
<circle cx="127.000000" cy="95.500000" r="0.900000" /> 
</g>
<g style="fill:#000000; fill-opacity:1.000000; stroke:none;">
<circle cx="129.500000" cy="95.500000" r="0.900000" /> 
<path style="fill:#000000; fill-opacity:1.000000; stroke:none;fill-rule:evenodd;"
d="M 120.965000,145.085000
120.965000,146.915000
119.035000,146.915000
119.035000,145.085000
Z" /> 
</g>
<g style="fill:#000000; fill-opacity:1.000000; stroke:none;">
<circle cx="120.000000" cy="157.400000" r="1.065000" /> 
</g>
<g style="fill:#000000; fill-opacity:1.000000; stroke:none;">
<circle cx="120.000000" cy="149.100000" r="1.065000" /> 
</g>
<g style="fill:#000000; fill-opacity:1.000000; stroke:none;">
<circle cx="85.000000" cy="152.500000" r="3.500000" /> 
</g>
<g style="fill:#000000; fill-opacity:1.000000; stroke:none;">
<circle cx="75.000000" cy="122.500000" r="3.500000" /> 
<path style="fill:#000000; fill-opacity:1.000000; stroke:none;fill-rule:evenodd;"
d="M 134.250000,54.050000
134.230970,54.145671
134.176777,54.226777
134.095671,54.280970
134.000000,54.300000
131.000000,54.300000
130.904329,54.280970
130.823223,54.226777
130.769030,54.145671
130.750000,54.050000
130.750000,52.950000
130.769030,52.854329
130.823223,52.773223
130.904329,52.719030
131.000000,52.700000
134.000000,52.700000
134.095671,52.719030
134.176777,52.773223
134.230970,52.854329
134.250000,52.950000
Z" /> 
<path style="fill:#000000; fill-opacity:1.000000; stroke:none;fill-rule:evenodd;"
d="M 128.850000,54.050000
128.830970,54.145671
128.776777,54.226777
128.695671,54.280970
128.600000,54.300000
125.600000,54.300000
125.504329,54.280970
125.423223,54.226777
125.369030,54.145671
125.350000,54.050000
125.350000,52.950000
125.369030,52.854329
125.423223,52.773223
125.504329,52.719030
125.600000,52.700000
128.600000,52.700000
128.695671,52.719030
128.776777,52.773223
128.830970,52.854329
128.850000,52.950000
Z" /> 
<path style="fill:#000000; fill-opacity:1.000000; stroke:none;fill-rule:evenodd;"
d="M 110.965000,115.085000
110.965000,116.915000
109.035000,116.915000
109.035000,115.085000
Z" /> 
</g>
<g style="fill:#000000; fill-opacity:1.000000; stroke:none;">
<circle cx="110.000000" cy="127.400000" r="1.065000" /> 
</g>
<g style="fill:#000000; fill-opacity:1.000000; stroke:none;">
<circle cx="110.000000" cy="119.100000" r="1.065000" /> 
<path style="fill:#000000; fill-opacity:1.000000; stroke:none;fill-rule:evenodd;"
d="M 127.650000,69.480000
127.669030,69.384329
127.723223,69.303223
127.804329,69.249030
127.900000,69.230000
129.100000,69.230000
129.195671,69.249030
129.276777,69.303223
129.330970,69.384329
129.350000,69.480000
129.350000,70.680000
129.330970,70.775671
129.276777,70.856777
129.195671,70.910970
129.100000,70.930000
127.900000,70.930000
127.804329,70.910970
127.723223,70.856777
127.669030,70.775671
127.650000,70.680000
Z" /> 
</g>
<g style="fill:#000000; fill-opacity:1.000000; stroke:none;">
<circle cx="131.040000" cy="70.080000" r="0.850000" /> 
</g>
<g style="fill:#000000; fill-opacity:1.000000; stroke:none;">
<circle cx="128.500000" cy="67.540000" r="0.850000" /> 
</g>
<g style="fill:#000000; fill-opacity:1.000000; stroke:none;">
<circle cx="131.040000" cy="67.540000" r="0.850000" /> 
</g>
<g style="fill:#000000; fill-opacity:1.000000; stroke:none;">
<circle cx="128.500000" cy="65.000000" r="0.850000" /> 
</g>
<g style="fill:#000000; fill-opacity:1.000000; stroke:none;">
<circle cx="131.040000" cy="65.000000" r="0.850000" /> 
</g>
<g style="fill:#000000; fill-opacity:1.000000; stroke:none;">
<circle cx="128.500000" cy="62.460000" r="0.850000" /> 
</g>
<g style="fill:#000000; fill-opacity:1.000000; stroke:none;">
<circle cx="131.040000" cy="62.460000" r="0.850000" /> 
</g>
<g style="fill:#000000; fill-opacity:1.000000; stroke:none;">
<circle cx="128.500000" cy="59.920000" r="0.850000" /> 
</g>
<g style="fill:#000000; fill-opacity:1.000000; stroke:none;">
<circle cx="131.040000" cy="59.920000" r="0.850000" /> 
</g>
<g style="fill:#000000; fill-opacity:1.000000; stroke:none;">
<circle cx="107.670000" cy="84.000000" r="0.720000" /> 
</g>
<g style="fill:#000000; fill-opacity:1.000000; stroke:none;">
<circle cx="110.210000" cy="84.000000" r="0.720000" /> 
</g>
<g style="fill:#000000; fill-opacity:1.000000; stroke:none;">
<circle cx="112.750000" cy="84.000000" r="0.720000" /> 
</g> 
</svg>
