<?xml version="1.0" standalone="no"?>
 <!DOCTYPE svg PUBLIC "-//W3C//DTD SVG 1.1//EN" 
 "http://www.w3.org/Graphics/SVG/1.1/DTD/svg11.dtd"> 
<svg
  xmlns:svg="http://www.w3.org/2000/svg"
  xmlns="http://www.w3.org/2000/svg"
  xmlns:xlink="http://www.w3.org/1999/xlink"
  version="1.1"
  width="297.002200mm" height="210.007200mm" viewBox="0.000000 0.000000 297.002200 210.007200">
<title>SVG Image created as MiniOSC-F_Paste.svg date 2024/09/08 19:04:05 </title>
  <desc>Image generated by PCBNEW </desc>
<g style="fill:#000000; fill-opacity:1.000000;stroke:#000000; stroke-opacity:1.000000;
stroke-linecap:round; stroke-linejoin:round;"
 transform="translate(0 0) scale(1 1)">
<path style="fill:#000000; fill-opacity:1.000000; stroke:none;fill-rule:evenodd;"
d="M 125.350000,74.450000
125.369030,74.354329
125.423223,74.273223
125.504329,74.219030
125.600000,74.200000
128.600000,74.200000
128.695671,74.219030
128.776777,74.273223
128.830970,74.354329
128.850000,74.450000
128.850000,75.550000
128.830970,75.645671
128.776777,75.726777
128.695671,75.780970
128.600000,75.800000
125.600000,75.800000
125.504329,75.780970
125.423223,75.726777
125.369030,75.645671
125.350000,75.550000
Z" /> 
<path style="fill:#000000; fill-opacity:1.000000; stroke:none;fill-rule:evenodd;"
d="M 130.750000,74.450000
130.769030,74.354329
130.823223,74.273223
130.904329,74.219030
131.000000,74.200000
134.000000,74.200000
134.095671,74.219030
134.176777,74.273223
134.230970,74.354329
134.250000,74.450000
134.250000,75.550000
134.230970,75.645671
134.176777,75.726777
134.095671,75.780970
134.000000,75.800000
131.000000,75.800000
130.904329,75.780970
130.823223,75.726777
130.769030,75.645671
130.750000,75.550000
Z" /> 
<path style="fill:#000000; fill-opacity:1.000000; stroke:none;fill-rule:evenodd;"
d="M 134.250000,54.050000
134.230970,54.145671
134.176777,54.226777
134.095671,54.280970
134.000000,54.300000
131.000000,54.300000
130.904329,54.280970
130.823223,54.226777
130.769030,54.145671
130.750000,54.050000
130.750000,52.950000
130.769030,52.854329
130.823223,52.773223
130.904329,52.719030
131.000000,52.700000
134.000000,52.700000
134.095671,52.719030
134.176777,52.773223
134.230970,52.854329
134.250000,52.950000
Z" /> 
<path style="fill:#000000; fill-opacity:1.000000; stroke:none;fill-rule:evenodd;"
d="M 128.850000,54.050000
128.830970,54.145671
128.776777,54.226777
128.695671,54.280970
128.600000,54.300000
125.600000,54.300000
125.504329,54.280970
125.423223,54.226777
125.369030,54.145671
125.350000,54.050000
125.350000,52.950000
125.369030,52.854329
125.423223,52.773223
125.504329,52.719030
125.600000,52.700000
128.600000,52.700000
128.695671,52.719030
128.776777,52.773223
128.830970,52.854329
128.850000,52.950000
Z" /> 
</g> 
</svg>
