<?xml version="1.0" standalone="no"?>
 <!DOCTYPE svg PUBLIC "-//W3C//DTD SVG 1.1//EN" 
 "http://www.w3.org/Graphics/SVG/1.1/DTD/svg11.dtd"> 
<svg
  xmlns:svg="http://www.w3.org/2000/svg"
  xmlns="http://www.w3.org/2000/svg"
  xmlns:xlink="http://www.w3.org/1999/xlink"
  version="1.1"
  width="297.002200mm" height="210.007200mm" viewBox="0.000000 0.000000 297.002200 210.007200">
<title>SVG Image created as MiniOSC-F_Silkscreen.svg date 2024/09/08 19:04:05 </title>
  <desc>Image generated by PCBNEW </desc>
<g style="fill:#000000; fill-opacity:1.000000;stroke:#000000; stroke-opacity:1.000000;
stroke-linecap:round; stroke-linejoin:round;"
 transform="translate(0 0) scale(1 1)">
</g>
<g style="fill:none; 
stroke:#000000; stroke-width:0.100000; stroke-opacity:1; 
stroke-linecap:round; stroke-linejoin:round;">
<text x="120.000000" y="137.500000"
textLength="3.147619" font-size="1.333333" lengthAdjust="spacingAndGlyphs"
text-anchor="middle" opacity="0" stroke-opacity="0">SW1</text>
<g class="stroked-text"><desc>SW1</desc>
<path d="M118.666667 137.409800
L118.809524 137.457419
" />
<path d="M118.809524 137.457419
L119.047619 137.457419
" />
<path d="M119.047619 137.457419
L119.142857 137.409800
" />
<path d="M119.142857 137.409800
L119.190476 137.362180
" />
<path d="M119.190476 137.362180
L119.238095 137.266942
" />
<path d="M119.238095 137.266942
L119.238095 137.171704
" />
<path d="M119.238095 137.171704
L119.190476 137.076466
" />
<path d="M119.190476 137.076466
L119.142857 137.028847
" />
<path d="M119.142857 137.028847
L119.047619 136.981228
" />
<path d="M119.047619 136.981228
L118.857143 136.933609
" />
<path d="M118.857143 136.933609
L118.761905 136.885990
" />
<path d="M118.761905 136.885990
L118.714286 136.838371
" />
<path d="M118.714286 136.838371
L118.666667 136.743133
" />
<path d="M118.666667 136.743133
L118.666667 136.647895
" />
<path d="M118.666667 136.647895
L118.714286 136.552657
" />
<path d="M118.714286 136.552657
L118.761905 136.505038
" />
<path d="M118.761905 136.505038
L118.857143 136.457419
" />
<path d="M118.857143 136.457419
L119.095238 136.457419
" />
<path d="M119.095238 136.457419
L119.238095 136.505038
" />
<path d="M119.571429 136.457419
L119.809524 137.457419
" />
<path d="M119.809524 137.457419
L120.000000 136.743133
" />
<path d="M120.000000 136.743133
L120.190476 137.457419
" />
<path d="M120.190476 137.457419
L120.428572 136.457419
" />
<path d="M121.333333 137.457419
L120.761905 137.457419
" />
<path d="M121.047619 137.457419
L121.047619 136.457419
" />
<path d="M121.047619 136.457419
L120.952381 136.600276
" />
<path d="M120.952381 136.600276
L120.857143 136.695514
" />
<path d="M120.857143 136.695514
L120.761905 136.743133
" />
</g></g>
<g style="fill:none; 
stroke:#000000; stroke-width:0.150000; stroke-opacity:1; 
stroke-linecap:round; stroke-linejoin:round;">
<g transform="rotate(-90.000000 105.500000 54.500000)">
<text x="105.500000" y="55.000000"
textLength="13.107143" font-size="1.333333" lengthAdjust="spacingAndGlyphs"
text-anchor="middle" opacity="0" stroke-opacity="0">TUNING_COARSE1</text>
</g>
<g class="stroked-text"><desc>TUNING_COARSE1</desc>
<path d="M104.954819 60.833332
L104.954819 60.261904
" />
<path d="M105.954819 60.547618
L104.954819 60.547618
" />
<path d="M104.954819 59.928570
L105.764342 59.928570
" />
<path d="M105.764342 59.928570
L105.859580 59.880951
" />
<path d="M105.859580 59.880951
L105.907200 59.833332
" />
<path d="M105.907200 59.833332
L105.954819 59.738094
" />
<path d="M105.954819 59.738094
L105.954819 59.547618
" />
<path d="M105.954819 59.547618
L105.907200 59.452380
" />
<path d="M105.907200 59.452380
L105.859580 59.404761
" />
<path d="M105.859580 59.404761
L105.764342 59.357142
" />
<path d="M105.764342 59.357142
L104.954819 59.357142
" />
<path d="M105.954819 58.880951
L104.954819 58.880951
" />
<path d="M104.954819 58.880951
L105.954819 58.309523
" />
<path d="M105.954819 58.309523
L104.954819 58.309523
" />
<path d="M105.954819 57.833332
L104.954819 57.833332
" />
<path d="M105.954819 57.357142
L104.954819 57.357142
" />
<path d="M104.954819 57.357142
L105.954819 56.785714
" />
<path d="M105.954819 56.785714
L104.954819 56.785714
" />
<path d="M105.002438 55.785714
L104.954819 55.880952
" />
<path d="M104.954819 55.880952
L104.954819 56.023809
" />
<path d="M104.954819 56.023809
L105.002438 56.166666
" />
<path d="M105.002438 56.166666
L105.097676 56.261904
" />
<path d="M105.097676 56.261904
L105.192914 56.309523
" />
<path d="M105.192914 56.309523
L105.383390 56.357142
" />
<path d="M105.383390 56.357142
L105.526247 56.357142
" />
<path d="M105.526247 56.357142
L105.716723 56.309523
" />
<path d="M105.716723 56.309523
L105.811961 56.261904
" />
<path d="M105.811961 56.261904
L105.907200 56.166666
" />
<path d="M105.907200 56.166666
L105.954819 56.023809
" />
<path d="M105.954819 56.023809
L105.954819 55.928571
" />
<path d="M105.954819 55.928571
L105.907200 55.785714
" />
<path d="M105.907200 55.785714
L105.859580 55.738095
" />
<path d="M105.859580 55.738095
L105.526247 55.738095
" />
<path d="M105.526247 55.738095
L105.526247 55.928571
" />
<path d="M106.050057 55.547619
L106.050057 54.785714
" />
<path d="M105.859580 53.976190
L105.907200 54.023809
" />
<path d="M105.907200 54.023809
L105.954819 54.166666
" />
<path d="M105.954819 54.166666
L105.954819 54.261904
" />
<path d="M105.954819 54.261904
L105.907200 54.404761
" />
<path d="M105.907200 54.404761
L105.811961 54.499999
" />
<path d="M105.811961 54.499999
L105.716723 54.547618
" />
<path d="M105.716723 54.547618
L105.526247 54.595237
" />
<path d="M105.526247 54.595237
L105.383390 54.595237
" />
<path d="M105.383390 54.595237
L105.192914 54.547618
" />
<path d="M105.192914 54.547618
L105.097676 54.499999
" />
<path d="M105.097676 54.499999
L105.002438 54.404761
" />
<path d="M105.002438 54.404761
L104.954819 54.261904
" />
<path d="M104.954819 54.261904
L104.954819 54.166666
" />
<path d="M104.954819 54.166666
L105.002438 54.023809
" />
<path d="M105.002438 54.023809
L105.050057 53.976190
" />
<path d="M104.954819 53.357142
L104.954819 53.166666
" />
<path d="M104.954819 53.166666
L105.002438 53.071428
" />
<path d="M105.002438 53.071428
L105.097676 52.976190
" />
<path d="M105.097676 52.976190
L105.288152 52.928571
" />
<path d="M105.288152 52.928571
L105.621485 52.928571
" />
<path d="M105.621485 52.928571
L105.811961 52.976190
" />
<path d="M105.811961 52.976190
L105.907200 53.071428
" />
<path d="M105.907200 53.071428
L105.954819 53.166666
" />
<path d="M105.954819 53.166666
L105.954819 53.357142
" />
<path d="M105.954819 53.357142
L105.907200 53.452380
" />
<path d="M105.907200 53.452380
L105.811961 53.547618
" />
<path d="M105.811961 53.547618
L105.621485 53.595237
" />
<path d="M105.621485 53.595237
L105.288152 53.595237
" />
<path d="M105.288152 53.595237
L105.097676 53.547618
" />
<path d="M105.097676 53.547618
L105.002438 53.452380
" />
<path d="M105.002438 53.452380
L104.954819 53.357142
" />
<path d="M105.669104 52.547618
L105.669104 52.071428
" />
<path d="M105.954819 52.642856
L104.954819 52.309523
" />
<path d="M104.954819 52.309523
L105.954819 51.976190
" />
<path d="M105.954819 51.071428
L105.478628 51.404761
" />
<path d="M105.954819 51.642856
L104.954819 51.642856
" />
<path d="M104.954819 51.642856
L104.954819 51.261904
" />
<path d="M104.954819 51.261904
L105.002438 51.166666
" />
<path d="M105.002438 51.166666
L105.050057 51.119047
" />
<path d="M105.050057 51.119047
L105.145295 51.071428
" />
<path d="M105.145295 51.071428
L105.288152 51.071428
" />
<path d="M105.288152 51.071428
L105.383390 51.119047
" />
<path d="M105.383390 51.119047
L105.431009 51.166666
" />
<path d="M105.431009 51.166666
L105.478628 51.261904
" />
<path d="M105.478628 51.261904
L105.478628 51.642856
" />
<path d="M105.907200 50.690475
L105.954819 50.547618
" />
<path d="M105.954819 50.547618
L105.954819 50.309523
" />
<path d="M105.954819 50.309523
L105.907200 50.214285
" />
<path d="M105.907200 50.214285
L105.859580 50.166666
" />
<path d="M105.859580 50.166666
L105.764342 50.119047
" />
<path d="M105.764342 50.119047
L105.669104 50.119047
" />
<path d="M105.669104 50.119047
L105.573866 50.166666
" />
<path d="M105.573866 50.166666
L105.526247 50.214285
" />
<path d="M105.526247 50.214285
L105.478628 50.309523
" />
<path d="M105.478628 50.309523
L105.431009 50.499999
" />
<path d="M105.431009 50.499999
L105.383390 50.595237
" />
<path d="M105.383390 50.595237
L105.335771 50.642856
" />
<path d="M105.335771 50.642856
L105.240533 50.690475
" />
<path d="M105.240533 50.690475
L105.145295 50.690475
" />
<path d="M105.145295 50.690475
L105.050057 50.642856
" />
<path d="M105.050057 50.642856
L105.002438 50.595237
" />
<path d="M105.002438 50.595237
L104.954819 50.499999
" />
<path d="M104.954819 50.499999
L104.954819 50.261904
" />
<path d="M104.954819 50.261904
L105.002438 50.119047
" />
<path d="M105.431009 49.690475
L105.431009 49.357142
" />
<path d="M105.954819 49.214285
L105.954819 49.690475
" />
<path d="M105.954819 49.690475
L104.954819 49.690475
" />
<path d="M104.954819 49.690475
L104.954819 49.214285
" />
<path d="M105.954819 48.261904
L105.954819 48.833332
" />
<path d="M105.954819 48.547618
L104.954819 48.547618
" />
<path d="M104.954819 48.547618
L105.097676 48.642856
" />
<path d="M105.097676 48.642856
L105.192914 48.738094
" />
<path d="M105.192914 48.738094
L105.240533 48.833332
" />
</g><text x="130.000000" y="144.000000"
textLength="2.916667" font-size="1.333333" lengthAdjust="spacingAndGlyphs"
text-anchor="middle" opacity="0" stroke-opacity="0">J14</text>
<g class="stroked-text"><desc>J14</desc>
<path d="M129.190476 142.954819
L129.190476 143.669104
" />
<path d="M129.190476 143.669104
L129.142857 143.811961
" />
<path d="M129.142857 143.811961
L129.047619 143.907200
" />
<path d="M129.047619 143.907200
L128.904762 143.954819
" />
<path d="M128.904762 143.954819
L128.809524 143.954819
" />
<path d="M130.190476 143.954819
L129.619048 143.954819
" />
<path d="M129.904762 143.954819
L129.904762 142.954819
" />
<path d="M129.904762 142.954819
L129.809524 143.097676
" />
<path d="M129.809524 143.097676
L129.714286 143.192914
" />
<path d="M129.714286 143.192914
L129.619048 143.240533
" />
<path d="M131.047619 143.288152
L131.047619 143.954819
" />
<path d="M130.809524 142.907200
L130.571429 143.621485
" />
<path d="M130.571429 143.621485
L131.190476 143.621485
" />
</g><text x="130.000000" y="160.500000"
textLength="8.583334" font-size="1.333333" lengthAdjust="spacingAndGlyphs"
text-anchor="middle" opacity="0" stroke-opacity="0">PULSE_OUT</text>
<g class="stroked-text"><desc>PULSE_OUT</desc>
<path d="M126.071428 160.454819
L126.071428 159.454819
" />
<path d="M126.071428 159.454819
L126.452380 159.454819
" />
<path d="M126.452380 159.454819
L126.547618 159.502438
" />
<path d="M126.547618 159.502438
L126.595237 159.550057
" />
<path d="M126.595237 159.550057
L126.642856 159.645295
" />
<path d="M126.642856 159.645295
L126.642856 159.788152
" />
<path d="M126.642856 159.788152
L126.595237 159.883390
" />
<path d="M126.595237 159.883390
L126.547618 159.931009
" />
<path d="M126.547618 159.931009
L126.452380 159.978628
" />
<path d="M126.452380 159.978628
L126.071428 159.978628
" />
<path d="M127.071428 159.454819
L127.071428 160.264342
" />
<path d="M127.071428 160.264342
L127.119047 160.359580
" />
<path d="M127.119047 160.359580
L127.166666 160.407200
" />
<path d="M127.166666 160.407200
L127.261904 160.454819
" />
<path d="M127.261904 160.454819
L127.452380 160.454819
" />
<path d="M127.452380 160.454819
L127.547618 160.407200
" />
<path d="M127.547618 160.407200
L127.595237 160.359580
" />
<path d="M127.595237 160.359580
L127.642856 160.264342
" />
<path d="M127.642856 160.264342
L127.642856 159.454819
" />
<path d="M128.595237 160.454819
L128.119047 160.454819
" />
<path d="M128.119047 160.454819
L128.119047 159.454819
" />
<path d="M128.880952 160.407200
L129.023809 160.454819
" />
<path d="M129.023809 160.454819
L129.261904 160.454819
" />
<path d="M129.261904 160.454819
L129.357142 160.407200
" />
<path d="M129.357142 160.407200
L129.404761 160.359580
" />
<path d="M129.404761 160.359580
L129.452380 160.264342
" />
<path d="M129.452380 160.264342
L129.452380 160.169104
" />
<path d="M129.452380 160.169104
L129.404761 160.073866
" />
<path d="M129.404761 160.073866
L129.357142 160.026247
" />
<path d="M129.357142 160.026247
L129.261904 159.978628
" />
<path d="M129.261904 159.978628
L129.071428 159.931009
" />
<path d="M129.071428 159.931009
L128.976190 159.883390
" />
<path d="M128.976190 159.883390
L128.928571 159.835771
" />
<path d="M128.928571 159.835771
L128.880952 159.740533
" />
<path d="M128.880952 159.740533
L128.880952 159.645295
" />
<path d="M128.880952 159.645295
L128.928571 159.550057
" />
<path d="M128.928571 159.550057
L128.976190 159.502438
" />
<path d="M128.976190 159.502438
L129.071428 159.454819
" />
<path d="M129.071428 159.454819
L129.309523 159.454819
" />
<path d="M129.309523 159.454819
L129.452380 159.502438
" />
<path d="M129.880952 159.931009
L130.214285 159.931009
" />
<path d="M130.357142 160.454819
L129.880952 160.454819
" />
<path d="M129.880952 160.454819
L129.880952 159.454819
" />
<path d="M129.880952 159.454819
L130.357142 159.454819
" />
<path d="M130.547619 160.550057
L131.309523 160.550057
" />
<path d="M131.738095 159.454819
L131.928571 159.454819
" />
<path d="M131.928571 159.454819
L132.023809 159.502438
" />
<path d="M132.023809 159.502438
L132.119047 159.597676
" />
<path d="M132.119047 159.597676
L132.166666 159.788152
" />
<path d="M132.166666 159.788152
L132.166666 160.121485
" />
<path d="M132.166666 160.121485
L132.119047 160.311961
" />
<path d="M132.119047 160.311961
L132.023809 160.407200
" />
<path d="M132.023809 160.407200
L131.928571 160.454819
" />
<path d="M131.928571 160.454819
L131.738095 160.454819
" />
<path d="M131.738095 160.454819
L131.642857 160.407200
" />
<path d="M131.642857 160.407200
L131.547619 160.311961
" />
<path d="M131.547619 160.311961
L131.500000 160.121485
" />
<path d="M131.500000 160.121485
L131.500000 159.788152
" />
<path d="M131.500000 159.788152
L131.547619 159.597676
" />
<path d="M131.547619 159.597676
L131.642857 159.502438
" />
<path d="M131.642857 159.502438
L131.738095 159.454819
" />
<path d="M132.595238 159.454819
L132.595238 160.264342
" />
<path d="M132.595238 160.264342
L132.642857 160.359580
" />
<path d="M132.642857 160.359580
L132.690476 160.407200
" />
<path d="M132.690476 160.407200
L132.785714 160.454819
" />
<path d="M132.785714 160.454819
L132.976190 160.454819
" />
<path d="M132.976190 160.454819
L133.071428 160.407200
" />
<path d="M133.071428 160.407200
L133.119047 160.359580
" />
<path d="M133.119047 160.359580
L133.166666 160.264342
" />
<path d="M133.166666 160.264342
L133.166666 159.454819
" />
<path d="M133.500000 159.454819
L134.071428 159.454819
" />
<path d="M133.785714 160.454819
L133.785714 159.454819
" />
</g><text x="129.800000" y="71.150000"
textLength="3.154762" font-size="1.333333" lengthAdjust="spacingAndGlyphs"
text-anchor="middle" opacity="0" stroke-opacity="0">C10</text>
<g class="stroked-text"><desc>C10</desc>
<path d="M129.157142 71.009580
L129.109523 71.057200
" />
<path d="M129.109523 71.057200
L128.966666 71.104819
" />
<path d="M128.966666 71.104819
L128.871428 71.104819
" />
<path d="M128.871428 71.104819
L128.728571 71.057200
" />
<path d="M128.728571 71.057200
L128.633333 70.961961
" />
<path d="M128.633333 70.961961
L128.585714 70.866723
" />
<path d="M128.585714 70.866723
L128.538095 70.676247
" />
<path d="M128.538095 70.676247
L128.538095 70.533390
" />
<path d="M128.538095 70.533390
L128.585714 70.342914
" />
<path d="M128.585714 70.342914
L128.633333 70.247676
" />
<path d="M128.633333 70.247676
L128.728571 70.152438
" />
<path d="M128.728571 70.152438
L128.871428 70.104819
" />
<path d="M128.871428 70.104819
L128.966666 70.104819
" />
<path d="M128.966666 70.104819
L129.109523 70.152438
" />
<path d="M129.109523 70.152438
L129.157142 70.200057
" />
<path d="M130.109523 71.104819
L129.538095 71.104819
" />
<path d="M129.823809 71.104819
L129.823809 70.104819
" />
<path d="M129.823809 70.104819
L129.728571 70.247676
" />
<path d="M129.728571 70.247676
L129.633333 70.342914
" />
<path d="M129.633333 70.342914
L129.538095 70.390533
" />
<path d="M130.728571 70.104819
L130.823809 70.104819
" />
<path d="M130.823809 70.104819
L130.919047 70.152438
" />
<path d="M130.919047 70.152438
L130.966666 70.200057
" />
<path d="M130.966666 70.200057
L131.014285 70.295295
" />
<path d="M131.014285 70.295295
L131.061904 70.485771
" />
<path d="M131.061904 70.485771
L131.061904 70.723866
" />
<path d="M131.061904 70.723866
L131.014285 70.914342
" />
<path d="M131.014285 70.914342
L130.966666 71.009580
" />
<path d="M130.966666 71.009580
L130.919047 71.057200
" />
<path d="M130.919047 71.057200
L130.823809 71.104819
" />
<path d="M130.823809 71.104819
L130.728571 71.104819
" />
<path d="M130.728571 71.104819
L130.633333 71.057200
" />
<path d="M130.633333 71.057200
L130.585714 71.009580
" />
<path d="M130.585714 71.009580
L130.538095 70.914342
" />
<path d="M130.538095 70.914342
L130.490476 70.723866
" />
<path d="M130.490476 70.723866
L130.490476 70.485771
" />
<path d="M130.490476 70.485771
L130.538095 70.295295
" />
<path d="M130.538095 70.295295
L130.585714 70.200057
" />
<path d="M130.585714 70.200057
L130.633333 70.152438
" />
<path d="M130.633333 70.152438
L130.728571 70.104819
" />
</g><text x="110.000000" y="144.000000"
textLength="2.916667" font-size="1.333333" lengthAdjust="spacingAndGlyphs"
text-anchor="middle" opacity="0" stroke-opacity="0">J12</text>
<g class="stroked-text"><desc>J12</desc>
<path d="M109.190476 142.954819
L109.190476 143.669104
" />
<path d="M109.190476 143.669104
L109.142857 143.811961
" />
<path d="M109.142857 143.811961
L109.047619 143.907200
" />
<path d="M109.047619 143.907200
L108.904762 143.954819
" />
<path d="M108.904762 143.954819
L108.809524 143.954819
" />
<path d="M110.190476 143.954819
L109.619048 143.954819
" />
<path d="M109.904762 143.954819
L109.904762 142.954819
" />
<path d="M109.904762 142.954819
L109.809524 143.097676
" />
<path d="M109.809524 143.097676
L109.714286 143.192914
" />
<path d="M109.714286 143.192914
L109.619048 143.240533
" />
<path d="M110.571429 143.050057
L110.619048 143.002438
" />
<path d="M110.619048 143.002438
L110.714286 142.954819
" />
<path d="M110.714286 142.954819
L110.952381 142.954819
" />
<path d="M110.952381 142.954819
L111.047619 143.002438
" />
<path d="M111.047619 143.002438
L111.095238 143.050057
" />
<path d="M111.095238 143.050057
L111.142857 143.145295
" />
<path d="M111.142857 143.145295
L111.142857 143.240533
" />
<path d="M111.142857 143.240533
L111.095238 143.383390
" />
<path d="M111.095238 143.383390
L110.523810 143.954819
" />
<path d="M110.523810 143.954819
L111.142857 143.954819
" />
</g><text x="110.000000" y="160.500000"
textLength="6.107143" font-size="1.333333" lengthAdjust="spacingAndGlyphs"
text-anchor="middle" opacity="0" stroke-opacity="0">TRI_OUT</text>
<g class="stroked-text"><desc>TRI_OUT</desc>
<path d="M107.166667 159.454819
L107.738095 159.454819
" />
<path d="M107.452381 160.454819
L107.452381 159.454819
" />
<path d="M108.642857 160.454819
L108.309524 159.978628
" />
<path d="M108.071429 160.454819
L108.071429 159.454819
" />
<path d="M108.071429 159.454819
L108.452381 159.454819
" />
<path d="M108.452381 159.454819
L108.547619 159.502438
" />
<path d="M108.547619 159.502438
L108.595238 159.550057
" />
<path d="M108.595238 159.550057
L108.642857 159.645295
" />
<path d="M108.642857 159.645295
L108.642857 159.788152
" />
<path d="M108.642857 159.788152
L108.595238 159.883390
" />
<path d="M108.595238 159.883390
L108.547619 159.931009
" />
<path d="M108.547619 159.931009
L108.452381 159.978628
" />
<path d="M108.452381 159.978628
L108.071429 159.978628
" />
<path d="M109.071429 160.454819
L109.071429 159.454819
" />
<path d="M109.309524 160.550057
L110.071428 160.550057
" />
<path d="M110.500000 159.454819
L110.690476 159.454819
" />
<path d="M110.690476 159.454819
L110.785714 159.502438
" />
<path d="M110.785714 159.502438
L110.880952 159.597676
" />
<path d="M110.880952 159.597676
L110.928571 159.788152
" />
<path d="M110.928571 159.788152
L110.928571 160.121485
" />
<path d="M110.928571 160.121485
L110.880952 160.311961
" />
<path d="M110.880952 160.311961
L110.785714 160.407200
" />
<path d="M110.785714 160.407200
L110.690476 160.454819
" />
<path d="M110.690476 160.454819
L110.500000 160.454819
" />
<path d="M110.500000 160.454819
L110.404762 160.407200
" />
<path d="M110.404762 160.407200
L110.309524 160.311961
" />
<path d="M110.309524 160.311961
L110.261905 160.121485
" />
<path d="M110.261905 160.121485
L110.261905 159.788152
" />
<path d="M110.261905 159.788152
L110.309524 159.597676
" />
<path d="M110.309524 159.597676
L110.404762 159.502438
" />
<path d="M110.404762 159.502438
L110.500000 159.454819
" />
<path d="M111.357143 159.454819
L111.357143 160.264342
" />
<path d="M111.357143 160.264342
L111.404762 160.359580
" />
<path d="M111.404762 160.359580
L111.452381 160.407200
" />
<path d="M111.452381 160.407200
L111.547619 160.454819
" />
<path d="M111.547619 160.454819
L111.738095 160.454819
" />
<path d="M111.738095 160.454819
L111.833333 160.407200
" />
<path d="M111.833333 160.407200
L111.880952 160.359580
" />
<path d="M111.880952 160.359580
L111.928571 160.264342
" />
<path d="M111.928571 160.264342
L111.928571 159.454819
" />
<path d="M112.261905 159.454819
L112.833333 159.454819
" />
<path d="M112.547619 160.454819
L112.547619 159.454819
" />
</g><g transform="rotate(-90.000000 103.900000 104.500000)">
<text x="103.900000" y="105.000000"
textLength="6.726191" font-size="1.333333" lengthAdjust="spacingAndGlyphs"
text-anchor="middle" opacity="0" stroke-opacity="0">FM_AMT1</text>
</g>
<g class="stroked-text"><desc>FM_AMT1</desc>
<path d="M103.831009 107.166666
L103.831009 107.499999
" />
<path d="M104.354819 107.499999
L103.354819 107.499999
" />
<path d="M103.354819 107.499999
L103.354819 107.023809
" />
<path d="M104.354819 106.642856
L103.354819 106.642856
" />
<path d="M103.354819 106.642856
L104.069104 106.309523
" />
<path d="M104.069104 106.309523
L103.354819 105.976190
" />
<path d="M103.354819 105.976190
L104.354819 105.976190
" />
<path d="M104.450057 105.738095
L104.450057 104.976190
" />
<path d="M104.069104 104.785713
L104.069104 104.309523
" />
<path d="M104.354819 104.880951
L103.354819 104.547618
" />
<path d="M103.354819 104.547618
L104.354819 104.214285
" />
<path d="M104.354819 103.880951
L103.354819 103.880951
" />
<path d="M103.354819 103.880951
L104.069104 103.547618
" />
<path d="M104.069104 103.547618
L103.354819 103.214285
" />
<path d="M103.354819 103.214285
L104.354819 103.214285
" />
<path d="M103.354819 102.880951
L103.354819 102.309523
" />
<path d="M104.354819 102.595237
L103.354819 102.595237
" />
<path d="M104.354819 101.452380
L104.354819 102.023808
" />
<path d="M104.354819 101.738094
L103.354819 101.738094
" />
<path d="M103.354819 101.738094
L103.497676 101.833332
" />
<path d="M103.497676 101.833332
L103.592914 101.928570
" />
<path d="M103.592914 101.928570
L103.640533 102.023808
" />
</g><text x="133.500000" y="114.400000"
textLength="2.916667" font-size="1.333333" lengthAdjust="spacingAndGlyphs"
text-anchor="middle" opacity="0" stroke-opacity="0">J11</text>
<g class="stroked-text"><desc>J11</desc>
<path d="M132.690476 113.354819
L132.690476 114.069104
" />
<path d="M132.690476 114.069104
L132.642857 114.211961
" />
<path d="M132.642857 114.211961
L132.547619 114.307200
" />
<path d="M132.547619 114.307200
L132.404762 114.354819
" />
<path d="M132.404762 114.354819
L132.309524 114.354819
" />
<path d="M133.690476 114.354819
L133.119048 114.354819
" />
<path d="M133.404762 114.354819
L133.404762 113.354819
" />
<path d="M133.404762 113.354819
L133.309524 113.497676
" />
<path d="M133.309524 113.497676
L133.214286 113.592914
" />
<path d="M133.214286 113.592914
L133.119048 113.640533
" />
<path d="M134.642857 114.354819
L134.071429 114.354819
" />
<path d="M134.357143 114.354819
L134.357143 113.354819
" />
<path d="M134.357143 113.354819
L134.261905 113.497676
" />
<path d="M134.261905 113.497676
L134.166667 113.592914
" />
<path d="M134.166667 113.592914
L134.071429 113.640533
" />
</g><text x="128.500000" y="114.400000"
textLength="6.154762" font-size="1.333333" lengthAdjust="spacingAndGlyphs"
text-anchor="middle" opacity="0" stroke-opacity="0">PWM_CV</text>
<g class="stroked-text"><desc>PWM_CV</desc>
<path d="M125.785714 114.354819
L125.785714 113.354819
" />
<path d="M125.785714 113.354819
L126.166666 113.354819
" />
<path d="M126.166666 113.354819
L126.261904 113.402438
" />
<path d="M126.261904 113.402438
L126.309523 113.450057
" />
<path d="M126.309523 113.450057
L126.357142 113.545295
" />
<path d="M126.357142 113.545295
L126.357142 113.688152
" />
<path d="M126.357142 113.688152
L126.309523 113.783390
" />
<path d="M126.309523 113.783390
L126.261904 113.831009
" />
<path d="M126.261904 113.831009
L126.166666 113.878628
" />
<path d="M126.166666 113.878628
L125.785714 113.878628
" />
<path d="M126.690476 113.354819
L126.928571 114.354819
" />
<path d="M126.928571 114.354819
L127.119047 113.640533
" />
<path d="M127.119047 113.640533
L127.309523 114.354819
" />
<path d="M127.309523 114.354819
L127.547619 113.354819
" />
<path d="M127.928571 114.354819
L127.928571 113.354819
" />
<path d="M127.928571 113.354819
L128.261904 114.069104
" />
<path d="M128.261904 114.069104
L128.595237 113.354819
" />
<path d="M128.595237 113.354819
L128.595237 114.354819
" />
<path d="M128.833333 114.450057
L129.595237 114.450057
" />
<path d="M130.404761 114.259580
L130.357142 114.307200
" />
<path d="M130.357142 114.307200
L130.214285 114.354819
" />
<path d="M130.214285 114.354819
L130.119047 114.354819
" />
<path d="M130.119047 114.354819
L129.976190 114.307200
" />
<path d="M129.976190 114.307200
L129.880952 114.211961
" />
<path d="M129.880952 114.211961
L129.833333 114.116723
" />
<path d="M129.833333 114.116723
L129.785714 113.926247
" />
<path d="M129.785714 113.926247
L129.785714 113.783390
" />
<path d="M129.785714 113.783390
L129.833333 113.592914
" />
<path d="M129.833333 113.592914
L129.880952 113.497676
" />
<path d="M129.880952 113.497676
L129.976190 113.402438
" />
<path d="M129.976190 113.402438
L130.119047 113.354819
" />
<path d="M130.119047 113.354819
L130.214285 113.354819
" />
<path d="M130.214285 113.354819
L130.357142 113.402438
" />
<path d="M130.357142 113.402438
L130.404761 113.450057
" />
<path d="M130.690476 113.354819
L131.023809 114.354819
" />
<path d="M131.023809 114.354819
L131.357142 113.354819
" />
</g><text x="113.500000" y="129.400000"
textLength="1.964286" font-size="1.333333" lengthAdjust="spacingAndGlyphs"
text-anchor="middle" opacity="0" stroke-opacity="0">J9</text>
<g class="stroked-text"><desc>J9</desc>
<path d="M113.166666 128.354819
L113.166666 129.069104
" />
<path d="M113.166666 129.069104
L113.119047 129.211961
" />
<path d="M113.119047 129.211961
L113.023809 129.307200
" />
<path d="M113.023809 129.307200
L112.880952 129.354819
" />
<path d="M112.880952 129.354819
L112.785714 129.354819
" />
<path d="M113.690476 129.354819
L113.880952 129.354819
" />
<path d="M113.880952 129.354819
L113.976190 129.307200
" />
<path d="M113.976190 129.307200
L114.023809 129.259580
" />
<path d="M114.023809 129.259580
L114.119047 129.116723
" />
<path d="M114.119047 129.116723
L114.166666 128.926247
" />
<path d="M114.166666 128.926247
L114.166666 128.545295
" />
<path d="M114.166666 128.545295
L114.119047 128.450057
" />
<path d="M114.119047 128.450057
L114.071428 128.402438
" />
<path d="M114.071428 128.402438
L113.976190 128.354819
" />
<path d="M113.976190 128.354819
L113.785714 128.354819
" />
<path d="M113.785714 128.354819
L113.690476 128.402438
" />
<path d="M113.690476 128.402438
L113.642857 128.450057
" />
<path d="M113.642857 128.450057
L113.595238 128.545295
" />
<path d="M113.595238 128.545295
L113.595238 128.783390
" />
<path d="M113.595238 128.783390
L113.642857 128.878628
" />
<path d="M113.642857 128.878628
L113.690476 128.926247
" />
<path d="M113.690476 128.926247
L113.785714 128.973866
" />
<path d="M113.785714 128.973866
L113.976190 128.973866
" />
<path d="M113.976190 128.973866
L114.071428 128.926247
" />
<path d="M114.071428 128.926247
L114.119047 128.878628
" />
<path d="M114.119047 128.878628
L114.166666 128.783390
" />
</g><text x="108.500000" y="129.400000"
textLength="6.202381" font-size="1.333333" lengthAdjust="spacingAndGlyphs"
text-anchor="middle" opacity="0" stroke-opacity="0">VOCT_IN</text>
<g class="stroked-text"><desc>VOCT_IN</desc>
<path d="M105.619048 128.354819
L105.952381 129.354819
" />
<path d="M105.952381 129.354819
L106.285714 128.354819
" />
<path d="M106.809524 128.354819
L107.000000 128.354819
" />
<path d="M107.000000 128.354819
L107.095238 128.402438
" />
<path d="M107.095238 128.402438
L107.190476 128.497676
" />
<path d="M107.190476 128.497676
L107.238095 128.688152
" />
<path d="M107.238095 128.688152
L107.238095 129.021485
" />
<path d="M107.238095 129.021485
L107.190476 129.211961
" />
<path d="M107.190476 129.211961
L107.095238 129.307200
" />
<path d="M107.095238 129.307200
L107.000000 129.354819
" />
<path d="M107.000000 129.354819
L106.809524 129.354819
" />
<path d="M106.809524 129.354819
L106.714286 129.307200
" />
<path d="M106.714286 129.307200
L106.619048 129.211961
" />
<path d="M106.619048 129.211961
L106.571429 129.021485
" />
<path d="M106.571429 129.021485
L106.571429 128.688152
" />
<path d="M106.571429 128.688152
L106.619048 128.497676
" />
<path d="M106.619048 128.497676
L106.714286 128.402438
" />
<path d="M106.714286 128.402438
L106.809524 128.354819
" />
<path d="M108.238095 129.259580
L108.190476 129.307200
" />
<path d="M108.190476 129.307200
L108.047619 129.354819
" />
<path d="M108.047619 129.354819
L107.952381 129.354819
" />
<path d="M107.952381 129.354819
L107.809524 129.307200
" />
<path d="M107.809524 129.307200
L107.714286 129.211961
" />
<path d="M107.714286 129.211961
L107.666667 129.116723
" />
<path d="M107.666667 129.116723
L107.619048 128.926247
" />
<path d="M107.619048 128.926247
L107.619048 128.783390
" />
<path d="M107.619048 128.783390
L107.666667 128.592914
" />
<path d="M107.666667 128.592914
L107.714286 128.497676
" />
<path d="M107.714286 128.497676
L107.809524 128.402438
" />
<path d="M107.809524 128.402438
L107.952381 128.354819
" />
<path d="M107.952381 128.354819
L108.047619 128.354819
" />
<path d="M108.047619 128.354819
L108.190476 128.402438
" />
<path d="M108.190476 128.402438
L108.238095 128.450057
" />
<path d="M108.523810 128.354819
L109.095238 128.354819
" />
<path d="M108.809524 129.354819
L108.809524 128.354819
" />
<path d="M109.190477 129.450057
L109.952381 129.450057
" />
<path d="M110.190477 129.354819
L110.190477 128.354819
" />
<path d="M110.666667 129.354819
L110.666667 128.354819
" />
<path d="M110.666667 128.354819
L111.238095 129.354819
" />
<path d="M111.238095 129.354819
L111.238095 128.354819
" />
</g><g transform="rotate(-90.000000 121.100000 104.500000)">
<text x="121.100000" y="105.000000"
textLength="11.107143" font-size="1.333333" lengthAdjust="spacingAndGlyphs"
text-anchor="middle" opacity="0" stroke-opacity="0">PULSE_WIDTH1</text>
</g>
<g class="stroked-text"><desc>PULSE_WIDTH1</desc>
<path d="M121.554819 109.690475
L120.554819 109.690475
" />
<path d="M120.554819 109.690475
L120.554819 109.309523
" />
<path d="M120.554819 109.309523
L120.602438 109.214285
" />
<path d="M120.602438 109.214285
L120.650057 109.166666
" />
<path d="M120.650057 109.166666
L120.745295 109.119047
" />
<path d="M120.745295 109.119047
L120.888152 109.119047
" />
<path d="M120.888152 109.119047
L120.983390 109.166666
" />
<path d="M120.983390 109.166666
L121.031009 109.214285
" />
<path d="M121.031009 109.214285
L121.078628 109.309523
" />
<path d="M121.078628 109.309523
L121.078628 109.690475
" />
<path d="M120.554819 108.690475
L121.364342 108.690475
" />
<path d="M121.364342 108.690475
L121.459580 108.642856
" />
<path d="M121.459580 108.642856
L121.507200 108.595237
" />
<path d="M121.507200 108.595237
L121.554819 108.499999
" />
<path d="M121.554819 108.499999
L121.554819 108.309523
" />
<path d="M121.554819 108.309523
L121.507200 108.214285
" />
<path d="M121.507200 108.214285
L121.459580 108.166666
" />
<path d="M121.459580 108.166666
L121.364342 108.119047
" />
<path d="M121.364342 108.119047
L120.554819 108.119047
" />
<path d="M121.554819 107.166666
L121.554819 107.642856
" />
<path d="M121.554819 107.642856
L120.554819 107.642856
" />
<path d="M121.507200 106.880951
L121.554819 106.738094
" />
<path d="M121.554819 106.738094
L121.554819 106.499999
" />
<path d="M121.554819 106.499999
L121.507200 106.404761
" />
<path d="M121.507200 106.404761
L121.459580 106.357142
" />
<path d="M121.459580 106.357142
L121.364342 106.309523
" />
<path d="M121.364342 106.309523
L121.269104 106.309523
" />
<path d="M121.269104 106.309523
L121.173866 106.357142
" />
<path d="M121.173866 106.357142
L121.126247 106.404761
" />
<path d="M121.126247 106.404761
L121.078628 106.499999
" />
<path d="M121.078628 106.499999
L121.031009 106.690475
" />
<path d="M121.031009 106.690475
L120.983390 106.785713
" />
<path d="M120.983390 106.785713
L120.935771 106.833332
" />
<path d="M120.935771 106.833332
L120.840533 106.880951
" />
<path d="M120.840533 106.880951
L120.745295 106.880951
" />
<path d="M120.745295 106.880951
L120.650057 106.833332
" />
<path d="M120.650057 106.833332
L120.602438 106.785713
" />
<path d="M120.602438 106.785713
L120.554819 106.690475
" />
<path d="M120.554819 106.690475
L120.554819 106.452380
" />
<path d="M120.554819 106.452380
L120.602438 106.309523
" />
<path d="M121.031009 105.880951
L121.031009 105.547618
" />
<path d="M121.554819 105.404761
L121.554819 105.880951
" />
<path d="M121.554819 105.880951
L120.554819 105.880951
" />
<path d="M120.554819 105.880951
L120.554819 105.404761
" />
<path d="M121.650057 105.214285
L121.650057 104.452380
" />
<path d="M120.554819 104.309522
L121.554819 104.071427
" />
<path d="M121.554819 104.071427
L120.840533 103.880951
" />
<path d="M120.840533 103.880951
L121.554819 103.690475
" />
<path d="M121.554819 103.690475
L120.554819 103.452380
" />
<path d="M121.554819 103.071427
L120.554819 103.071427
" />
<path d="M121.554819 102.595237
L120.554819 102.595237
" />
<path d="M120.554819 102.595237
L120.554819 102.357142
" />
<path d="M120.554819 102.357142
L120.602438 102.214285
" />
<path d="M120.602438 102.214285
L120.697676 102.119047
" />
<path d="M120.697676 102.119047
L120.792914 102.071428
" />
<path d="M120.792914 102.071428
L120.983390 102.023809
" />
<path d="M120.983390 102.023809
L121.126247 102.023809
" />
<path d="M121.126247 102.023809
L121.316723 102.071428
" />
<path d="M121.316723 102.071428
L121.411961 102.119047
" />
<path d="M121.411961 102.119047
L121.507200 102.214285
" />
<path d="M121.507200 102.214285
L121.554819 102.357142
" />
<path d="M121.554819 102.357142
L121.554819 102.595237
" />
<path d="M120.554819 101.738094
L120.554819 101.166666
" />
<path d="M121.554819 101.452380
L120.554819 101.452380
" />
<path d="M121.554819 100.833332
L120.554819 100.833332
" />
<path d="M121.031009 100.833332
L121.031009 100.261904
" />
<path d="M121.554819 100.261904
L120.554819 100.261904
" />
<path d="M121.554819 99.261904
L121.554819 99.833332
" />
<path d="M121.554819 99.547618
L120.554819 99.547618
" />
<path d="M120.554819 99.547618
L120.697676 99.642856
" />
<path d="M120.697676 99.642856
L120.792914 99.738094
" />
<path d="M120.792914 99.738094
L120.840533 99.833332
" />
</g><text x="124.000000" y="114.400000"
textLength="1.964286" font-size="1.333333" lengthAdjust="spacingAndGlyphs"
text-anchor="middle" opacity="0" stroke-opacity="0">J1</text>
<g class="stroked-text"><desc>J1</desc>
<path d="M123.666666 113.354819
L123.666666 114.069104
" />
<path d="M123.666666 114.069104
L123.619047 114.211961
" />
<path d="M123.619047 114.211961
L123.523809 114.307200
" />
<path d="M123.523809 114.307200
L123.380952 114.354819
" />
<path d="M123.380952 114.354819
L123.285714 114.354819
" />
<path d="M124.666666 114.354819
L124.095238 114.354819
" />
<path d="M124.380952 114.354819
L124.380952 113.354819
" />
<path d="M124.380952 113.354819
L124.285714 113.497676
" />
<path d="M124.285714 113.497676
L124.190476 113.592914
" />
<path d="M124.190476 113.592914
L124.095238 113.640533
" />
</g><text x="119.000000" y="114.400000"
textLength="6.392857" font-size="1.333333" lengthAdjust="spacingAndGlyphs"
text-anchor="middle" opacity="0" stroke-opacity="0">SYNC_IN</text>
<g class="stroked-text"><desc>SYNC_IN</desc>
<path d="M116.119048 114.307200
L116.261905 114.354819
" />
<path d="M116.261905 114.354819
L116.500000 114.354819
" />
<path d="M116.500000 114.354819
L116.595238 114.307200
" />
<path d="M116.595238 114.307200
L116.642857 114.259580
" />
<path d="M116.642857 114.259580
L116.690476 114.164342
" />
<path d="M116.690476 114.164342
L116.690476 114.069104
" />
<path d="M116.690476 114.069104
L116.642857 113.973866
" />
<path d="M116.642857 113.973866
L116.595238 113.926247
" />
<path d="M116.595238 113.926247
L116.500000 113.878628
" />
<path d="M116.500000 113.878628
L116.309524 113.831009
" />
<path d="M116.309524 113.831009
L116.214286 113.783390
" />
<path d="M116.214286 113.783390
L116.166667 113.735771
" />
<path d="M116.166667 113.735771
L116.119048 113.640533
" />
<path d="M116.119048 113.640533
L116.119048 113.545295
" />
<path d="M116.119048 113.545295
L116.166667 113.450057
" />
<path d="M116.166667 113.450057
L116.214286 113.402438
" />
<path d="M116.214286 113.402438
L116.309524 113.354819
" />
<path d="M116.309524 113.354819
L116.547619 113.354819
" />
<path d="M116.547619 113.354819
L116.690476 113.402438
" />
<path d="M117.309524 113.878628
L117.309524 114.354819
" />
<path d="M116.976191 113.354819
L117.309524 113.878628
" />
<path d="M117.309524 113.878628
L117.642857 113.354819
" />
<path d="M117.976191 114.354819
L117.976191 113.354819
" />
<path d="M117.976191 113.354819
L118.547619 114.354819
" />
<path d="M118.547619 114.354819
L118.547619 113.354819
" />
<path d="M119.595238 114.259580
L119.547619 114.307200
" />
<path d="M119.547619 114.307200
L119.404762 114.354819
" />
<path d="M119.404762 114.354819
L119.309524 114.354819
" />
<path d="M119.309524 114.354819
L119.166667 114.307200
" />
<path d="M119.166667 114.307200
L119.071429 114.211961
" />
<path d="M119.071429 114.211961
L119.023810 114.116723
" />
<path d="M119.023810 114.116723
L118.976191 113.926247
" />
<path d="M118.976191 113.926247
L118.976191 113.783390
" />
<path d="M118.976191 113.783390
L119.023810 113.592914
" />
<path d="M119.023810 113.592914
L119.071429 113.497676
" />
<path d="M119.071429 113.497676
L119.166667 113.402438
" />
<path d="M119.166667 113.402438
L119.309524 113.354819
" />
<path d="M119.309524 113.354819
L119.404762 113.354819
" />
<path d="M119.404762 113.354819
L119.547619 113.402438
" />
<path d="M119.547619 113.402438
L119.595238 113.450057
" />
<path d="M119.785715 114.450057
L120.547619 114.450057
" />
<path d="M120.785715 114.354819
L120.785715 113.354819
" />
<path d="M121.261905 114.354819
L121.261905 113.354819
" />
<path d="M121.261905 113.354819
L121.833333 114.354819
" />
<path d="M121.833333 114.354819
L121.833333 113.354819
" />
</g><g transform="rotate(-90.000000 105.500000 71.500000)">
<text x="105.500000" y="72.000000"
textLength="10.630952" font-size="1.333333" lengthAdjust="spacingAndGlyphs"
text-anchor="middle" opacity="0" stroke-opacity="0">TUNING_FINE1</text>
</g>
<g class="stroked-text"><desc>TUNING_FINE1</desc>
<path d="M104.954819 76.595237
L104.954819 76.023809
" />
<path d="M105.954819 76.309523
L104.954819 76.309523
" />
<path d="M104.954819 75.690475
L105.764342 75.690475
" />
<path d="M105.764342 75.690475
L105.859580 75.642856
" />
<path d="M105.859580 75.642856
L105.907200 75.595237
" />
<path d="M105.907200 75.595237
L105.954819 75.499999
" />
<path d="M105.954819 75.499999
L105.954819 75.309523
" />
<path d="M105.954819 75.309523
L105.907200 75.214285
" />
<path d="M105.907200 75.214285
L105.859580 75.166666
" />
<path d="M105.859580 75.166666
L105.764342 75.119047
" />
<path d="M105.764342 75.119047
L104.954819 75.119047
" />
<path d="M105.954819 74.642856
L104.954819 74.642856
" />
<path d="M104.954819 74.642856
L105.954819 74.071428
" />
<path d="M105.954819 74.071428
L104.954819 74.071428
" />
<path d="M105.954819 73.595237
L104.954819 73.595237
" />
<path d="M105.954819 73.119047
L104.954819 73.119047
" />
<path d="M104.954819 73.119047
L105.954819 72.547619
" />
<path d="M105.954819 72.547619
L104.954819 72.547619
" />
<path d="M105.002438 71.547619
L104.954819 71.642857
" />
<path d="M104.954819 71.642857
L104.954819 71.785714
" />
<path d="M104.954819 71.785714
L105.002438 71.928571
" />
<path d="M105.002438 71.928571
L105.097676 72.023809
" />
<path d="M105.097676 72.023809
L105.192914 72.071428
" />
<path d="M105.192914 72.071428
L105.383390 72.119047
" />
<path d="M105.383390 72.119047
L105.526247 72.119047
" />
<path d="M105.526247 72.119047
L105.716723 72.071428
" />
<path d="M105.716723 72.071428
L105.811961 72.023809
" />
<path d="M105.811961 72.023809
L105.907200 71.928571
" />
<path d="M105.907200 71.928571
L105.954819 71.785714
" />
<path d="M105.954819 71.785714
L105.954819 71.690476
" />
<path d="M105.954819 71.690476
L105.907200 71.547619
" />
<path d="M105.907200 71.547619
L105.859580 71.500000
" />
<path d="M105.859580 71.500000
L105.526247 71.500000
" />
<path d="M105.526247 71.500000
L105.526247 71.690476
" />
<path d="M106.050057 71.309524
L106.050057 70.547619
" />
<path d="M105.431009 69.976190
L105.431009 70.309523
" />
<path d="M105.954819 70.309523
L104.954819 70.309523
" />
<path d="M104.954819 70.309523
L104.954819 69.833333
" />
<path d="M105.954819 69.452380
L104.954819 69.452380
" />
<path d="M105.954819 68.976190
L104.954819 68.976190
" />
<path d="M104.954819 68.976190
L105.954819 68.404762
" />
<path d="M105.954819 68.404762
L104.954819 68.404762
" />
<path d="M105.431009 67.928571
L105.431009 67.595238
" />
<path d="M105.954819 67.452381
L105.954819 67.928571
" />
<path d="M105.954819 67.928571
L104.954819 67.928571
" />
<path d="M104.954819 67.928571
L104.954819 67.452381
" />
<path d="M105.954819 66.500000
L105.954819 67.071428
" />
<path d="M105.954819 66.785714
L104.954819 66.785714
" />
<path d="M104.954819 66.785714
L105.097676 66.880952
" />
<path d="M105.097676 66.880952
L105.192914 66.976190
" />
<path d="M105.192914 66.976190
L105.240533 67.071428
" />
</g><g transform="rotate(-90.000000 119.500000 88.000000)">
<text x="119.500000" y="88.500000"
textLength="8.011905" font-size="1.333333" lengthAdjust="spacingAndGlyphs"
text-anchor="middle" opacity="0" stroke-opacity="0">PWM_AMT1</text>
</g>
<g class="stroked-text"><desc>PWM_AMT1</desc>
<path d="M119.954819 91.642856
L118.954819 91.642856
" />
<path d="M118.954819 91.642856
L118.954819 91.261904
" />
<path d="M118.954819 91.261904
L119.002438 91.166666
" />
<path d="M119.002438 91.166666
L119.050057 91.119047
" />
<path d="M119.050057 91.119047
L119.145295 91.071428
" />
<path d="M119.145295 91.071428
L119.288152 91.071428
" />
<path d="M119.288152 91.071428
L119.383390 91.119047
" />
<path d="M119.383390 91.119047
L119.431009 91.166666
" />
<path d="M119.431009 91.166666
L119.478628 91.261904
" />
<path d="M119.478628 91.261904
L119.478628 91.642856
" />
<path d="M118.954819 90.738094
L119.954819 90.499999
" />
<path d="M119.954819 90.499999
L119.240533 90.309523
" />
<path d="M119.240533 90.309523
L119.954819 90.119047
" />
<path d="M119.954819 90.119047
L118.954819 89.880952
" />
<path d="M119.954819 89.499999
L118.954819 89.499999
" />
<path d="M118.954819 89.499999
L119.669104 89.166666
" />
<path d="M119.669104 89.166666
L118.954819 88.833333
" />
<path d="M118.954819 88.833333
L119.954819 88.833333
" />
<path d="M120.050057 88.595238
L120.050057 87.833333
" />
<path d="M119.669104 87.642856
L119.669104 87.166666
" />
<path d="M119.954819 87.738094
L118.954819 87.404761
" />
<path d="M118.954819 87.404761
L119.954819 87.071428
" />
<path d="M119.954819 86.738094
L118.954819 86.738094
" />
<path d="M118.954819 86.738094
L119.669104 86.404761
" />
<path d="M119.669104 86.404761
L118.954819 86.071428
" />
<path d="M118.954819 86.071428
L119.954819 86.071428
" />
<path d="M118.954819 85.738094
L118.954819 85.166666
" />
<path d="M119.954819 85.452380
L118.954819 85.452380
" />
<path d="M119.954819 84.309523
L119.954819 84.880951
" />
<path d="M119.954819 84.595237
L118.954819 84.595237
" />
<path d="M118.954819 84.595237
L119.097676 84.690475
" />
<path d="M119.097676 84.690475
L119.192914 84.785713
" />
<path d="M119.192914 84.785713
L119.240533 84.880951
" />
</g><text x="120.000000" y="144.000000"
textLength="2.916667" font-size="1.333333" lengthAdjust="spacingAndGlyphs"
text-anchor="middle" opacity="0" stroke-opacity="0">J13</text>
<g class="stroked-text"><desc>J13</desc>
<path d="M119.190476 142.954819
L119.190476 143.669104
" />
<path d="M119.190476 143.669104
L119.142857 143.811961
" />
<path d="M119.142857 143.811961
L119.047619 143.907200
" />
<path d="M119.047619 143.907200
L118.904762 143.954819
" />
<path d="M118.904762 143.954819
L118.809524 143.954819
" />
<path d="M120.190476 143.954819
L119.619048 143.954819
" />
<path d="M119.904762 143.954819
L119.904762 142.954819
" />
<path d="M119.904762 142.954819
L119.809524 143.097676
" />
<path d="M119.809524 143.097676
L119.714286 143.192914
" />
<path d="M119.714286 143.192914
L119.619048 143.240533
" />
<path d="M120.523810 142.954819
L121.142857 142.954819
" />
<path d="M121.142857 142.954819
L120.809524 143.335771
" />
<path d="M120.809524 143.335771
L120.952381 143.335771
" />
<path d="M120.952381 143.335771
L121.047619 143.383390
" />
<path d="M121.047619 143.383390
L121.095238 143.431009
" />
<path d="M121.095238 143.431009
L121.142857 143.526247
" />
<path d="M121.142857 143.526247
L121.142857 143.764342
" />
<path d="M121.142857 143.764342
L121.095238 143.859580
" />
<path d="M121.095238 143.859580
L121.047619 143.907200
" />
<path d="M121.047619 143.907200
L120.952381 143.954819
" />
<path d="M120.952381 143.954819
L120.666667 143.954819
" />
<path d="M120.666667 143.954819
L120.571429 143.907200
" />
<path d="M120.571429 143.907200
L120.523810 143.859580
" />
</g><text x="120.000000" y="160.500000"
textLength="6.821429" font-size="1.333333" lengthAdjust="spacingAndGlyphs"
text-anchor="middle" opacity="0" stroke-opacity="0">SAW_OUT</text>
<g class="stroked-text"><desc>SAW_OUT</desc>
<path d="M116.904762 160.407200
L117.047619 160.454819
" />
<path d="M117.047619 160.454819
L117.285714 160.454819
" />
<path d="M117.285714 160.454819
L117.380952 160.407200
" />
<path d="M117.380952 160.407200
L117.428571 160.359580
" />
<path d="M117.428571 160.359580
L117.476190 160.264342
" />
<path d="M117.476190 160.264342
L117.476190 160.169104
" />
<path d="M117.476190 160.169104
L117.428571 160.073866
" />
<path d="M117.428571 160.073866
L117.380952 160.026247
" />
<path d="M117.380952 160.026247
L117.285714 159.978628
" />
<path d="M117.285714 159.978628
L117.095238 159.931009
" />
<path d="M117.095238 159.931009
L117.000000 159.883390
" />
<path d="M117.000000 159.883390
L116.952381 159.835771
" />
<path d="M116.952381 159.835771
L116.904762 159.740533
" />
<path d="M116.904762 159.740533
L116.904762 159.645295
" />
<path d="M116.904762 159.645295
L116.952381 159.550057
" />
<path d="M116.952381 159.550057
L117.000000 159.502438
" />
<path d="M117.000000 159.502438
L117.095238 159.454819
" />
<path d="M117.095238 159.454819
L117.333333 159.454819
" />
<path d="M117.333333 159.454819
L117.476190 159.502438
" />
<path d="M117.857143 160.169104
L118.333333 160.169104
" />
<path d="M117.761905 160.454819
L118.095238 159.454819
" />
<path d="M118.095238 159.454819
L118.428571 160.454819
" />
<path d="M118.666667 159.454819
L118.904762 160.454819
" />
<path d="M118.904762 160.454819
L119.095238 159.740533
" />
<path d="M119.095238 159.740533
L119.285714 160.454819
" />
<path d="M119.285714 160.454819
L119.523810 159.454819
" />
<path d="M119.666667 160.550057
L120.428571 160.550057
" />
<path d="M120.857143 159.454819
L121.047619 159.454819
" />
<path d="M121.047619 159.454819
L121.142857 159.502438
" />
<path d="M121.142857 159.502438
L121.238095 159.597676
" />
<path d="M121.238095 159.597676
L121.285714 159.788152
" />
<path d="M121.285714 159.788152
L121.285714 160.121485
" />
<path d="M121.285714 160.121485
L121.238095 160.311961
" />
<path d="M121.238095 160.311961
L121.142857 160.407200
" />
<path d="M121.142857 160.407200
L121.047619 160.454819
" />
<path d="M121.047619 160.454819
L120.857143 160.454819
" />
<path d="M120.857143 160.454819
L120.761905 160.407200
" />
<path d="M120.761905 160.407200
L120.666667 160.311961
" />
<path d="M120.666667 160.311961
L120.619048 160.121485
" />
<path d="M120.619048 160.121485
L120.619048 159.788152
" />
<path d="M120.619048 159.788152
L120.666667 159.597676
" />
<path d="M120.666667 159.597676
L120.761905 159.502438
" />
<path d="M120.761905 159.502438
L120.857143 159.454819
" />
<path d="M121.714286 159.454819
L121.714286 160.264342
" />
<path d="M121.714286 160.264342
L121.761905 160.359580
" />
<path d="M121.761905 160.359580
L121.809524 160.407200
" />
<path d="M121.809524 160.407200
L121.904762 160.454819
" />
<path d="M121.904762 160.454819
L122.095238 160.454819
" />
<path d="M122.095238 160.454819
L122.190476 160.407200
" />
<path d="M122.190476 160.407200
L122.238095 160.359580
" />
<path d="M122.238095 160.359580
L122.285714 160.264342
" />
<path d="M122.285714 160.264342
L122.285714 159.454819
" />
<path d="M122.619048 159.454819
L123.190476 159.454819
" />
<path d="M122.904762 160.454819
L122.904762 159.454819
" />
</g><text x="129.800000" y="58.350000"
textLength="2.202381" font-size="1.333333" lengthAdjust="spacingAndGlyphs"
text-anchor="middle" opacity="0" stroke-opacity="0">C9</text>
<g class="stroked-text"><desc>C9</desc>
<path d="M129.633333 58.209580
L129.585714 58.257200
" />
<path d="M129.585714 58.257200
L129.442857 58.304819
" />
<path d="M129.442857 58.304819
L129.347619 58.304819
" />
<path d="M129.347619 58.304819
L129.204762 58.257200
" />
<path d="M129.204762 58.257200
L129.109524 58.161961
" />
<path d="M129.109524 58.161961
L129.061905 58.066723
" />
<path d="M129.061905 58.066723
L129.014286 57.876247
" />
<path d="M129.014286 57.876247
L129.014286 57.733390
" />
<path d="M129.014286 57.733390
L129.061905 57.542914
" />
<path d="M129.061905 57.542914
L129.109524 57.447676
" />
<path d="M129.109524 57.447676
L129.204762 57.352438
" />
<path d="M129.204762 57.352438
L129.347619 57.304819
" />
<path d="M129.347619 57.304819
L129.442857 57.304819
" />
<path d="M129.442857 57.304819
L129.585714 57.352438
" />
<path d="M129.585714 57.352438
L129.633333 57.400057
" />
<path d="M130.109524 58.304819
L130.300000 58.304819
" />
<path d="M130.300000 58.304819
L130.395238 58.257200
" />
<path d="M130.395238 58.257200
L130.442857 58.209580
" />
<path d="M130.442857 58.209580
L130.538095 58.066723
" />
<path d="M130.538095 58.066723
L130.585714 57.876247
" />
<path d="M130.585714 57.876247
L130.585714 57.495295
" />
<path d="M130.585714 57.495295
L130.538095 57.400057
" />
<path d="M130.538095 57.400057
L130.490476 57.352438
" />
<path d="M130.490476 57.352438
L130.395238 57.304819
" />
<path d="M130.395238 57.304819
L130.204762 57.304819
" />
<path d="M130.204762 57.304819
L130.109524 57.352438
" />
<path d="M130.109524 57.352438
L130.061905 57.400057
" />
<path d="M130.061905 57.400057
L130.014286 57.495295
" />
<path d="M130.014286 57.495295
L130.014286 57.733390
" />
<path d="M130.014286 57.733390
L130.061905 57.828628
" />
<path d="M130.061905 57.828628
L130.109524 57.876247
" />
<path d="M130.109524 57.876247
L130.204762 57.923866
" />
<path d="M130.204762 57.923866
L130.395238 57.923866
" />
<path d="M130.395238 57.923866
L130.490476 57.876247
" />
<path d="M130.490476 57.876247
L130.538095 57.828628
" />
<path d="M130.538095 57.828628
L130.585714 57.733390
" />
</g><text x="113.500000" y="114.400000"
textLength="2.916667" font-size="1.333333" lengthAdjust="spacingAndGlyphs"
text-anchor="middle" opacity="0" stroke-opacity="0">J10</text>
<g class="stroked-text"><desc>J10</desc>
<path d="M112.690476 113.354819
L112.690476 114.069104
" />
<path d="M112.690476 114.069104
L112.642857 114.211961
" />
<path d="M112.642857 114.211961
L112.547619 114.307200
" />
<path d="M112.547619 114.307200
L112.404762 114.354819
" />
<path d="M112.404762 114.354819
L112.309524 114.354819
" />
<path d="M113.690476 114.354819
L113.119048 114.354819
" />
<path d="M113.404762 114.354819
L113.404762 113.354819
" />
<path d="M113.404762 113.354819
L113.309524 113.497676
" />
<path d="M113.309524 113.497676
L113.214286 113.592914
" />
<path d="M113.214286 113.592914
L113.119048 113.640533
" />
<path d="M114.309524 113.354819
L114.404762 113.354819
" />
<path d="M114.404762 113.354819
L114.500000 113.402438
" />
<path d="M114.500000 113.402438
L114.547619 113.450057
" />
<path d="M114.547619 113.450057
L114.595238 113.545295
" />
<path d="M114.595238 113.545295
L114.642857 113.735771
" />
<path d="M114.642857 113.735771
L114.642857 113.973866
" />
<path d="M114.642857 113.973866
L114.595238 114.164342
" />
<path d="M114.595238 114.164342
L114.547619 114.259580
" />
<path d="M114.547619 114.259580
L114.500000 114.307200
" />
<path d="M114.500000 114.307200
L114.404762 114.354819
" />
<path d="M114.404762 114.354819
L114.309524 114.354819
" />
<path d="M114.309524 114.354819
L114.214286 114.307200
" />
<path d="M114.214286 114.307200
L114.166667 114.259580
" />
<path d="M114.166667 114.259580
L114.119048 114.164342
" />
<path d="M114.119048 114.164342
L114.071429 113.973866
" />
<path d="M114.071429 113.973866
L114.071429 113.735771
" />
<path d="M114.071429 113.735771
L114.119048 113.545295
" />
<path d="M114.119048 113.545295
L114.166667 113.450057
" />
<path d="M114.166667 113.450057
L114.214286 113.402438
" />
<path d="M114.214286 113.402438
L114.309524 113.354819
" />
</g><text x="108.000000" y="114.400000"
textLength="4.535714" font-size="1.333333" lengthAdjust="spacingAndGlyphs"
text-anchor="middle" opacity="0" stroke-opacity="0">FM_IN</text>
<g class="stroked-text"><desc>FM_IN</desc>
<path d="M106.428571 113.831009
L106.095238 113.831009
" />
<path d="M106.095238 114.354819
L106.095238 113.354819
" />
<path d="M106.095238 113.354819
L106.571428 113.354819
" />
<path d="M106.952381 114.354819
L106.952381 113.354819
" />
<path d="M106.952381 113.354819
L107.285714 114.069104
" />
<path d="M107.285714 114.069104
L107.619047 113.354819
" />
<path d="M107.619047 113.354819
L107.619047 114.354819
" />
<path d="M107.857143 114.450057
L108.619047 114.450057
" />
<path d="M108.857143 114.354819
L108.857143 113.354819
" />
<path d="M109.333333 114.354819
L109.333333 113.354819
" />
<path d="M109.333333 113.354819
L109.904761 114.354819
" />
<path d="M109.904761 114.354819
L109.904761 113.354819
" />
</g><text x="110.210000" y="87.910000"
textLength="5.726191" font-size="1.333333" lengthAdjust="spacingAndGlyphs"
text-anchor="middle" opacity="0" stroke-opacity="0">SCALE1</text>
<g class="stroked-text"><desc>SCALE1</desc>
<path d="M107.662381 87.817200
L107.805238 87.864819
" />
<path d="M107.805238 87.864819
L108.043333 87.864819
" />
<path d="M108.043333 87.864819
L108.138571 87.817200
" />
<path d="M108.138571 87.817200
L108.186190 87.769580
" />
<path d="M108.186190 87.769580
L108.233809 87.674342
" />
<path d="M108.233809 87.674342
L108.233809 87.579104
" />
<path d="M108.233809 87.579104
L108.186190 87.483866
" />
<path d="M108.186190 87.483866
L108.138571 87.436247
" />
<path d="M108.138571 87.436247
L108.043333 87.388628
" />
<path d="M108.043333 87.388628
L107.852857 87.341009
" />
<path d="M107.852857 87.341009
L107.757619 87.293390
" />
<path d="M107.757619 87.293390
L107.710000 87.245771
" />
<path d="M107.710000 87.245771
L107.662381 87.150533
" />
<path d="M107.662381 87.150533
L107.662381 87.055295
" />
<path d="M107.662381 87.055295
L107.710000 86.960057
" />
<path d="M107.710000 86.960057
L107.757619 86.912438
" />
<path d="M107.757619 86.912438
L107.852857 86.864819
" />
<path d="M107.852857 86.864819
L108.090952 86.864819
" />
<path d="M108.090952 86.864819
L108.233809 86.912438
" />
<path d="M109.233809 87.769580
L109.186190 87.817200
" />
<path d="M109.186190 87.817200
L109.043333 87.864819
" />
<path d="M109.043333 87.864819
L108.948095 87.864819
" />
<path d="M108.948095 87.864819
L108.805238 87.817200
" />
<path d="M108.805238 87.817200
L108.710000 87.721961
" />
<path d="M108.710000 87.721961
L108.662381 87.626723
" />
<path d="M108.662381 87.626723
L108.614762 87.436247
" />
<path d="M108.614762 87.436247
L108.614762 87.293390
" />
<path d="M108.614762 87.293390
L108.662381 87.102914
" />
<path d="M108.662381 87.102914
L108.710000 87.007676
" />
<path d="M108.710000 87.007676
L108.805238 86.912438
" />
<path d="M108.805238 86.912438
L108.948095 86.864819
" />
<path d="M108.948095 86.864819
L109.043333 86.864819
" />
<path d="M109.043333 86.864819
L109.186190 86.912438
" />
<path d="M109.186190 86.912438
L109.233809 86.960057
" />
<path d="M109.614762 87.579104
L110.090952 87.579104
" />
<path d="M109.519524 87.864819
L109.852857 86.864819
" />
<path d="M109.852857 86.864819
L110.186190 87.864819
" />
<path d="M110.995714 87.864819
L110.519524 87.864819
" />
<path d="M110.519524 87.864819
L110.519524 86.864819
" />
<path d="M111.329048 87.341009
L111.662381 87.341009
" />
<path d="M111.805238 87.864819
L111.329048 87.864819
" />
<path d="M111.329048 87.864819
L111.329048 86.864819
" />
<path d="M111.329048 86.864819
L111.805238 86.864819
" />
<path d="M112.757619 87.864819
L112.186191 87.864819
" />
<path d="M112.471905 87.864819
L112.471905 86.864819
" />
<path d="M112.471905 86.864819
L112.376667 87.007676
" />
<path d="M112.376667 87.007676
L112.281429 87.102914
" />
<path d="M112.281429 87.102914
L112.186191 87.150533
" />
</g><path style="fill:none; 
stroke:#000000; stroke-width:0.100000; stroke-opacity:1; 
stroke-linecap:round; stroke-linejoin:round;fill:none"
d="M 116.500000,134.000000
123.500000,134.000000
123.500000,141.000000
116.500000,141.000000
Z" /> 
</g>
<g style="fill:none; 
stroke:#000000; stroke-width:0.120000; stroke-opacity:1; 
stroke-linecap:round; stroke-linejoin:round;">
<path d="M108.120000 61.120000
L108.120000 56.400000
" />
<path d="M108.130000 52.590000
L108.130000 49.530000
" />
<path d="M109.310000 61.120000
L108.130000 61.120000
" />
<path d="M112.210000 61.120000
L111.680000 61.120000
" />
<path d="M114.660000 61.120000
L113.830000 61.120000
" />
<path d="M117.870000 49.530000
L108.130000 49.530000
" />
<path d="M117.870000 52.590000
L117.870000 49.530000
" />
<path d="M117.870000 61.120000
L116.380000 61.120000
" />
<path d="M117.870000 61.120000
L117.870000 56.400000
" />
<path d="M125.500000 147.980000
L125.500000 158.480000
" />
<path d="M128.940000 145.000000
L128.940000 145.800000
" />
<path d="M128.940000 145.000000
L129.800000 145.000000
" />
<path d="M129.500000 158.480000
L125.500000 158.480000
" />
<path d="M129.650000 147.980000
L125.500000 147.980000
" />
<path d="M134.500000 147.980000
L130.350000 147.980000
" />
<path d="M134.500000 147.980000
L134.500000 158.480000
" />
<path d="M134.500000 158.480000
L130.500000 158.480000
" />
<circle cx="130.000000" cy="152.480000" r="1.800000" /> 
<path d="M127.454437 78.410000
L133.210000 78.410000
" />
<path d="M133.210000 78.410000
L133.210000 76.060000
" />
<path d="M126.390000 77.345563
L127.454437 78.410000
" />
<path d="M126.390000 77.345563
L126.390000 76.060000
" />
<path d="M125.362500 73.152500
L126.150000 73.152500
" />
<path d="M125.756250 72.758750
L125.756250 73.546250
" />
<path d="M126.390000 72.654437
L126.390000 73.940000
" />
<path d="M126.390000 72.654437
L127.454437 71.590000
" />
<path d="M127.454437 71.590000
L133.210000 71.590000
" />
<path d="M133.210000 71.590000
L133.210000 73.940000
" />
<path d="M105.500000 147.980000
L105.500000 158.480000
" />
<path d="M108.940000 145.000000
L108.940000 145.800000
" />
<path d="M108.940000 145.000000
L109.800000 145.000000
" />
<path d="M109.500000 158.480000
L105.500000 158.480000
" />
<path d="M109.650000 147.980000
L105.500000 147.980000
" />
<path d="M114.500000 147.980000
L110.350000 147.980000
" />
<path d="M114.500000 147.980000
L114.500000 158.480000
" />
<path d="M114.500000 158.480000
L110.500000 158.480000
" />
<circle cx="110.000000" cy="152.480000" r="1.800000" /> 
<path d="M106.520000 111.120000
L106.520000 106.400000
" />
<path d="M106.530000 102.590000
L106.530000 99.530000
" />
<path d="M107.710000 111.120000
L106.530000 111.120000
" />
<path d="M110.610000 111.120000
L110.080000 111.120000
" />
<path d="M113.060000 111.120000
L112.230000 111.120000
" />
<path d="M116.270000 99.530000
L106.530000 99.530000
" />
<path d="M116.270000 102.590000
L116.270000 99.530000
" />
<path d="M116.270000 111.120000
L114.780000 111.120000
" />
<path d="M116.270000 111.120000
L116.270000 106.400000
" />
<path d="M125.500000 117.980000
L125.500000 128.480000
" />
<path d="M128.940000 115.000000
L128.940000 115.800000
" />
<path d="M128.940000 115.000000
L129.800000 115.000000
" />
<path d="M129.500000 128.480000
L125.500000 128.480000
" />
<path d="M129.650000 117.980000
L125.500000 117.980000
" />
<path d="M134.500000 117.980000
L130.350000 117.980000
" />
<path d="M134.500000 117.980000
L134.500000 128.480000
" />
<path d="M134.500000 128.480000
L130.500000 128.480000
" />
<circle cx="130.000000" cy="122.480000" r="1.800000" /> 
<path d="M105.500000 132.980000
L105.500000 143.480000
" />
<path d="M108.940000 130.000000
L108.940000 130.800000
" />
<path d="M108.940000 130.000000
L109.800000 130.000000
" />
<path d="M109.500000 143.480000
L105.500000 143.480000
" />
<path d="M109.650000 132.980000
L105.500000 132.980000
" />
<path d="M114.500000 132.980000
L110.350000 132.980000
" />
<path d="M114.500000 132.980000
L114.500000 143.480000
" />
<path d="M114.500000 143.480000
L110.500000 143.480000
" />
<circle cx="110.000000" cy="137.480000" r="1.800000" /> 
<path d="M123.720000 111.120000
L123.720000 106.400000
" />
<path d="M123.730000 102.590000
L123.730000 99.530000
" />
<path d="M124.910000 111.120000
L123.730000 111.120000
" />
<path d="M127.810000 111.120000
L127.280000 111.120000
" />
<path d="M130.260000 111.120000
L129.430000 111.120000
" />
<path d="M133.470000 99.530000
L123.730000 99.530000
" />
<path d="M133.470000 102.590000
L133.470000 99.530000
" />
<path d="M133.470000 111.120000
L131.980000 111.120000
" />
<path d="M133.470000 111.120000
L133.470000 106.400000
" />
<path d="M115.500000 117.980000
L115.500000 128.480000
" />
<path d="M118.940000 115.000000
L118.940000 115.800000
" />
<path d="M118.940000 115.000000
L119.800000 115.000000
" />
<path d="M119.500000 128.480000
L115.500000 128.480000
" />
<path d="M119.650000 117.980000
L115.500000 117.980000
" />
<path d="M124.500000 117.980000
L120.350000 117.980000
" />
<path d="M124.500000 117.980000
L124.500000 128.480000
" />
<path d="M124.500000 128.480000
L120.500000 128.480000
" />
<circle cx="120.000000" cy="122.480000" r="1.800000" /> 
<path d="M108.120000 78.120000
L108.120000 73.400000
" />
<path d="M108.130000 69.590000
L108.130000 66.530000
" />
<path d="M109.310000 78.120000
L108.130000 78.120000
" />
<path d="M112.210000 78.120000
L111.680000 78.120000
" />
<path d="M114.660000 78.120000
L113.830000 78.120000
" />
<path d="M117.870000 66.530000
L108.130000 66.530000
" />
<path d="M117.870000 69.590000
L117.870000 66.530000
" />
<path d="M117.870000 78.120000
L116.380000 78.120000
" />
<path d="M117.870000 78.120000
L117.870000 73.400000
" />
<path d="M122.120000 94.620000
L122.120000 89.900000
" />
<path d="M122.130000 86.090000
L122.130000 83.030000
" />
<path d="M123.310000 94.620000
L122.130000 94.620000
" />
<path d="M126.210000 94.620000
L125.680000 94.620000
" />
<path d="M128.660000 94.620000
L127.830000 94.620000
" />
<path d="M131.870000 83.030000
L122.130000 83.030000
" />
<path d="M131.870000 86.090000
L131.870000 83.030000
" />
<path d="M131.870000 94.620000
L130.380000 94.620000
" />
<path d="M131.870000 94.620000
L131.870000 89.900000
" />
<path d="M115.500000 147.980000
L115.500000 158.480000
" />
<path d="M118.940000 145.000000
L118.940000 145.800000
" />
<path d="M118.940000 145.000000
L119.800000 145.000000
" />
<path d="M119.500000 158.480000
L115.500000 158.480000
" />
<path d="M119.650000 147.980000
L115.500000 147.980000
" />
<path d="M124.500000 147.980000
L120.350000 147.980000
" />
<path d="M124.500000 147.980000
L124.500000 158.480000
" />
<path d="M124.500000 158.480000
L120.500000 158.480000
" />
<circle cx="120.000000" cy="152.480000" r="1.800000" /> 
<path d="M132.145563 50.090000
L126.390000 50.090000
" />
<path d="M126.390000 50.090000
L126.390000 52.440000
" />
<path d="M133.210000 51.154437
L132.145563 50.090000
" />
<path d="M133.210000 51.154437
L133.210000 52.440000
" />
<path d="M134.237500 55.347500
L133.450000 55.347500
" />
<path d="M133.843750 55.741250
L133.843750 54.953750
" />
<path d="M133.210000 55.845563
L133.210000 54.560000
" />
<path d="M133.210000 55.845563
L132.145563 56.910000
" />
<path d="M132.145563 56.910000
L126.390000 56.910000
" />
<path d="M126.390000 56.910000
L126.390000 54.560000
" />
<path d="M105.500000 117.980000
L105.500000 128.480000
" />
<path d="M108.940000 115.000000
L108.940000 115.800000
" />
<path d="M108.940000 115.000000
L109.800000 115.000000
" />
<path d="M109.500000 128.480000
L105.500000 128.480000
" />
<path d="M109.650000 117.980000
L105.500000 117.980000
" />
<path d="M114.500000 117.980000
L110.350000 117.980000
" />
<path d="M114.500000 117.980000
L114.500000 128.480000
" />
<path d="M114.500000 128.480000
L110.500000 128.480000
" />
<circle cx="110.000000" cy="122.480000" r="1.800000" /> 
<path d="M113.685000 86.280000
L106.735000 86.280000
" />
<path d="M106.735000 86.280000
L106.735000 84.494000
" />
<path d="M106.735000 83.504000
L106.735000 81.540000
" />
<path d="M113.685000 81.540000
L106.735000 81.540000
" />
<path d="M113.685000 86.280000
L113.685000 84.494000
" />
<path d="M113.685000 83.504000
L113.685000 81.540000
" />
</g> 
</svg>
