%TF.GenerationSoftware,KiCad,Pcbnew,5.1.9+dfsg1-1~bpo10+1*%
%TF.CreationDate,2021-12-03T10:41:42+08:00*%
%TF.ProjectId,MiniOSC,4d696e69-4f53-4432-9e6b-696361645f70,rev?*%
%TF.SameCoordinates,Original*%
%TF.FileFunction,Legend,Bot*%
%TF.FilePolarity,Positive*%
%FSLAX46Y46*%
G04 Gerber Fmt 4.6, Leading zero omitted, Abs format (unit mm)*
G04 Created by KiCad (PCBNEW 5.1.9+dfsg1-1~bpo10+1) date 2021-12-03 10:41:42*
%MOMM*%
%LPD*%
G01*
G04 APERTURE LIST*
%ADD10C,0.150000*%
%ADD11C,0.120000*%
G04 APERTURE END LIST*
D10*
X40000000Y-163500000D02*
X70000000Y-163500000D01*
X70000000Y-55000000D02*
X40000000Y-55000000D01*
D11*
%TO.C,J2*%
X75000000Y-71170000D02*
X73670000Y-71170000D01*
X73670000Y-71170000D02*
X73670000Y-72500000D01*
X73670000Y-73770000D02*
X73670000Y-111930000D01*
X76330000Y-111930000D02*
X73670000Y-111930000D01*
X76330000Y-73770000D02*
X76330000Y-111930000D01*
X76330000Y-73770000D02*
X73670000Y-73770000D01*
%TO.C,C1*%
X116020000Y-114630000D02*
X108580000Y-114630000D01*
X116020000Y-117370000D02*
X108580000Y-117370000D01*
X116020000Y-114630000D02*
X116020000Y-117370000D01*
X108580000Y-114630000D02*
X108580000Y-117370000D01*
%TO.C,C2*%
X129770000Y-145100000D02*
G75*
G03*
X129770000Y-145100000I-2620000J0D01*
G01*
X127150000Y-147680000D02*
X127150000Y-142520000D01*
X127190000Y-147680000D02*
X127190000Y-142520000D01*
X127230000Y-147679000D02*
X127230000Y-142521000D01*
X127270000Y-147678000D02*
X127270000Y-142522000D01*
X127310000Y-147676000D02*
X127310000Y-142524000D01*
X127350000Y-147673000D02*
X127350000Y-142527000D01*
X127390000Y-147669000D02*
X127390000Y-146140000D01*
X127390000Y-144060000D02*
X127390000Y-142531000D01*
X127430000Y-147665000D02*
X127430000Y-146140000D01*
X127430000Y-144060000D02*
X127430000Y-142535000D01*
X127470000Y-147661000D02*
X127470000Y-146140000D01*
X127470000Y-144060000D02*
X127470000Y-142539000D01*
X127510000Y-147656000D02*
X127510000Y-146140000D01*
X127510000Y-144060000D02*
X127510000Y-142544000D01*
X127550000Y-147650000D02*
X127550000Y-146140000D01*
X127550000Y-144060000D02*
X127550000Y-142550000D01*
X127590000Y-147643000D02*
X127590000Y-146140000D01*
X127590000Y-144060000D02*
X127590000Y-142557000D01*
X127630000Y-147636000D02*
X127630000Y-146140000D01*
X127630000Y-144060000D02*
X127630000Y-142564000D01*
X127670000Y-147628000D02*
X127670000Y-146140000D01*
X127670000Y-144060000D02*
X127670000Y-142572000D01*
X127710000Y-147620000D02*
X127710000Y-146140000D01*
X127710000Y-144060000D02*
X127710000Y-142580000D01*
X127750000Y-147611000D02*
X127750000Y-146140000D01*
X127750000Y-144060000D02*
X127750000Y-142589000D01*
X127790000Y-147601000D02*
X127790000Y-146140000D01*
X127790000Y-144060000D02*
X127790000Y-142599000D01*
X127830000Y-147591000D02*
X127830000Y-146140000D01*
X127830000Y-144060000D02*
X127830000Y-142609000D01*
X127871000Y-147580000D02*
X127871000Y-146140000D01*
X127871000Y-144060000D02*
X127871000Y-142620000D01*
X127911000Y-147568000D02*
X127911000Y-146140000D01*
X127911000Y-144060000D02*
X127911000Y-142632000D01*
X127951000Y-147555000D02*
X127951000Y-146140000D01*
X127951000Y-144060000D02*
X127951000Y-142645000D01*
X127991000Y-147542000D02*
X127991000Y-146140000D01*
X127991000Y-144060000D02*
X127991000Y-142658000D01*
X128031000Y-147528000D02*
X128031000Y-146140000D01*
X128031000Y-144060000D02*
X128031000Y-142672000D01*
X128071000Y-147514000D02*
X128071000Y-146140000D01*
X128071000Y-144060000D02*
X128071000Y-142686000D01*
X128111000Y-147498000D02*
X128111000Y-146140000D01*
X128111000Y-144060000D02*
X128111000Y-142702000D01*
X128151000Y-147482000D02*
X128151000Y-146140000D01*
X128151000Y-144060000D02*
X128151000Y-142718000D01*
X128191000Y-147465000D02*
X128191000Y-146140000D01*
X128191000Y-144060000D02*
X128191000Y-142735000D01*
X128231000Y-147448000D02*
X128231000Y-146140000D01*
X128231000Y-144060000D02*
X128231000Y-142752000D01*
X128271000Y-147429000D02*
X128271000Y-146140000D01*
X128271000Y-144060000D02*
X128271000Y-142771000D01*
X128311000Y-147410000D02*
X128311000Y-146140000D01*
X128311000Y-144060000D02*
X128311000Y-142790000D01*
X128351000Y-147390000D02*
X128351000Y-146140000D01*
X128351000Y-144060000D02*
X128351000Y-142810000D01*
X128391000Y-147368000D02*
X128391000Y-146140000D01*
X128391000Y-144060000D02*
X128391000Y-142832000D01*
X128431000Y-147347000D02*
X128431000Y-146140000D01*
X128431000Y-144060000D02*
X128431000Y-142853000D01*
X128471000Y-147324000D02*
X128471000Y-146140000D01*
X128471000Y-144060000D02*
X128471000Y-142876000D01*
X128511000Y-147300000D02*
X128511000Y-146140000D01*
X128511000Y-144060000D02*
X128511000Y-142900000D01*
X128551000Y-147275000D02*
X128551000Y-146140000D01*
X128551000Y-144060000D02*
X128551000Y-142925000D01*
X128591000Y-147249000D02*
X128591000Y-146140000D01*
X128591000Y-144060000D02*
X128591000Y-142951000D01*
X128631000Y-147222000D02*
X128631000Y-146140000D01*
X128631000Y-144060000D02*
X128631000Y-142978000D01*
X128671000Y-147195000D02*
X128671000Y-146140000D01*
X128671000Y-144060000D02*
X128671000Y-143005000D01*
X128711000Y-147165000D02*
X128711000Y-146140000D01*
X128711000Y-144060000D02*
X128711000Y-143035000D01*
X128751000Y-147135000D02*
X128751000Y-146140000D01*
X128751000Y-144060000D02*
X128751000Y-143065000D01*
X128791000Y-147104000D02*
X128791000Y-146140000D01*
X128791000Y-144060000D02*
X128791000Y-143096000D01*
X128831000Y-147071000D02*
X128831000Y-146140000D01*
X128831000Y-144060000D02*
X128831000Y-143129000D01*
X128871000Y-147037000D02*
X128871000Y-146140000D01*
X128871000Y-144060000D02*
X128871000Y-143163000D01*
X128911000Y-147001000D02*
X128911000Y-146140000D01*
X128911000Y-144060000D02*
X128911000Y-143199000D01*
X128951000Y-146964000D02*
X128951000Y-146140000D01*
X128951000Y-144060000D02*
X128951000Y-143236000D01*
X128991000Y-146926000D02*
X128991000Y-146140000D01*
X128991000Y-144060000D02*
X128991000Y-143274000D01*
X129031000Y-146885000D02*
X129031000Y-146140000D01*
X129031000Y-144060000D02*
X129031000Y-143315000D01*
X129071000Y-146843000D02*
X129071000Y-146140000D01*
X129071000Y-144060000D02*
X129071000Y-143357000D01*
X129111000Y-146799000D02*
X129111000Y-146140000D01*
X129111000Y-144060000D02*
X129111000Y-143401000D01*
X129151000Y-146753000D02*
X129151000Y-146140000D01*
X129151000Y-144060000D02*
X129151000Y-143447000D01*
X129191000Y-146705000D02*
X129191000Y-146140000D01*
X129191000Y-144060000D02*
X129191000Y-143495000D01*
X129231000Y-146654000D02*
X129231000Y-146140000D01*
X129231000Y-144060000D02*
X129231000Y-143546000D01*
X129271000Y-146600000D02*
X129271000Y-146140000D01*
X129271000Y-144060000D02*
X129271000Y-143600000D01*
X129311000Y-146543000D02*
X129311000Y-146140000D01*
X129311000Y-144060000D02*
X129311000Y-143657000D01*
X129351000Y-146483000D02*
X129351000Y-146140000D01*
X129351000Y-144060000D02*
X129351000Y-143717000D01*
X129391000Y-146419000D02*
X129391000Y-146140000D01*
X129391000Y-144060000D02*
X129391000Y-143781000D01*
X129431000Y-146351000D02*
X129431000Y-146140000D01*
X129431000Y-144060000D02*
X129431000Y-143849000D01*
X129471000Y-146278000D02*
X129471000Y-143922000D01*
X129511000Y-146198000D02*
X129511000Y-144002000D01*
X129551000Y-146111000D02*
X129551000Y-144089000D01*
X129591000Y-146015000D02*
X129591000Y-144185000D01*
X129631000Y-145905000D02*
X129631000Y-144295000D01*
X129671000Y-145777000D02*
X129671000Y-144423000D01*
X129711000Y-145618000D02*
X129711000Y-144582000D01*
X129751000Y-145384000D02*
X129751000Y-144816000D01*
X124345225Y-146575000D02*
X124845225Y-146575000D01*
X124595225Y-146825000D02*
X124595225Y-146325000D01*
%TO.C,C3*%
X122025000Y-120004775D02*
X121525000Y-120004775D01*
X121775000Y-120254775D02*
X121775000Y-119754775D01*
X120584000Y-114849000D02*
X120016000Y-114849000D01*
X120818000Y-114889000D02*
X119782000Y-114889000D01*
X120977000Y-114929000D02*
X119623000Y-114929000D01*
X121105000Y-114969000D02*
X119495000Y-114969000D01*
X121215000Y-115009000D02*
X119385000Y-115009000D01*
X121311000Y-115049000D02*
X119289000Y-115049000D01*
X121398000Y-115089000D02*
X119202000Y-115089000D01*
X121478000Y-115129000D02*
X119122000Y-115129000D01*
X119260000Y-115169000D02*
X119049000Y-115169000D01*
X121551000Y-115169000D02*
X121340000Y-115169000D01*
X119260000Y-115209000D02*
X118981000Y-115209000D01*
X121619000Y-115209000D02*
X121340000Y-115209000D01*
X119260000Y-115249000D02*
X118917000Y-115249000D01*
X121683000Y-115249000D02*
X121340000Y-115249000D01*
X119260000Y-115289000D02*
X118857000Y-115289000D01*
X121743000Y-115289000D02*
X121340000Y-115289000D01*
X119260000Y-115329000D02*
X118800000Y-115329000D01*
X121800000Y-115329000D02*
X121340000Y-115329000D01*
X119260000Y-115369000D02*
X118746000Y-115369000D01*
X121854000Y-115369000D02*
X121340000Y-115369000D01*
X119260000Y-115409000D02*
X118695000Y-115409000D01*
X121905000Y-115409000D02*
X121340000Y-115409000D01*
X119260000Y-115449000D02*
X118647000Y-115449000D01*
X121953000Y-115449000D02*
X121340000Y-115449000D01*
X119260000Y-115489000D02*
X118601000Y-115489000D01*
X121999000Y-115489000D02*
X121340000Y-115489000D01*
X119260000Y-115529000D02*
X118557000Y-115529000D01*
X122043000Y-115529000D02*
X121340000Y-115529000D01*
X119260000Y-115569000D02*
X118515000Y-115569000D01*
X122085000Y-115569000D02*
X121340000Y-115569000D01*
X119260000Y-115609000D02*
X118474000Y-115609000D01*
X122126000Y-115609000D02*
X121340000Y-115609000D01*
X119260000Y-115649000D02*
X118436000Y-115649000D01*
X122164000Y-115649000D02*
X121340000Y-115649000D01*
X119260000Y-115689000D02*
X118399000Y-115689000D01*
X122201000Y-115689000D02*
X121340000Y-115689000D01*
X119260000Y-115729000D02*
X118363000Y-115729000D01*
X122237000Y-115729000D02*
X121340000Y-115729000D01*
X119260000Y-115769000D02*
X118329000Y-115769000D01*
X122271000Y-115769000D02*
X121340000Y-115769000D01*
X119260000Y-115809000D02*
X118296000Y-115809000D01*
X122304000Y-115809000D02*
X121340000Y-115809000D01*
X119260000Y-115849000D02*
X118265000Y-115849000D01*
X122335000Y-115849000D02*
X121340000Y-115849000D01*
X119260000Y-115889000D02*
X118235000Y-115889000D01*
X122365000Y-115889000D02*
X121340000Y-115889000D01*
X119260000Y-115929000D02*
X118205000Y-115929000D01*
X122395000Y-115929000D02*
X121340000Y-115929000D01*
X119260000Y-115969000D02*
X118178000Y-115969000D01*
X122422000Y-115969000D02*
X121340000Y-115969000D01*
X119260000Y-116009000D02*
X118151000Y-116009000D01*
X122449000Y-116009000D02*
X121340000Y-116009000D01*
X119260000Y-116049000D02*
X118125000Y-116049000D01*
X122475000Y-116049000D02*
X121340000Y-116049000D01*
X119260000Y-116089000D02*
X118100000Y-116089000D01*
X122500000Y-116089000D02*
X121340000Y-116089000D01*
X119260000Y-116129000D02*
X118076000Y-116129000D01*
X122524000Y-116129000D02*
X121340000Y-116129000D01*
X119260000Y-116169000D02*
X118053000Y-116169000D01*
X122547000Y-116169000D02*
X121340000Y-116169000D01*
X119260000Y-116209000D02*
X118032000Y-116209000D01*
X122568000Y-116209000D02*
X121340000Y-116209000D01*
X119260000Y-116249000D02*
X118010000Y-116249000D01*
X122590000Y-116249000D02*
X121340000Y-116249000D01*
X119260000Y-116289000D02*
X117990000Y-116289000D01*
X122610000Y-116289000D02*
X121340000Y-116289000D01*
X119260000Y-116329000D02*
X117971000Y-116329000D01*
X122629000Y-116329000D02*
X121340000Y-116329000D01*
X119260000Y-116369000D02*
X117952000Y-116369000D01*
X122648000Y-116369000D02*
X121340000Y-116369000D01*
X119260000Y-116409000D02*
X117935000Y-116409000D01*
X122665000Y-116409000D02*
X121340000Y-116409000D01*
X119260000Y-116449000D02*
X117918000Y-116449000D01*
X122682000Y-116449000D02*
X121340000Y-116449000D01*
X119260000Y-116489000D02*
X117902000Y-116489000D01*
X122698000Y-116489000D02*
X121340000Y-116489000D01*
X119260000Y-116529000D02*
X117886000Y-116529000D01*
X122714000Y-116529000D02*
X121340000Y-116529000D01*
X119260000Y-116569000D02*
X117872000Y-116569000D01*
X122728000Y-116569000D02*
X121340000Y-116569000D01*
X119260000Y-116609000D02*
X117858000Y-116609000D01*
X122742000Y-116609000D02*
X121340000Y-116609000D01*
X119260000Y-116649000D02*
X117845000Y-116649000D01*
X122755000Y-116649000D02*
X121340000Y-116649000D01*
X119260000Y-116689000D02*
X117832000Y-116689000D01*
X122768000Y-116689000D02*
X121340000Y-116689000D01*
X119260000Y-116729000D02*
X117820000Y-116729000D01*
X122780000Y-116729000D02*
X121340000Y-116729000D01*
X119260000Y-116770000D02*
X117809000Y-116770000D01*
X122791000Y-116770000D02*
X121340000Y-116770000D01*
X119260000Y-116810000D02*
X117799000Y-116810000D01*
X122801000Y-116810000D02*
X121340000Y-116810000D01*
X119260000Y-116850000D02*
X117789000Y-116850000D01*
X122811000Y-116850000D02*
X121340000Y-116850000D01*
X119260000Y-116890000D02*
X117780000Y-116890000D01*
X122820000Y-116890000D02*
X121340000Y-116890000D01*
X119260000Y-116930000D02*
X117772000Y-116930000D01*
X122828000Y-116930000D02*
X121340000Y-116930000D01*
X119260000Y-116970000D02*
X117764000Y-116970000D01*
X122836000Y-116970000D02*
X121340000Y-116970000D01*
X119260000Y-117010000D02*
X117757000Y-117010000D01*
X122843000Y-117010000D02*
X121340000Y-117010000D01*
X119260000Y-117050000D02*
X117750000Y-117050000D01*
X122850000Y-117050000D02*
X121340000Y-117050000D01*
X119260000Y-117090000D02*
X117744000Y-117090000D01*
X122856000Y-117090000D02*
X121340000Y-117090000D01*
X119260000Y-117130000D02*
X117739000Y-117130000D01*
X122861000Y-117130000D02*
X121340000Y-117130000D01*
X119260000Y-117170000D02*
X117735000Y-117170000D01*
X122865000Y-117170000D02*
X121340000Y-117170000D01*
X119260000Y-117210000D02*
X117731000Y-117210000D01*
X122869000Y-117210000D02*
X121340000Y-117210000D01*
X122873000Y-117250000D02*
X117727000Y-117250000D01*
X122876000Y-117290000D02*
X117724000Y-117290000D01*
X122878000Y-117330000D02*
X117722000Y-117330000D01*
X122879000Y-117370000D02*
X117721000Y-117370000D01*
X122880000Y-117410000D02*
X117720000Y-117410000D01*
X122880000Y-117450000D02*
X117720000Y-117450000D01*
X122920000Y-117450000D02*
G75*
G03*
X122920000Y-117450000I-2620000J0D01*
G01*
%TO.C,C6*%
X116020000Y-120870000D02*
X116020000Y-118130000D01*
X108580000Y-120870000D02*
X108580000Y-118130000D01*
X108580000Y-118130000D02*
X116020000Y-118130000D01*
X108580000Y-120870000D02*
X116020000Y-120870000D01*
%TO.C,C7*%
X130620000Y-152170000D02*
X130620000Y-149430000D01*
X123180000Y-152170000D02*
X123180000Y-149430000D01*
X123180000Y-149430000D02*
X130620000Y-149430000D01*
X123180000Y-152170000D02*
X130620000Y-152170000D01*
%TO.C,C8*%
X109030000Y-144280000D02*
X109030000Y-151720000D01*
X111770000Y-144280000D02*
X111770000Y-151720000D01*
X109030000Y-144280000D02*
X111770000Y-144280000D01*
X109030000Y-151720000D02*
X111770000Y-151720000D01*
%TO.C,D1*%
X124310000Y-128380000D02*
X124310000Y-130620000D01*
X124070000Y-128380000D02*
X124070000Y-130620000D01*
X124190000Y-128380000D02*
X124190000Y-130620000D01*
X120020000Y-129500000D02*
X120670000Y-129500000D01*
X125560000Y-129500000D02*
X124910000Y-129500000D01*
X120670000Y-128380000D02*
X124910000Y-128380000D01*
X120670000Y-130620000D02*
X120670000Y-128380000D01*
X124910000Y-130620000D02*
X120670000Y-130620000D01*
X124910000Y-128380000D02*
X124910000Y-130620000D01*
%TO.C,D2*%
X120690000Y-133420000D02*
X120690000Y-131180000D01*
X120690000Y-131180000D02*
X124930000Y-131180000D01*
X124930000Y-131180000D02*
X124930000Y-133420000D01*
X124930000Y-133420000D02*
X120690000Y-133420000D01*
X120040000Y-132300000D02*
X120690000Y-132300000D01*
X125580000Y-132300000D02*
X124930000Y-132300000D01*
X121410000Y-133420000D02*
X121410000Y-131180000D01*
X121530000Y-133420000D02*
X121530000Y-131180000D01*
X121290000Y-133420000D02*
X121290000Y-131180000D01*
%TO.C,J7*%
X120350000Y-74300000D02*
X119100000Y-74300000D01*
X120350000Y-73050000D02*
X120350000Y-74300000D01*
X114850000Y-57150000D02*
X114850000Y-65200000D01*
X117800000Y-57150000D02*
X114850000Y-57150000D01*
X117800000Y-56400000D02*
X117800000Y-57150000D01*
X114850000Y-73250000D02*
X114850000Y-65200000D01*
X117800000Y-73250000D02*
X114850000Y-73250000D01*
X117800000Y-74000000D02*
X117800000Y-73250000D01*
X120050000Y-56400000D02*
X120050000Y-58200000D01*
X119300000Y-56400000D02*
X120050000Y-56400000D01*
X119300000Y-58200000D02*
X119300000Y-56400000D01*
X120050000Y-58200000D02*
X119300000Y-58200000D01*
X120050000Y-72200000D02*
X120050000Y-74000000D01*
X119300000Y-72200000D02*
X120050000Y-72200000D01*
X119300000Y-74000000D02*
X119300000Y-72200000D01*
X120050000Y-74000000D02*
X119300000Y-74000000D01*
X120050000Y-59700000D02*
X120050000Y-70700000D01*
X119300000Y-59700000D02*
X120050000Y-59700000D01*
X119300000Y-70700000D02*
X119300000Y-59700000D01*
X120050000Y-70700000D02*
X119300000Y-70700000D01*
X120060000Y-56390000D02*
X120060000Y-74010000D01*
X114090000Y-56390000D02*
X120060000Y-56390000D01*
X114090000Y-74010000D02*
X114090000Y-56390000D01*
X120060000Y-74010000D02*
X114090000Y-74010000D01*
%TO.C,J8*%
X131980000Y-62100000D02*
X130980000Y-61600000D01*
X131980000Y-61100000D02*
X131980000Y-62100000D01*
X130980000Y-61600000D02*
X131980000Y-61100000D01*
X129280000Y-72540000D02*
X130590000Y-72540000D01*
X129280000Y-72540000D02*
X129280000Y-72540000D01*
X129280000Y-83290000D02*
X129280000Y-72540000D01*
X122780000Y-83290000D02*
X129280000Y-83290000D01*
X122780000Y-57690000D02*
X122780000Y-83290000D01*
X129280000Y-57690000D02*
X122780000Y-57690000D01*
X129280000Y-68440000D02*
X129280000Y-57690000D01*
X130590000Y-68440000D02*
X129280000Y-68440000D01*
X130590000Y-84590000D02*
X130590000Y-56390000D01*
X121470000Y-84590000D02*
X130590000Y-84590000D01*
X121470000Y-56390000D02*
X121470000Y-84590000D01*
X130590000Y-56390000D02*
X121470000Y-56390000D01*
%TO.C,Q1*%
X129230000Y-103150000D02*
X125630000Y-103150000D01*
X125591522Y-103138478D02*
G75*
G02*
X127430000Y-98700000I1838478J1838478D01*
G01*
X129268478Y-103138478D02*
G75*
G03*
X127430000Y-98700000I-1838478J1838478D01*
G01*
%TO.C,Q2*%
X125670000Y-103750000D02*
X129270000Y-103750000D01*
X125631522Y-103761522D02*
G75*
G03*
X127470000Y-108200000I1838478J-1838478D01*
G01*
X129308478Y-103761522D02*
G75*
G02*
X127470000Y-108200000I-1838478J-1838478D01*
G01*
%TO.C,R1*%
X116170000Y-100670000D02*
X116170000Y-100340000D01*
X122710000Y-100670000D02*
X116170000Y-100670000D01*
X122710000Y-100340000D02*
X122710000Y-100670000D01*
X116170000Y-97930000D02*
X116170000Y-98260000D01*
X122710000Y-97930000D02*
X116170000Y-97930000D01*
X122710000Y-98260000D02*
X122710000Y-97930000D01*
%TO.C,R2*%
X122710000Y-95110000D02*
X122710000Y-94780000D01*
X122710000Y-94780000D02*
X116170000Y-94780000D01*
X116170000Y-94780000D02*
X116170000Y-95110000D01*
X122710000Y-97190000D02*
X122710000Y-97520000D01*
X122710000Y-97520000D02*
X116170000Y-97520000D01*
X116170000Y-97520000D02*
X116170000Y-97190000D01*
%TO.C,R3*%
X122710000Y-88810000D02*
X122710000Y-88480000D01*
X122710000Y-88480000D02*
X116170000Y-88480000D01*
X116170000Y-88480000D02*
X116170000Y-88810000D01*
X122710000Y-90890000D02*
X122710000Y-91220000D01*
X122710000Y-91220000D02*
X116170000Y-91220000D01*
X116170000Y-91220000D02*
X116170000Y-90890000D01*
%TO.C,R4*%
X116170000Y-88070000D02*
X116170000Y-87740000D01*
X122710000Y-88070000D02*
X116170000Y-88070000D01*
X122710000Y-87740000D02*
X122710000Y-88070000D01*
X116170000Y-85330000D02*
X116170000Y-85660000D01*
X122710000Y-85330000D02*
X116170000Y-85330000D01*
X122710000Y-85660000D02*
X122710000Y-85330000D01*
%TO.C,R5*%
X116190000Y-94040000D02*
X116190000Y-94370000D01*
X116190000Y-94370000D02*
X122730000Y-94370000D01*
X122730000Y-94370000D02*
X122730000Y-94040000D01*
X116190000Y-91960000D02*
X116190000Y-91630000D01*
X116190000Y-91630000D02*
X122730000Y-91630000D01*
X122730000Y-91630000D02*
X122730000Y-91960000D01*
%TO.C,R6*%
X116170000Y-103820000D02*
X116170000Y-103490000D01*
X122710000Y-103820000D02*
X116170000Y-103820000D01*
X122710000Y-103490000D02*
X122710000Y-103820000D01*
X116170000Y-101080000D02*
X116170000Y-101410000D01*
X122710000Y-101080000D02*
X116170000Y-101080000D01*
X122710000Y-101410000D02*
X122710000Y-101080000D01*
%TO.C,R7*%
X111770000Y-160180000D02*
X111440000Y-160180000D01*
X111770000Y-153640000D02*
X111770000Y-160180000D01*
X111440000Y-153640000D02*
X111770000Y-153640000D01*
X109030000Y-160180000D02*
X109360000Y-160180000D01*
X109030000Y-153640000D02*
X109030000Y-160180000D01*
X109360000Y-153640000D02*
X109030000Y-153640000D01*
%TO.C,R8*%
X126060000Y-134310000D02*
X126060000Y-133980000D01*
X126060000Y-133980000D02*
X119520000Y-133980000D01*
X119520000Y-133980000D02*
X119520000Y-134310000D01*
X126060000Y-136390000D02*
X126060000Y-136720000D01*
X126060000Y-136720000D02*
X119520000Y-136720000D01*
X119520000Y-136720000D02*
X119520000Y-136390000D01*
%TO.C,R9*%
X119470000Y-139820000D02*
X119470000Y-139490000D01*
X126010000Y-139820000D02*
X119470000Y-139820000D01*
X126010000Y-139490000D02*
X126010000Y-139820000D01*
X119470000Y-137080000D02*
X119470000Y-137410000D01*
X126010000Y-137080000D02*
X119470000Y-137080000D01*
X126010000Y-137410000D02*
X126010000Y-137080000D01*
%TO.C,R10*%
X122680000Y-110530000D02*
X122680000Y-110860000D01*
X116140000Y-110530000D02*
X122680000Y-110530000D01*
X116140000Y-110860000D02*
X116140000Y-110530000D01*
X122680000Y-113270000D02*
X122680000Y-112940000D01*
X116140000Y-113270000D02*
X122680000Y-113270000D01*
X116140000Y-112940000D02*
X116140000Y-113270000D01*
%TO.C,R11*%
X122710000Y-104560000D02*
X122710000Y-104230000D01*
X122710000Y-104230000D02*
X116170000Y-104230000D01*
X116170000Y-104230000D02*
X116170000Y-104560000D01*
X122710000Y-106640000D02*
X122710000Y-106970000D01*
X122710000Y-106970000D02*
X116170000Y-106970000D01*
X116170000Y-106970000D02*
X116170000Y-106640000D01*
%TO.C,R12*%
X116170000Y-110120000D02*
X116170000Y-109790000D01*
X122710000Y-110120000D02*
X116170000Y-110120000D01*
X122710000Y-109790000D02*
X122710000Y-110120000D01*
X116170000Y-107380000D02*
X116170000Y-107710000D01*
X122710000Y-107380000D02*
X116170000Y-107380000D01*
X122710000Y-107710000D02*
X122710000Y-107380000D01*
%TO.C,R13*%
X131280000Y-152730000D02*
X131280000Y-153060000D01*
X124740000Y-152730000D02*
X131280000Y-152730000D01*
X124740000Y-153060000D02*
X124740000Y-152730000D01*
X131280000Y-155470000D02*
X131280000Y-155140000D01*
X124740000Y-155470000D02*
X131280000Y-155470000D01*
X124740000Y-155140000D02*
X124740000Y-155470000D01*
%TO.C,R14*%
X124740000Y-158340000D02*
X124740000Y-158670000D01*
X124740000Y-158670000D02*
X131280000Y-158670000D01*
X131280000Y-158670000D02*
X131280000Y-158340000D01*
X124740000Y-156260000D02*
X124740000Y-155930000D01*
X124740000Y-155930000D02*
X131280000Y-155930000D01*
X131280000Y-155930000D02*
X131280000Y-156260000D01*
%TO.C,R15*%
X124740000Y-161540000D02*
X124740000Y-161870000D01*
X124740000Y-161870000D02*
X131280000Y-161870000D01*
X131280000Y-161870000D02*
X131280000Y-161540000D01*
X124740000Y-159460000D02*
X124740000Y-159130000D01*
X124740000Y-159130000D02*
X131280000Y-159130000D01*
X131280000Y-159130000D02*
X131280000Y-159460000D01*
%TO.C,R16*%
X108040000Y-150260000D02*
X108370000Y-150260000D01*
X108370000Y-150260000D02*
X108370000Y-143720000D01*
X108370000Y-143720000D02*
X108040000Y-143720000D01*
X105960000Y-150260000D02*
X105630000Y-150260000D01*
X105630000Y-150260000D02*
X105630000Y-143720000D01*
X105630000Y-143720000D02*
X105960000Y-143720000D01*
%TO.C,R17*%
X105630000Y-153720000D02*
X105960000Y-153720000D01*
X105630000Y-160260000D02*
X105630000Y-153720000D01*
X105960000Y-160260000D02*
X105630000Y-160260000D01*
X108370000Y-153720000D02*
X108040000Y-153720000D01*
X108370000Y-160260000D02*
X108370000Y-153720000D01*
X108040000Y-160260000D02*
X108370000Y-160260000D01*
%TO.C,TH1*%
X129520000Y-95280000D02*
X125480000Y-95280000D01*
X129520000Y-98120000D02*
X125480000Y-98120000D01*
X129520000Y-95280000D02*
X129520000Y-95905000D01*
X129520000Y-97495000D02*
X129520000Y-98120000D01*
X125480000Y-95280000D02*
X125480000Y-95905000D01*
X125480000Y-97495000D02*
X125480000Y-98120000D01*
%TO.C,TH2*%
X125480000Y-94195000D02*
X125480000Y-94820000D01*
X125480000Y-91980000D02*
X125480000Y-92605000D01*
X129520000Y-94195000D02*
X129520000Y-94820000D01*
X129520000Y-91980000D02*
X129520000Y-92605000D01*
X129520000Y-94820000D02*
X125480000Y-94820000D01*
X129520000Y-91980000D02*
X125480000Y-91980000D01*
%TO.C,TH3*%
X125430000Y-91520000D02*
X129470000Y-91520000D01*
X125430000Y-88680000D02*
X129470000Y-88680000D01*
X125430000Y-91520000D02*
X125430000Y-90895000D01*
X125430000Y-89305000D02*
X125430000Y-88680000D01*
X129470000Y-91520000D02*
X129470000Y-90895000D01*
X129470000Y-89305000D02*
X129470000Y-88680000D01*
%TO.C,TH4*%
X125430000Y-87595000D02*
X125430000Y-88220000D01*
X125430000Y-85380000D02*
X125430000Y-86005000D01*
X129470000Y-87595000D02*
X129470000Y-88220000D01*
X129470000Y-85380000D02*
X129470000Y-86005000D01*
X129470000Y-88220000D02*
X125430000Y-88220000D01*
X129470000Y-85380000D02*
X125430000Y-85380000D01*
%TO.C,U1*%
X118590000Y-143770000D02*
X120240000Y-143770000D01*
X120240000Y-143770000D02*
X120240000Y-161670000D01*
X120240000Y-161670000D02*
X114940000Y-161670000D01*
X114940000Y-161670000D02*
X114940000Y-143770000D01*
X114940000Y-143770000D02*
X116590000Y-143770000D01*
X122730000Y-143710000D02*
X122730000Y-161730000D01*
X122730000Y-161730000D02*
X112450000Y-161730000D01*
X112450000Y-161730000D02*
X112450000Y-143710000D01*
X112450000Y-143710000D02*
X122730000Y-143710000D01*
X116590000Y-143770000D02*
G75*
G03*
X118590000Y-143770000I1000000J0D01*
G01*
%TO.C,U2*%
X105650000Y-121710000D02*
X115930000Y-121710000D01*
X105650000Y-139730000D02*
X105650000Y-121710000D01*
X115930000Y-139730000D02*
X105650000Y-139730000D01*
X115930000Y-121710000D02*
X115930000Y-139730000D01*
X108140000Y-121770000D02*
X109790000Y-121770000D01*
X108140000Y-139670000D02*
X108140000Y-121770000D01*
X113440000Y-139670000D02*
X108140000Y-139670000D01*
X113440000Y-121770000D02*
X113440000Y-139670000D01*
X111790000Y-121770000D02*
X113440000Y-121770000D01*
X109790000Y-121770000D02*
G75*
G03*
X111790000Y-121770000I1000000J0D01*
G01*
%TO.C,C4*%
X114395225Y-81425000D02*
X114395225Y-80925000D01*
X114145225Y-81175000D02*
X114645225Y-81175000D01*
X119551000Y-79984000D02*
X119551000Y-79416000D01*
X119511000Y-80218000D02*
X119511000Y-79182000D01*
X119471000Y-80377000D02*
X119471000Y-79023000D01*
X119431000Y-80505000D02*
X119431000Y-78895000D01*
X119391000Y-80615000D02*
X119391000Y-78785000D01*
X119351000Y-80711000D02*
X119351000Y-78689000D01*
X119311000Y-80798000D02*
X119311000Y-78602000D01*
X119271000Y-80878000D02*
X119271000Y-78522000D01*
X119231000Y-78660000D02*
X119231000Y-78449000D01*
X119231000Y-80951000D02*
X119231000Y-80740000D01*
X119191000Y-78660000D02*
X119191000Y-78381000D01*
X119191000Y-81019000D02*
X119191000Y-80740000D01*
X119151000Y-78660000D02*
X119151000Y-78317000D01*
X119151000Y-81083000D02*
X119151000Y-80740000D01*
X119111000Y-78660000D02*
X119111000Y-78257000D01*
X119111000Y-81143000D02*
X119111000Y-80740000D01*
X119071000Y-78660000D02*
X119071000Y-78200000D01*
X119071000Y-81200000D02*
X119071000Y-80740000D01*
X119031000Y-78660000D02*
X119031000Y-78146000D01*
X119031000Y-81254000D02*
X119031000Y-80740000D01*
X118991000Y-78660000D02*
X118991000Y-78095000D01*
X118991000Y-81305000D02*
X118991000Y-80740000D01*
X118951000Y-78660000D02*
X118951000Y-78047000D01*
X118951000Y-81353000D02*
X118951000Y-80740000D01*
X118911000Y-78660000D02*
X118911000Y-78001000D01*
X118911000Y-81399000D02*
X118911000Y-80740000D01*
X118871000Y-78660000D02*
X118871000Y-77957000D01*
X118871000Y-81443000D02*
X118871000Y-80740000D01*
X118831000Y-78660000D02*
X118831000Y-77915000D01*
X118831000Y-81485000D02*
X118831000Y-80740000D01*
X118791000Y-78660000D02*
X118791000Y-77874000D01*
X118791000Y-81526000D02*
X118791000Y-80740000D01*
X118751000Y-78660000D02*
X118751000Y-77836000D01*
X118751000Y-81564000D02*
X118751000Y-80740000D01*
X118711000Y-78660000D02*
X118711000Y-77799000D01*
X118711000Y-81601000D02*
X118711000Y-80740000D01*
X118671000Y-78660000D02*
X118671000Y-77763000D01*
X118671000Y-81637000D02*
X118671000Y-80740000D01*
X118631000Y-78660000D02*
X118631000Y-77729000D01*
X118631000Y-81671000D02*
X118631000Y-80740000D01*
X118591000Y-78660000D02*
X118591000Y-77696000D01*
X118591000Y-81704000D02*
X118591000Y-80740000D01*
X118551000Y-78660000D02*
X118551000Y-77665000D01*
X118551000Y-81735000D02*
X118551000Y-80740000D01*
X118511000Y-78660000D02*
X118511000Y-77635000D01*
X118511000Y-81765000D02*
X118511000Y-80740000D01*
X118471000Y-78660000D02*
X118471000Y-77605000D01*
X118471000Y-81795000D02*
X118471000Y-80740000D01*
X118431000Y-78660000D02*
X118431000Y-77578000D01*
X118431000Y-81822000D02*
X118431000Y-80740000D01*
X118391000Y-78660000D02*
X118391000Y-77551000D01*
X118391000Y-81849000D02*
X118391000Y-80740000D01*
X118351000Y-78660000D02*
X118351000Y-77525000D01*
X118351000Y-81875000D02*
X118351000Y-80740000D01*
X118311000Y-78660000D02*
X118311000Y-77500000D01*
X118311000Y-81900000D02*
X118311000Y-80740000D01*
X118271000Y-78660000D02*
X118271000Y-77476000D01*
X118271000Y-81924000D02*
X118271000Y-80740000D01*
X118231000Y-78660000D02*
X118231000Y-77453000D01*
X118231000Y-81947000D02*
X118231000Y-80740000D01*
X118191000Y-78660000D02*
X118191000Y-77432000D01*
X118191000Y-81968000D02*
X118191000Y-80740000D01*
X118151000Y-78660000D02*
X118151000Y-77410000D01*
X118151000Y-81990000D02*
X118151000Y-80740000D01*
X118111000Y-78660000D02*
X118111000Y-77390000D01*
X118111000Y-82010000D02*
X118111000Y-80740000D01*
X118071000Y-78660000D02*
X118071000Y-77371000D01*
X118071000Y-82029000D02*
X118071000Y-80740000D01*
X118031000Y-78660000D02*
X118031000Y-77352000D01*
X118031000Y-82048000D02*
X118031000Y-80740000D01*
X117991000Y-78660000D02*
X117991000Y-77335000D01*
X117991000Y-82065000D02*
X117991000Y-80740000D01*
X117951000Y-78660000D02*
X117951000Y-77318000D01*
X117951000Y-82082000D02*
X117951000Y-80740000D01*
X117911000Y-78660000D02*
X117911000Y-77302000D01*
X117911000Y-82098000D02*
X117911000Y-80740000D01*
X117871000Y-78660000D02*
X117871000Y-77286000D01*
X117871000Y-82114000D02*
X117871000Y-80740000D01*
X117831000Y-78660000D02*
X117831000Y-77272000D01*
X117831000Y-82128000D02*
X117831000Y-80740000D01*
X117791000Y-78660000D02*
X117791000Y-77258000D01*
X117791000Y-82142000D02*
X117791000Y-80740000D01*
X117751000Y-78660000D02*
X117751000Y-77245000D01*
X117751000Y-82155000D02*
X117751000Y-80740000D01*
X117711000Y-78660000D02*
X117711000Y-77232000D01*
X117711000Y-82168000D02*
X117711000Y-80740000D01*
X117671000Y-78660000D02*
X117671000Y-77220000D01*
X117671000Y-82180000D02*
X117671000Y-80740000D01*
X117630000Y-78660000D02*
X117630000Y-77209000D01*
X117630000Y-82191000D02*
X117630000Y-80740000D01*
X117590000Y-78660000D02*
X117590000Y-77199000D01*
X117590000Y-82201000D02*
X117590000Y-80740000D01*
X117550000Y-78660000D02*
X117550000Y-77189000D01*
X117550000Y-82211000D02*
X117550000Y-80740000D01*
X117510000Y-78660000D02*
X117510000Y-77180000D01*
X117510000Y-82220000D02*
X117510000Y-80740000D01*
X117470000Y-78660000D02*
X117470000Y-77172000D01*
X117470000Y-82228000D02*
X117470000Y-80740000D01*
X117430000Y-78660000D02*
X117430000Y-77164000D01*
X117430000Y-82236000D02*
X117430000Y-80740000D01*
X117390000Y-78660000D02*
X117390000Y-77157000D01*
X117390000Y-82243000D02*
X117390000Y-80740000D01*
X117350000Y-78660000D02*
X117350000Y-77150000D01*
X117350000Y-82250000D02*
X117350000Y-80740000D01*
X117310000Y-78660000D02*
X117310000Y-77144000D01*
X117310000Y-82256000D02*
X117310000Y-80740000D01*
X117270000Y-78660000D02*
X117270000Y-77139000D01*
X117270000Y-82261000D02*
X117270000Y-80740000D01*
X117230000Y-78660000D02*
X117230000Y-77135000D01*
X117230000Y-82265000D02*
X117230000Y-80740000D01*
X117190000Y-78660000D02*
X117190000Y-77131000D01*
X117190000Y-82269000D02*
X117190000Y-80740000D01*
X117150000Y-82273000D02*
X117150000Y-77127000D01*
X117110000Y-82276000D02*
X117110000Y-77124000D01*
X117070000Y-82278000D02*
X117070000Y-77122000D01*
X117030000Y-82279000D02*
X117030000Y-77121000D01*
X116990000Y-82280000D02*
X116990000Y-77120000D01*
X116950000Y-82280000D02*
X116950000Y-77120000D01*
X119570000Y-79700000D02*
G75*
G03*
X119570000Y-79700000I-2620000J0D01*
G01*
%TO.C,C5*%
X111720000Y-60200000D02*
G75*
G03*
X111720000Y-60200000I-2620000J0D01*
G01*
X106520000Y-60200000D02*
X111680000Y-60200000D01*
X106520000Y-60240000D02*
X111680000Y-60240000D01*
X106521000Y-60280000D02*
X111679000Y-60280000D01*
X106522000Y-60320000D02*
X111678000Y-60320000D01*
X106524000Y-60360000D02*
X111676000Y-60360000D01*
X106527000Y-60400000D02*
X111673000Y-60400000D01*
X106531000Y-60440000D02*
X108060000Y-60440000D01*
X110140000Y-60440000D02*
X111669000Y-60440000D01*
X106535000Y-60480000D02*
X108060000Y-60480000D01*
X110140000Y-60480000D02*
X111665000Y-60480000D01*
X106539000Y-60520000D02*
X108060000Y-60520000D01*
X110140000Y-60520000D02*
X111661000Y-60520000D01*
X106544000Y-60560000D02*
X108060000Y-60560000D01*
X110140000Y-60560000D02*
X111656000Y-60560000D01*
X106550000Y-60600000D02*
X108060000Y-60600000D01*
X110140000Y-60600000D02*
X111650000Y-60600000D01*
X106557000Y-60640000D02*
X108060000Y-60640000D01*
X110140000Y-60640000D02*
X111643000Y-60640000D01*
X106564000Y-60680000D02*
X108060000Y-60680000D01*
X110140000Y-60680000D02*
X111636000Y-60680000D01*
X106572000Y-60720000D02*
X108060000Y-60720000D01*
X110140000Y-60720000D02*
X111628000Y-60720000D01*
X106580000Y-60760000D02*
X108060000Y-60760000D01*
X110140000Y-60760000D02*
X111620000Y-60760000D01*
X106589000Y-60800000D02*
X108060000Y-60800000D01*
X110140000Y-60800000D02*
X111611000Y-60800000D01*
X106599000Y-60840000D02*
X108060000Y-60840000D01*
X110140000Y-60840000D02*
X111601000Y-60840000D01*
X106609000Y-60880000D02*
X108060000Y-60880000D01*
X110140000Y-60880000D02*
X111591000Y-60880000D01*
X106620000Y-60921000D02*
X108060000Y-60921000D01*
X110140000Y-60921000D02*
X111580000Y-60921000D01*
X106632000Y-60961000D02*
X108060000Y-60961000D01*
X110140000Y-60961000D02*
X111568000Y-60961000D01*
X106645000Y-61001000D02*
X108060000Y-61001000D01*
X110140000Y-61001000D02*
X111555000Y-61001000D01*
X106658000Y-61041000D02*
X108060000Y-61041000D01*
X110140000Y-61041000D02*
X111542000Y-61041000D01*
X106672000Y-61081000D02*
X108060000Y-61081000D01*
X110140000Y-61081000D02*
X111528000Y-61081000D01*
X106686000Y-61121000D02*
X108060000Y-61121000D01*
X110140000Y-61121000D02*
X111514000Y-61121000D01*
X106702000Y-61161000D02*
X108060000Y-61161000D01*
X110140000Y-61161000D02*
X111498000Y-61161000D01*
X106718000Y-61201000D02*
X108060000Y-61201000D01*
X110140000Y-61201000D02*
X111482000Y-61201000D01*
X106735000Y-61241000D02*
X108060000Y-61241000D01*
X110140000Y-61241000D02*
X111465000Y-61241000D01*
X106752000Y-61281000D02*
X108060000Y-61281000D01*
X110140000Y-61281000D02*
X111448000Y-61281000D01*
X106771000Y-61321000D02*
X108060000Y-61321000D01*
X110140000Y-61321000D02*
X111429000Y-61321000D01*
X106790000Y-61361000D02*
X108060000Y-61361000D01*
X110140000Y-61361000D02*
X111410000Y-61361000D01*
X106810000Y-61401000D02*
X108060000Y-61401000D01*
X110140000Y-61401000D02*
X111390000Y-61401000D01*
X106832000Y-61441000D02*
X108060000Y-61441000D01*
X110140000Y-61441000D02*
X111368000Y-61441000D01*
X106853000Y-61481000D02*
X108060000Y-61481000D01*
X110140000Y-61481000D02*
X111347000Y-61481000D01*
X106876000Y-61521000D02*
X108060000Y-61521000D01*
X110140000Y-61521000D02*
X111324000Y-61521000D01*
X106900000Y-61561000D02*
X108060000Y-61561000D01*
X110140000Y-61561000D02*
X111300000Y-61561000D01*
X106925000Y-61601000D02*
X108060000Y-61601000D01*
X110140000Y-61601000D02*
X111275000Y-61601000D01*
X106951000Y-61641000D02*
X108060000Y-61641000D01*
X110140000Y-61641000D02*
X111249000Y-61641000D01*
X106978000Y-61681000D02*
X108060000Y-61681000D01*
X110140000Y-61681000D02*
X111222000Y-61681000D01*
X107005000Y-61721000D02*
X108060000Y-61721000D01*
X110140000Y-61721000D02*
X111195000Y-61721000D01*
X107035000Y-61761000D02*
X108060000Y-61761000D01*
X110140000Y-61761000D02*
X111165000Y-61761000D01*
X107065000Y-61801000D02*
X108060000Y-61801000D01*
X110140000Y-61801000D02*
X111135000Y-61801000D01*
X107096000Y-61841000D02*
X108060000Y-61841000D01*
X110140000Y-61841000D02*
X111104000Y-61841000D01*
X107129000Y-61881000D02*
X108060000Y-61881000D01*
X110140000Y-61881000D02*
X111071000Y-61881000D01*
X107163000Y-61921000D02*
X108060000Y-61921000D01*
X110140000Y-61921000D02*
X111037000Y-61921000D01*
X107199000Y-61961000D02*
X108060000Y-61961000D01*
X110140000Y-61961000D02*
X111001000Y-61961000D01*
X107236000Y-62001000D02*
X108060000Y-62001000D01*
X110140000Y-62001000D02*
X110964000Y-62001000D01*
X107274000Y-62041000D02*
X108060000Y-62041000D01*
X110140000Y-62041000D02*
X110926000Y-62041000D01*
X107315000Y-62081000D02*
X108060000Y-62081000D01*
X110140000Y-62081000D02*
X110885000Y-62081000D01*
X107357000Y-62121000D02*
X108060000Y-62121000D01*
X110140000Y-62121000D02*
X110843000Y-62121000D01*
X107401000Y-62161000D02*
X108060000Y-62161000D01*
X110140000Y-62161000D02*
X110799000Y-62161000D01*
X107447000Y-62201000D02*
X108060000Y-62201000D01*
X110140000Y-62201000D02*
X110753000Y-62201000D01*
X107495000Y-62241000D02*
X108060000Y-62241000D01*
X110140000Y-62241000D02*
X110705000Y-62241000D01*
X107546000Y-62281000D02*
X108060000Y-62281000D01*
X110140000Y-62281000D02*
X110654000Y-62281000D01*
X107600000Y-62321000D02*
X108060000Y-62321000D01*
X110140000Y-62321000D02*
X110600000Y-62321000D01*
X107657000Y-62361000D02*
X108060000Y-62361000D01*
X110140000Y-62361000D02*
X110543000Y-62361000D01*
X107717000Y-62401000D02*
X108060000Y-62401000D01*
X110140000Y-62401000D02*
X110483000Y-62401000D01*
X107781000Y-62441000D02*
X108060000Y-62441000D01*
X110140000Y-62441000D02*
X110419000Y-62441000D01*
X107849000Y-62481000D02*
X108060000Y-62481000D01*
X110140000Y-62481000D02*
X110351000Y-62481000D01*
X107922000Y-62521000D02*
X110278000Y-62521000D01*
X108002000Y-62561000D02*
X110198000Y-62561000D01*
X108089000Y-62601000D02*
X110111000Y-62601000D01*
X108185000Y-62641000D02*
X110015000Y-62641000D01*
X108295000Y-62681000D02*
X109905000Y-62681000D01*
X108423000Y-62721000D02*
X109777000Y-62721000D01*
X108582000Y-62761000D02*
X109618000Y-62761000D01*
X108816000Y-62801000D02*
X109384000Y-62801000D01*
X107625000Y-57395225D02*
X107625000Y-57895225D01*
X107375000Y-57645225D02*
X107875000Y-57645225D01*
%TO.C,J2*%
D10*
X75333333Y-69622380D02*
X75333333Y-70336666D01*
X75380952Y-70479523D01*
X75476190Y-70574761D01*
X75619047Y-70622380D01*
X75714285Y-70622380D01*
X74904761Y-69717619D02*
X74857142Y-69670000D01*
X74761904Y-69622380D01*
X74523809Y-69622380D01*
X74428571Y-69670000D01*
X74380952Y-69717619D01*
X74333333Y-69812857D01*
X74333333Y-69908095D01*
X74380952Y-70050952D01*
X74952380Y-70622380D01*
X74333333Y-70622380D01*
%TO.C,C1*%
X107516666Y-116407142D02*
X107564285Y-116454761D01*
X107707142Y-116502380D01*
X107802380Y-116502380D01*
X107945238Y-116454761D01*
X108040476Y-116359523D01*
X108088095Y-116264285D01*
X108135714Y-116073809D01*
X108135714Y-115930952D01*
X108088095Y-115740476D01*
X108040476Y-115645238D01*
X107945238Y-115550000D01*
X107802380Y-115502380D01*
X107707142Y-115502380D01*
X107564285Y-115550000D01*
X107516666Y-115597619D01*
X106564285Y-116502380D02*
X107135714Y-116502380D01*
X106850000Y-116502380D02*
X106850000Y-115502380D01*
X106945238Y-115645238D01*
X107040476Y-115740476D01*
X107135714Y-115788095D01*
X114330952Y-115597619D02*
X114283333Y-115550000D01*
X114188095Y-115502380D01*
X113950000Y-115502380D01*
X113854761Y-115550000D01*
X113807142Y-115597619D01*
X113759523Y-115692857D01*
X113759523Y-115788095D01*
X113807142Y-115930952D01*
X114378571Y-116502380D01*
X113759523Y-116502380D01*
X113330952Y-116407142D02*
X113283333Y-116454761D01*
X113330952Y-116502380D01*
X113378571Y-116454761D01*
X113330952Y-116407142D01*
X113330952Y-116502380D01*
X112902380Y-115597619D02*
X112854761Y-115550000D01*
X112759523Y-115502380D01*
X112521428Y-115502380D01*
X112426190Y-115550000D01*
X112378571Y-115597619D01*
X112330952Y-115692857D01*
X112330952Y-115788095D01*
X112378571Y-115930952D01*
X112950000Y-116502380D01*
X112330952Y-116502380D01*
X111902380Y-115835714D02*
X111902380Y-116502380D01*
X111902380Y-115930952D02*
X111854761Y-115883333D01*
X111759523Y-115835714D01*
X111616666Y-115835714D01*
X111521428Y-115883333D01*
X111473809Y-115978571D01*
X111473809Y-116502380D01*
X110664285Y-115978571D02*
X110997619Y-115978571D01*
X110997619Y-116502380D02*
X110997619Y-115502380D01*
X110521428Y-115502380D01*
%TO.C,C2*%
X131166666Y-145457142D02*
X131214285Y-145504761D01*
X131357142Y-145552380D01*
X131452380Y-145552380D01*
X131595238Y-145504761D01*
X131690476Y-145409523D01*
X131738095Y-145314285D01*
X131785714Y-145123809D01*
X131785714Y-144980952D01*
X131738095Y-144790476D01*
X131690476Y-144695238D01*
X131595238Y-144600000D01*
X131452380Y-144552380D01*
X131357142Y-144552380D01*
X131214285Y-144600000D01*
X131166666Y-144647619D01*
X130785714Y-144647619D02*
X130738095Y-144600000D01*
X130642857Y-144552380D01*
X130404761Y-144552380D01*
X130309523Y-144600000D01*
X130261904Y-144647619D01*
X130214285Y-144742857D01*
X130214285Y-144838095D01*
X130261904Y-144980952D01*
X130833333Y-145552380D01*
X130214285Y-145552380D01*
X127745238Y-141802380D02*
X128316666Y-141802380D01*
X128030952Y-141802380D02*
X128030952Y-140802380D01*
X128126190Y-140945238D01*
X128221428Y-141040476D01*
X128316666Y-141088095D01*
X126888095Y-141135714D02*
X126888095Y-141802380D01*
X127316666Y-141135714D02*
X127316666Y-141659523D01*
X127269047Y-141754761D01*
X127173809Y-141802380D01*
X127030952Y-141802380D01*
X126935714Y-141754761D01*
X126888095Y-141707142D01*
X126078571Y-141278571D02*
X126411904Y-141278571D01*
X126411904Y-141802380D02*
X126411904Y-140802380D01*
X125935714Y-140802380D01*
%TO.C,C3*%
X120466666Y-121457142D02*
X120514285Y-121504761D01*
X120657142Y-121552380D01*
X120752380Y-121552380D01*
X120895238Y-121504761D01*
X120990476Y-121409523D01*
X121038095Y-121314285D01*
X121085714Y-121123809D01*
X121085714Y-120980952D01*
X121038095Y-120790476D01*
X120990476Y-120695238D01*
X120895238Y-120600000D01*
X120752380Y-120552380D01*
X120657142Y-120552380D01*
X120514285Y-120600000D01*
X120466666Y-120647619D01*
X120133333Y-120552380D02*
X119514285Y-120552380D01*
X119847619Y-120933333D01*
X119704761Y-120933333D01*
X119609523Y-120980952D01*
X119561904Y-121028571D01*
X119514285Y-121123809D01*
X119514285Y-121361904D01*
X119561904Y-121457142D01*
X119609523Y-121504761D01*
X119704761Y-121552380D01*
X119990476Y-121552380D01*
X120085714Y-121504761D01*
X120133333Y-121457142D01*
X118195238Y-114852380D02*
X118766666Y-114852380D01*
X118480952Y-114852380D02*
X118480952Y-113852380D01*
X118576190Y-113995238D01*
X118671428Y-114090476D01*
X118766666Y-114138095D01*
X117338095Y-114185714D02*
X117338095Y-114852380D01*
X117766666Y-114185714D02*
X117766666Y-114709523D01*
X117719047Y-114804761D01*
X117623809Y-114852380D01*
X117480952Y-114852380D01*
X117385714Y-114804761D01*
X117338095Y-114757142D01*
X116528571Y-114328571D02*
X116861904Y-114328571D01*
X116861904Y-114852380D02*
X116861904Y-113852380D01*
X116385714Y-113852380D01*
%TO.C,C6*%
X107666666Y-119757142D02*
X107714285Y-119804761D01*
X107857142Y-119852380D01*
X107952380Y-119852380D01*
X108095238Y-119804761D01*
X108190476Y-119709523D01*
X108238095Y-119614285D01*
X108285714Y-119423809D01*
X108285714Y-119280952D01*
X108238095Y-119090476D01*
X108190476Y-118995238D01*
X108095238Y-118900000D01*
X107952380Y-118852380D01*
X107857142Y-118852380D01*
X107714285Y-118900000D01*
X107666666Y-118947619D01*
X106809523Y-118852380D02*
X107000000Y-118852380D01*
X107095238Y-118900000D01*
X107142857Y-118947619D01*
X107238095Y-119090476D01*
X107285714Y-119280952D01*
X107285714Y-119661904D01*
X107238095Y-119757142D01*
X107190476Y-119804761D01*
X107095238Y-119852380D01*
X106904761Y-119852380D01*
X106809523Y-119804761D01*
X106761904Y-119757142D01*
X106714285Y-119661904D01*
X106714285Y-119423809D01*
X106761904Y-119328571D01*
X106809523Y-119280952D01*
X106904761Y-119233333D01*
X107095238Y-119233333D01*
X107190476Y-119280952D01*
X107238095Y-119328571D01*
X107285714Y-119423809D01*
X113947619Y-119952380D02*
X114519047Y-119952380D01*
X114233333Y-119952380D02*
X114233333Y-118952380D01*
X114328571Y-119095238D01*
X114423809Y-119190476D01*
X114519047Y-119238095D01*
X113328571Y-118952380D02*
X113233333Y-118952380D01*
X113138095Y-119000000D01*
X113090476Y-119047619D01*
X113042857Y-119142857D01*
X112995238Y-119333333D01*
X112995238Y-119571428D01*
X113042857Y-119761904D01*
X113090476Y-119857142D01*
X113138095Y-119904761D01*
X113233333Y-119952380D01*
X113328571Y-119952380D01*
X113423809Y-119904761D01*
X113471428Y-119857142D01*
X113519047Y-119761904D01*
X113566666Y-119571428D01*
X113566666Y-119333333D01*
X113519047Y-119142857D01*
X113471428Y-119047619D01*
X113423809Y-119000000D01*
X113328571Y-118952380D01*
X112376190Y-118952380D02*
X112280952Y-118952380D01*
X112185714Y-119000000D01*
X112138095Y-119047619D01*
X112090476Y-119142857D01*
X112042857Y-119333333D01*
X112042857Y-119571428D01*
X112090476Y-119761904D01*
X112138095Y-119857142D01*
X112185714Y-119904761D01*
X112280952Y-119952380D01*
X112376190Y-119952380D01*
X112471428Y-119904761D01*
X112519047Y-119857142D01*
X112566666Y-119761904D01*
X112614285Y-119571428D01*
X112614285Y-119333333D01*
X112566666Y-119142857D01*
X112519047Y-119047619D01*
X112471428Y-119000000D01*
X112376190Y-118952380D01*
X111614285Y-119285714D02*
X111614285Y-119952380D01*
X111614285Y-119380952D02*
X111566666Y-119333333D01*
X111471428Y-119285714D01*
X111328571Y-119285714D01*
X111233333Y-119333333D01*
X111185714Y-119428571D01*
X111185714Y-119952380D01*
X110376190Y-119428571D02*
X110709523Y-119428571D01*
X110709523Y-119952380D02*
X110709523Y-118952380D01*
X110233333Y-118952380D01*
%TO.C,C7*%
X131966666Y-151257142D02*
X132014285Y-151304761D01*
X132157142Y-151352380D01*
X132252380Y-151352380D01*
X132395238Y-151304761D01*
X132490476Y-151209523D01*
X132538095Y-151114285D01*
X132585714Y-150923809D01*
X132585714Y-150780952D01*
X132538095Y-150590476D01*
X132490476Y-150495238D01*
X132395238Y-150400000D01*
X132252380Y-150352380D01*
X132157142Y-150352380D01*
X132014285Y-150400000D01*
X131966666Y-150447619D01*
X131633333Y-150352380D02*
X130966666Y-150352380D01*
X131395238Y-151352380D01*
X128147619Y-149852380D02*
X128719047Y-149852380D01*
X128433333Y-149852380D02*
X128433333Y-148852380D01*
X128528571Y-148995238D01*
X128623809Y-149090476D01*
X128719047Y-149138095D01*
X127528571Y-148852380D02*
X127433333Y-148852380D01*
X127338095Y-148900000D01*
X127290476Y-148947619D01*
X127242857Y-149042857D01*
X127195238Y-149233333D01*
X127195238Y-149471428D01*
X127242857Y-149661904D01*
X127290476Y-149757142D01*
X127338095Y-149804761D01*
X127433333Y-149852380D01*
X127528571Y-149852380D01*
X127623809Y-149804761D01*
X127671428Y-149757142D01*
X127719047Y-149661904D01*
X127766666Y-149471428D01*
X127766666Y-149233333D01*
X127719047Y-149042857D01*
X127671428Y-148947619D01*
X127623809Y-148900000D01*
X127528571Y-148852380D01*
X126576190Y-148852380D02*
X126480952Y-148852380D01*
X126385714Y-148900000D01*
X126338095Y-148947619D01*
X126290476Y-149042857D01*
X126242857Y-149233333D01*
X126242857Y-149471428D01*
X126290476Y-149661904D01*
X126338095Y-149757142D01*
X126385714Y-149804761D01*
X126480952Y-149852380D01*
X126576190Y-149852380D01*
X126671428Y-149804761D01*
X126719047Y-149757142D01*
X126766666Y-149661904D01*
X126814285Y-149471428D01*
X126814285Y-149233333D01*
X126766666Y-149042857D01*
X126719047Y-148947619D01*
X126671428Y-148900000D01*
X126576190Y-148852380D01*
X125814285Y-149185714D02*
X125814285Y-149852380D01*
X125814285Y-149280952D02*
X125766666Y-149233333D01*
X125671428Y-149185714D01*
X125528571Y-149185714D01*
X125433333Y-149233333D01*
X125385714Y-149328571D01*
X125385714Y-149852380D01*
X124576190Y-149328571D02*
X124909523Y-149328571D01*
X124909523Y-149852380D02*
X124909523Y-148852380D01*
X124433333Y-148852380D01*
%TO.C,C8*%
X110566666Y-143857142D02*
X110614285Y-143904761D01*
X110757142Y-143952380D01*
X110852380Y-143952380D01*
X110995238Y-143904761D01*
X111090476Y-143809523D01*
X111138095Y-143714285D01*
X111185714Y-143523809D01*
X111185714Y-143380952D01*
X111138095Y-143190476D01*
X111090476Y-143095238D01*
X110995238Y-143000000D01*
X110852380Y-142952380D01*
X110757142Y-142952380D01*
X110614285Y-143000000D01*
X110566666Y-143047619D01*
X109995238Y-143380952D02*
X110090476Y-143333333D01*
X110138095Y-143285714D01*
X110185714Y-143190476D01*
X110185714Y-143142857D01*
X110138095Y-143047619D01*
X110090476Y-143000000D01*
X109995238Y-142952380D01*
X109804761Y-142952380D01*
X109709523Y-143000000D01*
X109661904Y-143047619D01*
X109614285Y-143142857D01*
X109614285Y-143190476D01*
X109661904Y-143285714D01*
X109709523Y-143333333D01*
X109804761Y-143380952D01*
X109995238Y-143380952D01*
X110090476Y-143428571D01*
X110138095Y-143476190D01*
X110185714Y-143571428D01*
X110185714Y-143761904D01*
X110138095Y-143857142D01*
X110090476Y-143904761D01*
X109995238Y-143952380D01*
X109804761Y-143952380D01*
X109709523Y-143904761D01*
X109661904Y-143857142D01*
X109614285Y-143761904D01*
X109614285Y-143571428D01*
X109661904Y-143476190D01*
X109709523Y-143428571D01*
X109804761Y-143380952D01*
X111952380Y-146152380D02*
X111952380Y-145580952D01*
X111952380Y-145866666D02*
X110952380Y-145866666D01*
X111095238Y-145771428D01*
X111190476Y-145676190D01*
X111238095Y-145580952D01*
X110952380Y-146771428D02*
X110952380Y-146866666D01*
X111000000Y-146961904D01*
X111047619Y-147009523D01*
X111142857Y-147057142D01*
X111333333Y-147104761D01*
X111571428Y-147104761D01*
X111761904Y-147057142D01*
X111857142Y-147009523D01*
X111904761Y-146961904D01*
X111952380Y-146866666D01*
X111952380Y-146771428D01*
X111904761Y-146676190D01*
X111857142Y-146628571D01*
X111761904Y-146580952D01*
X111571428Y-146533333D01*
X111333333Y-146533333D01*
X111142857Y-146580952D01*
X111047619Y-146628571D01*
X111000000Y-146676190D01*
X110952380Y-146771428D01*
X110952380Y-147723809D02*
X110952380Y-147819047D01*
X111000000Y-147914285D01*
X111047619Y-147961904D01*
X111142857Y-148009523D01*
X111333333Y-148057142D01*
X111571428Y-148057142D01*
X111761904Y-148009523D01*
X111857142Y-147961904D01*
X111904761Y-147914285D01*
X111952380Y-147819047D01*
X111952380Y-147723809D01*
X111904761Y-147628571D01*
X111857142Y-147580952D01*
X111761904Y-147533333D01*
X111571428Y-147485714D01*
X111333333Y-147485714D01*
X111142857Y-147533333D01*
X111047619Y-147580952D01*
X111000000Y-147628571D01*
X110952380Y-147723809D01*
X111285714Y-148485714D02*
X111952380Y-148485714D01*
X111380952Y-148485714D02*
X111333333Y-148533333D01*
X111285714Y-148628571D01*
X111285714Y-148771428D01*
X111333333Y-148866666D01*
X111428571Y-148914285D01*
X111952380Y-148914285D01*
X111428571Y-149723809D02*
X111428571Y-149390476D01*
X111952380Y-149390476D02*
X110952380Y-149390476D01*
X110952380Y-149866666D01*
%TO.C,D1*%
X129538095Y-129852380D02*
X129538095Y-128852380D01*
X129300000Y-128852380D01*
X129157142Y-128900000D01*
X129061904Y-128995238D01*
X129014285Y-129090476D01*
X128966666Y-129280952D01*
X128966666Y-129423809D01*
X129014285Y-129614285D01*
X129061904Y-129709523D01*
X129157142Y-129804761D01*
X129300000Y-129852380D01*
X129538095Y-129852380D01*
X128014285Y-129852380D02*
X128585714Y-129852380D01*
X128300000Y-129852380D02*
X128300000Y-128852380D01*
X128395238Y-128995238D01*
X128490476Y-129090476D01*
X128585714Y-129138095D01*
X124842857Y-129952380D02*
X125414285Y-129952380D01*
X125128571Y-129952380D02*
X125128571Y-128952380D01*
X125223809Y-129095238D01*
X125319047Y-129190476D01*
X125414285Y-129238095D01*
X124414285Y-129952380D02*
X124414285Y-128952380D01*
X123842857Y-129952380D01*
X123842857Y-128952380D01*
X122938095Y-129285714D02*
X122938095Y-129952380D01*
X123176190Y-128904761D02*
X123414285Y-129619047D01*
X122795238Y-129619047D01*
X121890476Y-129952380D02*
X122461904Y-129952380D01*
X122176190Y-129952380D02*
X122176190Y-128952380D01*
X122271428Y-129095238D01*
X122366666Y-129190476D01*
X122461904Y-129238095D01*
X121033333Y-129285714D02*
X121033333Y-129952380D01*
X121271428Y-128904761D02*
X121509523Y-129619047D01*
X120890476Y-129619047D01*
X120366666Y-129380952D02*
X120461904Y-129333333D01*
X120509523Y-129285714D01*
X120557142Y-129190476D01*
X120557142Y-129142857D01*
X120509523Y-129047619D01*
X120461904Y-129000000D01*
X120366666Y-128952380D01*
X120176190Y-128952380D01*
X120080952Y-129000000D01*
X120033333Y-129047619D01*
X119985714Y-129142857D01*
X119985714Y-129190476D01*
X120033333Y-129285714D01*
X120080952Y-129333333D01*
X120176190Y-129380952D01*
X120366666Y-129380952D01*
X120461904Y-129428571D01*
X120509523Y-129476190D01*
X120557142Y-129571428D01*
X120557142Y-129761904D01*
X120509523Y-129857142D01*
X120461904Y-129904761D01*
X120366666Y-129952380D01*
X120176190Y-129952380D01*
X120080952Y-129904761D01*
X120033333Y-129857142D01*
X119985714Y-129761904D01*
X119985714Y-129571428D01*
X120033333Y-129476190D01*
X120080952Y-129428571D01*
X120176190Y-129380952D01*
%TO.C,D2*%
X129538095Y-132752380D02*
X129538095Y-131752380D01*
X129300000Y-131752380D01*
X129157142Y-131800000D01*
X129061904Y-131895238D01*
X129014285Y-131990476D01*
X128966666Y-132180952D01*
X128966666Y-132323809D01*
X129014285Y-132514285D01*
X129061904Y-132609523D01*
X129157142Y-132704761D01*
X129300000Y-132752380D01*
X129538095Y-132752380D01*
X128585714Y-131847619D02*
X128538095Y-131800000D01*
X128442857Y-131752380D01*
X128204761Y-131752380D01*
X128109523Y-131800000D01*
X128061904Y-131847619D01*
X128014285Y-131942857D01*
X128014285Y-132038095D01*
X128061904Y-132180952D01*
X128633333Y-132752380D01*
X128014285Y-132752380D01*
X124942857Y-132752380D02*
X125514285Y-132752380D01*
X125228571Y-132752380D02*
X125228571Y-131752380D01*
X125323809Y-131895238D01*
X125419047Y-131990476D01*
X125514285Y-132038095D01*
X124514285Y-132752380D02*
X124514285Y-131752380D01*
X123942857Y-132752380D01*
X123942857Y-131752380D01*
X123038095Y-132085714D02*
X123038095Y-132752380D01*
X123276190Y-131704761D02*
X123514285Y-132419047D01*
X122895238Y-132419047D01*
X121990476Y-132752380D02*
X122561904Y-132752380D01*
X122276190Y-132752380D02*
X122276190Y-131752380D01*
X122371428Y-131895238D01*
X122466666Y-131990476D01*
X122561904Y-132038095D01*
X121133333Y-132085714D02*
X121133333Y-132752380D01*
X121371428Y-131704761D02*
X121609523Y-132419047D01*
X120990476Y-132419047D01*
X120466666Y-132180952D02*
X120561904Y-132133333D01*
X120609523Y-132085714D01*
X120657142Y-131990476D01*
X120657142Y-131942857D01*
X120609523Y-131847619D01*
X120561904Y-131800000D01*
X120466666Y-131752380D01*
X120276190Y-131752380D01*
X120180952Y-131800000D01*
X120133333Y-131847619D01*
X120085714Y-131942857D01*
X120085714Y-131990476D01*
X120133333Y-132085714D01*
X120180952Y-132133333D01*
X120276190Y-132180952D01*
X120466666Y-132180952D01*
X120561904Y-132228571D01*
X120609523Y-132276190D01*
X120657142Y-132371428D01*
X120657142Y-132561904D01*
X120609523Y-132657142D01*
X120561904Y-132704761D01*
X120466666Y-132752380D01*
X120276190Y-132752380D01*
X120180952Y-132704761D01*
X120133333Y-132657142D01*
X120085714Y-132561904D01*
X120085714Y-132371428D01*
X120133333Y-132276190D01*
X120180952Y-132228571D01*
X120276190Y-132180952D01*
%TO.C,J7*%
X114352380Y-64966666D02*
X115066666Y-64966666D01*
X115209523Y-64919047D01*
X115304761Y-64823809D01*
X115352380Y-64680952D01*
X115352380Y-64585714D01*
X114352380Y-65347619D02*
X114352380Y-66014285D01*
X115352380Y-65585714D01*
%TO.C,J8*%
X126483333Y-58552380D02*
X126483333Y-59266666D01*
X126530952Y-59409523D01*
X126626190Y-59504761D01*
X126769047Y-59552380D01*
X126864285Y-59552380D01*
X125864285Y-58980952D02*
X125959523Y-58933333D01*
X126007142Y-58885714D01*
X126054761Y-58790476D01*
X126054761Y-58742857D01*
X126007142Y-58647619D01*
X125959523Y-58600000D01*
X125864285Y-58552380D01*
X125673809Y-58552380D01*
X125578571Y-58600000D01*
X125530952Y-58647619D01*
X125483333Y-58742857D01*
X125483333Y-58790476D01*
X125530952Y-58885714D01*
X125578571Y-58933333D01*
X125673809Y-58980952D01*
X125864285Y-58980952D01*
X125959523Y-59028571D01*
X126007142Y-59076190D01*
X126054761Y-59171428D01*
X126054761Y-59361904D01*
X126007142Y-59457142D01*
X125959523Y-59504761D01*
X125864285Y-59552380D01*
X125673809Y-59552380D01*
X125578571Y-59504761D01*
X125530952Y-59457142D01*
X125483333Y-59361904D01*
X125483333Y-59171428D01*
X125530952Y-59076190D01*
X125578571Y-59028571D01*
X125673809Y-58980952D01*
%TO.C,Q1*%
X131547619Y-100504761D02*
X131500000Y-100409523D01*
X131404761Y-100314285D01*
X131261904Y-100171428D01*
X131214285Y-100076190D01*
X131214285Y-99980952D01*
X131452380Y-100028571D02*
X131404761Y-99933333D01*
X131309523Y-99838095D01*
X131119047Y-99790476D01*
X130785714Y-99790476D01*
X130595238Y-99838095D01*
X130500000Y-99933333D01*
X130452380Y-100028571D01*
X130452380Y-100219047D01*
X130500000Y-100314285D01*
X130595238Y-100409523D01*
X130785714Y-100457142D01*
X131119047Y-100457142D01*
X131309523Y-100409523D01*
X131404761Y-100314285D01*
X131452380Y-100219047D01*
X131452380Y-100028571D01*
X131452380Y-101409523D02*
X131452380Y-100838095D01*
X131452380Y-101123809D02*
X130452380Y-101123809D01*
X130595238Y-101028571D01*
X130690476Y-100933333D01*
X130738095Y-100838095D01*
%TO.C,Q2*%
X131547619Y-106204761D02*
X131500000Y-106109523D01*
X131404761Y-106014285D01*
X131261904Y-105871428D01*
X131214285Y-105776190D01*
X131214285Y-105680952D01*
X131452380Y-105728571D02*
X131404761Y-105633333D01*
X131309523Y-105538095D01*
X131119047Y-105490476D01*
X130785714Y-105490476D01*
X130595238Y-105538095D01*
X130500000Y-105633333D01*
X130452380Y-105728571D01*
X130452380Y-105919047D01*
X130500000Y-106014285D01*
X130595238Y-106109523D01*
X130785714Y-106157142D01*
X131119047Y-106157142D01*
X131309523Y-106109523D01*
X131404761Y-106014285D01*
X131452380Y-105919047D01*
X131452380Y-105728571D01*
X130547619Y-106538095D02*
X130500000Y-106585714D01*
X130452380Y-106680952D01*
X130452380Y-106919047D01*
X130500000Y-107014285D01*
X130547619Y-107061904D01*
X130642857Y-107109523D01*
X130738095Y-107109523D01*
X130880952Y-107061904D01*
X131452380Y-106490476D01*
X131452380Y-107109523D01*
%TO.C,R1*%
X113766666Y-99802380D02*
X114100000Y-99326190D01*
X114338095Y-99802380D02*
X114338095Y-98802380D01*
X113957142Y-98802380D01*
X113861904Y-98850000D01*
X113814285Y-98897619D01*
X113766666Y-98992857D01*
X113766666Y-99135714D01*
X113814285Y-99230952D01*
X113861904Y-99278571D01*
X113957142Y-99326190D01*
X114338095Y-99326190D01*
X112814285Y-99802380D02*
X113385714Y-99802380D01*
X113100000Y-99802380D02*
X113100000Y-98802380D01*
X113195238Y-98945238D01*
X113290476Y-99040476D01*
X113385714Y-99088095D01*
X120716666Y-99752380D02*
X121288095Y-99752380D01*
X121002380Y-99752380D02*
X121002380Y-98752380D01*
X121097619Y-98895238D01*
X121192857Y-98990476D01*
X121288095Y-99038095D01*
X120097619Y-98752380D02*
X120002380Y-98752380D01*
X119907142Y-98800000D01*
X119859523Y-98847619D01*
X119811904Y-98942857D01*
X119764285Y-99133333D01*
X119764285Y-99371428D01*
X119811904Y-99561904D01*
X119859523Y-99657142D01*
X119907142Y-99704761D01*
X120002380Y-99752380D01*
X120097619Y-99752380D01*
X120192857Y-99704761D01*
X120240476Y-99657142D01*
X120288095Y-99561904D01*
X120335714Y-99371428D01*
X120335714Y-99133333D01*
X120288095Y-98942857D01*
X120240476Y-98847619D01*
X120192857Y-98800000D01*
X120097619Y-98752380D01*
X119145238Y-98752380D02*
X119050000Y-98752380D01*
X118954761Y-98800000D01*
X118907142Y-98847619D01*
X118859523Y-98942857D01*
X118811904Y-99133333D01*
X118811904Y-99371428D01*
X118859523Y-99561904D01*
X118907142Y-99657142D01*
X118954761Y-99704761D01*
X119050000Y-99752380D01*
X119145238Y-99752380D01*
X119240476Y-99704761D01*
X119288095Y-99657142D01*
X119335714Y-99561904D01*
X119383333Y-99371428D01*
X119383333Y-99133333D01*
X119335714Y-98942857D01*
X119288095Y-98847619D01*
X119240476Y-98800000D01*
X119145238Y-98752380D01*
X118383333Y-99752380D02*
X118383333Y-98752380D01*
X117811904Y-99752380D02*
X118240476Y-99180952D01*
X117811904Y-98752380D02*
X118383333Y-99323809D01*
%TO.C,R2*%
X113766666Y-96602380D02*
X114100000Y-96126190D01*
X114338095Y-96602380D02*
X114338095Y-95602380D01*
X113957142Y-95602380D01*
X113861904Y-95650000D01*
X113814285Y-95697619D01*
X113766666Y-95792857D01*
X113766666Y-95935714D01*
X113814285Y-96030952D01*
X113861904Y-96078571D01*
X113957142Y-96126190D01*
X114338095Y-96126190D01*
X113385714Y-95697619D02*
X113338095Y-95650000D01*
X113242857Y-95602380D01*
X113004761Y-95602380D01*
X112909523Y-95650000D01*
X112861904Y-95697619D01*
X112814285Y-95792857D01*
X112814285Y-95888095D01*
X112861904Y-96030952D01*
X113433333Y-96602380D01*
X112814285Y-96602380D01*
X119735714Y-96602380D02*
X120307142Y-96602380D01*
X120021428Y-96602380D02*
X120021428Y-95602380D01*
X120116666Y-95745238D01*
X120211904Y-95840476D01*
X120307142Y-95888095D01*
X119307142Y-96602380D02*
X119307142Y-95602380D01*
X118973809Y-96316666D01*
X118640476Y-95602380D01*
X118640476Y-96602380D01*
%TO.C,R3*%
X113766666Y-90352380D02*
X114100000Y-89876190D01*
X114338095Y-90352380D02*
X114338095Y-89352380D01*
X113957142Y-89352380D01*
X113861904Y-89400000D01*
X113814285Y-89447619D01*
X113766666Y-89542857D01*
X113766666Y-89685714D01*
X113814285Y-89780952D01*
X113861904Y-89828571D01*
X113957142Y-89876190D01*
X114338095Y-89876190D01*
X113433333Y-89352380D02*
X112814285Y-89352380D01*
X113147619Y-89733333D01*
X113004761Y-89733333D01*
X112909523Y-89780952D01*
X112861904Y-89828571D01*
X112814285Y-89923809D01*
X112814285Y-90161904D01*
X112861904Y-90257142D01*
X112909523Y-90304761D01*
X113004761Y-90352380D01*
X113290476Y-90352380D01*
X113385714Y-90304761D01*
X113433333Y-90257142D01*
X120606666Y-90402380D02*
X121178095Y-90402380D01*
X120892380Y-90402380D02*
X120892380Y-89402380D01*
X120987619Y-89545238D01*
X121082857Y-89640476D01*
X121178095Y-89688095D01*
X119987619Y-89402380D02*
X119892380Y-89402380D01*
X119797142Y-89450000D01*
X119749523Y-89497619D01*
X119701904Y-89592857D01*
X119654285Y-89783333D01*
X119654285Y-90021428D01*
X119701904Y-90211904D01*
X119749523Y-90307142D01*
X119797142Y-90354761D01*
X119892380Y-90402380D01*
X119987619Y-90402380D01*
X120082857Y-90354761D01*
X120130476Y-90307142D01*
X120178095Y-90211904D01*
X120225714Y-90021428D01*
X120225714Y-89783333D01*
X120178095Y-89592857D01*
X120130476Y-89497619D01*
X120082857Y-89450000D01*
X119987619Y-89402380D01*
X119035238Y-89402380D02*
X118940000Y-89402380D01*
X118844761Y-89450000D01*
X118797142Y-89497619D01*
X118749523Y-89592857D01*
X118701904Y-89783333D01*
X118701904Y-90021428D01*
X118749523Y-90211904D01*
X118797142Y-90307142D01*
X118844761Y-90354761D01*
X118940000Y-90402380D01*
X119035238Y-90402380D01*
X119130476Y-90354761D01*
X119178095Y-90307142D01*
X119225714Y-90211904D01*
X119273333Y-90021428D01*
X119273333Y-89783333D01*
X119225714Y-89592857D01*
X119178095Y-89497619D01*
X119130476Y-89450000D01*
X119035238Y-89402380D01*
X118273333Y-90402380D02*
X118273333Y-89402380D01*
X117701904Y-90402380D02*
X118130476Y-89830952D01*
X117701904Y-89402380D02*
X118273333Y-89973809D01*
%TO.C,R4*%
X113766666Y-87152380D02*
X114100000Y-86676190D01*
X114338095Y-87152380D02*
X114338095Y-86152380D01*
X113957142Y-86152380D01*
X113861904Y-86200000D01*
X113814285Y-86247619D01*
X113766666Y-86342857D01*
X113766666Y-86485714D01*
X113814285Y-86580952D01*
X113861904Y-86628571D01*
X113957142Y-86676190D01*
X114338095Y-86676190D01*
X112909523Y-86485714D02*
X112909523Y-87152380D01*
X113147619Y-86104761D02*
X113385714Y-86819047D01*
X112766666Y-86819047D01*
X120716666Y-87152380D02*
X121288095Y-87152380D01*
X121002380Y-87152380D02*
X121002380Y-86152380D01*
X121097619Y-86295238D01*
X121192857Y-86390476D01*
X121288095Y-86438095D01*
X120097619Y-86152380D02*
X120002380Y-86152380D01*
X119907142Y-86200000D01*
X119859523Y-86247619D01*
X119811904Y-86342857D01*
X119764285Y-86533333D01*
X119764285Y-86771428D01*
X119811904Y-86961904D01*
X119859523Y-87057142D01*
X119907142Y-87104761D01*
X120002380Y-87152380D01*
X120097619Y-87152380D01*
X120192857Y-87104761D01*
X120240476Y-87057142D01*
X120288095Y-86961904D01*
X120335714Y-86771428D01*
X120335714Y-86533333D01*
X120288095Y-86342857D01*
X120240476Y-86247619D01*
X120192857Y-86200000D01*
X120097619Y-86152380D01*
X119145238Y-86152380D02*
X119050000Y-86152380D01*
X118954761Y-86200000D01*
X118907142Y-86247619D01*
X118859523Y-86342857D01*
X118811904Y-86533333D01*
X118811904Y-86771428D01*
X118859523Y-86961904D01*
X118907142Y-87057142D01*
X118954761Y-87104761D01*
X119050000Y-87152380D01*
X119145238Y-87152380D01*
X119240476Y-87104761D01*
X119288095Y-87057142D01*
X119335714Y-86961904D01*
X119383333Y-86771428D01*
X119383333Y-86533333D01*
X119335714Y-86342857D01*
X119288095Y-86247619D01*
X119240476Y-86200000D01*
X119145238Y-86152380D01*
X118383333Y-87152380D02*
X118383333Y-86152380D01*
X117811904Y-87152380D02*
X118240476Y-86580952D01*
X117811904Y-86152380D02*
X118383333Y-86723809D01*
%TO.C,R5*%
X113716666Y-93452380D02*
X114050000Y-92976190D01*
X114288095Y-93452380D02*
X114288095Y-92452380D01*
X113907142Y-92452380D01*
X113811904Y-92500000D01*
X113764285Y-92547619D01*
X113716666Y-92642857D01*
X113716666Y-92785714D01*
X113764285Y-92880952D01*
X113811904Y-92928571D01*
X113907142Y-92976190D01*
X114288095Y-92976190D01*
X112811904Y-92452380D02*
X113288095Y-92452380D01*
X113335714Y-92928571D01*
X113288095Y-92880952D01*
X113192857Y-92833333D01*
X112954761Y-92833333D01*
X112859523Y-92880952D01*
X112811904Y-92928571D01*
X112764285Y-93023809D01*
X112764285Y-93261904D01*
X112811904Y-93357142D01*
X112859523Y-93404761D01*
X112954761Y-93452380D01*
X113192857Y-93452380D01*
X113288095Y-93404761D01*
X113335714Y-93357142D01*
X120140476Y-93452380D02*
X120711904Y-93452380D01*
X120426190Y-93452380D02*
X120426190Y-92452380D01*
X120521428Y-92595238D01*
X120616666Y-92690476D01*
X120711904Y-92738095D01*
X119711904Y-93452380D02*
X119711904Y-92452380D01*
X119140476Y-93452380D02*
X119569047Y-92880952D01*
X119140476Y-92452380D02*
X119711904Y-93023809D01*
X118235714Y-92452380D02*
X118711904Y-92452380D01*
X118759523Y-92928571D01*
X118711904Y-92880952D01*
X118616666Y-92833333D01*
X118378571Y-92833333D01*
X118283333Y-92880952D01*
X118235714Y-92928571D01*
X118188095Y-93023809D01*
X118188095Y-93261904D01*
X118235714Y-93357142D01*
X118283333Y-93404761D01*
X118378571Y-93452380D01*
X118616666Y-93452380D01*
X118711904Y-93404761D01*
X118759523Y-93357142D01*
%TO.C,R6*%
X113766666Y-102852380D02*
X114100000Y-102376190D01*
X114338095Y-102852380D02*
X114338095Y-101852380D01*
X113957142Y-101852380D01*
X113861904Y-101900000D01*
X113814285Y-101947619D01*
X113766666Y-102042857D01*
X113766666Y-102185714D01*
X113814285Y-102280952D01*
X113861904Y-102328571D01*
X113957142Y-102376190D01*
X114338095Y-102376190D01*
X112909523Y-101852380D02*
X113100000Y-101852380D01*
X113195238Y-101900000D01*
X113242857Y-101947619D01*
X113338095Y-102090476D01*
X113385714Y-102280952D01*
X113385714Y-102661904D01*
X113338095Y-102757142D01*
X113290476Y-102804761D01*
X113195238Y-102852380D01*
X113004761Y-102852380D01*
X112909523Y-102804761D01*
X112861904Y-102757142D01*
X112814285Y-102661904D01*
X112814285Y-102423809D01*
X112861904Y-102328571D01*
X112909523Y-102280952D01*
X113004761Y-102233333D01*
X113195238Y-102233333D01*
X113290476Y-102280952D01*
X113338095Y-102328571D01*
X113385714Y-102423809D01*
X119725714Y-102902380D02*
X120297142Y-102902380D01*
X120011428Y-102902380D02*
X120011428Y-101902380D01*
X120106666Y-102045238D01*
X120201904Y-102140476D01*
X120297142Y-102188095D01*
X119297142Y-102902380D02*
X119297142Y-101902380D01*
X118963809Y-102616666D01*
X118630476Y-101902380D01*
X118630476Y-102902380D01*
%TO.C,R7*%
X110566666Y-162952380D02*
X110900000Y-162476190D01*
X111138095Y-162952380D02*
X111138095Y-161952380D01*
X110757142Y-161952380D01*
X110661904Y-162000000D01*
X110614285Y-162047619D01*
X110566666Y-162142857D01*
X110566666Y-162285714D01*
X110614285Y-162380952D01*
X110661904Y-162428571D01*
X110757142Y-162476190D01*
X111138095Y-162476190D01*
X110233333Y-161952380D02*
X109566666Y-161952380D01*
X109995238Y-162952380D01*
X109947619Y-155161904D02*
X109900000Y-155209523D01*
X109852380Y-155304761D01*
X109852380Y-155542857D01*
X109900000Y-155638095D01*
X109947619Y-155685714D01*
X110042857Y-155733333D01*
X110138095Y-155733333D01*
X110280952Y-155685714D01*
X110852380Y-155114285D01*
X110852380Y-155733333D01*
X109852380Y-156352380D02*
X109852380Y-156447619D01*
X109900000Y-156542857D01*
X109947619Y-156590476D01*
X110042857Y-156638095D01*
X110233333Y-156685714D01*
X110471428Y-156685714D01*
X110661904Y-156638095D01*
X110757142Y-156590476D01*
X110804761Y-156542857D01*
X110852380Y-156447619D01*
X110852380Y-156352380D01*
X110804761Y-156257142D01*
X110757142Y-156209523D01*
X110661904Y-156161904D01*
X110471428Y-156114285D01*
X110233333Y-156114285D01*
X110042857Y-156161904D01*
X109947619Y-156209523D01*
X109900000Y-156257142D01*
X109852380Y-156352380D01*
X109852380Y-157304761D02*
X109852380Y-157400000D01*
X109900000Y-157495238D01*
X109947619Y-157542857D01*
X110042857Y-157590476D01*
X110233333Y-157638095D01*
X110471428Y-157638095D01*
X110661904Y-157590476D01*
X110757142Y-157542857D01*
X110804761Y-157495238D01*
X110852380Y-157400000D01*
X110852380Y-157304761D01*
X110804761Y-157209523D01*
X110757142Y-157161904D01*
X110661904Y-157114285D01*
X110471428Y-157066666D01*
X110233333Y-157066666D01*
X110042857Y-157114285D01*
X109947619Y-157161904D01*
X109900000Y-157209523D01*
X109852380Y-157304761D01*
X110852380Y-158066666D02*
X109852380Y-158066666D01*
X110852380Y-158638095D02*
X110280952Y-158209523D01*
X109852380Y-158638095D02*
X110423809Y-158066666D01*
%TO.C,R8*%
X128966666Y-135852380D02*
X129300000Y-135376190D01*
X129538095Y-135852380D02*
X129538095Y-134852380D01*
X129157142Y-134852380D01*
X129061904Y-134900000D01*
X129014285Y-134947619D01*
X128966666Y-135042857D01*
X128966666Y-135185714D01*
X129014285Y-135280952D01*
X129061904Y-135328571D01*
X129157142Y-135376190D01*
X129538095Y-135376190D01*
X128395238Y-135280952D02*
X128490476Y-135233333D01*
X128538095Y-135185714D01*
X128585714Y-135090476D01*
X128585714Y-135042857D01*
X128538095Y-134947619D01*
X128490476Y-134900000D01*
X128395238Y-134852380D01*
X128204761Y-134852380D01*
X128109523Y-134900000D01*
X128061904Y-134947619D01*
X128014285Y-135042857D01*
X128014285Y-135090476D01*
X128061904Y-135185714D01*
X128109523Y-135233333D01*
X128204761Y-135280952D01*
X128395238Y-135280952D01*
X128490476Y-135328571D01*
X128538095Y-135376190D01*
X128585714Y-135471428D01*
X128585714Y-135661904D01*
X128538095Y-135757142D01*
X128490476Y-135804761D01*
X128395238Y-135852380D01*
X128204761Y-135852380D01*
X128109523Y-135804761D01*
X128061904Y-135757142D01*
X128014285Y-135661904D01*
X128014285Y-135471428D01*
X128061904Y-135376190D01*
X128109523Y-135328571D01*
X128204761Y-135280952D01*
X123816666Y-135852380D02*
X124388095Y-135852380D01*
X124102380Y-135852380D02*
X124102380Y-134852380D01*
X124197619Y-134995238D01*
X124292857Y-135090476D01*
X124388095Y-135138095D01*
X123197619Y-134852380D02*
X123102380Y-134852380D01*
X123007142Y-134900000D01*
X122959523Y-134947619D01*
X122911904Y-135042857D01*
X122864285Y-135233333D01*
X122864285Y-135471428D01*
X122911904Y-135661904D01*
X122959523Y-135757142D01*
X123007142Y-135804761D01*
X123102380Y-135852380D01*
X123197619Y-135852380D01*
X123292857Y-135804761D01*
X123340476Y-135757142D01*
X123388095Y-135661904D01*
X123435714Y-135471428D01*
X123435714Y-135233333D01*
X123388095Y-135042857D01*
X123340476Y-134947619D01*
X123292857Y-134900000D01*
X123197619Y-134852380D01*
X122245238Y-134852380D02*
X122150000Y-134852380D01*
X122054761Y-134900000D01*
X122007142Y-134947619D01*
X121959523Y-135042857D01*
X121911904Y-135233333D01*
X121911904Y-135471428D01*
X121959523Y-135661904D01*
X122007142Y-135757142D01*
X122054761Y-135804761D01*
X122150000Y-135852380D01*
X122245238Y-135852380D01*
X122340476Y-135804761D01*
X122388095Y-135757142D01*
X122435714Y-135661904D01*
X122483333Y-135471428D01*
X122483333Y-135233333D01*
X122435714Y-135042857D01*
X122388095Y-134947619D01*
X122340476Y-134900000D01*
X122245238Y-134852380D01*
X121483333Y-135852380D02*
X121483333Y-134852380D01*
X120911904Y-135852380D02*
X121340476Y-135280952D01*
X120911904Y-134852380D02*
X121483333Y-135423809D01*
%TO.C,R9*%
X128966666Y-138902380D02*
X129300000Y-138426190D01*
X129538095Y-138902380D02*
X129538095Y-137902380D01*
X129157142Y-137902380D01*
X129061904Y-137950000D01*
X129014285Y-137997619D01*
X128966666Y-138092857D01*
X128966666Y-138235714D01*
X129014285Y-138330952D01*
X129061904Y-138378571D01*
X129157142Y-138426190D01*
X129538095Y-138426190D01*
X128490476Y-138902380D02*
X128300000Y-138902380D01*
X128204761Y-138854761D01*
X128157142Y-138807142D01*
X128061904Y-138664285D01*
X128014285Y-138473809D01*
X128014285Y-138092857D01*
X128061904Y-137997619D01*
X128109523Y-137950000D01*
X128204761Y-137902380D01*
X128395238Y-137902380D01*
X128490476Y-137950000D01*
X128538095Y-137997619D01*
X128585714Y-138092857D01*
X128585714Y-138330952D01*
X128538095Y-138426190D01*
X128490476Y-138473809D01*
X128395238Y-138521428D01*
X128204761Y-138521428D01*
X128109523Y-138473809D01*
X128061904Y-138426190D01*
X128014285Y-138330952D01*
X123866666Y-138852380D02*
X124438095Y-138852380D01*
X124152380Y-138852380D02*
X124152380Y-137852380D01*
X124247619Y-137995238D01*
X124342857Y-138090476D01*
X124438095Y-138138095D01*
X123247619Y-137852380D02*
X123152380Y-137852380D01*
X123057142Y-137900000D01*
X123009523Y-137947619D01*
X122961904Y-138042857D01*
X122914285Y-138233333D01*
X122914285Y-138471428D01*
X122961904Y-138661904D01*
X123009523Y-138757142D01*
X123057142Y-138804761D01*
X123152380Y-138852380D01*
X123247619Y-138852380D01*
X123342857Y-138804761D01*
X123390476Y-138757142D01*
X123438095Y-138661904D01*
X123485714Y-138471428D01*
X123485714Y-138233333D01*
X123438095Y-138042857D01*
X123390476Y-137947619D01*
X123342857Y-137900000D01*
X123247619Y-137852380D01*
X122295238Y-137852380D02*
X122200000Y-137852380D01*
X122104761Y-137900000D01*
X122057142Y-137947619D01*
X122009523Y-138042857D01*
X121961904Y-138233333D01*
X121961904Y-138471428D01*
X122009523Y-138661904D01*
X122057142Y-138757142D01*
X122104761Y-138804761D01*
X122200000Y-138852380D01*
X122295238Y-138852380D01*
X122390476Y-138804761D01*
X122438095Y-138757142D01*
X122485714Y-138661904D01*
X122533333Y-138471428D01*
X122533333Y-138233333D01*
X122485714Y-138042857D01*
X122438095Y-137947619D01*
X122390476Y-137900000D01*
X122295238Y-137852380D01*
X121533333Y-138852380D02*
X121533333Y-137852380D01*
X120961904Y-138852380D02*
X121390476Y-138280952D01*
X120961904Y-137852380D02*
X121533333Y-138423809D01*
%TO.C,R10*%
X113692857Y-112352380D02*
X114026190Y-111876190D01*
X114264285Y-112352380D02*
X114264285Y-111352380D01*
X113883333Y-111352380D01*
X113788095Y-111400000D01*
X113740476Y-111447619D01*
X113692857Y-111542857D01*
X113692857Y-111685714D01*
X113740476Y-111780952D01*
X113788095Y-111828571D01*
X113883333Y-111876190D01*
X114264285Y-111876190D01*
X112740476Y-112352380D02*
X113311904Y-112352380D01*
X113026190Y-112352380D02*
X113026190Y-111352380D01*
X113121428Y-111495238D01*
X113216666Y-111590476D01*
X113311904Y-111638095D01*
X112121428Y-111352380D02*
X112026190Y-111352380D01*
X111930952Y-111400000D01*
X111883333Y-111447619D01*
X111835714Y-111542857D01*
X111788095Y-111733333D01*
X111788095Y-111971428D01*
X111835714Y-112161904D01*
X111883333Y-112257142D01*
X111930952Y-112304761D01*
X112026190Y-112352380D01*
X112121428Y-112352380D01*
X112216666Y-112304761D01*
X112264285Y-112257142D01*
X112311904Y-112161904D01*
X112359523Y-111971428D01*
X112359523Y-111733333D01*
X112311904Y-111542857D01*
X112264285Y-111447619D01*
X112216666Y-111400000D01*
X112121428Y-111352380D01*
X120666666Y-112352380D02*
X121238095Y-112352380D01*
X120952380Y-112352380D02*
X120952380Y-111352380D01*
X121047619Y-111495238D01*
X121142857Y-111590476D01*
X121238095Y-111638095D01*
X120047619Y-111352380D02*
X119952380Y-111352380D01*
X119857142Y-111400000D01*
X119809523Y-111447619D01*
X119761904Y-111542857D01*
X119714285Y-111733333D01*
X119714285Y-111971428D01*
X119761904Y-112161904D01*
X119809523Y-112257142D01*
X119857142Y-112304761D01*
X119952380Y-112352380D01*
X120047619Y-112352380D01*
X120142857Y-112304761D01*
X120190476Y-112257142D01*
X120238095Y-112161904D01*
X120285714Y-111971428D01*
X120285714Y-111733333D01*
X120238095Y-111542857D01*
X120190476Y-111447619D01*
X120142857Y-111400000D01*
X120047619Y-111352380D01*
X119095238Y-111352380D02*
X119000000Y-111352380D01*
X118904761Y-111400000D01*
X118857142Y-111447619D01*
X118809523Y-111542857D01*
X118761904Y-111733333D01*
X118761904Y-111971428D01*
X118809523Y-112161904D01*
X118857142Y-112257142D01*
X118904761Y-112304761D01*
X119000000Y-112352380D01*
X119095238Y-112352380D01*
X119190476Y-112304761D01*
X119238095Y-112257142D01*
X119285714Y-112161904D01*
X119333333Y-111971428D01*
X119333333Y-111733333D01*
X119285714Y-111542857D01*
X119238095Y-111447619D01*
X119190476Y-111400000D01*
X119095238Y-111352380D01*
X118333333Y-112352380D02*
X118333333Y-111352380D01*
X117761904Y-112352380D02*
X118190476Y-111780952D01*
X117761904Y-111352380D02*
X118333333Y-111923809D01*
%TO.C,R11*%
X113792857Y-105952380D02*
X114126190Y-105476190D01*
X114364285Y-105952380D02*
X114364285Y-104952380D01*
X113983333Y-104952380D01*
X113888095Y-105000000D01*
X113840476Y-105047619D01*
X113792857Y-105142857D01*
X113792857Y-105285714D01*
X113840476Y-105380952D01*
X113888095Y-105428571D01*
X113983333Y-105476190D01*
X114364285Y-105476190D01*
X112840476Y-105952380D02*
X113411904Y-105952380D01*
X113126190Y-105952380D02*
X113126190Y-104952380D01*
X113221428Y-105095238D01*
X113316666Y-105190476D01*
X113411904Y-105238095D01*
X111888095Y-105952380D02*
X112459523Y-105952380D01*
X112173809Y-105952380D02*
X112173809Y-104952380D01*
X112269047Y-105095238D01*
X112364285Y-105190476D01*
X112459523Y-105238095D01*
X120511904Y-105047619D02*
X120464285Y-105000000D01*
X120369047Y-104952380D01*
X120130952Y-104952380D01*
X120035714Y-105000000D01*
X119988095Y-105047619D01*
X119940476Y-105142857D01*
X119940476Y-105238095D01*
X119988095Y-105380952D01*
X120559523Y-105952380D01*
X119940476Y-105952380D01*
X119321428Y-104952380D02*
X119226190Y-104952380D01*
X119130952Y-105000000D01*
X119083333Y-105047619D01*
X119035714Y-105142857D01*
X118988095Y-105333333D01*
X118988095Y-105571428D01*
X119035714Y-105761904D01*
X119083333Y-105857142D01*
X119130952Y-105904761D01*
X119226190Y-105952380D01*
X119321428Y-105952380D01*
X119416666Y-105904761D01*
X119464285Y-105857142D01*
X119511904Y-105761904D01*
X119559523Y-105571428D01*
X119559523Y-105333333D01*
X119511904Y-105142857D01*
X119464285Y-105047619D01*
X119416666Y-105000000D01*
X119321428Y-104952380D01*
X118559523Y-105952380D02*
X118559523Y-104952380D01*
X117988095Y-105952380D02*
X118416666Y-105380952D01*
X117988095Y-104952380D02*
X118559523Y-105523809D01*
%TO.C,R12*%
X113792857Y-109252380D02*
X114126190Y-108776190D01*
X114364285Y-109252380D02*
X114364285Y-108252380D01*
X113983333Y-108252380D01*
X113888095Y-108300000D01*
X113840476Y-108347619D01*
X113792857Y-108442857D01*
X113792857Y-108585714D01*
X113840476Y-108680952D01*
X113888095Y-108728571D01*
X113983333Y-108776190D01*
X114364285Y-108776190D01*
X112840476Y-109252380D02*
X113411904Y-109252380D01*
X113126190Y-109252380D02*
X113126190Y-108252380D01*
X113221428Y-108395238D01*
X113316666Y-108490476D01*
X113411904Y-108538095D01*
X112459523Y-108347619D02*
X112411904Y-108300000D01*
X112316666Y-108252380D01*
X112078571Y-108252380D01*
X111983333Y-108300000D01*
X111935714Y-108347619D01*
X111888095Y-108442857D01*
X111888095Y-108538095D01*
X111935714Y-108680952D01*
X112507142Y-109252380D01*
X111888095Y-109252380D01*
X120516666Y-109202380D02*
X121088095Y-109202380D01*
X120802380Y-109202380D02*
X120802380Y-108202380D01*
X120897619Y-108345238D01*
X120992857Y-108440476D01*
X121088095Y-108488095D01*
X119897619Y-108202380D02*
X119802380Y-108202380D01*
X119707142Y-108250000D01*
X119659523Y-108297619D01*
X119611904Y-108392857D01*
X119564285Y-108583333D01*
X119564285Y-108821428D01*
X119611904Y-109011904D01*
X119659523Y-109107142D01*
X119707142Y-109154761D01*
X119802380Y-109202380D01*
X119897619Y-109202380D01*
X119992857Y-109154761D01*
X120040476Y-109107142D01*
X120088095Y-109011904D01*
X120135714Y-108821428D01*
X120135714Y-108583333D01*
X120088095Y-108392857D01*
X120040476Y-108297619D01*
X119992857Y-108250000D01*
X119897619Y-108202380D01*
X118945238Y-108202380D02*
X118850000Y-108202380D01*
X118754761Y-108250000D01*
X118707142Y-108297619D01*
X118659523Y-108392857D01*
X118611904Y-108583333D01*
X118611904Y-108821428D01*
X118659523Y-109011904D01*
X118707142Y-109107142D01*
X118754761Y-109154761D01*
X118850000Y-109202380D01*
X118945238Y-109202380D01*
X119040476Y-109154761D01*
X119088095Y-109107142D01*
X119135714Y-109011904D01*
X119183333Y-108821428D01*
X119183333Y-108583333D01*
X119135714Y-108392857D01*
X119088095Y-108297619D01*
X119040476Y-108250000D01*
X118945238Y-108202380D01*
X118183333Y-109202380D02*
X118183333Y-108202380D01*
X117611904Y-109202380D02*
X118040476Y-108630952D01*
X117611904Y-108202380D02*
X118183333Y-108773809D01*
%TO.C,R13*%
X133652380Y-153457142D02*
X133176190Y-153123809D01*
X133652380Y-152885714D02*
X132652380Y-152885714D01*
X132652380Y-153266666D01*
X132700000Y-153361904D01*
X132747619Y-153409523D01*
X132842857Y-153457142D01*
X132985714Y-153457142D01*
X133080952Y-153409523D01*
X133128571Y-153361904D01*
X133176190Y-153266666D01*
X133176190Y-152885714D01*
X133652380Y-154409523D02*
X133652380Y-153838095D01*
X133652380Y-154123809D02*
X132652380Y-154123809D01*
X132795238Y-154028571D01*
X132890476Y-153933333D01*
X132938095Y-153838095D01*
X132652380Y-154742857D02*
X132652380Y-155361904D01*
X133033333Y-155028571D01*
X133033333Y-155171428D01*
X133080952Y-155266666D01*
X133128571Y-155314285D01*
X133223809Y-155361904D01*
X133461904Y-155361904D01*
X133557142Y-155314285D01*
X133604761Y-155266666D01*
X133652380Y-155171428D01*
X133652380Y-154885714D01*
X133604761Y-154790476D01*
X133557142Y-154742857D01*
X129209523Y-153552380D02*
X128590476Y-153552380D01*
X128923809Y-153933333D01*
X128780952Y-153933333D01*
X128685714Y-153980952D01*
X128638095Y-154028571D01*
X128590476Y-154123809D01*
X128590476Y-154361904D01*
X128638095Y-154457142D01*
X128685714Y-154504761D01*
X128780952Y-154552380D01*
X129066666Y-154552380D01*
X129161904Y-154504761D01*
X129209523Y-154457142D01*
X128257142Y-153552380D02*
X127638095Y-153552380D01*
X127971428Y-153933333D01*
X127828571Y-153933333D01*
X127733333Y-153980952D01*
X127685714Y-154028571D01*
X127638095Y-154123809D01*
X127638095Y-154361904D01*
X127685714Y-154457142D01*
X127733333Y-154504761D01*
X127828571Y-154552380D01*
X128114285Y-154552380D01*
X128209523Y-154504761D01*
X128257142Y-154457142D01*
X127209523Y-154552380D02*
X127209523Y-153552380D01*
X126638095Y-154552380D02*
X127066666Y-153980952D01*
X126638095Y-153552380D02*
X127209523Y-154123809D01*
%TO.C,R14*%
X133652380Y-156757142D02*
X133176190Y-156423809D01*
X133652380Y-156185714D02*
X132652380Y-156185714D01*
X132652380Y-156566666D01*
X132700000Y-156661904D01*
X132747619Y-156709523D01*
X132842857Y-156757142D01*
X132985714Y-156757142D01*
X133080952Y-156709523D01*
X133128571Y-156661904D01*
X133176190Y-156566666D01*
X133176190Y-156185714D01*
X133652380Y-157709523D02*
X133652380Y-157138095D01*
X133652380Y-157423809D02*
X132652380Y-157423809D01*
X132795238Y-157328571D01*
X132890476Y-157233333D01*
X132938095Y-157138095D01*
X132985714Y-158566666D02*
X133652380Y-158566666D01*
X132604761Y-158328571D02*
X133319047Y-158090476D01*
X133319047Y-158709523D01*
%TO.C,R15*%
X133652380Y-159957142D02*
X133176190Y-159623809D01*
X133652380Y-159385714D02*
X132652380Y-159385714D01*
X132652380Y-159766666D01*
X132700000Y-159861904D01*
X132747619Y-159909523D01*
X132842857Y-159957142D01*
X132985714Y-159957142D01*
X133080952Y-159909523D01*
X133128571Y-159861904D01*
X133176190Y-159766666D01*
X133176190Y-159385714D01*
X133652380Y-160909523D02*
X133652380Y-160338095D01*
X133652380Y-160623809D02*
X132652380Y-160623809D01*
X132795238Y-160528571D01*
X132890476Y-160433333D01*
X132938095Y-160338095D01*
X132652380Y-161814285D02*
X132652380Y-161338095D01*
X133128571Y-161290476D01*
X133080952Y-161338095D01*
X133033333Y-161433333D01*
X133033333Y-161671428D01*
X133080952Y-161766666D01*
X133128571Y-161814285D01*
X133223809Y-161861904D01*
X133461904Y-161861904D01*
X133557142Y-161814285D01*
X133604761Y-161766666D01*
X133652380Y-161671428D01*
X133652380Y-161433333D01*
X133604761Y-161338095D01*
X133557142Y-161290476D01*
X129271904Y-160047619D02*
X129224285Y-160000000D01*
X129129047Y-159952380D01*
X128890952Y-159952380D01*
X128795714Y-160000000D01*
X128748095Y-160047619D01*
X128700476Y-160142857D01*
X128700476Y-160238095D01*
X128748095Y-160380952D01*
X129319523Y-160952380D01*
X128700476Y-160952380D01*
X128081428Y-159952380D02*
X127986190Y-159952380D01*
X127890952Y-160000000D01*
X127843333Y-160047619D01*
X127795714Y-160142857D01*
X127748095Y-160333333D01*
X127748095Y-160571428D01*
X127795714Y-160761904D01*
X127843333Y-160857142D01*
X127890952Y-160904761D01*
X127986190Y-160952380D01*
X128081428Y-160952380D01*
X128176666Y-160904761D01*
X128224285Y-160857142D01*
X128271904Y-160761904D01*
X128319523Y-160571428D01*
X128319523Y-160333333D01*
X128271904Y-160142857D01*
X128224285Y-160047619D01*
X128176666Y-160000000D01*
X128081428Y-159952380D01*
X127319523Y-160952380D02*
X127319523Y-159952380D01*
X126748095Y-160952380D02*
X127176666Y-160380952D01*
X126748095Y-159952380D02*
X127319523Y-160523809D01*
%TO.C,R16*%
X107642857Y-141852380D02*
X107976190Y-141376190D01*
X108214285Y-141852380D02*
X108214285Y-140852380D01*
X107833333Y-140852380D01*
X107738095Y-140900000D01*
X107690476Y-140947619D01*
X107642857Y-141042857D01*
X107642857Y-141185714D01*
X107690476Y-141280952D01*
X107738095Y-141328571D01*
X107833333Y-141376190D01*
X108214285Y-141376190D01*
X106690476Y-141852380D02*
X107261904Y-141852380D01*
X106976190Y-141852380D02*
X106976190Y-140852380D01*
X107071428Y-140995238D01*
X107166666Y-141090476D01*
X107261904Y-141138095D01*
X105833333Y-140852380D02*
X106023809Y-140852380D01*
X106119047Y-140900000D01*
X106166666Y-140947619D01*
X106261904Y-141090476D01*
X106309523Y-141280952D01*
X106309523Y-141661904D01*
X106261904Y-141757142D01*
X106214285Y-141804761D01*
X106119047Y-141852380D01*
X105928571Y-141852380D01*
X105833333Y-141804761D01*
X105785714Y-141757142D01*
X105738095Y-141661904D01*
X105738095Y-141423809D01*
X105785714Y-141328571D01*
X105833333Y-141280952D01*
X105928571Y-141233333D01*
X106119047Y-141233333D01*
X106214285Y-141280952D01*
X106261904Y-141328571D01*
X106309523Y-141423809D01*
X107552380Y-146209523D02*
X107552380Y-145638095D01*
X107552380Y-145923809D02*
X106552380Y-145923809D01*
X106695238Y-145828571D01*
X106790476Y-145733333D01*
X106838095Y-145638095D01*
X106552380Y-146828571D02*
X106552380Y-146923809D01*
X106600000Y-147019047D01*
X106647619Y-147066666D01*
X106742857Y-147114285D01*
X106933333Y-147161904D01*
X107171428Y-147161904D01*
X107361904Y-147114285D01*
X107457142Y-147066666D01*
X107504761Y-147019047D01*
X107552380Y-146923809D01*
X107552380Y-146828571D01*
X107504761Y-146733333D01*
X107457142Y-146685714D01*
X107361904Y-146638095D01*
X107171428Y-146590476D01*
X106933333Y-146590476D01*
X106742857Y-146638095D01*
X106647619Y-146685714D01*
X106600000Y-146733333D01*
X106552380Y-146828571D01*
X107552380Y-147590476D02*
X106552380Y-147590476D01*
X107552380Y-148161904D02*
X106980952Y-147733333D01*
X106552380Y-148161904D02*
X107123809Y-147590476D01*
%TO.C,R17*%
X107642857Y-162952380D02*
X107976190Y-162476190D01*
X108214285Y-162952380D02*
X108214285Y-161952380D01*
X107833333Y-161952380D01*
X107738095Y-162000000D01*
X107690476Y-162047619D01*
X107642857Y-162142857D01*
X107642857Y-162285714D01*
X107690476Y-162380952D01*
X107738095Y-162428571D01*
X107833333Y-162476190D01*
X108214285Y-162476190D01*
X106690476Y-162952380D02*
X107261904Y-162952380D01*
X106976190Y-162952380D02*
X106976190Y-161952380D01*
X107071428Y-162095238D01*
X107166666Y-162190476D01*
X107261904Y-162238095D01*
X106357142Y-161952380D02*
X105690476Y-161952380D01*
X106119047Y-162952380D01*
X107452380Y-156299523D02*
X107452380Y-155728095D01*
X107452380Y-156013809D02*
X106452380Y-156013809D01*
X106595238Y-155918571D01*
X106690476Y-155823333D01*
X106738095Y-155728095D01*
X106452380Y-156918571D02*
X106452380Y-157013809D01*
X106500000Y-157109047D01*
X106547619Y-157156666D01*
X106642857Y-157204285D01*
X106833333Y-157251904D01*
X107071428Y-157251904D01*
X107261904Y-157204285D01*
X107357142Y-157156666D01*
X107404761Y-157109047D01*
X107452380Y-157013809D01*
X107452380Y-156918571D01*
X107404761Y-156823333D01*
X107357142Y-156775714D01*
X107261904Y-156728095D01*
X107071428Y-156680476D01*
X106833333Y-156680476D01*
X106642857Y-156728095D01*
X106547619Y-156775714D01*
X106500000Y-156823333D01*
X106452380Y-156918571D01*
X107452380Y-157680476D02*
X106452380Y-157680476D01*
X107452380Y-158251904D02*
X106880952Y-157823333D01*
X106452380Y-158251904D02*
X107023809Y-157680476D01*
%TO.C,TH1*%
X132535714Y-96152380D02*
X131964285Y-96152380D01*
X132250000Y-97152380D02*
X132250000Y-96152380D01*
X131630952Y-97152380D02*
X131630952Y-96152380D01*
X131630952Y-96628571D02*
X131059523Y-96628571D01*
X131059523Y-97152380D02*
X131059523Y-96152380D01*
X130059523Y-97152380D02*
X130630952Y-97152380D01*
X130345238Y-97152380D02*
X130345238Y-96152380D01*
X130440476Y-96295238D01*
X130535714Y-96390476D01*
X130630952Y-96438095D01*
%TO.C,TH2*%
X132435714Y-92852380D02*
X131864285Y-92852380D01*
X132150000Y-93852380D02*
X132150000Y-92852380D01*
X131530952Y-93852380D02*
X131530952Y-92852380D01*
X131530952Y-93328571D02*
X130959523Y-93328571D01*
X130959523Y-93852380D02*
X130959523Y-92852380D01*
X130530952Y-92947619D02*
X130483333Y-92900000D01*
X130388095Y-92852380D01*
X130150000Y-92852380D01*
X130054761Y-92900000D01*
X130007142Y-92947619D01*
X129959523Y-93042857D01*
X129959523Y-93138095D01*
X130007142Y-93280952D01*
X130578571Y-93852380D01*
X129959523Y-93852380D01*
%TO.C,TH3*%
X132285714Y-89652380D02*
X131714285Y-89652380D01*
X132000000Y-90652380D02*
X132000000Y-89652380D01*
X131380952Y-90652380D02*
X131380952Y-89652380D01*
X131380952Y-90128571D02*
X130809523Y-90128571D01*
X130809523Y-90652380D02*
X130809523Y-89652380D01*
X130428571Y-89652380D02*
X129809523Y-89652380D01*
X130142857Y-90033333D01*
X130000000Y-90033333D01*
X129904761Y-90080952D01*
X129857142Y-90128571D01*
X129809523Y-90223809D01*
X129809523Y-90461904D01*
X129857142Y-90557142D01*
X129904761Y-90604761D01*
X130000000Y-90652380D01*
X130285714Y-90652380D01*
X130380952Y-90604761D01*
X130428571Y-90557142D01*
%TO.C,TH4*%
X132385714Y-86252380D02*
X131814285Y-86252380D01*
X132100000Y-87252380D02*
X132100000Y-86252380D01*
X131480952Y-87252380D02*
X131480952Y-86252380D01*
X131480952Y-86728571D02*
X130909523Y-86728571D01*
X130909523Y-87252380D02*
X130909523Y-86252380D01*
X130004761Y-86585714D02*
X130004761Y-87252380D01*
X130242857Y-86204761D02*
X130480952Y-86919047D01*
X129861904Y-86919047D01*
%TO.C,U1*%
X118161904Y-141952380D02*
X118161904Y-142761904D01*
X118114285Y-142857142D01*
X118066666Y-142904761D01*
X117971428Y-142952380D01*
X117780952Y-142952380D01*
X117685714Y-142904761D01*
X117638095Y-142857142D01*
X117590476Y-142761904D01*
X117590476Y-141952380D01*
X116590476Y-142952380D02*
X117161904Y-142952380D01*
X116876190Y-142952380D02*
X116876190Y-141952380D01*
X116971428Y-142095238D01*
X117066666Y-142190476D01*
X117161904Y-142238095D01*
X119519047Y-141952380D02*
X118947619Y-141952380D01*
X119233333Y-142952380D02*
X119233333Y-141952380D01*
X118138095Y-142952380D02*
X118614285Y-142952380D01*
X118614285Y-141952380D01*
X117614285Y-141952380D02*
X117519047Y-141952380D01*
X117423809Y-142000000D01*
X117376190Y-142047619D01*
X117328571Y-142142857D01*
X117280952Y-142333333D01*
X117280952Y-142571428D01*
X117328571Y-142761904D01*
X117376190Y-142857142D01*
X117423809Y-142904761D01*
X117519047Y-142952380D01*
X117614285Y-142952380D01*
X117709523Y-142904761D01*
X117757142Y-142857142D01*
X117804761Y-142761904D01*
X117852380Y-142571428D01*
X117852380Y-142333333D01*
X117804761Y-142142857D01*
X117757142Y-142047619D01*
X117709523Y-142000000D01*
X117614285Y-141952380D01*
X116947619Y-141952380D02*
X116280952Y-141952380D01*
X116709523Y-142952380D01*
X115471428Y-142285714D02*
X115471428Y-142952380D01*
X115709523Y-141904761D02*
X115947619Y-142619047D01*
X115328571Y-142619047D01*
%TO.C,U2*%
X111561904Y-140152380D02*
X111561904Y-140961904D01*
X111514285Y-141057142D01*
X111466666Y-141104761D01*
X111371428Y-141152380D01*
X111180952Y-141152380D01*
X111085714Y-141104761D01*
X111038095Y-141057142D01*
X110990476Y-140961904D01*
X110990476Y-140152380D01*
X110561904Y-140247619D02*
X110514285Y-140200000D01*
X110419047Y-140152380D01*
X110180952Y-140152380D01*
X110085714Y-140200000D01*
X110038095Y-140247619D01*
X109990476Y-140342857D01*
X109990476Y-140438095D01*
X110038095Y-140580952D01*
X110609523Y-141152380D01*
X109990476Y-141152380D01*
X116685714Y-131385714D02*
X117352380Y-131385714D01*
X116304761Y-131147619D02*
X117019047Y-130909523D01*
X117019047Y-131528571D01*
X116352380Y-132100000D02*
X116352380Y-132195238D01*
X116400000Y-132290476D01*
X116447619Y-132338095D01*
X116542857Y-132385714D01*
X116733333Y-132433333D01*
X116971428Y-132433333D01*
X117161904Y-132385714D01*
X117257142Y-132338095D01*
X117304761Y-132290476D01*
X117352380Y-132195238D01*
X117352380Y-132100000D01*
X117304761Y-132004761D01*
X117257142Y-131957142D01*
X117161904Y-131909523D01*
X116971428Y-131861904D01*
X116733333Y-131861904D01*
X116542857Y-131909523D01*
X116447619Y-131957142D01*
X116400000Y-132004761D01*
X116352380Y-132100000D01*
X117352380Y-133385714D02*
X117352380Y-132814285D01*
X117352380Y-133100000D02*
X116352380Y-133100000D01*
X116495238Y-133004761D01*
X116590476Y-132909523D01*
X116638095Y-132814285D01*
X116352380Y-134004761D02*
X116352380Y-134100000D01*
X116400000Y-134195238D01*
X116447619Y-134242857D01*
X116542857Y-134290476D01*
X116733333Y-134338095D01*
X116971428Y-134338095D01*
X117161904Y-134290476D01*
X117257142Y-134242857D01*
X117304761Y-134195238D01*
X117352380Y-134100000D01*
X117352380Y-134004761D01*
X117304761Y-133909523D01*
X117257142Y-133861904D01*
X117161904Y-133814285D01*
X116971428Y-133766666D01*
X116733333Y-133766666D01*
X116542857Y-133814285D01*
X116447619Y-133861904D01*
X116400000Y-133909523D01*
X116352380Y-134004761D01*
X116352380Y-135195238D02*
X116352380Y-135004761D01*
X116400000Y-134909523D01*
X116447619Y-134861904D01*
X116590476Y-134766666D01*
X116780952Y-134719047D01*
X117161904Y-134719047D01*
X117257142Y-134766666D01*
X117304761Y-134814285D01*
X117352380Y-134909523D01*
X117352380Y-135100000D01*
X117304761Y-135195238D01*
X117257142Y-135242857D01*
X117161904Y-135290476D01*
X116923809Y-135290476D01*
X116828571Y-135242857D01*
X116780952Y-135195238D01*
X116733333Y-135100000D01*
X116733333Y-134909523D01*
X116780952Y-134814285D01*
X116828571Y-134766666D01*
X116923809Y-134719047D01*
%TO.C,C4*%
X117116666Y-83807142D02*
X117164285Y-83854761D01*
X117307142Y-83902380D01*
X117402380Y-83902380D01*
X117545238Y-83854761D01*
X117640476Y-83759523D01*
X117688095Y-83664285D01*
X117735714Y-83473809D01*
X117735714Y-83330952D01*
X117688095Y-83140476D01*
X117640476Y-83045238D01*
X117545238Y-82950000D01*
X117402380Y-82902380D01*
X117307142Y-82902380D01*
X117164285Y-82950000D01*
X117116666Y-82997619D01*
X116259523Y-83235714D02*
X116259523Y-83902380D01*
X116497619Y-82854761D02*
X116735714Y-83569047D01*
X116116666Y-83569047D01*
X118497619Y-76402380D02*
X119069047Y-76402380D01*
X118783333Y-76402380D02*
X118783333Y-75402380D01*
X118878571Y-75545238D01*
X118973809Y-75640476D01*
X119069047Y-75688095D01*
X117878571Y-75402380D02*
X117783333Y-75402380D01*
X117688095Y-75450000D01*
X117640476Y-75497619D01*
X117592857Y-75592857D01*
X117545238Y-75783333D01*
X117545238Y-76021428D01*
X117592857Y-76211904D01*
X117640476Y-76307142D01*
X117688095Y-76354761D01*
X117783333Y-76402380D01*
X117878571Y-76402380D01*
X117973809Y-76354761D01*
X118021428Y-76307142D01*
X118069047Y-76211904D01*
X118116666Y-76021428D01*
X118116666Y-75783333D01*
X118069047Y-75592857D01*
X118021428Y-75497619D01*
X117973809Y-75450000D01*
X117878571Y-75402380D01*
X116926190Y-75402380D02*
X116830952Y-75402380D01*
X116735714Y-75450000D01*
X116688095Y-75497619D01*
X116640476Y-75592857D01*
X116592857Y-75783333D01*
X116592857Y-76021428D01*
X116640476Y-76211904D01*
X116688095Y-76307142D01*
X116735714Y-76354761D01*
X116830952Y-76402380D01*
X116926190Y-76402380D01*
X117021428Y-76354761D01*
X117069047Y-76307142D01*
X117116666Y-76211904D01*
X117164285Y-76021428D01*
X117164285Y-75783333D01*
X117116666Y-75592857D01*
X117069047Y-75497619D01*
X117021428Y-75450000D01*
X116926190Y-75402380D01*
X115735714Y-75735714D02*
X115735714Y-76402380D01*
X116164285Y-75735714D02*
X116164285Y-76259523D01*
X116116666Y-76354761D01*
X116021428Y-76402380D01*
X115878571Y-76402380D01*
X115783333Y-76354761D01*
X115735714Y-76307142D01*
X114926190Y-75878571D02*
X115259523Y-75878571D01*
X115259523Y-76402380D02*
X115259523Y-75402380D01*
X114783333Y-75402380D01*
%TO.C,C5*%
X105707142Y-60033333D02*
X105754761Y-59985714D01*
X105802380Y-59842857D01*
X105802380Y-59747619D01*
X105754761Y-59604761D01*
X105659523Y-59509523D01*
X105564285Y-59461904D01*
X105373809Y-59414285D01*
X105230952Y-59414285D01*
X105040476Y-59461904D01*
X104945238Y-59509523D01*
X104850000Y-59604761D01*
X104802380Y-59747619D01*
X104802380Y-59842857D01*
X104850000Y-59985714D01*
X104897619Y-60033333D01*
X104802380Y-60938095D02*
X104802380Y-60461904D01*
X105278571Y-60414285D01*
X105230952Y-60461904D01*
X105183333Y-60557142D01*
X105183333Y-60795238D01*
X105230952Y-60890476D01*
X105278571Y-60938095D01*
X105373809Y-60985714D01*
X105611904Y-60985714D01*
X105707142Y-60938095D01*
X105754761Y-60890476D01*
X105802380Y-60795238D01*
X105802380Y-60557142D01*
X105754761Y-60461904D01*
X105707142Y-60414285D01*
X110747619Y-64352380D02*
X111319047Y-64352380D01*
X111033333Y-64352380D02*
X111033333Y-63352380D01*
X111128571Y-63495238D01*
X111223809Y-63590476D01*
X111319047Y-63638095D01*
X110128571Y-63352380D02*
X110033333Y-63352380D01*
X109938095Y-63400000D01*
X109890476Y-63447619D01*
X109842857Y-63542857D01*
X109795238Y-63733333D01*
X109795238Y-63971428D01*
X109842857Y-64161904D01*
X109890476Y-64257142D01*
X109938095Y-64304761D01*
X110033333Y-64352380D01*
X110128571Y-64352380D01*
X110223809Y-64304761D01*
X110271428Y-64257142D01*
X110319047Y-64161904D01*
X110366666Y-63971428D01*
X110366666Y-63733333D01*
X110319047Y-63542857D01*
X110271428Y-63447619D01*
X110223809Y-63400000D01*
X110128571Y-63352380D01*
X109176190Y-63352380D02*
X109080952Y-63352380D01*
X108985714Y-63400000D01*
X108938095Y-63447619D01*
X108890476Y-63542857D01*
X108842857Y-63733333D01*
X108842857Y-63971428D01*
X108890476Y-64161904D01*
X108938095Y-64257142D01*
X108985714Y-64304761D01*
X109080952Y-64352380D01*
X109176190Y-64352380D01*
X109271428Y-64304761D01*
X109319047Y-64257142D01*
X109366666Y-64161904D01*
X109414285Y-63971428D01*
X109414285Y-63733333D01*
X109366666Y-63542857D01*
X109319047Y-63447619D01*
X109271428Y-63400000D01*
X109176190Y-63352380D01*
X107985714Y-63685714D02*
X107985714Y-64352380D01*
X108414285Y-63685714D02*
X108414285Y-64209523D01*
X108366666Y-64304761D01*
X108271428Y-64352380D01*
X108128571Y-64352380D01*
X108033333Y-64304761D01*
X107985714Y-64257142D01*
X107176190Y-63828571D02*
X107509523Y-63828571D01*
X107509523Y-64352380D02*
X107509523Y-63352380D01*
X107033333Y-63352380D01*
%TD*%
M02*
