<?xml version="1.0" standalone="no"?>
 <!DOCTYPE svg PUBLIC "-//W3C//DTD SVG 1.1//EN" 
 "http://www.w3.org/Graphics/SVG/1.1/DTD/svg11.dtd"> 
<svg
  xmlns:svg="http://www.w3.org/2000/svg"
  xmlns="http://www.w3.org/2000/svg"
  xmlns:xlink="http://www.w3.org/1999/xlink"
  version="1.1"
  width="297.002200mm" height="210.007200mm" viewBox="0.000000 0.000000 297.002200 210.007200">
<title>SVG Image created as MiniOSC-F_Mask.svg date 2024/10/08 00:30:05 </title>
  <desc>Image generated by PCBNEW </desc>
<g style="fill:#000000; fill-opacity:1.000000;stroke:#000000; stroke-opacity:1.000000;
stroke-linecap:round; stroke-linejoin:round;"
 transform="translate(0 0) scale(1 1)">
</g>
<g style="fill:none; 
stroke:#000000; stroke-width:2.720000; stroke-opacity:1; 
stroke-linecap:round; stroke-linejoin:round;">
<path d="M178.200000 54.760000
L178.200000 54.240000
" />
<path d="M187.800000 54.760000
L187.800000 54.240000
" />
<path style="fill:#000000; fill-opacity:1.000000; stroke:none;fill-rule:evenodd;"
d="M 181.400000,61.100000
181.400000,62.900000
179.600000,62.900000
179.600000,61.100000
Z" /> 
</g>
<g style="fill:#000000; fill-opacity:1.000000; stroke:none;">
<circle cx="183.000000" cy="62.000000" r="0.900000" /> 
</g>
<g style="fill:#000000; fill-opacity:1.000000; stroke:none;">
<circle cx="185.500000" cy="62.000000" r="0.900000" /> 
<path style="fill:#000000; fill-opacity:1.000000; stroke:none;fill-rule:evenodd;"
d="M 187.238000,134.488000
187.257030,134.392329
187.311223,134.311223
187.392329,134.257030
187.488000,134.238000
188.512000,134.238000
188.607671,134.257030
188.688777,134.311223
188.742970,134.392329
188.762000,134.488000
188.762000,135.512000
188.742970,135.607671
188.688777,135.688777
188.607671,135.742970
188.512000,135.762000
187.488000,135.762000
187.392329,135.742970
187.311223,135.688777
187.257030,135.607671
187.238000,135.512000
Z" /> 
</g>
<g style="fill:#000000; fill-opacity:1.000000; stroke:none;">
<circle cx="190.000000" cy="135.000000" r="0.762000" /> 
</g>
<g style="fill:#000000; fill-opacity:1.000000; stroke:none;">
<circle cx="192.000000" cy="135.000000" r="0.762000" /> 
</g>
<g style="fill:#000000; fill-opacity:1.000000; stroke:none;">
<circle cx="192.000000" cy="140.000000" r="0.762000" /> 
</g>
<g style="fill:#000000; fill-opacity:1.000000; stroke:none;">
<circle cx="190.000000" cy="140.000000" r="0.762000" /> 
</g>
<g style="fill:#000000; fill-opacity:1.000000; stroke:none;">
<circle cx="188.000000" cy="140.000000" r="0.762000" /> 
<path style="fill:#000000; fill-opacity:1.000000; stroke:none;fill-rule:evenodd;"
d="M 200.965000,145.085000
200.965000,146.915000
199.035000,146.915000
199.035000,145.085000
Z" /> 
</g>
<g style="fill:#000000; fill-opacity:1.000000; stroke:none;">
<circle cx="200.000000" cy="157.400000" r="1.065000" /> 
</g>
<g style="fill:#000000; fill-opacity:1.000000; stroke:none;">
<circle cx="200.000000" cy="149.100000" r="1.065000" /> 
<path style="fill:#000000; fill-opacity:1.000000; stroke:none;fill-rule:evenodd;"
d="M 193.550000,62.700000
193.645671,62.719030
193.726777,62.773223
193.780970,62.854329
193.800000,62.950000
193.800000,65.050000
193.780970,65.145671
193.726777,65.226777
193.645671,65.280970
193.550000,65.300000
192.450000,65.300000
192.354329,65.280970
192.273223,65.226777
192.219030,65.145671
192.200000,65.050000
192.200000,62.950000
192.219030,62.854329
192.273223,62.773223
192.354329,62.719030
192.450000,62.700000
Z" /> 
<path style="fill:#000000; fill-opacity:1.000000; stroke:none;fill-rule:evenodd;"
d="M 193.550000,66.300000
193.645671,66.319030
193.726777,66.373223
193.780970,66.454329
193.800000,66.550000
193.800000,68.650000
193.780970,68.745671
193.726777,68.826777
193.645671,68.880970
193.550000,68.900000
192.450000,68.900000
192.354329,68.880970
192.273223,68.826777
192.219030,68.745671
192.200000,68.650000
192.200000,66.550000
192.219030,66.454329
192.273223,66.373223
192.354329,66.319030
192.450000,66.300000
Z" /> 
<path style="fill:#000000; fill-opacity:1.000000; stroke:none;fill-rule:evenodd;"
d="M 180.965000,145.085000
180.965000,146.915000
179.035000,146.915000
179.035000,145.085000
Z" /> 
</g>
<g style="fill:#000000; fill-opacity:1.000000; stroke:none;">
<circle cx="180.000000" cy="157.400000" r="1.065000" /> 
</g>
<g style="fill:#000000; fill-opacity:1.000000; stroke:none;">
<circle cx="180.000000" cy="149.100000" r="1.065000" /> 
</g>
<g style="fill:none; 
stroke:#000000; stroke-width:2.720000; stroke-opacity:1; 
stroke-linecap:round; stroke-linejoin:round;">
<path d="M176.600000 104.760000
L176.600000 104.240000
" />
<path d="M186.200000 104.760000
L186.200000 104.240000
" />
<path style="fill:#000000; fill-opacity:1.000000; stroke:none;fill-rule:evenodd;"
d="M 179.800000,111.100000
179.800000,112.900000
178.000000,112.900000
178.000000,111.100000
Z" /> 
</g>
<g style="fill:#000000; fill-opacity:1.000000; stroke:none;">
<circle cx="181.400000" cy="112.000000" r="0.900000" /> 
</g>
<g style="fill:#000000; fill-opacity:1.000000; stroke:none;">
<circle cx="183.900000" cy="112.000000" r="0.900000" /> 
</g>
<g style="fill:#000000; fill-opacity:1.000000; stroke:none;">
<circle cx="148.000000" cy="71.500000" r="4.000000" /> 
<path style="fill:#000000; fill-opacity:1.000000; stroke:none;fill-rule:evenodd;"
d="M 200.965000,115.085000
200.965000,116.915000
199.035000,116.915000
199.035000,115.085000
Z" /> 
</g>
<g style="fill:#000000; fill-opacity:1.000000; stroke:none;">
<circle cx="200.000000" cy="127.400000" r="1.065000" /> 
</g>
<g style="fill:#000000; fill-opacity:1.000000; stroke:none;">
<circle cx="200.000000" cy="119.100000" r="1.065000" /> 
</g>
<g style="fill:none; 
stroke:#000000; stroke-width:4.200000; stroke-opacity:1; 
stroke-linecap:round; stroke-linejoin:round;">
<path d="M146.100000 43.000000
L148.900000 43.000000
" />
<path d="M146.100000 165.500000
L148.900000 165.500000
" />
</g>
<g style="fill:#000000; fill-opacity:1.000000; stroke:none;">
<circle cx="165.000000" cy="122.500000" r="3.500000" /> 
</g>
<g style="fill:#000000; fill-opacity:1.000000; stroke:none;">
<circle cx="145.000000" cy="137.500000" r="3.500000" /> 
</g>
<g style="fill:#000000; fill-opacity:1.000000; stroke:none;">
<circle cx="146.400000" cy="104.500000" r="4.000000" /> 
</g>
<g style="fill:#000000; fill-opacity:1.000000; stroke:none;">
<circle cx="145.000000" cy="152.500000" r="3.500000" /> 
</g>
<g style="fill:#000000; fill-opacity:1.000000; stroke:none;">
<circle cx="155.000000" cy="122.500000" r="3.500000" /> 
<path style="fill:#000000; fill-opacity:1.000000; stroke:none;fill-rule:evenodd;"
d="M 180.965000,130.085000
180.965000,131.915000
179.035000,131.915000
179.035000,130.085000
Z" /> 
</g>
<g style="fill:#000000; fill-opacity:1.000000; stroke:none;">
<circle cx="180.000000" cy="142.400000" r="1.065000" /> 
</g>
<g style="fill:#000000; fill-opacity:1.000000; stroke:none;">
<circle cx="180.000000" cy="134.100000" r="1.065000" /> 
</g>
<g style="fill:none; 
stroke:#000000; stroke-width:2.720000; stroke-opacity:1; 
stroke-linecap:round; stroke-linejoin:round;">
<path d="M192.200000 88.260000
L192.200000 87.740000
" />
<path d="M201.800000 88.260000
L201.800000 87.740000
" />
<path style="fill:#000000; fill-opacity:1.000000; stroke:none;fill-rule:evenodd;"
d="M 195.400000,94.600000
195.400000,96.400000
193.600000,96.400000
193.600000,94.600000
Z" /> 
</g>
<g style="fill:#000000; fill-opacity:1.000000; stroke:none;">
<circle cx="197.000000" cy="95.500000" r="0.900000" /> 
</g>
<g style="fill:#000000; fill-opacity:1.000000; stroke:none;">
<circle cx="199.500000" cy="95.500000" r="0.900000" /> 
<path style="fill:#000000; fill-opacity:1.000000; stroke:none;fill-rule:evenodd;"
d="M 190.965000,115.085000
190.965000,116.915000
189.035000,116.915000
189.035000,115.085000
Z" /> 
</g>
<g style="fill:#000000; fill-opacity:1.000000; stroke:none;">
<circle cx="190.000000" cy="127.400000" r="1.065000" /> 
</g>
<g style="fill:#000000; fill-opacity:1.000000; stroke:none;">
<circle cx="190.000000" cy="119.100000" r="1.065000" /> 
</g>
<g style="fill:#000000; fill-opacity:1.000000; stroke:none;">
<circle cx="162.000000" cy="88.000000" r="4.000000" /> 
</g>
<g style="fill:#000000; fill-opacity:1.000000; stroke:none;">
<circle cx="163.600000" cy="104.500000" r="4.000000" /> 
</g>
<g style="fill:#000000; fill-opacity:1.000000; stroke:none;">
<circle cx="165.000000" cy="152.500000" r="3.500000" /> 
</g>
<g style="fill:#000000; fill-opacity:1.000000; stroke:none;">
<circle cx="148.000000" cy="54.500000" r="4.000000" /> 
</g>
<g style="fill:none; 
stroke:#000000; stroke-width:2.720000; stroke-opacity:1; 
stroke-linecap:round; stroke-linejoin:round;">
<path d="M178.200000 71.760000
L178.200000 71.240000
" />
<path d="M187.800000 71.760000
L187.800000 71.240000
" />
<path style="fill:#000000; fill-opacity:1.000000; stroke:none;fill-rule:evenodd;"
d="M 181.400000,78.100000
181.400000,79.900000
179.600000,79.900000
179.600000,78.100000
Z" /> 
</g>
<g style="fill:#000000; fill-opacity:1.000000; stroke:none;">
<circle cx="183.000000" cy="79.000000" r="0.900000" /> 
</g>
<g style="fill:#000000; fill-opacity:1.000000; stroke:none;">
<circle cx="185.500000" cy="79.000000" r="0.900000" /> 
</g>
<g style="fill:none; 
stroke:#000000; stroke-width:2.720000; stroke-opacity:1; 
stroke-linecap:round; stroke-linejoin:round;">
<path d="M193.800000 104.785000
L193.800000 104.265000
" />
<path d="M203.400000 104.785000
L203.400000 104.265000
" />
<path style="fill:#000000; fill-opacity:1.000000; stroke:none;fill-rule:evenodd;"
d="M 197.000000,111.125000
197.000000,112.925000
195.200000,112.925000
195.200000,111.125000
Z" /> 
</g>
<g style="fill:#000000; fill-opacity:1.000000; stroke:none;">
<circle cx="198.600000" cy="112.025000" r="0.900000" /> 
</g>
<g style="fill:#000000; fill-opacity:1.000000; stroke:none;">
<circle cx="201.100000" cy="112.025000" r="0.900000" /> 
<path style="fill:#000000; fill-opacity:1.000000; stroke:none;fill-rule:evenodd;"
d="M 190.965000,145.085000
190.965000,146.915000
189.035000,146.915000
189.035000,145.085000
Z" /> 
</g>
<g style="fill:#000000; fill-opacity:1.000000; stroke:none;">
<circle cx="190.000000" cy="157.400000" r="1.065000" /> 
</g>
<g style="fill:#000000; fill-opacity:1.000000; stroke:none;">
<circle cx="190.000000" cy="149.100000" r="1.065000" /> 
</g>
<g style="fill:#000000; fill-opacity:1.000000; stroke:none;">
<circle cx="182.600000" cy="93.850000" r="0.720000" /> 
</g>
<g style="fill:#000000; fill-opacity:1.000000; stroke:none;">
<circle cx="180.060000" cy="93.850000" r="0.720000" /> 
</g>
<g style="fill:#000000; fill-opacity:1.000000; stroke:none;">
<circle cx="177.520000" cy="93.850000" r="0.720000" /> 
</g>
<g style="fill:#000000; fill-opacity:1.000000; stroke:none;">
<circle cx="155.000000" cy="152.500000" r="3.500000" /> 
</g>
<g style="fill:#000000; fill-opacity:1.000000; stroke:none;">
<circle cx="145.000000" cy="122.500000" r="3.500000" /> 
<path style="fill:#000000; fill-opacity:1.000000; stroke:none;fill-rule:evenodd;"
d="M 193.550000,53.200000
193.645671,53.219030
193.726777,53.273223
193.780970,53.354329
193.800000,53.450000
193.800000,55.550000
193.780970,55.645671
193.726777,55.726777
193.645671,55.780970
193.550000,55.800000
192.450000,55.800000
192.354329,55.780970
192.273223,55.726777
192.219030,55.645671
192.200000,55.550000
192.200000,53.450000
192.219030,53.354329
192.273223,53.273223
192.354329,53.219030
192.450000,53.200000
Z" /> 
<path style="fill:#000000; fill-opacity:1.000000; stroke:none;fill-rule:evenodd;"
d="M 193.550000,56.800000
193.645671,56.819030
193.726777,56.873223
193.780970,56.954329
193.800000,57.050000
193.800000,59.150000
193.780970,59.245671
193.726777,59.326777
193.645671,59.380970
193.550000,59.400000
192.450000,59.400000
192.354329,59.380970
192.273223,59.326777
192.219030,59.245671
192.200000,59.150000
192.200000,57.050000
192.219030,56.954329
192.273223,56.873223
192.354329,56.819030
192.450000,56.800000
Z" /> 
<path style="fill:#000000; fill-opacity:1.000000; stroke:none;fill-rule:evenodd;"
d="M 180.965000,115.085000
180.965000,116.915000
179.035000,116.915000
179.035000,115.085000
Z" /> 
</g>
<g style="fill:#000000; fill-opacity:1.000000; stroke:none;">
<circle cx="180.000000" cy="127.400000" r="1.065000" /> 
</g>
<g style="fill:#000000; fill-opacity:1.000000; stroke:none;">
<circle cx="180.000000" cy="119.100000" r="1.065000" /> 
<path style="fill:#000000; fill-opacity:1.000000; stroke:none;fill-rule:evenodd;"
d="M 197.610000,65.560000
197.629030,65.464329
197.683223,65.383223
197.764329,65.329030
197.860000,65.310000
199.060000,65.310000
199.155671,65.329030
199.236777,65.383223
199.290970,65.464329
199.310000,65.560000
199.310000,66.760000
199.290970,66.855671
199.236777,66.936777
199.155671,66.990970
199.060000,67.010000
197.860000,67.010000
197.764329,66.990970
197.683223,66.936777
197.629030,66.855671
197.610000,66.760000
Z" /> 
</g>
<g style="fill:#000000; fill-opacity:1.000000; stroke:none;">
<circle cx="201.000000" cy="66.160000" r="0.850000" /> 
</g>
<g style="fill:#000000; fill-opacity:1.000000; stroke:none;">
<circle cx="198.460000" cy="63.620000" r="0.850000" /> 
</g>
<g style="fill:#000000; fill-opacity:1.000000; stroke:none;">
<circle cx="201.000000" cy="63.620000" r="0.850000" /> 
</g>
<g style="fill:#000000; fill-opacity:1.000000; stroke:none;">
<circle cx="198.460000" cy="61.080000" r="0.850000" /> 
</g>
<g style="fill:#000000; fill-opacity:1.000000; stroke:none;">
<circle cx="201.000000" cy="61.080000" r="0.850000" /> 
</g>
<g style="fill:#000000; fill-opacity:1.000000; stroke:none;">
<circle cx="198.460000" cy="58.540000" r="0.850000" /> 
</g>
<g style="fill:#000000; fill-opacity:1.000000; stroke:none;">
<circle cx="201.000000" cy="58.540000" r="0.850000" /> 
</g>
<g style="fill:#000000; fill-opacity:1.000000; stroke:none;">
<circle cx="198.460000" cy="56.000000" r="0.850000" /> 
</g>
<g style="fill:#000000; fill-opacity:1.000000; stroke:none;">
<circle cx="201.000000" cy="56.000000" r="0.850000" /> 
</g> 
</svg>
