<?xml version="1.0" standalone="no"?>
 <!DOCTYPE svg PUBLIC "-//W3C//DTD SVG 1.1//EN" 
 "http://www.w3.org/Graphics/SVG/1.1/DTD/svg11.dtd"> 
<svg
  xmlns:svg="http://www.w3.org/2000/svg"
  xmlns="http://www.w3.org/2000/svg"
  xmlns:xlink="http://www.w3.org/1999/xlink"
  version="1.1"
  width="297.002200mm" height="210.007200mm" viewBox="0.000000 0.000000 297.002200 210.007200">
<title>SVG Image created as MiniOSC-B_Mask.svg date 2024/10/08 00:30:05 </title>
  <desc>Image generated by PCBNEW </desc>
<g style="fill:#000000; fill-opacity:1.000000;stroke:#000000; stroke-opacity:1.000000;
stroke-linecap:round; stroke-linejoin:round;"
 transform="translate(0 0) scale(1 1)">
</g>
<g style="fill:none; 
stroke:#000000; stroke-width:2.720000; stroke-opacity:1; 
stroke-linecap:round; stroke-linejoin:round;">
<path d="M178.200000 54.760000
L178.200000 54.240000
" />
<path d="M187.800000 54.760000
L187.800000 54.240000
" />
<path style="fill:#000000; fill-opacity:1.000000; stroke:none;fill-rule:evenodd;"
d="M 181.400000,61.100000
181.400000,62.900000
179.600000,62.900000
179.600000,61.100000
Z" /> 
</g>
<g style="fill:#000000; fill-opacity:1.000000; stroke:none;">
<circle cx="183.000000" cy="62.000000" r="0.900000" /> 
</g>
<g style="fill:#000000; fill-opacity:1.000000; stroke:none;">
<circle cx="185.500000" cy="62.000000" r="0.900000" /> 
<path style="fill:#000000; fill-opacity:1.000000; stroke:none;fill-rule:evenodd;"
d="M 187.238000,134.488000
187.257030,134.392329
187.311223,134.311223
187.392329,134.257030
187.488000,134.238000
188.512000,134.238000
188.607671,134.257030
188.688777,134.311223
188.742970,134.392329
188.762000,134.488000
188.762000,135.512000
188.742970,135.607671
188.688777,135.688777
188.607671,135.742970
188.512000,135.762000
187.488000,135.762000
187.392329,135.742970
187.311223,135.688777
187.257030,135.607671
187.238000,135.512000
Z" /> 
</g>
<g style="fill:#000000; fill-opacity:1.000000; stroke:none;">
<circle cx="190.000000" cy="135.000000" r="0.762000" /> 
</g>
<g style="fill:#000000; fill-opacity:1.000000; stroke:none;">
<circle cx="192.000000" cy="135.000000" r="0.762000" /> 
</g>
<g style="fill:#000000; fill-opacity:1.000000; stroke:none;">
<circle cx="192.000000" cy="140.000000" r="0.762000" /> 
</g>
<g style="fill:#000000; fill-opacity:1.000000; stroke:none;">
<circle cx="190.000000" cy="140.000000" r="0.762000" /> 
</g>
<g style="fill:#000000; fill-opacity:1.000000; stroke:none;">
<circle cx="188.000000" cy="140.000000" r="0.762000" /> 
<path style="fill:#000000; fill-opacity:1.000000; stroke:none;fill-rule:evenodd;"
d="M 200.965000,145.085000
200.965000,146.915000
199.035000,146.915000
199.035000,145.085000
Z" /> 
</g>
<g style="fill:#000000; fill-opacity:1.000000; stroke:none;">
<circle cx="200.000000" cy="157.400000" r="1.065000" /> 
</g>
<g style="fill:#000000; fill-opacity:1.000000; stroke:none;">
<circle cx="200.000000" cy="149.100000" r="1.065000" /> 
<path style="fill:#000000; fill-opacity:1.000000; stroke:none;fill-rule:evenodd;"
d="M 180.965000,145.085000
180.965000,146.915000
179.035000,146.915000
179.035000,145.085000
Z" /> 
</g>
<g style="fill:#000000; fill-opacity:1.000000; stroke:none;">
<circle cx="180.000000" cy="157.400000" r="1.065000" /> 
</g>
<g style="fill:#000000; fill-opacity:1.000000; stroke:none;">
<circle cx="180.000000" cy="149.100000" r="1.065000" /> 
</g>
<g style="fill:none; 
stroke:#000000; stroke-width:2.720000; stroke-opacity:1; 
stroke-linecap:round; stroke-linejoin:round;">
<path d="M176.600000 104.760000
L176.600000 104.240000
" />
<path d="M186.200000 104.760000
L186.200000 104.240000
" />
<path style="fill:#000000; fill-opacity:1.000000; stroke:none;fill-rule:evenodd;"
d="M 179.800000,111.100000
179.800000,112.900000
178.000000,112.900000
178.000000,111.100000
Z" /> 
</g>
<g style="fill:#000000; fill-opacity:1.000000; stroke:none;">
<circle cx="181.400000" cy="112.000000" r="0.900000" /> 
</g>
<g style="fill:#000000; fill-opacity:1.000000; stroke:none;">
<circle cx="183.900000" cy="112.000000" r="0.900000" /> 
</g>
<g style="fill:#000000; fill-opacity:1.000000; stroke:none;">
<circle cx="148.000000" cy="71.500000" r="4.000000" /> 
<path style="fill:#000000; fill-opacity:1.000000; stroke:none;fill-rule:evenodd;"
d="M 200.965000,115.085000
200.965000,116.915000
199.035000,116.915000
199.035000,115.085000
Z" /> 
</g>
<g style="fill:#000000; fill-opacity:1.000000; stroke:none;">
<circle cx="200.000000" cy="127.400000" r="1.065000" /> 
</g>
<g style="fill:#000000; fill-opacity:1.000000; stroke:none;">
<circle cx="200.000000" cy="119.100000" r="1.065000" /> 
</g>
<g style="fill:none; 
stroke:#000000; stroke-width:4.200000; stroke-opacity:1; 
stroke-linecap:round; stroke-linejoin:round;">
<path d="M146.100000 43.000000
L148.900000 43.000000
" />
<path d="M146.100000 165.500000
L148.900000 165.500000
" />
</g>
<g style="fill:#000000; fill-opacity:1.000000; stroke:none;">
<circle cx="165.000000" cy="122.500000" r="3.500000" /> 
</g>
<g style="fill:#000000; fill-opacity:1.000000; stroke:none;">
<circle cx="145.000000" cy="137.500000" r="3.500000" /> 
</g>
<g style="fill:#000000; fill-opacity:1.000000; stroke:none;">
<circle cx="146.400000" cy="104.500000" r="4.000000" /> 
</g>
<g style="fill:#000000; fill-opacity:1.000000; stroke:none;">
<circle cx="145.000000" cy="152.500000" r="3.500000" /> 
</g>
<g style="fill:#000000; fill-opacity:1.000000; stroke:none;">
<circle cx="155.000000" cy="122.500000" r="3.500000" /> 
<path style="fill:#000000; fill-opacity:1.000000; stroke:none;fill-rule:evenodd;"
d="M 180.965000,130.085000
180.965000,131.915000
179.035000,131.915000
179.035000,130.085000
Z" /> 
</g>
<g style="fill:#000000; fill-opacity:1.000000; stroke:none;">
<circle cx="180.000000" cy="142.400000" r="1.065000" /> 
</g>
<g style="fill:#000000; fill-opacity:1.000000; stroke:none;">
<circle cx="180.000000" cy="134.100000" r="1.065000" /> 
</g>
<g style="fill:none; 
stroke:#000000; stroke-width:2.720000; stroke-opacity:1; 
stroke-linecap:round; stroke-linejoin:round;">
<path d="M192.200000 88.260000
L192.200000 87.740000
" />
<path d="M201.800000 88.260000
L201.800000 87.740000
" />
<path style="fill:#000000; fill-opacity:1.000000; stroke:none;fill-rule:evenodd;"
d="M 195.400000,94.600000
195.400000,96.400000
193.600000,96.400000
193.600000,94.600000
Z" /> 
</g>
<g style="fill:#000000; fill-opacity:1.000000; stroke:none;">
<circle cx="197.000000" cy="95.500000" r="0.900000" /> 
</g>
<g style="fill:#000000; fill-opacity:1.000000; stroke:none;">
<circle cx="199.500000" cy="95.500000" r="0.900000" /> 
<path style="fill:#000000; fill-opacity:1.000000; stroke:none;fill-rule:evenodd;"
d="M 190.965000,115.085000
190.965000,116.915000
189.035000,116.915000
189.035000,115.085000
Z" /> 
</g>
<g style="fill:#000000; fill-opacity:1.000000; stroke:none;">
<circle cx="190.000000" cy="127.400000" r="1.065000" /> 
</g>
<g style="fill:#000000; fill-opacity:1.000000; stroke:none;">
<circle cx="190.000000" cy="119.100000" r="1.065000" /> 
</g>
<g style="fill:#000000; fill-opacity:1.000000; stroke:none;">
<circle cx="162.000000" cy="88.000000" r="4.000000" /> 
</g>
<g style="fill:#000000; fill-opacity:1.000000; stroke:none;">
<circle cx="163.600000" cy="104.500000" r="4.000000" /> 
</g>
<g style="fill:#000000; fill-opacity:1.000000; stroke:none;">
<circle cx="165.000000" cy="152.500000" r="3.500000" /> 
</g>
<g style="fill:#000000; fill-opacity:1.000000; stroke:none;">
<circle cx="148.000000" cy="54.500000" r="4.000000" /> 
</g>
<g style="fill:none; 
stroke:#000000; stroke-width:2.720000; stroke-opacity:1; 
stroke-linecap:round; stroke-linejoin:round;">
<path d="M178.200000 71.760000
L178.200000 71.240000
" />
<path d="M187.800000 71.760000
L187.800000 71.240000
" />
<path style="fill:#000000; fill-opacity:1.000000; stroke:none;fill-rule:evenodd;"
d="M 181.400000,78.100000
181.400000,79.900000
179.600000,79.900000
179.600000,78.100000
Z" /> 
</g>
<g style="fill:#000000; fill-opacity:1.000000; stroke:none;">
<circle cx="183.000000" cy="79.000000" r="0.900000" /> 
</g>
<g style="fill:#000000; fill-opacity:1.000000; stroke:none;">
<circle cx="185.500000" cy="79.000000" r="0.900000" /> 
</g>
<g style="fill:none; 
stroke:#000000; stroke-width:2.720000; stroke-opacity:1; 
stroke-linecap:round; stroke-linejoin:round;">
<path d="M193.800000 104.785000
L193.800000 104.265000
" />
<path d="M203.400000 104.785000
L203.400000 104.265000
" />
<path style="fill:#000000; fill-opacity:1.000000; stroke:none;fill-rule:evenodd;"
d="M 197.000000,111.125000
197.000000,112.925000
195.200000,112.925000
195.200000,111.125000
Z" /> 
</g>
<g style="fill:#000000; fill-opacity:1.000000; stroke:none;">
<circle cx="198.600000" cy="112.025000" r="0.900000" /> 
</g>
<g style="fill:#000000; fill-opacity:1.000000; stroke:none;">
<circle cx="201.100000" cy="112.025000" r="0.900000" /> 
<path style="fill:#000000; fill-opacity:1.000000; stroke:none;fill-rule:evenodd;"
d="M 190.965000,145.085000
190.965000,146.915000
189.035000,146.915000
189.035000,145.085000
Z" /> 
</g>
<g style="fill:#000000; fill-opacity:1.000000; stroke:none;">
<circle cx="190.000000" cy="157.400000" r="1.065000" /> 
</g>
<g style="fill:#000000; fill-opacity:1.000000; stroke:none;">
<circle cx="190.000000" cy="149.100000" r="1.065000" /> 
</g>
<g style="fill:#000000; fill-opacity:1.000000; stroke:none;">
<circle cx="182.600000" cy="93.850000" r="0.720000" /> 
</g>
<g style="fill:#000000; fill-opacity:1.000000; stroke:none;">
<circle cx="180.060000" cy="93.850000" r="0.720000" /> 
</g>
<g style="fill:#000000; fill-opacity:1.000000; stroke:none;">
<circle cx="177.520000" cy="93.850000" r="0.720000" /> 
</g>
<g style="fill:#000000; fill-opacity:1.000000; stroke:none;">
<circle cx="155.000000" cy="152.500000" r="3.500000" /> 
</g>
<g style="fill:#000000; fill-opacity:1.000000; stroke:none;">
<circle cx="145.000000" cy="122.500000" r="3.500000" /> 
<path style="fill:#000000; fill-opacity:1.000000; stroke:none;fill-rule:evenodd;"
d="M 180.965000,115.085000
180.965000,116.915000
179.035000,116.915000
179.035000,115.085000
Z" /> 
</g>
<g style="fill:#000000; fill-opacity:1.000000; stroke:none;">
<circle cx="180.000000" cy="127.400000" r="1.065000" /> 
</g>
<g style="fill:#000000; fill-opacity:1.000000; stroke:none;">
<circle cx="180.000000" cy="119.100000" r="1.065000" /> 
<path style="fill:#000000; fill-opacity:1.000000; stroke:none;fill-rule:evenodd;"
d="M 199.300000,124.125000
199.317127,124.038896
199.365901,123.965901
199.438896,123.917127
199.525000,123.900000
199.975000,123.900000
200.061104,123.917127
200.134099,123.965901
200.182873,124.038896
200.200000,124.125000
200.200000,124.875000
200.182873,124.961104
200.134099,125.034099
200.061104,125.082873
199.975000,125.100000
199.525000,125.100000
199.438896,125.082873
199.365901,125.034099
199.317127,124.961104
199.300000,124.875000
Z" /> 
<path style="fill:#000000; fill-opacity:1.000000; stroke:none;fill-rule:evenodd;"
d="M 202.600000,124.125000
202.617127,124.038896
202.665901,123.965901
202.738896,123.917127
202.825000,123.900000
203.275000,123.900000
203.361104,123.917127
203.434099,123.965901
203.482873,124.038896
203.500000,124.125000
203.500000,124.875000
203.482873,124.961104
203.434099,125.034099
203.361104,125.082873
203.275000,125.100000
202.825000,125.100000
202.738896,125.082873
202.665901,125.034099
202.617127,124.961104
202.600000,124.875000
Z" /> 
<path style="fill:#000000; fill-opacity:1.000000; stroke:none;fill-rule:evenodd;"
d="M 192.325000,130.800000
192.238896,130.782873
192.165901,130.734099
192.117127,130.661104
192.100000,130.575000
192.100000,130.125000
192.117127,130.038896
192.165901,129.965901
192.238896,129.917127
192.325000,129.900000
193.075000,129.900000
193.161104,129.917127
193.234099,129.965901
193.282873,130.038896
193.300000,130.125000
193.300000,130.575000
193.282873,130.661104
193.234099,130.734099
193.161104,130.782873
193.075000,130.800000
Z" /> 
<path style="fill:#000000; fill-opacity:1.000000; stroke:none;fill-rule:evenodd;"
d="M 192.325000,127.500000
192.238896,127.482873
192.165901,127.434099
192.117127,127.361104
192.100000,127.275000
192.100000,126.825000
192.117127,126.738896
192.165901,126.665901
192.238896,126.617127
192.325000,126.600000
193.075000,126.600000
193.161104,126.617127
193.234099,126.665901
193.282873,126.738896
193.300000,126.825000
193.300000,127.275000
193.282873,127.361104
193.234099,127.434099
193.161104,127.482873
193.075000,127.500000
Z" /> 
<path style="fill:#000000; fill-opacity:1.000000; stroke:none;fill-rule:evenodd;"
d="M 176.250000,124.000000
176.154329,123.980970
176.073223,123.926777
176.019030,123.845671
176.000000,123.750000
176.000000,123.250000
176.019030,123.154329
176.073223,123.073223
176.154329,123.019030
176.250000,123.000000
177.750000,123.000000
177.845671,123.019030
177.926777,123.073223
177.980970,123.154329
178.000000,123.250000
178.000000,123.750000
177.980970,123.845671
177.926777,123.926777
177.845671,123.980970
177.750000,124.000000
Z" /> 
<path style="fill:#000000; fill-opacity:1.000000; stroke:none;fill-rule:evenodd;"
d="M 182.622500,90.860000
182.531613,90.841921
182.454562,90.790438
182.403079,90.713387
182.385000,90.622500
182.385000,90.122500
182.403079,90.031613
182.454562,89.954562
182.531613,89.903079
182.622500,89.885000
183.097500,89.885000
183.188387,89.903079
183.265438,89.954562
183.316921,90.031613
183.335000,90.122500
183.335000,90.622500
183.316921,90.713387
183.265438,90.790438
183.188387,90.841921
183.097500,90.860000
Z" /> 
<path style="fill:#000000; fill-opacity:1.000000; stroke:none;fill-rule:evenodd;"
d="M 182.622500,89.035000
182.531613,89.016921
182.454562,88.965438
182.403079,88.888387
182.385000,88.797500
182.385000,88.297500
182.403079,88.206613
182.454562,88.129562
182.531613,88.078079
182.622500,88.060000
183.097500,88.060000
183.188387,88.078079
183.265438,88.129562
183.316921,88.206613
183.335000,88.297500
183.335000,88.797500
183.316921,88.888387
183.265438,88.965438
183.188387,89.016921
183.097500,89.035000
Z" /> 
<path style="fill:#000000; fill-opacity:1.000000; stroke:none;fill-rule:evenodd;"
d="M 197.962500,124.000000
197.871613,123.981921
197.794562,123.930438
197.743079,123.853387
197.725000,123.762500
197.725000,123.262500
197.743079,123.171613
197.794562,123.094562
197.871613,123.043079
197.962500,123.025000
198.437500,123.025000
198.528387,123.043079
198.605438,123.094562
198.656921,123.171613
198.675000,123.262500
198.675000,123.762500
198.656921,123.853387
198.605438,123.930438
198.528387,123.981921
198.437500,124.000000
Z" /> 
<path style="fill:#000000; fill-opacity:1.000000; stroke:none;fill-rule:evenodd;"
d="M 197.962500,122.175000
197.871613,122.156921
197.794562,122.105438
197.743079,122.028387
197.725000,121.937500
197.725000,121.437500
197.743079,121.346613
197.794562,121.269562
197.871613,121.218079
197.962500,121.200000
198.437500,121.200000
198.528387,121.218079
198.605438,121.269562
198.656921,121.346613
198.675000,121.437500
198.675000,121.937500
198.656921,122.028387
198.605438,122.105438
198.528387,122.156921
198.437500,122.175000
Z" /> 
<path style="fill:#000000; fill-opacity:1.000000; stroke:none;fill-rule:evenodd;"
d="M 176.250000,126.000000
176.154329,125.980970
176.073223,125.926777
176.019030,125.845671
176.000000,125.750000
176.000000,125.250000
176.019030,125.154329
176.073223,125.073223
176.154329,125.019030
176.250000,125.000000
177.750000,125.000000
177.845671,125.019030
177.926777,125.073223
177.980970,125.154329
178.000000,125.250000
178.000000,125.750000
177.980970,125.845671
177.926777,125.926777
177.845671,125.980970
177.750000,126.000000
Z" /> 
<path style="fill:#000000; fill-opacity:1.000000; stroke:none;fill-rule:evenodd;"
d="M 195.112500,78.050000
195.093470,78.145671
195.039277,78.226777
194.958171,78.280970
194.862500,78.300000
194.162500,78.300000
194.066829,78.280970
193.985723,78.226777
193.931530,78.145671
193.912500,78.050000
193.912500,77.150000
193.931530,77.054329
193.985723,76.973223
194.066829,76.919030
194.162500,76.900000
194.862500,76.900000
194.958171,76.919030
195.039277,76.973223
195.093470,77.054329
195.112500,77.150000
Z" /> 
<path style="fill:#000000; fill-opacity:1.000000; stroke:none;fill-rule:evenodd;"
d="M 193.112500,78.050000
193.093470,78.145671
193.039277,78.226777
192.958171,78.280970
192.862500,78.300000
192.162500,78.300000
192.066829,78.280970
191.985723,78.226777
191.931530,78.145671
191.912500,78.050000
191.912500,77.150000
191.931530,77.054329
191.985723,76.973223
192.066829,76.919030
192.162500,76.900000
192.862500,76.900000
192.958171,76.919030
193.039277,76.973223
193.093470,77.054329
193.112500,77.150000
Z" /> 
<path style="fill:#000000; fill-opacity:1.000000; stroke:none;fill-rule:evenodd;"
d="M 181.210000,97.897500
181.191921,97.988387
181.140438,98.065438
181.063387,98.116921
180.972500,98.135000
180.472500,98.135000
180.381613,98.116921
180.304562,98.065438
180.253079,97.988387
180.235000,97.897500
180.235000,97.422500
180.253079,97.331613
180.304562,97.254562
180.381613,97.203079
180.472500,97.185000
180.972500,97.185000
181.063387,97.203079
181.140438,97.254562
181.191921,97.331613
181.210000,97.422500
Z" /> 
<path style="fill:#000000; fill-opacity:1.000000; stroke:none;fill-rule:evenodd;"
d="M 179.385000,97.897500
179.366921,97.988387
179.315438,98.065438
179.238387,98.116921
179.147500,98.135000
178.647500,98.135000
178.556613,98.116921
178.479562,98.065438
178.428079,97.988387
178.410000,97.897500
178.410000,97.422500
178.428079,97.331613
178.479562,97.254562
178.556613,97.203079
178.647500,97.185000
179.147500,97.185000
179.238387,97.203079
179.315438,97.254562
179.366921,97.331613
179.385000,97.422500
Z" /> 
<path style="fill:#000000; fill-opacity:1.000000; stroke:none;fill-rule:evenodd;"
d="M 194.652500,133.275000
194.709903,133.286418
194.758566,133.318934
194.791082,133.367597
194.802500,133.425000
194.802500,135.075000
194.791082,135.132403
194.758566,135.181066
194.709903,135.213582
194.652500,135.225000
194.352500,135.225000
194.295097,135.213582
194.246434,135.181066
194.213918,135.132403
194.202500,135.075000
194.202500,133.425000
194.213918,133.367597
194.246434,133.318934
194.295097,133.286418
194.352500,133.275000
Z" /> 
<path style="fill:#000000; fill-opacity:1.000000; stroke:none;fill-rule:evenodd;"
d="M 195.922500,133.275000
195.979903,133.286418
196.028566,133.318934
196.061082,133.367597
196.072500,133.425000
196.072500,135.075000
196.061082,135.132403
196.028566,135.181066
195.979903,135.213582
195.922500,135.225000
195.622500,135.225000
195.565097,135.213582
195.516434,135.181066
195.483918,135.132403
195.472500,135.075000
195.472500,133.425000
195.483918,133.367597
195.516434,133.318934
195.565097,133.286418
195.622500,133.275000
Z" /> 
<path style="fill:#000000; fill-opacity:1.000000; stroke:none;fill-rule:evenodd;"
d="M 197.192500,133.275000
197.249903,133.286418
197.298566,133.318934
197.331082,133.367597
197.342500,133.425000
197.342500,135.075000
197.331082,135.132403
197.298566,135.181066
197.249903,135.213582
197.192500,135.225000
196.892500,135.225000
196.835097,135.213582
196.786434,135.181066
196.753918,135.132403
196.742500,135.075000
196.742500,133.425000
196.753918,133.367597
196.786434,133.318934
196.835097,133.286418
196.892500,133.275000
Z" /> 
<path style="fill:#000000; fill-opacity:1.000000; stroke:none;fill-rule:evenodd;"
d="M 198.462500,133.275000
198.519903,133.286418
198.568566,133.318934
198.601082,133.367597
198.612500,133.425000
198.612500,135.075000
198.601082,135.132403
198.568566,135.181066
198.519903,135.213582
198.462500,135.225000
198.162500,135.225000
198.105097,135.213582
198.056434,135.181066
198.023918,135.132403
198.012500,135.075000
198.012500,133.425000
198.023918,133.367597
198.056434,133.318934
198.105097,133.286418
198.162500,133.275000
Z" /> 
<path style="fill:#000000; fill-opacity:1.000000; stroke:none;fill-rule:evenodd;"
d="M 199.732500,133.275000
199.789903,133.286418
199.838566,133.318934
199.871082,133.367597
199.882500,133.425000
199.882500,135.075000
199.871082,135.132403
199.838566,135.181066
199.789903,135.213582
199.732500,135.225000
199.432500,135.225000
199.375097,135.213582
199.326434,135.181066
199.293918,135.132403
199.282500,135.075000
199.282500,133.425000
199.293918,133.367597
199.326434,133.318934
199.375097,133.286418
199.432500,133.275000
Z" /> 
<path style="fill:#000000; fill-opacity:1.000000; stroke:none;fill-rule:evenodd;"
d="M 201.002500,133.275000
201.059903,133.286418
201.108566,133.318934
201.141082,133.367597
201.152500,133.425000
201.152500,135.075000
201.141082,135.132403
201.108566,135.181066
201.059903,135.213582
201.002500,135.225000
200.702500,135.225000
200.645097,135.213582
200.596434,135.181066
200.563918,135.132403
200.552500,135.075000
200.552500,133.425000
200.563918,133.367597
200.596434,133.318934
200.645097,133.286418
200.702500,133.275000
Z" /> 
<path style="fill:#000000; fill-opacity:1.000000; stroke:none;fill-rule:evenodd;"
d="M 202.272500,133.275000
202.329903,133.286418
202.378566,133.318934
202.411082,133.367597
202.422500,133.425000
202.422500,135.075000
202.411082,135.132403
202.378566,135.181066
202.329903,135.213582
202.272500,135.225000
201.972500,135.225000
201.915097,135.213582
201.866434,135.181066
201.833918,135.132403
201.822500,135.075000
201.822500,133.425000
201.833918,133.367597
201.866434,133.318934
201.915097,133.286418
201.972500,133.275000
Z" /> 
<path style="fill:#000000; fill-opacity:1.000000; stroke:none;fill-rule:evenodd;"
d="M 202.272500,138.225000
202.329903,138.236418
202.378566,138.268934
202.411082,138.317597
202.422500,138.375000
202.422500,140.025000
202.411082,140.082403
202.378566,140.131066
202.329903,140.163582
202.272500,140.175000
201.972500,140.175000
201.915097,140.163582
201.866434,140.131066
201.833918,140.082403
201.822500,140.025000
201.822500,138.375000
201.833918,138.317597
201.866434,138.268934
201.915097,138.236418
201.972500,138.225000
Z" /> 
<path style="fill:#000000; fill-opacity:1.000000; stroke:none;fill-rule:evenodd;"
d="M 201.002500,138.225000
201.059903,138.236418
201.108566,138.268934
201.141082,138.317597
201.152500,138.375000
201.152500,140.025000
201.141082,140.082403
201.108566,140.131066
201.059903,140.163582
201.002500,140.175000
200.702500,140.175000
200.645097,140.163582
200.596434,140.131066
200.563918,140.082403
200.552500,140.025000
200.552500,138.375000
200.563918,138.317597
200.596434,138.268934
200.645097,138.236418
200.702500,138.225000
Z" /> 
<path style="fill:#000000; fill-opacity:1.000000; stroke:none;fill-rule:evenodd;"
d="M 199.732500,138.225000
199.789903,138.236418
199.838566,138.268934
199.871082,138.317597
199.882500,138.375000
199.882500,140.025000
199.871082,140.082403
199.838566,140.131066
199.789903,140.163582
199.732500,140.175000
199.432500,140.175000
199.375097,140.163582
199.326434,140.131066
199.293918,140.082403
199.282500,140.025000
199.282500,138.375000
199.293918,138.317597
199.326434,138.268934
199.375097,138.236418
199.432500,138.225000
Z" /> 
<path style="fill:#000000; fill-opacity:1.000000; stroke:none;fill-rule:evenodd;"
d="M 198.462500,138.225000
198.519903,138.236418
198.568566,138.268934
198.601082,138.317597
198.612500,138.375000
198.612500,140.025000
198.601082,140.082403
198.568566,140.131066
198.519903,140.163582
198.462500,140.175000
198.162500,140.175000
198.105097,140.163582
198.056434,140.131066
198.023918,140.082403
198.012500,140.025000
198.012500,138.375000
198.023918,138.317597
198.056434,138.268934
198.105097,138.236418
198.162500,138.225000
Z" /> 
<path style="fill:#000000; fill-opacity:1.000000; stroke:none;fill-rule:evenodd;"
d="M 197.192500,138.225000
197.249903,138.236418
197.298566,138.268934
197.331082,138.317597
197.342500,138.375000
197.342500,140.025000
197.331082,140.082403
197.298566,140.131066
197.249903,140.163582
197.192500,140.175000
196.892500,140.175000
196.835097,140.163582
196.786434,140.131066
196.753918,140.082403
196.742500,140.025000
196.742500,138.375000
196.753918,138.317597
196.786434,138.268934
196.835097,138.236418
196.892500,138.225000
Z" /> 
<path style="fill:#000000; fill-opacity:1.000000; stroke:none;fill-rule:evenodd;"
d="M 195.922500,138.225000
195.979903,138.236418
196.028566,138.268934
196.061082,138.317597
196.072500,138.375000
196.072500,140.025000
196.061082,140.082403
196.028566,140.131066
195.979903,140.163582
195.922500,140.175000
195.622500,140.175000
195.565097,140.163582
195.516434,140.131066
195.483918,140.082403
195.472500,140.025000
195.472500,138.375000
195.483918,138.317597
195.516434,138.268934
195.565097,138.236418
195.622500,138.225000
Z" /> 
<path style="fill:#000000; fill-opacity:1.000000; stroke:none;fill-rule:evenodd;"
d="M 194.652500,138.225000
194.709903,138.236418
194.758566,138.268934
194.791082,138.317597
194.802500,138.375000
194.802500,140.025000
194.791082,140.082403
194.758566,140.131066
194.709903,140.163582
194.652500,140.175000
194.352500,140.175000
194.295097,140.163582
194.246434,140.131066
194.213918,140.082403
194.202500,140.025000
194.202500,138.375000
194.213918,138.317597
194.246434,138.268934
194.295097,138.236418
194.352500,138.225000
Z" /> 
<path style="fill:#000000; fill-opacity:1.000000; stroke:none;fill-rule:evenodd;"
d="M 191.822500,100.262500
191.840579,100.171613
191.892062,100.094562
191.969113,100.043079
192.060000,100.025000
192.560000,100.025000
192.650887,100.043079
192.727938,100.094562
192.779421,100.171613
192.797500,100.262500
192.797500,100.737500
192.779421,100.828387
192.727938,100.905438
192.650887,100.956921
192.560000,100.975000
192.060000,100.975000
191.969113,100.956921
191.892062,100.905438
191.840579,100.828387
191.822500,100.737500
Z" /> 
<path style="fill:#000000; fill-opacity:1.000000; stroke:none;fill-rule:evenodd;"
d="M 193.647500,100.262500
193.665579,100.171613
193.717062,100.094562
193.794113,100.043079
193.885000,100.025000
194.385000,100.025000
194.475887,100.043079
194.552938,100.094562
194.604421,100.171613
194.622500,100.262500
194.622500,100.737500
194.604421,100.828387
194.552938,100.905438
194.475887,100.956921
194.385000,100.975000
193.885000,100.975000
193.794113,100.956921
193.717062,100.905438
193.665579,100.828387
193.647500,100.737500
Z" /> 
<path style="fill:#000000; fill-opacity:1.000000; stroke:none;fill-rule:evenodd;"
d="M 183.437500,155.037500
183.528387,155.055579
183.605438,155.107062
183.656921,155.184113
183.675000,155.275000
183.675000,155.775000
183.656921,155.865887
183.605438,155.942938
183.528387,155.994421
183.437500,156.012500
182.962500,156.012500
182.871613,155.994421
182.794562,155.942938
182.743079,155.865887
182.725000,155.775000
182.725000,155.275000
182.743079,155.184113
182.794562,155.107062
182.871613,155.055579
182.962500,155.037500
Z" /> 
<path style="fill:#000000; fill-opacity:1.000000; stroke:none;fill-rule:evenodd;"
d="M 183.437500,156.862500
183.528387,156.880579
183.605438,156.932062
183.656921,157.009113
183.675000,157.100000
183.675000,157.600000
183.656921,157.690887
183.605438,157.767938
183.528387,157.819421
183.437500,157.837500
182.962500,157.837500
182.871613,157.819421
182.794562,157.767938
182.743079,157.690887
182.725000,157.600000
182.725000,157.100000
182.743079,157.009113
182.794562,156.932062
182.871613,156.880579
182.962500,156.862500
Z" /> 
<path style="fill:#000000; fill-opacity:1.000000; stroke:none;fill-rule:evenodd;"
d="M 183.662500,68.500000
183.571613,68.481921
183.494562,68.430438
183.443079,68.353387
183.425000,68.262500
183.425000,67.662500
183.443079,67.571613
183.494562,67.494562
183.571613,67.443079
183.662500,67.425000
184.137500,67.425000
184.228387,67.443079
184.305438,67.494562
184.356921,67.571613
184.375000,67.662500
184.375000,68.262500
184.356921,68.353387
184.305438,68.430438
184.228387,68.481921
184.137500,68.500000
Z" /> 
<path style="fill:#000000; fill-opacity:1.000000; stroke:none;fill-rule:evenodd;"
d="M 183.662500,66.775000
183.571613,66.756921
183.494562,66.705438
183.443079,66.628387
183.425000,66.537500
183.425000,65.937500
183.443079,65.846613
183.494562,65.769562
183.571613,65.718079
183.662500,65.700000
184.137500,65.700000
184.228387,65.718079
184.305438,65.769562
184.356921,65.846613
184.375000,65.937500
184.375000,66.537500
184.356921,66.628387
184.305438,66.705438
184.228387,66.756921
184.137500,66.775000
Z" /> 
<path style="fill:#000000; fill-opacity:1.000000; stroke:none;fill-rule:evenodd;"
d="M 186.660000,101.777500
186.641921,101.868387
186.590438,101.945438
186.513387,101.996921
186.422500,102.015000
185.922500,102.015000
185.831613,101.996921
185.754562,101.945438
185.703079,101.868387
185.685000,101.777500
185.685000,101.302500
185.703079,101.211613
185.754562,101.134562
185.831613,101.083079
185.922500,101.065000
186.422500,101.065000
186.513387,101.083079
186.590438,101.134562
186.641921,101.211613
186.660000,101.302500
Z" /> 
<path style="fill:#000000; fill-opacity:1.000000; stroke:none;fill-rule:evenodd;"
d="M 184.835000,101.777500
184.816921,101.868387
184.765438,101.945438
184.688387,101.996921
184.597500,102.015000
184.097500,102.015000
184.006613,101.996921
183.929562,101.945438
183.878079,101.868387
183.860000,101.777500
183.860000,101.302500
183.878079,101.211613
183.929562,101.134562
184.006613,101.083079
184.097500,101.065000
184.597500,101.065000
184.688387,101.083079
184.765438,101.134562
184.816921,101.211613
184.835000,101.302500
Z" /> 
<path style="fill:#000000; fill-opacity:1.000000; stroke:none;fill-rule:evenodd;"
d="M 185.525000,68.600000
185.438896,68.582873
185.365901,68.534099
185.317127,68.461104
185.300000,68.375000
185.300000,67.925000
185.317127,67.838896
185.365901,67.765901
185.438896,67.717127
185.525000,67.700000
186.275000,67.700000
186.361104,67.717127
186.434099,67.765901
186.482873,67.838896
186.500000,67.925000
186.500000,68.375000
186.482873,68.461104
186.434099,68.534099
186.361104,68.582873
186.275000,68.600000
Z" /> 
<path style="fill:#000000; fill-opacity:1.000000; stroke:none;fill-rule:evenodd;"
d="M 185.525000,65.300000
185.438896,65.282873
185.365901,65.234099
185.317127,65.161104
185.300000,65.075000
185.300000,64.625000
185.317127,64.538896
185.365901,64.465901
185.438896,64.417127
185.525000,64.400000
186.275000,64.400000
186.361104,64.417127
186.434099,64.465901
186.482873,64.538896
186.500000,64.625000
186.500000,65.075000
186.482873,65.161104
186.434099,65.234099
186.361104,65.282873
186.275000,65.300000
Z" /> 
<path style="fill:#000000; fill-opacity:1.000000; stroke:none;fill-rule:evenodd;"
d="M 196.875000,121.175000
196.970671,121.194030
197.051777,121.248223
197.105970,121.329329
197.125000,121.425000
197.125000,122.100000
197.105970,122.195671
197.051777,122.276777
196.970671,122.330970
196.875000,122.350000
195.925000,122.350000
195.829329,122.330970
195.748223,122.276777
195.694030,122.195671
195.675000,122.100000
195.675000,121.425000
195.694030,121.329329
195.748223,121.248223
195.829329,121.194030
195.925000,121.175000
Z" /> 
<path style="fill:#000000; fill-opacity:1.000000; stroke:none;fill-rule:evenodd;"
d="M 196.875000,123.250000
196.970671,123.269030
197.051777,123.323223
197.105970,123.404329
197.125000,123.500000
197.125000,124.175000
197.105970,124.270671
197.051777,124.351777
196.970671,124.405970
196.875000,124.425000
195.925000,124.425000
195.829329,124.405970
195.748223,124.351777
195.694030,124.270671
195.675000,124.175000
195.675000,123.500000
195.694030,123.404329
195.748223,123.323223
195.829329,123.269030
195.925000,123.250000
Z" /> 
<path style="fill:#000000; fill-opacity:1.000000; stroke:none;fill-rule:evenodd;"
d="M 191.312500,82.937500
191.294421,83.028387
191.242938,83.105438
191.165887,83.156921
191.075000,83.175000
190.575000,83.175000
190.484113,83.156921
190.407062,83.105438
190.355579,83.028387
190.337500,82.937500
190.337500,82.462500
190.355579,82.371613
190.407062,82.294562
190.484113,82.243079
190.575000,82.225000
191.075000,82.225000
191.165887,82.243079
191.242938,82.294562
191.294421,82.371613
191.312500,82.462500
Z" /> 
<path style="fill:#000000; fill-opacity:1.000000; stroke:none;fill-rule:evenodd;"
d="M 189.487500,82.937500
189.469421,83.028387
189.417938,83.105438
189.340887,83.156921
189.250000,83.175000
188.750000,83.175000
188.659113,83.156921
188.582062,83.105438
188.530579,83.028387
188.512500,82.937500
188.512500,82.462500
188.530579,82.371613
188.582062,82.294562
188.659113,82.243079
188.750000,82.225000
189.250000,82.225000
189.340887,82.243079
189.417938,82.294562
189.469421,82.371613
189.487500,82.462500
Z" /> 
<path style="fill:#000000; fill-opacity:1.000000; stroke:none;fill-rule:evenodd;"
d="M 176.250000,122.000000
176.154329,121.980970
176.073223,121.926777
176.019030,121.845671
176.000000,121.750000
176.000000,121.250000
176.019030,121.154329
176.073223,121.073223
176.154329,121.019030
176.250000,121.000000
177.750000,121.000000
177.845671,121.019030
177.926777,121.073223
177.980970,121.154329
178.000000,121.250000
178.000000,121.750000
177.980970,121.845671
177.926777,121.926777
177.845671,121.980970
177.750000,122.000000
Z" /> 
<path style="fill:#000000; fill-opacity:1.000000; stroke:none;fill-rule:evenodd;"
d="M 194.837500,121.200000
194.928387,121.218079
195.005438,121.269562
195.056921,121.346613
195.075000,121.437500
195.075000,121.937500
195.056921,122.028387
195.005438,122.105438
194.928387,122.156921
194.837500,122.175000
194.362500,122.175000
194.271613,122.156921
194.194562,122.105438
194.143079,122.028387
194.125000,121.937500
194.125000,121.437500
194.143079,121.346613
194.194562,121.269562
194.271613,121.218079
194.362500,121.200000
Z" /> 
<path style="fill:#000000; fill-opacity:1.000000; stroke:none;fill-rule:evenodd;"
d="M 194.837500,123.025000
194.928387,123.043079
195.005438,123.094562
195.056921,123.171613
195.075000,123.262500
195.075000,123.762500
195.056921,123.853387
195.005438,123.930438
194.928387,123.981921
194.837500,124.000000
194.362500,124.000000
194.271613,123.981921
194.194562,123.930438
194.143079,123.853387
194.125000,123.762500
194.125000,123.262500
194.143079,123.171613
194.194562,123.094562
194.271613,123.043079
194.362500,123.025000
Z" /> 
<path style="fill:#000000; fill-opacity:1.000000; stroke:none;fill-rule:evenodd;"
d="M 176.250000,141.000000
176.154329,140.980970
176.073223,140.926777
176.019030,140.845671
176.000000,140.750000
176.000000,140.250000
176.019030,140.154329
176.073223,140.073223
176.154329,140.019030
176.250000,140.000000
177.750000,140.000000
177.845671,140.019030
177.926777,140.073223
177.980970,140.154329
178.000000,140.250000
178.000000,140.750000
177.980970,140.845671
177.926777,140.926777
177.845671,140.980970
177.750000,141.000000
Z" /> 
<path style="fill:#000000; fill-opacity:1.000000; stroke:none;fill-rule:evenodd;"
d="M 182.062500,99.725000
181.971613,99.706921
181.894562,99.655438
181.843079,99.578387
181.825000,99.487500
181.825000,98.987500
181.843079,98.896613
181.894562,98.819562
181.971613,98.768079
182.062500,98.750000
182.537500,98.750000
182.628387,98.768079
182.705438,98.819562
182.756921,98.896613
182.775000,98.987500
182.775000,99.487500
182.756921,99.578387
182.705438,99.655438
182.628387,99.706921
182.537500,99.725000
Z" /> 
<path style="fill:#000000; fill-opacity:1.000000; stroke:none;fill-rule:evenodd;"
d="M 182.062500,97.900000
181.971613,97.881921
181.894562,97.830438
181.843079,97.753387
181.825000,97.662500
181.825000,97.162500
181.843079,97.071613
181.894562,96.994562
181.971613,96.943079
182.062500,96.925000
182.537500,96.925000
182.628387,96.943079
182.705438,96.994562
182.756921,97.071613
182.775000,97.162500
182.775000,97.662500
182.756921,97.753387
182.705438,97.830438
182.628387,97.881921
182.537500,97.900000
Z" /> 
<path style="fill:#000000; fill-opacity:1.000000; stroke:none;fill-rule:evenodd;"
d="M 176.250000,139.000000
176.154329,138.980970
176.073223,138.926777
176.019030,138.845671
176.000000,138.750000
176.000000,138.250000
176.019030,138.154329
176.073223,138.073223
176.154329,138.019030
176.250000,138.000000
177.750000,138.000000
177.845671,138.019030
177.926777,138.073223
177.980970,138.154329
178.000000,138.250000
178.000000,138.750000
177.980970,138.845671
177.926777,138.926777
177.845671,138.980970
177.750000,139.000000
Z" /> 
<path style="fill:#000000; fill-opacity:1.000000; stroke:none;fill-rule:evenodd;"
d="M 181.230000,99.467500
181.211921,99.558387
181.160438,99.635438
181.083387,99.686921
180.992500,99.705000
180.492500,99.705000
180.401613,99.686921
180.324562,99.635438
180.273079,99.558387
180.255000,99.467500
180.255000,98.992500
180.273079,98.901613
180.324562,98.824562
180.401613,98.773079
180.492500,98.755000
180.992500,98.755000
181.083387,98.773079
181.160438,98.824562
181.211921,98.901613
181.230000,98.992500
Z" /> 
<path style="fill:#000000; fill-opacity:1.000000; stroke:none;fill-rule:evenodd;"
d="M 179.405000,99.467500
179.386921,99.558387
179.335438,99.635438
179.258387,99.686921
179.167500,99.705000
178.667500,99.705000
178.576613,99.686921
178.499562,99.635438
178.448079,99.558387
178.430000,99.467500
178.430000,98.992500
178.448079,98.901613
178.499562,98.824562
178.576613,98.773079
178.667500,98.755000
179.167500,98.755000
179.258387,98.773079
179.335438,98.824562
179.386921,98.901613
179.405000,98.992500
Z" /> 
<path style="fill:#000000; fill-opacity:1.000000; stroke:none;fill-rule:evenodd;"
d="M 195.112500,84.050000
195.093470,84.145671
195.039277,84.226777
194.958171,84.280970
194.862500,84.300000
194.162500,84.300000
194.066829,84.280970
193.985723,84.226777
193.931530,84.145671
193.912500,84.050000
193.912500,83.150000
193.931530,83.054329
193.985723,82.973223
194.066829,82.919030
194.162500,82.900000
194.862500,82.900000
194.958171,82.919030
195.039277,82.973223
195.093470,83.054329
195.112500,83.150000
Z" /> 
<path style="fill:#000000; fill-opacity:1.000000; stroke:none;fill-rule:evenodd;"
d="M 193.112500,84.050000
193.093470,84.145671
193.039277,84.226777
192.958171,84.280970
192.862500,84.300000
192.162500,84.300000
192.066829,84.280970
191.985723,84.226777
191.931530,84.145671
191.912500,84.050000
191.912500,83.150000
191.931530,83.054329
191.985723,82.973223
192.066829,82.919030
192.162500,82.900000
192.862500,82.900000
192.958171,82.919030
193.039277,82.973223
193.093470,83.054329
193.112500,83.150000
Z" /> 
<path style="fill:#000000; fill-opacity:1.000000; stroke:none;fill-rule:evenodd;"
d="M 197.325000,144.025000
197.229329,144.005970
197.148223,143.951777
197.094030,143.870671
197.075000,143.775000
197.075000,143.100000
197.094030,143.004329
197.148223,142.923223
197.229329,142.869030
197.325000,142.850000
198.275000,142.850000
198.370671,142.869030
198.451777,142.923223
198.505970,143.004329
198.525000,143.100000
198.525000,143.775000
198.505970,143.870671
198.451777,143.951777
198.370671,144.005970
198.275000,144.025000
Z" /> 
<path style="fill:#000000; fill-opacity:1.000000; stroke:none;fill-rule:evenodd;"
d="M 197.325000,141.950000
197.229329,141.930970
197.148223,141.876777
197.094030,141.795671
197.075000,141.700000
197.075000,141.025000
197.094030,140.929329
197.148223,140.848223
197.229329,140.794030
197.325000,140.775000
198.275000,140.775000
198.370671,140.794030
198.451777,140.848223
198.505970,140.929329
198.525000,141.025000
198.525000,141.700000
198.505970,141.795671
198.451777,141.876777
198.370671,141.930970
198.275000,141.950000
Z" /> 
<path style="fill:#000000; fill-opacity:1.000000; stroke:none;fill-rule:evenodd;"
d="M 191.312500,81.387500
191.294421,81.478387
191.242938,81.555438
191.165887,81.606921
191.075000,81.625000
190.575000,81.625000
190.484113,81.606921
190.407062,81.555438
190.355579,81.478387
190.337500,81.387500
190.337500,80.912500
190.355579,80.821613
190.407062,80.744562
190.484113,80.693079
190.575000,80.675000
191.075000,80.675000
191.165887,80.693079
191.242938,80.744562
191.294421,80.821613
191.312500,80.912500
Z" /> 
<path style="fill:#000000; fill-opacity:1.000000; stroke:none;fill-rule:evenodd;"
d="M 189.487500,81.387500
189.469421,81.478387
189.417938,81.555438
189.340887,81.606921
189.250000,81.625000
188.750000,81.625000
188.659113,81.606921
188.582062,81.555438
188.530579,81.478387
188.512500,81.387500
188.512500,80.912500
188.530579,80.821613
188.582062,80.744562
188.659113,80.693079
188.750000,80.675000
189.250000,80.675000
189.340887,80.693079
189.417938,80.744562
189.469421,80.821613
189.487500,80.912500
Z" /> 
<path style="fill:#000000; fill-opacity:1.000000; stroke:none;fill-rule:evenodd;"
d="M 176.382500,91.102500
176.291613,91.084421
176.214562,91.032938
176.163079,90.955887
176.145000,90.865000
176.145000,90.365000
176.163079,90.274113
176.214562,90.197062
176.291613,90.145579
176.382500,90.127500
176.857500,90.127500
176.948387,90.145579
177.025438,90.197062
177.076921,90.274113
177.095000,90.365000
177.095000,90.865000
177.076921,90.955887
177.025438,91.032938
176.948387,91.084421
176.857500,91.102500
Z" /> 
<path style="fill:#000000; fill-opacity:1.000000; stroke:none;fill-rule:evenodd;"
d="M 176.382500,89.277500
176.291613,89.259421
176.214562,89.207938
176.163079,89.130887
176.145000,89.040000
176.145000,88.540000
176.163079,88.449113
176.214562,88.372062
176.291613,88.320579
176.382500,88.302500
176.857500,88.302500
176.948387,88.320579
177.025438,88.372062
177.076921,88.449113
177.095000,88.540000
177.095000,89.040000
177.076921,89.130887
177.025438,89.207938
176.948387,89.259421
176.857500,89.277500
Z" /> 
<path style="fill:#000000; fill-opacity:1.000000; stroke:none;fill-rule:evenodd;"
d="M 176.250000,137.000000
176.154329,136.980970
176.073223,136.926777
176.019030,136.845671
176.000000,136.750000
176.000000,136.250000
176.019030,136.154329
176.073223,136.073223
176.154329,136.019030
176.250000,136.000000
177.750000,136.000000
177.845671,136.019030
177.926777,136.073223
177.980970,136.154329
178.000000,136.250000
178.000000,136.750000
177.980970,136.845671
177.926777,136.926777
177.845671,136.980970
177.750000,137.000000
Z" /> 
<path style="fill:#000000; fill-opacity:1.000000; stroke:none;fill-rule:evenodd;"
d="M 187.725000,91.425000
187.629329,91.405970
187.548223,91.351777
187.494030,91.270671
187.475000,91.175000
187.475000,90.500000
187.494030,90.404329
187.548223,90.323223
187.629329,90.269030
187.725000,90.250000
188.675000,90.250000
188.770671,90.269030
188.851777,90.323223
188.905970,90.404329
188.925000,90.500000
188.925000,91.175000
188.905970,91.270671
188.851777,91.351777
188.770671,91.405970
188.675000,91.425000
Z" /> 
<path style="fill:#000000; fill-opacity:1.000000; stroke:none;fill-rule:evenodd;"
d="M 187.725000,89.350000
187.629329,89.330970
187.548223,89.276777
187.494030,89.195671
187.475000,89.100000
187.475000,88.425000
187.494030,88.329329
187.548223,88.248223
187.629329,88.194030
187.725000,88.175000
188.675000,88.175000
188.770671,88.194030
188.851777,88.248223
188.905970,88.329329
188.925000,88.425000
188.925000,89.100000
188.905970,89.195671
188.851777,89.276777
188.770671,89.330970
188.675000,89.350000
Z" /> 
<path style="fill:#000000; fill-opacity:1.000000; stroke:none;fill-rule:evenodd;"
d="M 202.987500,143.900000
203.078387,143.918079
203.155438,143.969562
203.206921,144.046613
203.225000,144.137500
203.225000,144.637500
203.206921,144.728387
203.155438,144.805438
203.078387,144.856921
202.987500,144.875000
202.512500,144.875000
202.421613,144.856921
202.344562,144.805438
202.293079,144.728387
202.275000,144.637500
202.275000,144.137500
202.293079,144.046613
202.344562,143.969562
202.421613,143.918079
202.512500,143.900000
Z" /> 
<path style="fill:#000000; fill-opacity:1.000000; stroke:none;fill-rule:evenodd;"
d="M 202.987500,145.725000
203.078387,145.743079
203.155438,145.794562
203.206921,145.871613
203.225000,145.962500
203.225000,146.462500
203.206921,146.553387
203.155438,146.630438
203.078387,146.681921
202.987500,146.700000
202.512500,146.700000
202.421613,146.681921
202.344562,146.630438
202.293079,146.553387
202.275000,146.462500
202.275000,145.962500
202.293079,145.871613
202.344562,145.794562
202.421613,145.743079
202.512500,145.725000
Z" /> 
<path style="fill:#000000; fill-opacity:1.000000; stroke:none;fill-rule:evenodd;"
d="M 194.325000,68.475000
194.305970,68.570671
194.251777,68.651777
194.170671,68.705970
194.075000,68.725000
193.400000,68.725000
193.304329,68.705970
193.223223,68.651777
193.169030,68.570671
193.150000,68.475000
193.150000,67.525000
193.169030,67.429329
193.223223,67.348223
193.304329,67.294030
193.400000,67.275000
194.075000,67.275000
194.170671,67.294030
194.251777,67.348223
194.305970,67.429329
194.325000,67.525000
Z" /> 
<path style="fill:#000000; fill-opacity:1.000000; stroke:none;fill-rule:evenodd;"
d="M 192.250000,68.475000
192.230970,68.570671
192.176777,68.651777
192.095671,68.705970
192.000000,68.725000
191.325000,68.725000
191.229329,68.705970
191.148223,68.651777
191.094030,68.570671
191.075000,68.475000
191.075000,67.525000
191.094030,67.429329
191.148223,67.348223
191.229329,67.294030
191.325000,67.275000
192.000000,67.275000
192.095671,67.294030
192.176777,67.348223
192.230970,67.429329
192.250000,67.525000
Z" /> 
<path style="fill:#000000; fill-opacity:1.000000; stroke:none;fill-rule:evenodd;"
d="M 203.750000,130.187500
203.731921,130.278387
203.680438,130.355438
203.603387,130.406921
203.512500,130.425000
203.012500,130.425000
202.921613,130.406921
202.844562,130.355438
202.793079,130.278387
202.775000,130.187500
202.775000,129.712500
202.793079,129.621613
202.844562,129.544562
202.921613,129.493079
203.012500,129.475000
203.512500,129.475000
203.603387,129.493079
203.680438,129.544562
203.731921,129.621613
203.750000,129.712500
Z" /> 
<path style="fill:#000000; fill-opacity:1.000000; stroke:none;fill-rule:evenodd;"
d="M 201.925000,130.187500
201.906921,130.278387
201.855438,130.355438
201.778387,130.406921
201.687500,130.425000
201.187500,130.425000
201.096613,130.406921
201.019562,130.355438
200.968079,130.278387
200.950000,130.187500
200.950000,129.712500
200.968079,129.621613
201.019562,129.544562
201.096613,129.493079
201.187500,129.475000
201.687500,129.475000
201.778387,129.493079
201.855438,129.544562
201.906921,129.621613
201.925000,129.712500
Z" /> 
<path style="fill:#000000; fill-opacity:1.000000; stroke:none;fill-rule:evenodd;"
d="M 198.350000,80.337500
198.292597,80.326082
198.243934,80.293566
198.211418,80.244903
198.200000,80.187500
198.200000,79.012500
198.211418,78.955097
198.243934,78.906434
198.292597,78.873918
198.350000,78.862500
198.650000,78.862500
198.707403,78.873918
198.756066,78.906434
198.788582,78.955097
198.800000,79.012500
198.800000,80.187500
198.788582,80.244903
198.756066,80.293566
198.707403,80.326082
198.650000,80.337500
Z" /> 
<path style="fill:#000000; fill-opacity:1.000000; stroke:none;fill-rule:evenodd;"
d="M 196.450000,80.337500
196.392597,80.326082
196.343934,80.293566
196.311418,80.244903
196.300000,80.187500
196.300000,79.012500
196.311418,78.955097
196.343934,78.906434
196.392597,78.873918
196.450000,78.862500
196.750000,78.862500
196.807403,78.873918
196.856066,78.906434
196.888582,78.955097
196.900000,79.012500
196.900000,80.187500
196.888582,80.244903
196.856066,80.293566
196.807403,80.326082
196.750000,80.337500
Z" /> 
<path style="fill:#000000; fill-opacity:1.000000; stroke:none;fill-rule:evenodd;"
d="M 197.400000,78.462500
197.342597,78.451082
197.293934,78.418566
197.261418,78.369903
197.250000,78.312500
197.250000,77.137500
197.261418,77.080097
197.293934,77.031434
197.342597,76.998918
197.400000,76.987500
197.700000,76.987500
197.757403,76.998918
197.806066,77.031434
197.838582,77.080097
197.850000,77.137500
197.850000,78.312500
197.838582,78.369903
197.806066,78.418566
197.757403,78.451082
197.700000,78.462500
Z" /> 
<path style="fill:#000000; fill-opacity:1.000000; stroke:none;fill-rule:evenodd;"
d="M 203.750000,131.787500
203.731921,131.878387
203.680438,131.955438
203.603387,132.006921
203.512500,132.025000
203.012500,132.025000
202.921613,132.006921
202.844562,131.955438
202.793079,131.878387
202.775000,131.787500
202.775000,131.312500
202.793079,131.221613
202.844562,131.144562
202.921613,131.093079
203.012500,131.075000
203.512500,131.075000
203.603387,131.093079
203.680438,131.144562
203.731921,131.221613
203.750000,131.312500
Z" /> 
<path style="fill:#000000; fill-opacity:1.000000; stroke:none;fill-rule:evenodd;"
d="M 201.925000,131.787500
201.906921,131.878387
201.855438,131.955438
201.778387,132.006921
201.687500,132.025000
201.187500,132.025000
201.096613,132.006921
201.019562,131.955438
200.968079,131.878387
200.950000,131.787500
200.950000,131.312500
200.968079,131.221613
201.019562,131.144562
201.096613,131.093079
201.187500,131.075000
201.687500,131.075000
201.778387,131.093079
201.855438,131.144562
201.906921,131.221613
201.925000,131.312500
Z" /> 
<path style="fill:#000000; fill-opacity:1.000000; stroke:none;fill-rule:evenodd;"
d="M 184.567500,92.000000
184.624903,92.011418
184.673566,92.043934
184.706082,92.092597
184.717500,92.150000
184.717500,93.800000
184.706082,93.857403
184.673566,93.906066
184.624903,93.938582
184.567500,93.950000
184.267500,93.950000
184.210097,93.938582
184.161434,93.906066
184.128918,93.857403
184.117500,93.800000
184.117500,92.150000
184.128918,92.092597
184.161434,92.043934
184.210097,92.011418
184.267500,92.000000
Z" /> 
<path style="fill:#000000; fill-opacity:1.000000; stroke:none;fill-rule:evenodd;"
d="M 185.837500,92.000000
185.894903,92.011418
185.943566,92.043934
185.976082,92.092597
185.987500,92.150000
185.987500,93.800000
185.976082,93.857403
185.943566,93.906066
185.894903,93.938582
185.837500,93.950000
185.537500,93.950000
185.480097,93.938582
185.431434,93.906066
185.398918,93.857403
185.387500,93.800000
185.387500,92.150000
185.398918,92.092597
185.431434,92.043934
185.480097,92.011418
185.537500,92.000000
Z" /> 
<path style="fill:#000000; fill-opacity:1.000000; stroke:none;fill-rule:evenodd;"
d="M 187.107500,92.000000
187.164903,92.011418
187.213566,92.043934
187.246082,92.092597
187.257500,92.150000
187.257500,93.800000
187.246082,93.857403
187.213566,93.906066
187.164903,93.938582
187.107500,93.950000
186.807500,93.950000
186.750097,93.938582
186.701434,93.906066
186.668918,93.857403
186.657500,93.800000
186.657500,92.150000
186.668918,92.092597
186.701434,92.043934
186.750097,92.011418
186.807500,92.000000
Z" /> 
<path style="fill:#000000; fill-opacity:1.000000; stroke:none;fill-rule:evenodd;"
d="M 188.377500,92.000000
188.434903,92.011418
188.483566,92.043934
188.516082,92.092597
188.527500,92.150000
188.527500,93.800000
188.516082,93.857403
188.483566,93.906066
188.434903,93.938582
188.377500,93.950000
188.077500,93.950000
188.020097,93.938582
187.971434,93.906066
187.938918,93.857403
187.927500,93.800000
187.927500,92.150000
187.938918,92.092597
187.971434,92.043934
188.020097,92.011418
188.077500,92.000000
Z" /> 
<path style="fill:#000000; fill-opacity:1.000000; stroke:none;fill-rule:evenodd;"
d="M 189.647500,92.000000
189.704903,92.011418
189.753566,92.043934
189.786082,92.092597
189.797500,92.150000
189.797500,93.800000
189.786082,93.857403
189.753566,93.906066
189.704903,93.938582
189.647500,93.950000
189.347500,93.950000
189.290097,93.938582
189.241434,93.906066
189.208918,93.857403
189.197500,93.800000
189.197500,92.150000
189.208918,92.092597
189.241434,92.043934
189.290097,92.011418
189.347500,92.000000
Z" /> 
<path style="fill:#000000; fill-opacity:1.000000; stroke:none;fill-rule:evenodd;"
d="M 190.917500,92.000000
190.974903,92.011418
191.023566,92.043934
191.056082,92.092597
191.067500,92.150000
191.067500,93.800000
191.056082,93.857403
191.023566,93.906066
190.974903,93.938582
190.917500,93.950000
190.617500,93.950000
190.560097,93.938582
190.511434,93.906066
190.478918,93.857403
190.467500,93.800000
190.467500,92.150000
190.478918,92.092597
190.511434,92.043934
190.560097,92.011418
190.617500,92.000000
Z" /> 
<path style="fill:#000000; fill-opacity:1.000000; stroke:none;fill-rule:evenodd;"
d="M 192.187500,92.000000
192.244903,92.011418
192.293566,92.043934
192.326082,92.092597
192.337500,92.150000
192.337500,93.800000
192.326082,93.857403
192.293566,93.906066
192.244903,93.938582
192.187500,93.950000
191.887500,93.950000
191.830097,93.938582
191.781434,93.906066
191.748918,93.857403
191.737500,93.800000
191.737500,92.150000
191.748918,92.092597
191.781434,92.043934
191.830097,92.011418
191.887500,92.000000
Z" /> 
<path style="fill:#000000; fill-opacity:1.000000; stroke:none;fill-rule:evenodd;"
d="M 192.187500,96.950000
192.244903,96.961418
192.293566,96.993934
192.326082,97.042597
192.337500,97.100000
192.337500,98.750000
192.326082,98.807403
192.293566,98.856066
192.244903,98.888582
192.187500,98.900000
191.887500,98.900000
191.830097,98.888582
191.781434,98.856066
191.748918,98.807403
191.737500,98.750000
191.737500,97.100000
191.748918,97.042597
191.781434,96.993934
191.830097,96.961418
191.887500,96.950000
Z" /> 
<path style="fill:#000000; fill-opacity:1.000000; stroke:none;fill-rule:evenodd;"
d="M 190.917500,96.950000
190.974903,96.961418
191.023566,96.993934
191.056082,97.042597
191.067500,97.100000
191.067500,98.750000
191.056082,98.807403
191.023566,98.856066
190.974903,98.888582
190.917500,98.900000
190.617500,98.900000
190.560097,98.888582
190.511434,98.856066
190.478918,98.807403
190.467500,98.750000
190.467500,97.100000
190.478918,97.042597
190.511434,96.993934
190.560097,96.961418
190.617500,96.950000
Z" /> 
<path style="fill:#000000; fill-opacity:1.000000; stroke:none;fill-rule:evenodd;"
d="M 189.647500,96.950000
189.704903,96.961418
189.753566,96.993934
189.786082,97.042597
189.797500,97.100000
189.797500,98.750000
189.786082,98.807403
189.753566,98.856066
189.704903,98.888582
189.647500,98.900000
189.347500,98.900000
189.290097,98.888582
189.241434,98.856066
189.208918,98.807403
189.197500,98.750000
189.197500,97.100000
189.208918,97.042597
189.241434,96.993934
189.290097,96.961418
189.347500,96.950000
Z" /> 
<path style="fill:#000000; fill-opacity:1.000000; stroke:none;fill-rule:evenodd;"
d="M 188.377500,96.950000
188.434903,96.961418
188.483566,96.993934
188.516082,97.042597
188.527500,97.100000
188.527500,98.750000
188.516082,98.807403
188.483566,98.856066
188.434903,98.888582
188.377500,98.900000
188.077500,98.900000
188.020097,98.888582
187.971434,98.856066
187.938918,98.807403
187.927500,98.750000
187.927500,97.100000
187.938918,97.042597
187.971434,96.993934
188.020097,96.961418
188.077500,96.950000
Z" /> 
<path style="fill:#000000; fill-opacity:1.000000; stroke:none;fill-rule:evenodd;"
d="M 187.107500,96.950000
187.164903,96.961418
187.213566,96.993934
187.246082,97.042597
187.257500,97.100000
187.257500,98.750000
187.246082,98.807403
187.213566,98.856066
187.164903,98.888582
187.107500,98.900000
186.807500,98.900000
186.750097,98.888582
186.701434,98.856066
186.668918,98.807403
186.657500,98.750000
186.657500,97.100000
186.668918,97.042597
186.701434,96.993934
186.750097,96.961418
186.807500,96.950000
Z" /> 
<path style="fill:#000000; fill-opacity:1.000000; stroke:none;fill-rule:evenodd;"
d="M 185.837500,96.950000
185.894903,96.961418
185.943566,96.993934
185.976082,97.042597
185.987500,97.100000
185.987500,98.750000
185.976082,98.807403
185.943566,98.856066
185.894903,98.888582
185.837500,98.900000
185.537500,98.900000
185.480097,98.888582
185.431434,98.856066
185.398918,98.807403
185.387500,98.750000
185.387500,97.100000
185.398918,97.042597
185.431434,96.993934
185.480097,96.961418
185.537500,96.950000
Z" /> 
<path style="fill:#000000; fill-opacity:1.000000; stroke:none;fill-rule:evenodd;"
d="M 184.567500,96.950000
184.624903,96.961418
184.673566,96.993934
184.706082,97.042597
184.717500,97.100000
184.717500,98.750000
184.706082,98.807403
184.673566,98.856066
184.624903,98.888582
184.567500,98.900000
184.267500,98.900000
184.210097,98.888582
184.161434,98.856066
184.128918,98.807403
184.117500,98.750000
184.117500,97.100000
184.128918,97.042597
184.161434,96.993934
184.210097,96.961418
184.267500,96.950000
Z" /> 
<path style="fill:#000000; fill-opacity:1.000000; stroke:none;fill-rule:evenodd;"
d="M 203.237500,143.037500
203.219421,143.128387
203.167938,143.205438
203.090887,143.256921
203.000000,143.275000
202.500000,143.275000
202.409113,143.256921
202.332062,143.205438
202.280579,143.128387
202.262500,143.037500
202.262500,142.562500
202.280579,142.471613
202.332062,142.394562
202.409113,142.343079
202.500000,142.325000
203.000000,142.325000
203.090887,142.343079
203.167938,142.394562
203.219421,142.471613
203.237500,142.562500
Z" /> 
<path style="fill:#000000; fill-opacity:1.000000; stroke:none;fill-rule:evenodd;"
d="M 201.412500,143.037500
201.394421,143.128387
201.342938,143.205438
201.265887,143.256921
201.175000,143.275000
200.675000,143.275000
200.584113,143.256921
200.507062,143.205438
200.455579,143.128387
200.437500,143.037500
200.437500,142.562500
200.455579,142.471613
200.507062,142.394562
200.584113,142.343079
200.675000,142.325000
201.175000,142.325000
201.265887,142.343079
201.342938,142.394562
201.394421,142.471613
201.412500,142.562500
Z" /> 
<path style="fill:#000000; fill-opacity:1.000000; stroke:none;fill-rule:evenodd;"
d="M 194.462500,129.387500
194.371613,129.369421
194.294562,129.317938
194.243079,129.240887
194.225000,129.150000
194.225000,128.650000
194.243079,128.559113
194.294562,128.482062
194.371613,128.430579
194.462500,128.412500
194.937500,128.412500
195.028387,128.430579
195.105438,128.482062
195.156921,128.559113
195.175000,128.650000
195.175000,129.150000
195.156921,129.240887
195.105438,129.317938
195.028387,129.369421
194.937500,129.387500
Z" /> 
<path style="fill:#000000; fill-opacity:1.000000; stroke:none;fill-rule:evenodd;"
d="M 194.462500,127.562500
194.371613,127.544421
194.294562,127.492938
194.243079,127.415887
194.225000,127.325000
194.225000,126.825000
194.243079,126.734113
194.294562,126.657062
194.371613,126.605579
194.462500,126.587500
194.937500,126.587500
195.028387,126.605579
195.105438,126.657062
195.156921,126.734113
195.175000,126.825000
195.175000,127.325000
195.156921,127.415887
195.105438,127.492938
195.028387,127.544421
194.937500,127.562500
Z" /> 
<path style="fill:#000000; fill-opacity:1.000000; stroke:none;fill-rule:evenodd;"
d="M 186.680000,100.217500
186.661921,100.308387
186.610438,100.385438
186.533387,100.436921
186.442500,100.455000
185.942500,100.455000
185.851613,100.436921
185.774562,100.385438
185.723079,100.308387
185.705000,100.217500
185.705000,99.742500
185.723079,99.651613
185.774562,99.574562
185.851613,99.523079
185.942500,99.505000
186.442500,99.505000
186.533387,99.523079
186.610438,99.574562
186.661921,99.651613
186.680000,99.742500
Z" /> 
<path style="fill:#000000; fill-opacity:1.000000; stroke:none;fill-rule:evenodd;"
d="M 184.855000,100.217500
184.836921,100.308387
184.785438,100.385438
184.708387,100.436921
184.617500,100.455000
184.117500,100.455000
184.026613,100.436921
183.949562,100.385438
183.898079,100.308387
183.880000,100.217500
183.880000,99.742500
183.898079,99.651613
183.949562,99.574562
184.026613,99.523079
184.117500,99.505000
184.617500,99.505000
184.708387,99.523079
184.785438,99.574562
184.836921,99.651613
184.855000,99.742500
Z" /> 
<path style="fill:#000000; fill-opacity:1.000000; stroke:none;fill-rule:evenodd;"
d="M 184.165000,91.315000
184.069329,91.295970
183.988223,91.241777
183.934030,91.160671
183.915000,91.065000
183.915000,90.390000
183.934030,90.294329
183.988223,90.213223
184.069329,90.159030
184.165000,90.140000
185.115000,90.140000
185.210671,90.159030
185.291777,90.213223
185.345970,90.294329
185.365000,90.390000
185.365000,91.065000
185.345970,91.160671
185.291777,91.241777
185.210671,91.295970
185.115000,91.315000
Z" /> 
<path style="fill:#000000; fill-opacity:1.000000; stroke:none;fill-rule:evenodd;"
d="M 184.165000,89.240000
184.069329,89.220970
183.988223,89.166777
183.934030,89.085671
183.915000,88.990000
183.915000,88.315000
183.934030,88.219329
183.988223,88.138223
184.069329,88.084030
184.165000,88.065000
185.115000,88.065000
185.210671,88.084030
185.291777,88.138223
185.345970,88.219329
185.365000,88.315000
185.365000,88.990000
185.345970,89.085671
185.291777,89.166777
185.210671,89.220970
185.115000,89.240000
Z" /> 
<path style="fill:#000000; fill-opacity:1.000000; stroke:none;fill-rule:evenodd;"
d="M 197.610000,65.560000
197.629030,65.464329
197.683223,65.383223
197.764329,65.329030
197.860000,65.310000
199.060000,65.310000
199.155671,65.329030
199.236777,65.383223
199.290970,65.464329
199.310000,65.560000
199.310000,66.760000
199.290970,66.855671
199.236777,66.936777
199.155671,66.990970
199.060000,67.010000
197.860000,67.010000
197.764329,66.990970
197.683223,66.936777
197.629030,66.855671
197.610000,66.760000
Z" /> 
</g>
<g style="fill:#000000; fill-opacity:1.000000; stroke:none;">
<circle cx="201.000000" cy="66.160000" r="0.850000" /> 
</g>
<g style="fill:#000000; fill-opacity:1.000000; stroke:none;">
<circle cx="198.460000" cy="63.620000" r="0.850000" /> 
</g>
<g style="fill:#000000; fill-opacity:1.000000; stroke:none;">
<circle cx="201.000000" cy="63.620000" r="0.850000" /> 
</g>
<g style="fill:#000000; fill-opacity:1.000000; stroke:none;">
<circle cx="198.460000" cy="61.080000" r="0.850000" /> 
</g>
<g style="fill:#000000; fill-opacity:1.000000; stroke:none;">
<circle cx="201.000000" cy="61.080000" r="0.850000" /> 
</g>
<g style="fill:#000000; fill-opacity:1.000000; stroke:none;">
<circle cx="198.460000" cy="58.540000" r="0.850000" /> 
</g>
<g style="fill:#000000; fill-opacity:1.000000; stroke:none;">
<circle cx="201.000000" cy="58.540000" r="0.850000" /> 
</g>
<g style="fill:#000000; fill-opacity:1.000000; stroke:none;">
<circle cx="198.460000" cy="56.000000" r="0.850000" /> 
</g>
<g style="fill:#000000; fill-opacity:1.000000; stroke:none;">
<circle cx="201.000000" cy="56.000000" r="0.850000" /> 
<path style="fill:#000000; fill-opacity:1.000000; stroke:none;fill-rule:evenodd;"
d="M 196.487500,143.137500
196.469421,143.228387
196.417938,143.305438
196.340887,143.356921
196.250000,143.375000
195.750000,143.375000
195.659113,143.356921
195.582062,143.305438
195.530579,143.228387
195.512500,143.137500
195.512500,142.662500
195.530579,142.571613
195.582062,142.494562
195.659113,142.443079
195.750000,142.425000
196.250000,142.425000
196.340887,142.443079
196.417938,142.494562
196.469421,142.571613
196.487500,142.662500
Z" /> 
<path style="fill:#000000; fill-opacity:1.000000; stroke:none;fill-rule:evenodd;"
d="M 194.662500,143.137500
194.644421,143.228387
194.592938,143.305438
194.515887,143.356921
194.425000,143.375000
193.925000,143.375000
193.834113,143.356921
193.757062,143.305438
193.705579,143.228387
193.687500,143.137500
193.687500,142.662500
193.705579,142.571613
193.757062,142.494562
193.834113,142.443079
193.925000,142.425000
194.425000,142.425000
194.515887,142.443079
194.592938,142.494562
194.644421,142.571613
194.662500,142.662500
Z" /> 
<path style="fill:#000000; fill-opacity:1.000000; stroke:none;fill-rule:evenodd;"
d="M 196.800000,80.887500
196.857403,80.898918
196.906066,80.931434
196.938582,80.980097
196.950000,81.037500
196.950000,82.212500
196.938582,82.269903
196.906066,82.318566
196.857403,82.351082
196.800000,82.362500
196.500000,82.362500
196.442597,82.351082
196.393934,82.318566
196.361418,82.269903
196.350000,82.212500
196.350000,81.037500
196.361418,80.980097
196.393934,80.931434
196.442597,80.898918
196.500000,80.887500
Z" /> 
<path style="fill:#000000; fill-opacity:1.000000; stroke:none;fill-rule:evenodd;"
d="M 198.700000,80.887500
198.757403,80.898918
198.806066,80.931434
198.838582,80.980097
198.850000,81.037500
198.850000,82.212500
198.838582,82.269903
198.806066,82.318566
198.757403,82.351082
198.700000,82.362500
198.400000,82.362500
198.342597,82.351082
198.293934,82.318566
198.261418,82.269903
198.250000,82.212500
198.250000,81.037500
198.261418,80.980097
198.293934,80.931434
198.342597,80.898918
198.400000,80.887500
Z" /> 
<path style="fill:#000000; fill-opacity:1.000000; stroke:none;fill-rule:evenodd;"
d="M 197.750000,82.762500
197.807403,82.773918
197.856066,82.806434
197.888582,82.855097
197.900000,82.912500
197.900000,84.087500
197.888582,84.144903
197.856066,84.193566
197.807403,84.226082
197.750000,84.237500
197.450000,84.237500
197.392597,84.226082
197.343934,84.193566
197.311418,84.144903
197.300000,84.087500
197.300000,82.912500
197.311418,82.855097
197.343934,82.806434
197.392597,82.773918
197.450000,82.762500
Z" /> 
<path style="fill:#000000; fill-opacity:1.000000; stroke:none;fill-rule:evenodd;"
d="M 191.312500,79.837500
191.294421,79.928387
191.242938,80.005438
191.165887,80.056921
191.075000,80.075000
190.575000,80.075000
190.484113,80.056921
190.407062,80.005438
190.355579,79.928387
190.337500,79.837500
190.337500,79.362500
190.355579,79.271613
190.407062,79.194562
190.484113,79.143079
190.575000,79.125000
191.075000,79.125000
191.165887,79.143079
191.242938,79.194562
191.294421,79.271613
191.312500,79.362500
Z" /> 
<path style="fill:#000000; fill-opacity:1.000000; stroke:none;fill-rule:evenodd;"
d="M 189.487500,79.837500
189.469421,79.928387
189.417938,80.005438
189.340887,80.056921
189.250000,80.075000
188.750000,80.075000
188.659113,80.056921
188.582062,80.005438
188.530579,79.928387
188.512500,79.837500
188.512500,79.362500
188.530579,79.271613
188.582062,79.194562
188.659113,79.143079
188.750000,79.125000
189.250000,79.125000
189.340887,79.143079
189.417938,79.194562
189.469421,79.271613
189.487500,79.362500
Z" /> 
<path style="fill:#000000; fill-opacity:1.000000; stroke:none;fill-rule:evenodd;"
d="M 187.450000,65.960000
187.461418,65.902597
187.493934,65.853934
187.542597,65.821418
187.600000,65.810000
189.250000,65.810000
189.307403,65.821418
189.356066,65.853934
189.388582,65.902597
189.400000,65.960000
189.400000,66.260000
189.388582,66.317403
189.356066,66.366066
189.307403,66.398582
189.250000,66.410000
187.600000,66.410000
187.542597,66.398582
187.493934,66.366066
187.461418,66.317403
187.450000,66.260000
Z" /> 
<path style="fill:#000000; fill-opacity:1.000000; stroke:none;fill-rule:evenodd;"
d="M 187.450000,64.690000
187.461418,64.632597
187.493934,64.583934
187.542597,64.551418
187.600000,64.540000
189.250000,64.540000
189.307403,64.551418
189.356066,64.583934
189.388582,64.632597
189.400000,64.690000
189.400000,64.990000
189.388582,65.047403
189.356066,65.096066
189.307403,65.128582
189.250000,65.140000
187.600000,65.140000
187.542597,65.128582
187.493934,65.096066
187.461418,65.047403
187.450000,64.990000
Z" /> 
<path style="fill:#000000; fill-opacity:1.000000; stroke:none;fill-rule:evenodd;"
d="M 187.450000,63.420000
187.461418,63.362597
187.493934,63.313934
187.542597,63.281418
187.600000,63.270000
189.250000,63.270000
189.307403,63.281418
189.356066,63.313934
189.388582,63.362597
189.400000,63.420000
189.400000,63.720000
189.388582,63.777403
189.356066,63.826066
189.307403,63.858582
189.250000,63.870000
187.600000,63.870000
187.542597,63.858582
187.493934,63.826066
187.461418,63.777403
187.450000,63.720000
Z" /> 
<path style="fill:#000000; fill-opacity:1.000000; stroke:none;fill-rule:evenodd;"
d="M 187.450000,62.150000
187.461418,62.092597
187.493934,62.043934
187.542597,62.011418
187.600000,62.000000
189.250000,62.000000
189.307403,62.011418
189.356066,62.043934
189.388582,62.092597
189.400000,62.150000
189.400000,62.450000
189.388582,62.507403
189.356066,62.556066
189.307403,62.588582
189.250000,62.600000
187.600000,62.600000
187.542597,62.588582
187.493934,62.556066
187.461418,62.507403
187.450000,62.450000
Z" /> 
<path style="fill:#000000; fill-opacity:1.000000; stroke:none;fill-rule:evenodd;"
d="M 187.450000,60.880000
187.461418,60.822597
187.493934,60.773934
187.542597,60.741418
187.600000,60.730000
189.250000,60.730000
189.307403,60.741418
189.356066,60.773934
189.388582,60.822597
189.400000,60.880000
189.400000,61.180000
189.388582,61.237403
189.356066,61.286066
189.307403,61.318582
189.250000,61.330000
187.600000,61.330000
187.542597,61.318582
187.493934,61.286066
187.461418,61.237403
187.450000,61.180000
Z" /> 
<path style="fill:#000000; fill-opacity:1.000000; stroke:none;fill-rule:evenodd;"
d="M 187.450000,59.610000
187.461418,59.552597
187.493934,59.503934
187.542597,59.471418
187.600000,59.460000
189.250000,59.460000
189.307403,59.471418
189.356066,59.503934
189.388582,59.552597
189.400000,59.610000
189.400000,59.910000
189.388582,59.967403
189.356066,60.016066
189.307403,60.048582
189.250000,60.060000
187.600000,60.060000
187.542597,60.048582
187.493934,60.016066
187.461418,59.967403
187.450000,59.910000
Z" /> 
<path style="fill:#000000; fill-opacity:1.000000; stroke:none;fill-rule:evenodd;"
d="M 187.450000,58.340000
187.461418,58.282597
187.493934,58.233934
187.542597,58.201418
187.600000,58.190000
189.250000,58.190000
189.307403,58.201418
189.356066,58.233934
189.388582,58.282597
189.400000,58.340000
189.400000,58.640000
189.388582,58.697403
189.356066,58.746066
189.307403,58.778582
189.250000,58.790000
187.600000,58.790000
187.542597,58.778582
187.493934,58.746066
187.461418,58.697403
187.450000,58.640000
Z" /> 
<path style="fill:#000000; fill-opacity:1.000000; stroke:none;fill-rule:evenodd;"
d="M 192.400000,58.340000
192.411418,58.282597
192.443934,58.233934
192.492597,58.201418
192.550000,58.190000
194.200000,58.190000
194.257403,58.201418
194.306066,58.233934
194.338582,58.282597
194.350000,58.340000
194.350000,58.640000
194.338582,58.697403
194.306066,58.746066
194.257403,58.778582
194.200000,58.790000
192.550000,58.790000
192.492597,58.778582
192.443934,58.746066
192.411418,58.697403
192.400000,58.640000
Z" /> 
<path style="fill:#000000; fill-opacity:1.000000; stroke:none;fill-rule:evenodd;"
d="M 192.400000,59.610000
192.411418,59.552597
192.443934,59.503934
192.492597,59.471418
192.550000,59.460000
194.200000,59.460000
194.257403,59.471418
194.306066,59.503934
194.338582,59.552597
194.350000,59.610000
194.350000,59.910000
194.338582,59.967403
194.306066,60.016066
194.257403,60.048582
194.200000,60.060000
192.550000,60.060000
192.492597,60.048582
192.443934,60.016066
192.411418,59.967403
192.400000,59.910000
Z" /> 
<path style="fill:#000000; fill-opacity:1.000000; stroke:none;fill-rule:evenodd;"
d="M 192.400000,60.880000
192.411418,60.822597
192.443934,60.773934
192.492597,60.741418
192.550000,60.730000
194.200000,60.730000
194.257403,60.741418
194.306066,60.773934
194.338582,60.822597
194.350000,60.880000
194.350000,61.180000
194.338582,61.237403
194.306066,61.286066
194.257403,61.318582
194.200000,61.330000
192.550000,61.330000
192.492597,61.318582
192.443934,61.286066
192.411418,61.237403
192.400000,61.180000
Z" /> 
<path style="fill:#000000; fill-opacity:1.000000; stroke:none;fill-rule:evenodd;"
d="M 192.400000,62.150000
192.411418,62.092597
192.443934,62.043934
192.492597,62.011418
192.550000,62.000000
194.200000,62.000000
194.257403,62.011418
194.306066,62.043934
194.338582,62.092597
194.350000,62.150000
194.350000,62.450000
194.338582,62.507403
194.306066,62.556066
194.257403,62.588582
194.200000,62.600000
192.550000,62.600000
192.492597,62.588582
192.443934,62.556066
192.411418,62.507403
192.400000,62.450000
Z" /> 
<path style="fill:#000000; fill-opacity:1.000000; stroke:none;fill-rule:evenodd;"
d="M 192.400000,63.420000
192.411418,63.362597
192.443934,63.313934
192.492597,63.281418
192.550000,63.270000
194.200000,63.270000
194.257403,63.281418
194.306066,63.313934
194.338582,63.362597
194.350000,63.420000
194.350000,63.720000
194.338582,63.777403
194.306066,63.826066
194.257403,63.858582
194.200000,63.870000
192.550000,63.870000
192.492597,63.858582
192.443934,63.826066
192.411418,63.777403
192.400000,63.720000
Z" /> 
<path style="fill:#000000; fill-opacity:1.000000; stroke:none;fill-rule:evenodd;"
d="M 192.400000,64.690000
192.411418,64.632597
192.443934,64.583934
192.492597,64.551418
192.550000,64.540000
194.200000,64.540000
194.257403,64.551418
194.306066,64.583934
194.338582,64.632597
194.350000,64.690000
194.350000,64.990000
194.338582,65.047403
194.306066,65.096066
194.257403,65.128582
194.200000,65.140000
192.550000,65.140000
192.492597,65.128582
192.443934,65.096066
192.411418,65.047403
192.400000,64.990000
Z" /> 
<path style="fill:#000000; fill-opacity:1.000000; stroke:none;fill-rule:evenodd;"
d="M 192.400000,65.960000
192.411418,65.902597
192.443934,65.853934
192.492597,65.821418
192.550000,65.810000
194.200000,65.810000
194.257403,65.821418
194.306066,65.853934
194.338582,65.902597
194.350000,65.960000
194.350000,66.260000
194.338582,66.317403
194.306066,66.366066
194.257403,66.398582
194.200000,66.410000
192.550000,66.410000
192.492597,66.398582
192.443934,66.366066
192.411418,66.317403
192.400000,66.260000
Z" /> 
<path style="fill:#000000; fill-opacity:1.000000; stroke:none;fill-rule:evenodd;"
d="M 200.450000,141.062500
200.468079,140.971613
200.519562,140.894562
200.596613,140.843079
200.687500,140.825000
201.187500,140.825000
201.278387,140.843079
201.355438,140.894562
201.406921,140.971613
201.425000,141.062500
201.425000,141.537500
201.406921,141.628387
201.355438,141.705438
201.278387,141.756921
201.187500,141.775000
200.687500,141.775000
200.596613,141.756921
200.519562,141.705438
200.468079,141.628387
200.450000,141.537500
Z" /> 
<path style="fill:#000000; fill-opacity:1.000000; stroke:none;fill-rule:evenodd;"
d="M 202.275000,141.062500
202.293079,140.971613
202.344562,140.894562
202.421613,140.843079
202.512500,140.825000
203.012500,140.825000
203.103387,140.843079
203.180438,140.894562
203.231921,140.971613
203.250000,141.062500
203.250000,141.537500
203.231921,141.628387
203.180438,141.705438
203.103387,141.756921
203.012500,141.775000
202.512500,141.775000
202.421613,141.756921
202.344562,141.705438
202.293079,141.628387
202.275000,141.537500
Z" /> 
<path style="fill:#000000; fill-opacity:1.000000; stroke:none;fill-rule:evenodd;"
d="M 196.487500,141.537500
196.469421,141.628387
196.417938,141.705438
196.340887,141.756921
196.250000,141.775000
195.750000,141.775000
195.659113,141.756921
195.582062,141.705438
195.530579,141.628387
195.512500,141.537500
195.512500,141.062500
195.530579,140.971613
195.582062,140.894562
195.659113,140.843079
195.750000,140.825000
196.250000,140.825000
196.340887,140.843079
196.417938,140.894562
196.469421,140.971613
196.487500,141.062500
Z" /> 
<path style="fill:#000000; fill-opacity:1.000000; stroke:none;fill-rule:evenodd;"
d="M 194.662500,141.537500
194.644421,141.628387
194.592938,141.705438
194.515887,141.756921
194.425000,141.775000
193.925000,141.775000
193.834113,141.756921
193.757062,141.705438
193.705579,141.628387
193.687500,141.537500
193.687500,141.062500
193.705579,140.971613
193.757062,140.894562
193.834113,140.843079
193.925000,140.825000
194.425000,140.825000
194.515887,140.843079
194.592938,140.894562
194.644421,140.971613
194.662500,141.062500
Z" /> 
<path style="fill:#000000; fill-opacity:1.000000; stroke:none;fill-rule:evenodd;"
d="M 191.312500,78.237500
191.294421,78.328387
191.242938,78.405438
191.165887,78.456921
191.075000,78.475000
190.575000,78.475000
190.484113,78.456921
190.407062,78.405438
190.355579,78.328387
190.337500,78.237500
190.337500,77.762500
190.355579,77.671613
190.407062,77.594562
190.484113,77.543079
190.575000,77.525000
191.075000,77.525000
191.165887,77.543079
191.242938,77.594562
191.294421,77.671613
191.312500,77.762500
Z" /> 
<path style="fill:#000000; fill-opacity:1.000000; stroke:none;fill-rule:evenodd;"
d="M 189.487500,78.237500
189.469421,78.328387
189.417938,78.405438
189.340887,78.456921
189.250000,78.475000
188.750000,78.475000
188.659113,78.456921
188.582062,78.405438
188.530579,78.328387
188.512500,78.237500
188.512500,77.762500
188.530579,77.671613
188.582062,77.594562
188.659113,77.543079
188.750000,77.525000
189.250000,77.525000
189.340887,77.543079
189.417938,77.594562
189.469421,77.671613
189.487500,77.762500
Z" /> 
<path style="fill:#000000; fill-opacity:1.000000; stroke:none;fill-rule:evenodd;"
d="M 187.825000,102.735000
187.729329,102.715970
187.648223,102.661777
187.594030,102.580671
187.575000,102.485000
187.575000,101.810000
187.594030,101.714329
187.648223,101.633223
187.729329,101.579030
187.825000,101.560000
188.775000,101.560000
188.870671,101.579030
188.951777,101.633223
189.005970,101.714329
189.025000,101.810000
189.025000,102.485000
189.005970,102.580671
188.951777,102.661777
188.870671,102.715970
188.775000,102.735000
Z" /> 
<path style="fill:#000000; fill-opacity:1.000000; stroke:none;fill-rule:evenodd;"
d="M 187.825000,100.660000
187.729329,100.640970
187.648223,100.586777
187.594030,100.505671
187.575000,100.410000
187.575000,99.735000
187.594030,99.639329
187.648223,99.558223
187.729329,99.504030
187.825000,99.485000
188.775000,99.485000
188.870671,99.504030
188.951777,99.558223
189.005970,99.639329
189.025000,99.735000
189.025000,100.410000
189.005970,100.505671
188.951777,100.586777
188.870671,100.640970
188.775000,100.660000
Z" /> 
<path style="fill:#000000; fill-opacity:1.000000; stroke:none;fill-rule:evenodd;"
d="M 200.537500,79.000000
200.628387,79.018079
200.705438,79.069562
200.756921,79.146613
200.775000,79.237500
200.775000,79.737500
200.756921,79.828387
200.705438,79.905438
200.628387,79.956921
200.537500,79.975000
200.062500,79.975000
199.971613,79.956921
199.894562,79.905438
199.843079,79.828387
199.825000,79.737500
199.825000,79.237500
199.843079,79.146613
199.894562,79.069562
199.971613,79.018079
200.062500,79.000000
Z" /> 
<path style="fill:#000000; fill-opacity:1.000000; stroke:none;fill-rule:evenodd;"
d="M 200.537500,80.825000
200.628387,80.843079
200.705438,80.894562
200.756921,80.971613
200.775000,81.062500
200.775000,81.562500
200.756921,81.653387
200.705438,81.730438
200.628387,81.781921
200.537500,81.800000
200.062500,81.800000
199.971613,81.781921
199.894562,81.730438
199.843079,81.653387
199.825000,81.562500
199.825000,81.062500
199.843079,80.971613
199.894562,80.894562
199.971613,80.843079
200.062500,80.825000
Z" /> 
<path style="fill:#000000; fill-opacity:1.000000; stroke:none;fill-rule:evenodd;"
d="M 197.775000,132.625000
197.679329,132.605970
197.598223,132.551777
197.544030,132.470671
197.525000,132.375000
197.525000,131.700000
197.544030,131.604329
197.598223,131.523223
197.679329,131.469030
197.775000,131.450000
198.725000,131.450000
198.820671,131.469030
198.901777,131.523223
198.955970,131.604329
198.975000,131.700000
198.975000,132.375000
198.955970,132.470671
198.901777,132.551777
198.820671,132.605970
198.725000,132.625000
Z" /> 
<path style="fill:#000000; fill-opacity:1.000000; stroke:none;fill-rule:evenodd;"
d="M 197.775000,130.550000
197.679329,130.530970
197.598223,130.476777
197.544030,130.395671
197.525000,130.300000
197.525000,129.625000
197.544030,129.529329
197.598223,129.448223
197.679329,129.394030
197.775000,129.375000
198.725000,129.375000
198.820671,129.394030
198.901777,129.448223
198.955970,129.529329
198.975000,129.625000
198.975000,130.300000
198.955970,130.395671
198.901777,130.476777
198.820671,130.530970
198.725000,130.550000
Z" /> 
<path style="fill:#000000; fill-opacity:1.000000; stroke:none;fill-rule:evenodd;"
d="M 195.112500,82.050000
195.093470,82.145671
195.039277,82.226777
194.958171,82.280970
194.862500,82.300000
194.162500,82.300000
194.066829,82.280970
193.985723,82.226777
193.931530,82.145671
193.912500,82.050000
193.912500,81.150000
193.931530,81.054329
193.985723,80.973223
194.066829,80.919030
194.162500,80.900000
194.862500,80.900000
194.958171,80.919030
195.039277,80.973223
195.093470,81.054329
195.112500,81.150000
Z" /> 
<path style="fill:#000000; fill-opacity:1.000000; stroke:none;fill-rule:evenodd;"
d="M 193.112500,82.050000
193.093470,82.145671
193.039277,82.226777
192.958171,82.280970
192.862500,82.300000
192.162500,82.300000
192.066829,82.280970
191.985723,82.226777
191.931530,82.145671
191.912500,82.050000
191.912500,81.150000
191.931530,81.054329
191.985723,80.973223
192.066829,80.919030
192.162500,80.900000
192.862500,80.900000
192.958171,80.919030
193.039277,80.973223
193.093470,81.054329
193.112500,81.150000
Z" /> 
<path style="fill:#000000; fill-opacity:1.000000; stroke:none;fill-rule:evenodd;"
d="M 199.300000,121.725000
199.317127,121.638896
199.365901,121.565901
199.438896,121.517127
199.525000,121.500000
199.975000,121.500000
200.061104,121.517127
200.134099,121.565901
200.182873,121.638896
200.200000,121.725000
200.200000,122.475000
200.182873,122.561104
200.134099,122.634099
200.061104,122.682873
199.975000,122.700000
199.525000,122.700000
199.438896,122.682873
199.365901,122.634099
199.317127,122.561104
199.300000,122.475000
Z" /> 
<path style="fill:#000000; fill-opacity:1.000000; stroke:none;fill-rule:evenodd;"
d="M 202.600000,121.725000
202.617127,121.638896
202.665901,121.565901
202.738896,121.517127
202.825000,121.500000
203.275000,121.500000
203.361104,121.517127
203.434099,121.565901
203.482873,121.638896
203.500000,121.725000
203.500000,122.475000
203.482873,122.561104
203.434099,122.634099
203.361104,122.682873
203.275000,122.700000
202.825000,122.700000
202.738896,122.682873
202.665901,122.634099
202.617127,122.561104
202.600000,122.475000
Z" /> 
<path style="fill:#000000; fill-opacity:1.000000; stroke:none;fill-rule:evenodd;"
d="M 195.112500,80.050000
195.093470,80.145671
195.039277,80.226777
194.958171,80.280970
194.862500,80.300000
194.162500,80.300000
194.066829,80.280970
193.985723,80.226777
193.931530,80.145671
193.912500,80.050000
193.912500,79.150000
193.931530,79.054329
193.985723,78.973223
194.066829,78.919030
194.162500,78.900000
194.862500,78.900000
194.958171,78.919030
195.039277,78.973223
195.093470,79.054329
195.112500,79.150000
Z" /> 
<path style="fill:#000000; fill-opacity:1.000000; stroke:none;fill-rule:evenodd;"
d="M 193.112500,80.050000
193.093470,80.145671
193.039277,80.226777
192.958171,80.280970
192.862500,80.300000
192.162500,80.300000
192.066829,80.280970
191.985723,80.226777
191.931530,80.145671
191.912500,80.050000
191.912500,79.150000
191.931530,79.054329
191.985723,78.973223
192.066829,78.919030
192.162500,78.900000
192.862500,78.900000
192.958171,78.919030
193.039277,78.973223
193.093470,79.054329
193.112500,79.150000
Z" /> 
</g> 
</svg>
