%TF.GenerationSoftware,KiCad,Pcbnew,5.1.9+dfsg1-1~bpo10+1*%
%TF.CreationDate,2021-11-05T16:17:06+08:00*%
%TF.ProjectId,MiniOSC,4d696e69-4f53-4432-9e6b-696361645f70,rev?*%
%TF.SameCoordinates,Original*%
%TF.FileFunction,Profile,NP*%
%FSLAX46Y46*%
G04 Gerber Fmt 4.6, Leading zero omitted, Abs format (unit mm)*
G04 Created by KiCad (PCBNEW 5.1.9+dfsg1-1~bpo10+1) date 2021-11-05 16:17:06*
%MOMM*%
%LPD*%
G01*
G04 APERTURE LIST*
%TA.AperFunction,Profile*%
%ADD10C,0.100000*%
%TD*%
G04 APERTURE END LIST*
D10*
X70000000Y-66000000D02*
G75*
G02*
X72000000Y-66000000I1000000J0D01*
G01*
X72000000Y-62000000D02*
G75*
G02*
X70000000Y-62000000I-1000000J0D01*
G01*
X70000000Y-45000000D02*
X70000000Y-62000000D01*
X72000000Y-62000000D02*
X72000000Y-55000000D01*
X102000000Y-66000000D02*
G75*
G02*
X104000000Y-66000000I1000000J0D01*
G01*
X104000000Y-62000000D02*
G75*
G02*
X102000000Y-62000000I-1000000J0D01*
G01*
X102000000Y-55000000D02*
X102000000Y-62000000D01*
X104000000Y-62000000D02*
X104000000Y-55000000D01*
X122550000Y-163500000D02*
X134100000Y-163500000D01*
X134100000Y-55000000D02*
X122550000Y-55000000D01*
X104000000Y-66000000D02*
X104050000Y-141000000D01*
X102000000Y-141000000D02*
X102000000Y-66000000D01*
X102000000Y-144979905D02*
G75*
G02*
X104049803Y-145000000I1024803J-20095D01*
G01*
X104050000Y-141000000D02*
G75*
G02*
X102000000Y-141000000I-1025000J0D01*
G01*
X69998751Y-145000000D02*
G75*
G02*
X72000000Y-144950000I1001249J0D01*
G01*
X71999261Y-141038431D02*
G75*
G02*
X70000000Y-141000000I-999261J38431D01*
G01*
X69998751Y-145000000D02*
X70000000Y-173500000D01*
X71999261Y-141038431D02*
X72000000Y-66000000D01*
X134100000Y-55000000D02*
X134100000Y-163500000D01*
X104000000Y-55000000D02*
X122550000Y-55000000D01*
X104050000Y-163500000D02*
X104049803Y-145000000D01*
X122550000Y-163500000D02*
X104050000Y-163500000D01*
X72025000Y-163500000D02*
X72000000Y-144950000D01*
X102000000Y-163500000D02*
X72025000Y-163500000D01*
X102000000Y-144979905D02*
X102000000Y-163500000D01*
X72000000Y-55000000D02*
X102000000Y-55000000D01*
X67750000Y-71000000D02*
G75*
G03*
X67750000Y-71000000I-2500000J0D01*
G01*
X63900000Y-171600000D02*
X67900000Y-171600000D01*
X63900000Y-171600000D02*
G75*
G02*
X63900000Y-169400000I0J1100000D01*
G01*
X63900000Y-169400000D02*
X67900000Y-169400000D01*
X67900000Y-169400000D02*
G75*
G02*
X67900000Y-171600000I0J-1100000D01*
G01*
X42600000Y-49100000D02*
X46600000Y-49100000D01*
X42600000Y-46900000D02*
X46600000Y-46900000D01*
X46600000Y-46900000D02*
G75*
G02*
X46600000Y-49100000I0J-1100000D01*
G01*
X42600000Y-49100000D02*
G75*
G02*
X42600000Y-46900000I0J1100000D01*
G01*
X45500000Y-158000000D02*
G75*
G03*
X45500000Y-158000000I-1500000J0D01*
G01*
X63000000Y-132000000D02*
G75*
G03*
X63000000Y-132000000I-4000000J0D01*
G01*
X63000000Y-109500000D02*
G75*
G03*
X63000000Y-109500000I-4000000J0D01*
G01*
X63000000Y-87500000D02*
G75*
G03*
X63000000Y-87500000I-4000000J0D01*
G01*
X55500000Y-66000000D02*
G75*
G03*
X55500000Y-66000000I-4000000J0D01*
G01*
X56000000Y-156000000D02*
G75*
G03*
X56000000Y-156000000I-3000000J0D01*
G01*
X67041381Y-156000000D02*
G75*
G03*
X67041381Y-156000000I-3041381J0D01*
G01*
X49000000Y-140500000D02*
G75*
G03*
X49000000Y-140500000I-3000000J0D01*
G01*
X49041381Y-121000000D02*
G75*
G03*
X49041381Y-121000000I-3041381J0D01*
G01*
X70000000Y-173500000D02*
X40000000Y-173500000D01*
X70000000Y-66000000D02*
X70000000Y-141000000D01*
X40000000Y-45000000D02*
X70000000Y-45000000D01*
X40000000Y-45000000D02*
X40000000Y-173500000D01*
M02*
