M48
; DRILL file {KiCad 5.1.9+dfsg1-1~bpo10+1} date Fri Nov  5 16:50:28 2021
; FORMAT={2:4/ absolute / inch / suppress leading zeros}
; #@! TF.CreationDate,2021-11-05T16:50:28+08:00
; #@! TF.GenerationSoftware,Kicad,Pcbnew,5.1.9+dfsg1-1~bpo10+1
FMAT,2
INCH,TZ
T1C0.0157
T2C0.0295
T3C0.0315
T4C0.0354
T5C0.0374
T6C0.0394
T7C0.0433
T8C0.0480
T9C0.0559
T10C0.0563
T11C0.0197
T12C0.1260
%
G90
G05
T1
X30709Y-30906
X30709Y-31299
X30709Y-31693
X30709Y-32087
X30709Y-32480
X30709Y-32874
X30709Y-33268
X30709Y-33661
X30709Y-34055
X30709Y-37008
X30709Y-37402
X30709Y-37795
X31102Y-30906
X31102Y-31299
X31102Y-31693
X31102Y-32087
X31102Y-32480
X31102Y-32874
X31102Y-33268
X31102Y-33661
X31102Y-34055
X31102Y-37008
X31102Y-37402
X31102Y-37795
X31102Y-38189
X31496Y-37402
X31496Y-37795
X31496Y-38189
X31496Y-38583
X31890Y-37795
X31890Y-38189
X31890Y-38583
X31890Y-38976
X32283Y-38189
X32283Y-38583
X32283Y-38976
X32283Y-39370
X32677Y-38583
X32677Y-38976
X32677Y-39370
X32677Y-39764
X33071Y-38976
X33071Y-39370
X33071Y-39764
X33268Y-30906
X33268Y-31299
X33268Y-55906
X33661Y-30906
X33661Y-31299
X33661Y-45669
X33661Y-46063
X33661Y-46457
X33661Y-46850
X33661Y-47244
X33661Y-47638
X33661Y-48031
X33661Y-48425
X33661Y-48819
X33661Y-49213
X33661Y-55906
X33661Y-56299
X34055Y-30906
X34055Y-31299
X34055Y-45669
X34055Y-46063
X34055Y-46457
X34055Y-46850
X34055Y-47244
X34055Y-47638
X34055Y-48031
X34055Y-48425
X34055Y-48819
X34055Y-49213
X34055Y-55906
X34055Y-56299
X34055Y-56693
X34449Y-30906
X34449Y-31299
X34449Y-45669
X34449Y-46063
X34449Y-46457
X34449Y-46850
X34449Y-47244
X34449Y-47638
X34449Y-48031
X34449Y-48425
X34449Y-48819
X34449Y-49213
X34449Y-55906
X34449Y-56299
X34449Y-56693
X34449Y-57087
X34646Y-27756
X34646Y-28150
X34646Y-28543
X34646Y-28937
X34843Y-30906
X34843Y-31299
X34843Y-45669
X34843Y-46063
X34843Y-46457
X34843Y-46850
X34843Y-47244
X34843Y-47638
X34843Y-48031
X34843Y-48425
X34843Y-48819
X34843Y-49213
X34843Y-55906
X34843Y-56299
X34843Y-56693
X34843Y-57087
X34843Y-57480
X35039Y-27756
X35039Y-28150
X35039Y-28543
X35039Y-28937
X35236Y-30906
X35236Y-31299
X35236Y-45669
X35236Y-46063
X35236Y-46457
X35236Y-46850
X35236Y-47244
X35236Y-47638
X35236Y-48031
X35236Y-48425
X35236Y-48819
X35236Y-49213
X35236Y-55906
X35236Y-56299
X35236Y-56693
X35236Y-57087
X35236Y-57480
X35236Y-57874
X35630Y-45669
X35630Y-46063
X35630Y-55906
X35630Y-56299
X35630Y-56693
X35630Y-57087
X35630Y-57480
X35630Y-57874
X36024Y-45669
X36024Y-46063
X36024Y-55906
X36024Y-56299
X36024Y-56693
X36024Y-57087
X36024Y-57480
X36024Y-57874
X36417Y-26378
X36417Y-26772
X36417Y-27165
X36417Y-27559
X36417Y-27953
X36417Y-28346
X36417Y-28740
X36417Y-29134
X36417Y-29528
X36417Y-45669
X36417Y-46063
X36417Y-55906
X36417Y-56299
X36417Y-56693
X36417Y-57087
X36417Y-57480
X36417Y-57874
X36811Y-26378
X36811Y-26772
X36811Y-27165
X36811Y-27559
X36811Y-27953
X36811Y-28346
X36811Y-28740
X36811Y-29134
X36811Y-29528
X36811Y-45669
X36811Y-46063
X36811Y-55906
X36811Y-56299
X36811Y-56693
X36811Y-57087
X36811Y-57480
X36811Y-57874
X37205Y-26378
X37205Y-26772
X37205Y-27165
X37205Y-27559
X37205Y-27953
X37205Y-28346
X37205Y-28740
X37205Y-29134
X37205Y-29528
X37205Y-45669
X37205Y-46063
X37205Y-55906
X37205Y-56299
X37205Y-56693
X37205Y-57087
X37205Y-57480
X37205Y-57874
X37598Y-26378
X37598Y-26772
X37598Y-29528
X37598Y-45669
X37598Y-46063
X37598Y-55906
X37598Y-56299
X37598Y-56693
X37598Y-57087
X37598Y-57480
X37598Y-57874
X37992Y-45669
X37992Y-46063
X37992Y-55906
X37992Y-56299
X37992Y-56693
X37992Y-57087
X37992Y-57480
X37992Y-57874
X38386Y-45669
X38386Y-46063
X38386Y-55906
X38386Y-56299
X38386Y-56693
X38386Y-57087
X38386Y-57480
X38386Y-57874
X43110Y-36417
X43110Y-36811
X43110Y-37205
X43110Y-37598
X43110Y-37992
X43504Y-36417
X43504Y-36811
X43504Y-37205
X43504Y-37598
X43898Y-36417
X43898Y-36811
X43898Y-37205
X44291Y-36417
X44291Y-36811
X44488Y-39764
X44488Y-40157
X44488Y-40551
X44488Y-40945
X44488Y-41339
X44488Y-41732
X44488Y-42126
X44488Y-42520
X44685Y-36417
X44882Y-42520
X47047Y-48228
X47047Y-48622
X47441Y-48228
X47441Y-48622
X47441Y-49016
X47835Y-48228
X47835Y-48622
X47835Y-49016
X47835Y-49409
X48228Y-48228
X48228Y-48622
X48228Y-49016
X48228Y-49409
X48228Y-49803
X49409Y-43504
X49409Y-43898
X49409Y-44291
X49409Y-44685
X49409Y-45079
X49409Y-45472
X49409Y-45866
X49409Y-46260
X49803Y-43504
X49803Y-43898
X49803Y-44291
X49803Y-44685
X49803Y-45079
X49803Y-45472
X49803Y-45866
X49803Y-46260
X50197Y-43504
X50197Y-43898
X50197Y-44291
X50197Y-44685
X50197Y-45079
X50197Y-45472
X50197Y-45866
X50197Y-46260
X50591Y-43504
X50591Y-43898
X50591Y-44291
X50591Y-44685
X50591Y-45079
X50591Y-45472
X50591Y-45866
X50591Y-46260
X50984Y-43504
X50984Y-43898
X50984Y-44291
X50984Y-44685
X50984Y-45079
X50984Y-45472
X50984Y-45866
X50984Y-46260
T2
X49669Y-39882
X49685Y-41575
X50169Y-39882
X50185Y-41575
X50669Y-39882
X50685Y-41575
T3
X30315Y-60303
X30315Y-61303
X30315Y-62303
X35976Y-30906
X38976Y-30906
X42118Y-48465
X42118Y-49465
X42118Y-50465
X42118Y-51465
X42118Y-52465
X42118Y-53465
X42118Y-54465
X42126Y-56370
X42126Y-59370
X42126Y-60307
X42126Y-63307
X42953Y-23209
X42953Y-24193
X43228Y-45669
X43228Y-47047
X43465Y-57283
X43465Y-59252
X43465Y-60276
X43465Y-63276
X44795Y-57126
X44795Y-58126
X44795Y-59126
X44795Y-60126
X44795Y-61126
X44795Y-62126
X44795Y-63126
X45118Y-48465
X45118Y-49465
X45118Y-50465
X45118Y-51465
X45118Y-52465
X45118Y-53465
X45118Y-54465
X45197Y-45669
X45197Y-47047
X45512Y-44055
X45524Y-34134
X45524Y-35374
X45524Y-37854
X45524Y-39094
X45524Y-40335
X45524Y-41575
X45524Y-42815
X45531Y-36614
X45551Y-31378
X46535Y-31378
X46823Y-54508
X46843Y-50984
X46843Y-53287
X46850Y-52087
X47362Y-45748
X47362Y-46732
X47795Y-57126
X47795Y-58126
X47795Y-59126
X47795Y-60126
X47795Y-61126
X47795Y-62126
X47795Y-63126
X48512Y-44055
X48524Y-34134
X48524Y-35374
X48524Y-37854
X48524Y-39094
X48524Y-40335
X48524Y-41575
X48524Y-42815
X48531Y-36614
X48898Y-60669
X48898Y-61929
X48898Y-63189
X48976Y-59370
X49567Y-57126
X49685Y-34173
X49685Y-35472
X49705Y-36772
X49705Y-38071
X49823Y-54508
X49843Y-50984
X49843Y-53287
X49850Y-52087
X50551Y-57126
X50669Y-34173
X50669Y-35472
X50689Y-36772
X50689Y-38071
X50945Y-59370
X51898Y-60669
X51898Y-61929
X51898Y-63189
T4
X37894Y-27953
X38894Y-27953
T5
X46299Y-23209
X46299Y-24193
X46299Y-25177
X46299Y-26161
X46299Y-27146
X46299Y-28130
T6
X29528Y-28543
X29528Y-29543
X29528Y-30543
X29528Y-31543
X29528Y-32543
X29528Y-33543
X29528Y-34543
X29528Y-35543
X29528Y-36543
X29528Y-37543
X29528Y-38543
X29528Y-39543
X29528Y-40543
X29528Y-41543
X29528Y-42543
X29528Y-43543
X31850Y-28937
X32835Y-28937
X33819Y-28937
X34843Y-37402
X34843Y-40157
X34843Y-54921
X35827Y-37402
X35827Y-40157
X35827Y-54921
X36811Y-37402
X36811Y-40157
X36811Y-54921
X42126Y-28543
X42126Y-29543
X42126Y-30543
X42126Y-31543
X42126Y-32543
X42126Y-33543
X42126Y-34543
X42126Y-35543
X42126Y-36543
X42126Y-37543
X42126Y-38543
X42126Y-39543
X42126Y-40543
X42126Y-41543
X42126Y-42543
X42126Y-43543
X49118Y-24252
X49118Y-25252
X49118Y-26252
X49118Y-27252
X49118Y-28252
X49118Y-29252
X49118Y-30252
X49118Y-31252
X50118Y-24252
X50118Y-25252
X50118Y-26252
X50118Y-27252
X50118Y-28252
X50118Y-29252
X50118Y-30252
X50118Y-31252
T8
X30709Y-45079
X30709Y-52756
X33465Y-58819
X37795Y-58858
T9
X30709Y-46299
X30709Y-53976
X33465Y-60039
X37795Y-60079
T10
X30709Y-49567
X30709Y-57244
X33465Y-63307
X37795Y-63346
T11
X27657Y-24902
X27657Y-25197
X27657Y-25492
X27657Y-56004
X27657Y-56299
X27657Y-56594
X28248Y-24902
X28248Y-25197
X28248Y-25492
X28248Y-56004
X28248Y-56299
X28248Y-56594
X40256Y-24902
X40256Y-25197
X40256Y-25492
X40256Y-56004
X40256Y-56299
X40256Y-56594
X40846Y-24902
X40846Y-25197
X40846Y-25492
X40846Y-56004
X40846Y-56299
X40846Y-56594
T12
X37323Y-48031
X50039Y-48031
T7
G00X30945Y-26122
M15
G01X30945Y-25846
M16
G05
G00X33937Y-34587
M15
G01X33937Y-34311
M16
G05
G00X33937Y-42972
M15
G01X33937Y-43248
M16
G05
G00X33937Y-52106
M15
G01X33937Y-51831
M16
G05
G00X34724Y-26122
M15
G01X34724Y-25846
M16
G05
G00X37717Y-34587
M15
G01X37717Y-34311
M16
G05
G00X37717Y-42972
M15
G01X37717Y-43248
M16
G05
G00X37717Y-52106
M15
G01X37717Y-51831
M16
G05
T0
M30
