%FSLAX45Y45*%
G04 Gerber Fmt 4.5, Leading zero omitted, Abs format (unit mm)*
G04 Created by KiCad (PCBNEW 5.1.9+dfsg1-1~bpo10+1) date 2021-11-05 16:50:28*
%MOMM*%
%LPD*%
G01*
G04 APERTURE LIST*
%TA.AperFunction,Profile*%
%ADD10C,0.100000*%
%TD*%
%ADD11C,0.200000*%
%ADD12C,0.300000*%
G04 APERTURE END LIST*
D10*
X7000000Y-6600000D02*
G75*
G02*
X7200000Y-6600000I100000J0D01*
G01*
X7200000Y-6200000D02*
G75*
G02*
X7000000Y-6200000I-100000J0D01*
G01*
X7000000Y-4500000D02*
X7000000Y-6200000D01*
X7200000Y-6200000D02*
X7200000Y-5500000D01*
X10200000Y-6600000D02*
G75*
G02*
X10400000Y-6600000I100000J0D01*
G01*
X10400000Y-6200000D02*
G75*
G02*
X10200000Y-6200000I-100000J0D01*
G01*
X10200000Y-5500000D02*
X10200000Y-6200000D01*
X10400000Y-6200000D02*
X10400000Y-5500000D01*
X12255000Y-16350000D02*
X13410000Y-16350000D01*
X13410000Y-5500000D02*
X12255000Y-5500000D01*
X10400000Y-6600000D02*
X10405000Y-14100000D01*
X10200000Y-14100000D02*
X10200000Y-6600000D01*
X10200000Y-14497990D02*
G75*
G02*
X10404980Y-14500000I102480J-2010D01*
G01*
X10405000Y-14100000D02*
G75*
G02*
X10200000Y-14100000I-102500J0D01*
G01*
X6999875Y-14500000D02*
G75*
G02*
X7200000Y-14495000I100125J0D01*
G01*
X7199926Y-14103843D02*
G75*
G02*
X7000000Y-14100000I-99926J3843D01*
G01*
X6999875Y-14500000D02*
X7000000Y-17350000D01*
X7199926Y-14103843D02*
X7200000Y-6600000D01*
X13410000Y-5500000D02*
X13410000Y-16350000D01*
X10400000Y-5500000D02*
X12255000Y-5500000D01*
X10405000Y-16350000D02*
X10404980Y-14500000D01*
X12255000Y-16350000D02*
X10405000Y-16350000D01*
X7202500Y-16350000D02*
X7200000Y-14495000D01*
X10200000Y-16350000D02*
X7202500Y-16350000D01*
X10200000Y-14497990D02*
X10200000Y-16350000D01*
X7200000Y-5500000D02*
X10200000Y-5500000D01*
X6775000Y-7100000D02*
G75*
G03*
X6775000Y-7100000I-250000J0D01*
G01*
X6390000Y-17160000D02*
X6790000Y-17160000D01*
X6390000Y-17160000D02*
G75*
G02*
X6390000Y-16940000I0J110000D01*
G01*
X6390000Y-16940000D02*
X6790000Y-16940000D01*
X6790000Y-16940000D02*
G75*
G02*
X6790000Y-17160000I0J-110000D01*
G01*
X4260000Y-4910000D02*
X4660000Y-4910000D01*
X4260000Y-4690000D02*
X4660000Y-4690000D01*
X4660000Y-4690000D02*
G75*
G02*
X4660000Y-4910000I0J-110000D01*
G01*
X4260000Y-4910000D02*
G75*
G02*
X4260000Y-4690000I0J110000D01*
G01*
X4550000Y-15800000D02*
G75*
G03*
X4550000Y-15800000I-150000J0D01*
G01*
X6300000Y-13200000D02*
G75*
G03*
X6300000Y-13200000I-400000J0D01*
G01*
X6300000Y-10950000D02*
G75*
G03*
X6300000Y-10950000I-400000J0D01*
G01*
X6300000Y-8750000D02*
G75*
G03*
X6300000Y-8750000I-400000J0D01*
G01*
X5550000Y-6600000D02*
G75*
G03*
X5550000Y-6600000I-400000J0D01*
G01*
X5600000Y-15600000D02*
G75*
G03*
X5600000Y-15600000I-300000J0D01*
G01*
X6704138Y-15600000D02*
G75*
G03*
X6704138Y-15600000I-304138J0D01*
G01*
X4900000Y-14050000D02*
G75*
G03*
X4900000Y-14050000I-300000J0D01*
G01*
X4904138Y-12100000D02*
G75*
G03*
X4904138Y-12100000I-304138J0D01*
G01*
X7000000Y-17350000D02*
X4000000Y-17350000D01*
X7000000Y-6600000D02*
X7000000Y-14100000D01*
X4000000Y-4500000D02*
X7000000Y-4500000D01*
X4000000Y-4500000D02*
X4000000Y-17350000D01*
D11*
X7780000Y-7830000D02*
X7820000Y-7870000D01*
X7820000Y-7830000D02*
X7780000Y-7870000D01*
X7780000Y-7930000D02*
X7820000Y-7970000D01*
X7820000Y-7930000D02*
X7780000Y-7970000D01*
X7780000Y-8030000D02*
X7820000Y-8070000D01*
X7820000Y-8030000D02*
X7780000Y-8070000D01*
X7780000Y-8130000D02*
X7820000Y-8170000D01*
X7820000Y-8130000D02*
X7780000Y-8170000D01*
X7780000Y-8230000D02*
X7820000Y-8270000D01*
X7820000Y-8230000D02*
X7780000Y-8270000D01*
X7780000Y-8330000D02*
X7820000Y-8370000D01*
X7820000Y-8330000D02*
X7780000Y-8370000D01*
X7780000Y-8430000D02*
X7820000Y-8470000D01*
X7820000Y-8430000D02*
X7780000Y-8470000D01*
X7780000Y-8530000D02*
X7820000Y-8570000D01*
X7820000Y-8530000D02*
X7780000Y-8570000D01*
X7780000Y-8630000D02*
X7820000Y-8670000D01*
X7820000Y-8630000D02*
X7780000Y-8670000D01*
X7780000Y-9380000D02*
X7820000Y-9420000D01*
X7820000Y-9380000D02*
X7780000Y-9420000D01*
X7780000Y-9480000D02*
X7820000Y-9520000D01*
X7820000Y-9480000D02*
X7780000Y-9520000D01*
X7780000Y-9580000D02*
X7820000Y-9620000D01*
X7820000Y-9580000D02*
X7780000Y-9620000D01*
X7880000Y-7830000D02*
X7920000Y-7870000D01*
X7920000Y-7830000D02*
X7880000Y-7870000D01*
X7880000Y-7930000D02*
X7920000Y-7970000D01*
X7920000Y-7930000D02*
X7880000Y-7970000D01*
X7880000Y-8030000D02*
X7920000Y-8070000D01*
X7920000Y-8030000D02*
X7880000Y-8070000D01*
X7880000Y-8130000D02*
X7920000Y-8170000D01*
X7920000Y-8130000D02*
X7880000Y-8170000D01*
X7880000Y-8230000D02*
X7920000Y-8270000D01*
X7920000Y-8230000D02*
X7880000Y-8270000D01*
X7880000Y-8330000D02*
X7920000Y-8370000D01*
X7920000Y-8330000D02*
X7880000Y-8370000D01*
X7880000Y-8430000D02*
X7920000Y-8470000D01*
X7920000Y-8430000D02*
X7880000Y-8470000D01*
X7880000Y-8530000D02*
X7920000Y-8570000D01*
X7920000Y-8530000D02*
X7880000Y-8570000D01*
X7880000Y-8630000D02*
X7920000Y-8670000D01*
X7920000Y-8630000D02*
X7880000Y-8670000D01*
X7880000Y-9380000D02*
X7920000Y-9420000D01*
X7920000Y-9380000D02*
X7880000Y-9420000D01*
X7880000Y-9480000D02*
X7920000Y-9520000D01*
X7920000Y-9480000D02*
X7880000Y-9520000D01*
X7880000Y-9580000D02*
X7920000Y-9620000D01*
X7920000Y-9580000D02*
X7880000Y-9620000D01*
X7880000Y-9680000D02*
X7920000Y-9720000D01*
X7920000Y-9680000D02*
X7880000Y-9720000D01*
X7980000Y-9480000D02*
X8020000Y-9520000D01*
X8020000Y-9480000D02*
X7980000Y-9520000D01*
X7980000Y-9580000D02*
X8020000Y-9620000D01*
X8020000Y-9580000D02*
X7980000Y-9620000D01*
X7980000Y-9680000D02*
X8020000Y-9720000D01*
X8020000Y-9680000D02*
X7980000Y-9720000D01*
X7980000Y-9780000D02*
X8020000Y-9820000D01*
X8020000Y-9780000D02*
X7980000Y-9820000D01*
X8080000Y-9580000D02*
X8120000Y-9620000D01*
X8120000Y-9580000D02*
X8080000Y-9620000D01*
X8080000Y-9680000D02*
X8120000Y-9720000D01*
X8120000Y-9680000D02*
X8080000Y-9720000D01*
X8080000Y-9780000D02*
X8120000Y-9820000D01*
X8120000Y-9780000D02*
X8080000Y-9820000D01*
X8080000Y-9880000D02*
X8120000Y-9920000D01*
X8120000Y-9880000D02*
X8080000Y-9920000D01*
X8180000Y-9680000D02*
X8220000Y-9720000D01*
X8220000Y-9680000D02*
X8180000Y-9720000D01*
X8180000Y-9780000D02*
X8220000Y-9820000D01*
X8220000Y-9780000D02*
X8180000Y-9820000D01*
X8180000Y-9880000D02*
X8220000Y-9920000D01*
X8220000Y-9880000D02*
X8180000Y-9920000D01*
X8180000Y-9980000D02*
X8220000Y-10020000D01*
X8220000Y-9980000D02*
X8180000Y-10020000D01*
X8280000Y-9780000D02*
X8320000Y-9820000D01*
X8320000Y-9780000D02*
X8280000Y-9820000D01*
X8280000Y-9880000D02*
X8320000Y-9920000D01*
X8320000Y-9880000D02*
X8280000Y-9920000D01*
X8280000Y-9980000D02*
X8320000Y-10020000D01*
X8320000Y-9980000D02*
X8280000Y-10020000D01*
X8280000Y-10080000D02*
X8320000Y-10120000D01*
X8320000Y-10080000D02*
X8280000Y-10120000D01*
X8380000Y-9880000D02*
X8420000Y-9920000D01*
X8420000Y-9880000D02*
X8380000Y-9920000D01*
X8380000Y-9980000D02*
X8420000Y-10020000D01*
X8420000Y-9980000D02*
X8380000Y-10020000D01*
X8380000Y-10080000D02*
X8420000Y-10120000D01*
X8420000Y-10080000D02*
X8380000Y-10120000D01*
X8430000Y-7830000D02*
X8470000Y-7870000D01*
X8470000Y-7830000D02*
X8430000Y-7870000D01*
X8430000Y-7930000D02*
X8470000Y-7970000D01*
X8470000Y-7930000D02*
X8430000Y-7970000D01*
X8430000Y-14180000D02*
X8470000Y-14220000D01*
X8470000Y-14180000D02*
X8430000Y-14220000D01*
X8530000Y-7830000D02*
X8570000Y-7870000D01*
X8570000Y-7830000D02*
X8530000Y-7870000D01*
X8530000Y-7930000D02*
X8570000Y-7970000D01*
X8570000Y-7930000D02*
X8530000Y-7970000D01*
X8530000Y-11580000D02*
X8570000Y-11620000D01*
X8570000Y-11580000D02*
X8530000Y-11620000D01*
X8530000Y-11680000D02*
X8570000Y-11720000D01*
X8570000Y-11680000D02*
X8530000Y-11720000D01*
X8530000Y-11780000D02*
X8570000Y-11820000D01*
X8570000Y-11780000D02*
X8530000Y-11820000D01*
X8530000Y-11880000D02*
X8570000Y-11920000D01*
X8570000Y-11880000D02*
X8530000Y-11920000D01*
X8530000Y-11980000D02*
X8570000Y-12020000D01*
X8570000Y-11980000D02*
X8530000Y-12020000D01*
X8530000Y-12080000D02*
X8570000Y-12120000D01*
X8570000Y-12080000D02*
X8530000Y-12120000D01*
X8530000Y-12180000D02*
X8570000Y-12220000D01*
X8570000Y-12180000D02*
X8530000Y-12220000D01*
X8530000Y-12280000D02*
X8570000Y-12320000D01*
X8570000Y-12280000D02*
X8530000Y-12320000D01*
X8530000Y-12380000D02*
X8570000Y-12420000D01*
X8570000Y-12380000D02*
X8530000Y-12420000D01*
X8530000Y-12480000D02*
X8570000Y-12520000D01*
X8570000Y-12480000D02*
X8530000Y-12520000D01*
X8530000Y-14180000D02*
X8570000Y-14220000D01*
X8570000Y-14180000D02*
X8530000Y-14220000D01*
X8530000Y-14280000D02*
X8570000Y-14320000D01*
X8570000Y-14280000D02*
X8530000Y-14320000D01*
X8630000Y-7830000D02*
X8670000Y-7870000D01*
X8670000Y-7830000D02*
X8630000Y-7870000D01*
X8630000Y-7930000D02*
X8670000Y-7970000D01*
X8670000Y-7930000D02*
X8630000Y-7970000D01*
X8630000Y-11580000D02*
X8670000Y-11620000D01*
X8670000Y-11580000D02*
X8630000Y-11620000D01*
X8630000Y-11680000D02*
X8670000Y-11720000D01*
X8670000Y-11680000D02*
X8630000Y-11720000D01*
X8630000Y-11780000D02*
X8670000Y-11820000D01*
X8670000Y-11780000D02*
X8630000Y-11820000D01*
X8630000Y-11880000D02*
X8670000Y-11920000D01*
X8670000Y-11880000D02*
X8630000Y-11920000D01*
X8630000Y-11980000D02*
X8670000Y-12020000D01*
X8670000Y-11980000D02*
X8630000Y-12020000D01*
X8630000Y-12080000D02*
X8670000Y-12120000D01*
X8670000Y-12080000D02*
X8630000Y-12120000D01*
X8630000Y-12180000D02*
X8670000Y-12220000D01*
X8670000Y-12180000D02*
X8630000Y-12220000D01*
X8630000Y-12280000D02*
X8670000Y-12320000D01*
X8670000Y-12280000D02*
X8630000Y-12320000D01*
X8630000Y-12380000D02*
X8670000Y-12420000D01*
X8670000Y-12380000D02*
X8630000Y-12420000D01*
X8630000Y-12480000D02*
X8670000Y-12520000D01*
X8670000Y-12480000D02*
X8630000Y-12520000D01*
X8630000Y-14180000D02*
X8670000Y-14220000D01*
X8670000Y-14180000D02*
X8630000Y-14220000D01*
X8630000Y-14280000D02*
X8670000Y-14320000D01*
X8670000Y-14280000D02*
X8630000Y-14320000D01*
X8630000Y-14380000D02*
X8670000Y-14420000D01*
X8670000Y-14380000D02*
X8630000Y-14420000D01*
X8730000Y-7830000D02*
X8770000Y-7870000D01*
X8770000Y-7830000D02*
X8730000Y-7870000D01*
X8730000Y-7930000D02*
X8770000Y-7970000D01*
X8770000Y-7930000D02*
X8730000Y-7970000D01*
X8730000Y-11580000D02*
X8770000Y-11620000D01*
X8770000Y-11580000D02*
X8730000Y-11620000D01*
X8730000Y-11680000D02*
X8770000Y-11720000D01*
X8770000Y-11680000D02*
X8730000Y-11720000D01*
X8730000Y-11780000D02*
X8770000Y-11820000D01*
X8770000Y-11780000D02*
X8730000Y-11820000D01*
X8730000Y-11880000D02*
X8770000Y-11920000D01*
X8770000Y-11880000D02*
X8730000Y-11920000D01*
X8730000Y-11980000D02*
X8770000Y-12020000D01*
X8770000Y-11980000D02*
X8730000Y-12020000D01*
X8730000Y-12080000D02*
X8770000Y-12120000D01*
X8770000Y-12080000D02*
X8730000Y-12120000D01*
X8730000Y-12180000D02*
X8770000Y-12220000D01*
X8770000Y-12180000D02*
X8730000Y-12220000D01*
X8730000Y-12280000D02*
X8770000Y-12320000D01*
X8770000Y-12280000D02*
X8730000Y-12320000D01*
X8730000Y-12380000D02*
X8770000Y-12420000D01*
X8770000Y-12380000D02*
X8730000Y-12420000D01*
X8730000Y-12480000D02*
X8770000Y-12520000D01*
X8770000Y-12480000D02*
X8730000Y-12520000D01*
X8730000Y-14180000D02*
X8770000Y-14220000D01*
X8770000Y-14180000D02*
X8730000Y-14220000D01*
X8730000Y-14280000D02*
X8770000Y-14320000D01*
X8770000Y-14280000D02*
X8730000Y-14320000D01*
X8730000Y-14380000D02*
X8770000Y-14420000D01*
X8770000Y-14380000D02*
X8730000Y-14420000D01*
X8730000Y-14480000D02*
X8770000Y-14520000D01*
X8770000Y-14480000D02*
X8730000Y-14520000D01*
X8780000Y-7030000D02*
X8820000Y-7070000D01*
X8820000Y-7030000D02*
X8780000Y-7070000D01*
X8780000Y-7130000D02*
X8820000Y-7170000D01*
X8820000Y-7130000D02*
X8780000Y-7170000D01*
X8780000Y-7230000D02*
X8820000Y-7270000D01*
X8820000Y-7230000D02*
X8780000Y-7270000D01*
X8780000Y-7330000D02*
X8820000Y-7370000D01*
X8820000Y-7330000D02*
X8780000Y-7370000D01*
X8830000Y-7830000D02*
X8870000Y-7870000D01*
X8870000Y-7830000D02*
X8830000Y-7870000D01*
X8830000Y-7930000D02*
X8870000Y-7970000D01*
X8870000Y-7930000D02*
X8830000Y-7970000D01*
X8830000Y-11580000D02*
X8870000Y-11620000D01*
X8870000Y-11580000D02*
X8830000Y-11620000D01*
X8830000Y-11680000D02*
X8870000Y-11720000D01*
X8870000Y-11680000D02*
X8830000Y-11720000D01*
X8830000Y-11780000D02*
X8870000Y-11820000D01*
X8870000Y-11780000D02*
X8830000Y-11820000D01*
X8830000Y-11880000D02*
X8870000Y-11920000D01*
X8870000Y-11880000D02*
X8830000Y-11920000D01*
X8830000Y-11980000D02*
X8870000Y-12020000D01*
X8870000Y-11980000D02*
X8830000Y-12020000D01*
X8830000Y-12080000D02*
X8870000Y-12120000D01*
X8870000Y-12080000D02*
X8830000Y-12120000D01*
X8830000Y-12180000D02*
X8870000Y-12220000D01*
X8870000Y-12180000D02*
X8830000Y-12220000D01*
X8830000Y-12280000D02*
X8870000Y-12320000D01*
X8870000Y-12280000D02*
X8830000Y-12320000D01*
X8830000Y-12380000D02*
X8870000Y-12420000D01*
X8870000Y-12380000D02*
X8830000Y-12420000D01*
X8830000Y-12480000D02*
X8870000Y-12520000D01*
X8870000Y-12480000D02*
X8830000Y-12520000D01*
X8830000Y-14180000D02*
X8870000Y-14220000D01*
X8870000Y-14180000D02*
X8830000Y-14220000D01*
X8830000Y-14280000D02*
X8870000Y-14320000D01*
X8870000Y-14280000D02*
X8830000Y-14320000D01*
X8830000Y-14380000D02*
X8870000Y-14420000D01*
X8870000Y-14380000D02*
X8830000Y-14420000D01*
X8830000Y-14480000D02*
X8870000Y-14520000D01*
X8870000Y-14480000D02*
X8830000Y-14520000D01*
X8830000Y-14580000D02*
X8870000Y-14620000D01*
X8870000Y-14580000D02*
X8830000Y-14620000D01*
X8880000Y-7030000D02*
X8920000Y-7070000D01*
X8920000Y-7030000D02*
X8880000Y-7070000D01*
X8880000Y-7130000D02*
X8920000Y-7170000D01*
X8920000Y-7130000D02*
X8880000Y-7170000D01*
X8880000Y-7230000D02*
X8920000Y-7270000D01*
X8920000Y-7230000D02*
X8880000Y-7270000D01*
X8880000Y-7330000D02*
X8920000Y-7370000D01*
X8920000Y-7330000D02*
X8880000Y-7370000D01*
X8930000Y-7830000D02*
X8970000Y-7870000D01*
X8970000Y-7830000D02*
X8930000Y-7870000D01*
X8930000Y-7930000D02*
X8970000Y-7970000D01*
X8970000Y-7930000D02*
X8930000Y-7970000D01*
X8930000Y-11580000D02*
X8970000Y-11620000D01*
X8970000Y-11580000D02*
X8930000Y-11620000D01*
X8930000Y-11680000D02*
X8970000Y-11720000D01*
X8970000Y-11680000D02*
X8930000Y-11720000D01*
X8930000Y-11780000D02*
X8970000Y-11820000D01*
X8970000Y-11780000D02*
X8930000Y-11820000D01*
X8930000Y-11880000D02*
X8970000Y-11920000D01*
X8970000Y-11880000D02*
X8930000Y-11920000D01*
X8930000Y-11980000D02*
X8970000Y-12020000D01*
X8970000Y-11980000D02*
X8930000Y-12020000D01*
X8930000Y-12080000D02*
X8970000Y-12120000D01*
X8970000Y-12080000D02*
X8930000Y-12120000D01*
X8930000Y-12180000D02*
X8970000Y-12220000D01*
X8970000Y-12180000D02*
X8930000Y-12220000D01*
X8930000Y-12280000D02*
X8970000Y-12320000D01*
X8970000Y-12280000D02*
X8930000Y-12320000D01*
X8930000Y-12380000D02*
X8970000Y-12420000D01*
X8970000Y-12380000D02*
X8930000Y-12420000D01*
X8930000Y-12480000D02*
X8970000Y-12520000D01*
X8970000Y-12480000D02*
X8930000Y-12520000D01*
X8930000Y-14180000D02*
X8970000Y-14220000D01*
X8970000Y-14180000D02*
X8930000Y-14220000D01*
X8930000Y-14280000D02*
X8970000Y-14320000D01*
X8970000Y-14280000D02*
X8930000Y-14320000D01*
X8930000Y-14380000D02*
X8970000Y-14420000D01*
X8970000Y-14380000D02*
X8930000Y-14420000D01*
X8930000Y-14480000D02*
X8970000Y-14520000D01*
X8970000Y-14480000D02*
X8930000Y-14520000D01*
X8930000Y-14580000D02*
X8970000Y-14620000D01*
X8970000Y-14580000D02*
X8930000Y-14620000D01*
X8930000Y-14680000D02*
X8970000Y-14720000D01*
X8970000Y-14680000D02*
X8930000Y-14720000D01*
X9030000Y-11580000D02*
X9070000Y-11620000D01*
X9070000Y-11580000D02*
X9030000Y-11620000D01*
X9030000Y-11680000D02*
X9070000Y-11720000D01*
X9070000Y-11680000D02*
X9030000Y-11720000D01*
X9030000Y-14180000D02*
X9070000Y-14220000D01*
X9070000Y-14180000D02*
X9030000Y-14220000D01*
X9030000Y-14280000D02*
X9070000Y-14320000D01*
X9070000Y-14280000D02*
X9030000Y-14320000D01*
X9030000Y-14380000D02*
X9070000Y-14420000D01*
X9070000Y-14380000D02*
X9030000Y-14420000D01*
X9030000Y-14480000D02*
X9070000Y-14520000D01*
X9070000Y-14480000D02*
X9030000Y-14520000D01*
X9030000Y-14580000D02*
X9070000Y-14620000D01*
X9070000Y-14580000D02*
X9030000Y-14620000D01*
X9030000Y-14680000D02*
X9070000Y-14720000D01*
X9070000Y-14680000D02*
X9030000Y-14720000D01*
X9130000Y-11580000D02*
X9170000Y-11620000D01*
X9170000Y-11580000D02*
X9130000Y-11620000D01*
X9130000Y-11680000D02*
X9170000Y-11720000D01*
X9170000Y-11680000D02*
X9130000Y-11720000D01*
X9130000Y-14180000D02*
X9170000Y-14220000D01*
X9170000Y-14180000D02*
X9130000Y-14220000D01*
X9130000Y-14280000D02*
X9170000Y-14320000D01*
X9170000Y-14280000D02*
X9130000Y-14320000D01*
X9130000Y-14380000D02*
X9170000Y-14420000D01*
X9170000Y-14380000D02*
X9130000Y-14420000D01*
X9130000Y-14480000D02*
X9170000Y-14520000D01*
X9170000Y-14480000D02*
X9130000Y-14520000D01*
X9130000Y-14580000D02*
X9170000Y-14620000D01*
X9170000Y-14580000D02*
X9130000Y-14620000D01*
X9130000Y-14680000D02*
X9170000Y-14720000D01*
X9170000Y-14680000D02*
X9130000Y-14720000D01*
X9230000Y-6680000D02*
X9270000Y-6720000D01*
X9270000Y-6680000D02*
X9230000Y-6720000D01*
X9230000Y-6780000D02*
X9270000Y-6820000D01*
X9270000Y-6780000D02*
X9230000Y-6820000D01*
X9230000Y-6880000D02*
X9270000Y-6920000D01*
X9270000Y-6880000D02*
X9230000Y-6920000D01*
X9230000Y-6980000D02*
X9270000Y-7020000D01*
X9270000Y-6980000D02*
X9230000Y-7020000D01*
X9230000Y-7080000D02*
X9270000Y-7120000D01*
X9270000Y-7080000D02*
X9230000Y-7120000D01*
X9230000Y-7180000D02*
X9270000Y-7220000D01*
X9270000Y-7180000D02*
X9230000Y-7220000D01*
X9230000Y-7280000D02*
X9270000Y-7320000D01*
X9270000Y-7280000D02*
X9230000Y-7320000D01*
X9230000Y-7380000D02*
X9270000Y-7420000D01*
X9270000Y-7380000D02*
X9230000Y-7420000D01*
X9230000Y-7480000D02*
X9270000Y-7520000D01*
X9270000Y-7480000D02*
X9230000Y-7520000D01*
X9230000Y-11580000D02*
X9270000Y-11620000D01*
X9270000Y-11580000D02*
X9230000Y-11620000D01*
X9230000Y-11680000D02*
X9270000Y-11720000D01*
X9270000Y-11680000D02*
X9230000Y-11720000D01*
X9230000Y-14180000D02*
X9270000Y-14220000D01*
X9270000Y-14180000D02*
X9230000Y-14220000D01*
X9230000Y-14280000D02*
X9270000Y-14320000D01*
X9270000Y-14280000D02*
X9230000Y-14320000D01*
X9230000Y-14380000D02*
X9270000Y-14420000D01*
X9270000Y-14380000D02*
X9230000Y-14420000D01*
X9230000Y-14480000D02*
X9270000Y-14520000D01*
X9270000Y-14480000D02*
X9230000Y-14520000D01*
X9230000Y-14580000D02*
X9270000Y-14620000D01*
X9270000Y-14580000D02*
X9230000Y-14620000D01*
X9230000Y-14680000D02*
X9270000Y-14720000D01*
X9270000Y-14680000D02*
X9230000Y-14720000D01*
X9330000Y-6680000D02*
X9370000Y-6720000D01*
X9370000Y-6680000D02*
X9330000Y-6720000D01*
X9330000Y-6780000D02*
X9370000Y-6820000D01*
X9370000Y-6780000D02*
X9330000Y-6820000D01*
X9330000Y-6880000D02*
X9370000Y-6920000D01*
X9370000Y-6880000D02*
X9330000Y-6920000D01*
X9330000Y-6980000D02*
X9370000Y-7020000D01*
X9370000Y-6980000D02*
X9330000Y-7020000D01*
X9330000Y-7080000D02*
X9370000Y-7120000D01*
X9370000Y-7080000D02*
X9330000Y-7120000D01*
X9330000Y-7180000D02*
X9370000Y-7220000D01*
X9370000Y-7180000D02*
X9330000Y-7220000D01*
X9330000Y-7280000D02*
X9370000Y-7320000D01*
X9370000Y-7280000D02*
X9330000Y-7320000D01*
X9330000Y-7380000D02*
X9370000Y-7420000D01*
X9370000Y-7380000D02*
X9330000Y-7420000D01*
X9330000Y-7480000D02*
X9370000Y-7520000D01*
X9370000Y-7480000D02*
X9330000Y-7520000D01*
X9330000Y-11580000D02*
X9370000Y-11620000D01*
X9370000Y-11580000D02*
X9330000Y-11620000D01*
X9330000Y-11680000D02*
X9370000Y-11720000D01*
X9370000Y-11680000D02*
X9330000Y-11720000D01*
X9330000Y-14180000D02*
X9370000Y-14220000D01*
X9370000Y-14180000D02*
X9330000Y-14220000D01*
X9330000Y-14280000D02*
X9370000Y-14320000D01*
X9370000Y-14280000D02*
X9330000Y-14320000D01*
X9330000Y-14380000D02*
X9370000Y-14420000D01*
X9370000Y-14380000D02*
X9330000Y-14420000D01*
X9330000Y-14480000D02*
X9370000Y-14520000D01*
X9370000Y-14480000D02*
X9330000Y-14520000D01*
X9330000Y-14580000D02*
X9370000Y-14620000D01*
X9370000Y-14580000D02*
X9330000Y-14620000D01*
X9330000Y-14680000D02*
X9370000Y-14720000D01*
X9370000Y-14680000D02*
X9330000Y-14720000D01*
X9430000Y-6680000D02*
X9470000Y-6720000D01*
X9470000Y-6680000D02*
X9430000Y-6720000D01*
X9430000Y-6780000D02*
X9470000Y-6820000D01*
X9470000Y-6780000D02*
X9430000Y-6820000D01*
X9430000Y-6880000D02*
X9470000Y-6920000D01*
X9470000Y-6880000D02*
X9430000Y-6920000D01*
X9430000Y-6980000D02*
X9470000Y-7020000D01*
X9470000Y-6980000D02*
X9430000Y-7020000D01*
X9430000Y-7080000D02*
X9470000Y-7120000D01*
X9470000Y-7080000D02*
X9430000Y-7120000D01*
X9430000Y-7180000D02*
X9470000Y-7220000D01*
X9470000Y-7180000D02*
X9430000Y-7220000D01*
X9430000Y-7280000D02*
X9470000Y-7320000D01*
X9470000Y-7280000D02*
X9430000Y-7320000D01*
X9430000Y-7380000D02*
X9470000Y-7420000D01*
X9470000Y-7380000D02*
X9430000Y-7420000D01*
X9430000Y-7480000D02*
X9470000Y-7520000D01*
X9470000Y-7480000D02*
X9430000Y-7520000D01*
X9430000Y-11580000D02*
X9470000Y-11620000D01*
X9470000Y-11580000D02*
X9430000Y-11620000D01*
X9430000Y-11680000D02*
X9470000Y-11720000D01*
X9470000Y-11680000D02*
X9430000Y-11720000D01*
X9430000Y-14180000D02*
X9470000Y-14220000D01*
X9470000Y-14180000D02*
X9430000Y-14220000D01*
X9430000Y-14280000D02*
X9470000Y-14320000D01*
X9470000Y-14280000D02*
X9430000Y-14320000D01*
X9430000Y-14380000D02*
X9470000Y-14420000D01*
X9470000Y-14380000D02*
X9430000Y-14420000D01*
X9430000Y-14480000D02*
X9470000Y-14520000D01*
X9470000Y-14480000D02*
X9430000Y-14520000D01*
X9430000Y-14580000D02*
X9470000Y-14620000D01*
X9470000Y-14580000D02*
X9430000Y-14620000D01*
X9430000Y-14680000D02*
X9470000Y-14720000D01*
X9470000Y-14680000D02*
X9430000Y-14720000D01*
X9530000Y-6680000D02*
X9570000Y-6720000D01*
X9570000Y-6680000D02*
X9530000Y-6720000D01*
X9530000Y-6780000D02*
X9570000Y-6820000D01*
X9570000Y-6780000D02*
X9530000Y-6820000D01*
X9530000Y-7480000D02*
X9570000Y-7520000D01*
X9570000Y-7480000D02*
X9530000Y-7520000D01*
X9530000Y-11580000D02*
X9570000Y-11620000D01*
X9570000Y-11580000D02*
X9530000Y-11620000D01*
X9530000Y-11680000D02*
X9570000Y-11720000D01*
X9570000Y-11680000D02*
X9530000Y-11720000D01*
X9530000Y-14180000D02*
X9570000Y-14220000D01*
X9570000Y-14180000D02*
X9530000Y-14220000D01*
X9530000Y-14280000D02*
X9570000Y-14320000D01*
X9570000Y-14280000D02*
X9530000Y-14320000D01*
X9530000Y-14380000D02*
X9570000Y-14420000D01*
X9570000Y-14380000D02*
X9530000Y-14420000D01*
X9530000Y-14480000D02*
X9570000Y-14520000D01*
X9570000Y-14480000D02*
X9530000Y-14520000D01*
X9530000Y-14580000D02*
X9570000Y-14620000D01*
X9570000Y-14580000D02*
X9530000Y-14620000D01*
X9530000Y-14680000D02*
X9570000Y-14720000D01*
X9570000Y-14680000D02*
X9530000Y-14720000D01*
X9630000Y-11580000D02*
X9670000Y-11620000D01*
X9670000Y-11580000D02*
X9630000Y-11620000D01*
X9630000Y-11680000D02*
X9670000Y-11720000D01*
X9670000Y-11680000D02*
X9630000Y-11720000D01*
X9630000Y-14180000D02*
X9670000Y-14220000D01*
X9670000Y-14180000D02*
X9630000Y-14220000D01*
X9630000Y-14280000D02*
X9670000Y-14320000D01*
X9670000Y-14280000D02*
X9630000Y-14320000D01*
X9630000Y-14380000D02*
X9670000Y-14420000D01*
X9670000Y-14380000D02*
X9630000Y-14420000D01*
X9630000Y-14480000D02*
X9670000Y-14520000D01*
X9670000Y-14480000D02*
X9630000Y-14520000D01*
X9630000Y-14580000D02*
X9670000Y-14620000D01*
X9670000Y-14580000D02*
X9630000Y-14620000D01*
X9630000Y-14680000D02*
X9670000Y-14720000D01*
X9670000Y-14680000D02*
X9630000Y-14720000D01*
X9730000Y-11580000D02*
X9770000Y-11620000D01*
X9770000Y-11580000D02*
X9730000Y-11620000D01*
X9730000Y-11680000D02*
X9770000Y-11720000D01*
X9770000Y-11680000D02*
X9730000Y-11720000D01*
X9730000Y-14180000D02*
X9770000Y-14220000D01*
X9770000Y-14180000D02*
X9730000Y-14220000D01*
X9730000Y-14280000D02*
X9770000Y-14320000D01*
X9770000Y-14280000D02*
X9730000Y-14320000D01*
X9730000Y-14380000D02*
X9770000Y-14420000D01*
X9770000Y-14380000D02*
X9730000Y-14420000D01*
X9730000Y-14480000D02*
X9770000Y-14520000D01*
X9770000Y-14480000D02*
X9730000Y-14520000D01*
X9730000Y-14580000D02*
X9770000Y-14620000D01*
X9770000Y-14580000D02*
X9730000Y-14620000D01*
X9730000Y-14680000D02*
X9770000Y-14720000D01*
X9770000Y-14680000D02*
X9730000Y-14720000D01*
X10930000Y-9230000D02*
X10970000Y-9270000D01*
X10970000Y-9230000D02*
X10930000Y-9270000D01*
X10930000Y-9330000D02*
X10970000Y-9370000D01*
X10970000Y-9330000D02*
X10930000Y-9370000D01*
X10930000Y-9430000D02*
X10970000Y-9470000D01*
X10970000Y-9430000D02*
X10930000Y-9470000D01*
X10930000Y-9530000D02*
X10970000Y-9570000D01*
X10970000Y-9530000D02*
X10930000Y-9570000D01*
X10930000Y-9630000D02*
X10970000Y-9670000D01*
X10970000Y-9630000D02*
X10930000Y-9670000D01*
X11030000Y-9230000D02*
X11070000Y-9270000D01*
X11070000Y-9230000D02*
X11030000Y-9270000D01*
X11030000Y-9330000D02*
X11070000Y-9370000D01*
X11070000Y-9330000D02*
X11030000Y-9370000D01*
X11030000Y-9430000D02*
X11070000Y-9470000D01*
X11070000Y-9430000D02*
X11030000Y-9470000D01*
X11030000Y-9530000D02*
X11070000Y-9570000D01*
X11070000Y-9530000D02*
X11030000Y-9570000D01*
X11130000Y-9230000D02*
X11170000Y-9270000D01*
X11170000Y-9230000D02*
X11130000Y-9270000D01*
X11130000Y-9330000D02*
X11170000Y-9370000D01*
X11170000Y-9330000D02*
X11130000Y-9370000D01*
X11130000Y-9430000D02*
X11170000Y-9470000D01*
X11170000Y-9430000D02*
X11130000Y-9470000D01*
X11230000Y-9230000D02*
X11270000Y-9270000D01*
X11270000Y-9230000D02*
X11230000Y-9270000D01*
X11230000Y-9330000D02*
X11270000Y-9370000D01*
X11270000Y-9330000D02*
X11230000Y-9370000D01*
X11280000Y-10080000D02*
X11320000Y-10120000D01*
X11320000Y-10080000D02*
X11280000Y-10120000D01*
X11280000Y-10180000D02*
X11320000Y-10220000D01*
X11320000Y-10180000D02*
X11280000Y-10220000D01*
X11280000Y-10280000D02*
X11320000Y-10320000D01*
X11320000Y-10280000D02*
X11280000Y-10320000D01*
X11280000Y-10380000D02*
X11320000Y-10420000D01*
X11320000Y-10380000D02*
X11280000Y-10420000D01*
X11280000Y-10480000D02*
X11320000Y-10520000D01*
X11320000Y-10480000D02*
X11280000Y-10520000D01*
X11280000Y-10580000D02*
X11320000Y-10620000D01*
X11320000Y-10580000D02*
X11280000Y-10620000D01*
X11280000Y-10680000D02*
X11320000Y-10720000D01*
X11320000Y-10680000D02*
X11280000Y-10720000D01*
X11280000Y-10780000D02*
X11320000Y-10820000D01*
X11320000Y-10780000D02*
X11280000Y-10820000D01*
X11330000Y-9230000D02*
X11370000Y-9270000D01*
X11370000Y-9230000D02*
X11330000Y-9270000D01*
X11380000Y-10780000D02*
X11420000Y-10820000D01*
X11420000Y-10780000D02*
X11380000Y-10820000D01*
X11930000Y-12230000D02*
X11970000Y-12270000D01*
X11970000Y-12230000D02*
X11930000Y-12270000D01*
X11930000Y-12330000D02*
X11970000Y-12370000D01*
X11970000Y-12330000D02*
X11930000Y-12370000D01*
X12030000Y-12230000D02*
X12070000Y-12270000D01*
X12070000Y-12230000D02*
X12030000Y-12270000D01*
X12030000Y-12330000D02*
X12070000Y-12370000D01*
X12070000Y-12330000D02*
X12030000Y-12370000D01*
X12030000Y-12430000D02*
X12070000Y-12470000D01*
X12070000Y-12430000D02*
X12030000Y-12470000D01*
X12130000Y-12230000D02*
X12170000Y-12270000D01*
X12170000Y-12230000D02*
X12130000Y-12270000D01*
X12130000Y-12330000D02*
X12170000Y-12370000D01*
X12170000Y-12330000D02*
X12130000Y-12370000D01*
X12130000Y-12430000D02*
X12170000Y-12470000D01*
X12170000Y-12430000D02*
X12130000Y-12470000D01*
X12130000Y-12530000D02*
X12170000Y-12570000D01*
X12170000Y-12530000D02*
X12130000Y-12570000D01*
X12230000Y-12230000D02*
X12270000Y-12270000D01*
X12270000Y-12230000D02*
X12230000Y-12270000D01*
X12230000Y-12330000D02*
X12270000Y-12370000D01*
X12270000Y-12330000D02*
X12230000Y-12370000D01*
X12230000Y-12430000D02*
X12270000Y-12470000D01*
X12270000Y-12430000D02*
X12230000Y-12470000D01*
X12230000Y-12530000D02*
X12270000Y-12570000D01*
X12270000Y-12530000D02*
X12230000Y-12570000D01*
X12230000Y-12630000D02*
X12270000Y-12670000D01*
X12270000Y-12630000D02*
X12230000Y-12670000D01*
X12530000Y-11030000D02*
X12570000Y-11070000D01*
X12570000Y-11030000D02*
X12530000Y-11070000D01*
X12530000Y-11130000D02*
X12570000Y-11170000D01*
X12570000Y-11130000D02*
X12530000Y-11170000D01*
X12530000Y-11230000D02*
X12570000Y-11270000D01*
X12570000Y-11230000D02*
X12530000Y-11270000D01*
X12530000Y-11330000D02*
X12570000Y-11370000D01*
X12570000Y-11330000D02*
X12530000Y-11370000D01*
X12530000Y-11430000D02*
X12570000Y-11470000D01*
X12570000Y-11430000D02*
X12530000Y-11470000D01*
X12530000Y-11530000D02*
X12570000Y-11570000D01*
X12570000Y-11530000D02*
X12530000Y-11570000D01*
X12530000Y-11630000D02*
X12570000Y-11670000D01*
X12570000Y-11630000D02*
X12530000Y-11670000D01*
X12530000Y-11730000D02*
X12570000Y-11770000D01*
X12570000Y-11730000D02*
X12530000Y-11770000D01*
X12630000Y-11030000D02*
X12670000Y-11070000D01*
X12670000Y-11030000D02*
X12630000Y-11070000D01*
X12630000Y-11130000D02*
X12670000Y-11170000D01*
X12670000Y-11130000D02*
X12630000Y-11170000D01*
X12630000Y-11230000D02*
X12670000Y-11270000D01*
X12670000Y-11230000D02*
X12630000Y-11270000D01*
X12630000Y-11330000D02*
X12670000Y-11370000D01*
X12670000Y-11330000D02*
X12630000Y-11370000D01*
X12630000Y-11430000D02*
X12670000Y-11470000D01*
X12670000Y-11430000D02*
X12630000Y-11470000D01*
X12630000Y-11530000D02*
X12670000Y-11570000D01*
X12670000Y-11530000D02*
X12630000Y-11570000D01*
X12630000Y-11630000D02*
X12670000Y-11670000D01*
X12670000Y-11630000D02*
X12630000Y-11670000D01*
X12630000Y-11730000D02*
X12670000Y-11770000D01*
X12670000Y-11730000D02*
X12630000Y-11770000D01*
X12730000Y-11030000D02*
X12770000Y-11070000D01*
X12770000Y-11030000D02*
X12730000Y-11070000D01*
X12730000Y-11130000D02*
X12770000Y-11170000D01*
X12770000Y-11130000D02*
X12730000Y-11170000D01*
X12730000Y-11230000D02*
X12770000Y-11270000D01*
X12770000Y-11230000D02*
X12730000Y-11270000D01*
X12730000Y-11330000D02*
X12770000Y-11370000D01*
X12770000Y-11330000D02*
X12730000Y-11370000D01*
X12730000Y-11430000D02*
X12770000Y-11470000D01*
X12770000Y-11430000D02*
X12730000Y-11470000D01*
X12730000Y-11530000D02*
X12770000Y-11570000D01*
X12770000Y-11530000D02*
X12730000Y-11570000D01*
X12730000Y-11630000D02*
X12770000Y-11670000D01*
X12770000Y-11630000D02*
X12730000Y-11670000D01*
X12730000Y-11730000D02*
X12770000Y-11770000D01*
X12770000Y-11730000D02*
X12730000Y-11770000D01*
X12830000Y-11030000D02*
X12870000Y-11070000D01*
X12870000Y-11030000D02*
X12830000Y-11070000D01*
X12830000Y-11130000D02*
X12870000Y-11170000D01*
X12870000Y-11130000D02*
X12830000Y-11170000D01*
X12830000Y-11230000D02*
X12870000Y-11270000D01*
X12870000Y-11230000D02*
X12830000Y-11270000D01*
X12830000Y-11330000D02*
X12870000Y-11370000D01*
X12870000Y-11330000D02*
X12830000Y-11370000D01*
X12830000Y-11430000D02*
X12870000Y-11470000D01*
X12870000Y-11430000D02*
X12830000Y-11470000D01*
X12830000Y-11530000D02*
X12870000Y-11570000D01*
X12870000Y-11530000D02*
X12830000Y-11570000D01*
X12830000Y-11630000D02*
X12870000Y-11670000D01*
X12870000Y-11630000D02*
X12830000Y-11670000D01*
X12830000Y-11730000D02*
X12870000Y-11770000D01*
X12870000Y-11730000D02*
X12830000Y-11770000D01*
X12930000Y-11030000D02*
X12970000Y-11070000D01*
X12970000Y-11030000D02*
X12930000Y-11070000D01*
X12930000Y-11130000D02*
X12970000Y-11170000D01*
X12970000Y-11130000D02*
X12930000Y-11170000D01*
X12930000Y-11230000D02*
X12970000Y-11270000D01*
X12970000Y-11230000D02*
X12930000Y-11270000D01*
X12930000Y-11330000D02*
X12970000Y-11370000D01*
X12970000Y-11330000D02*
X12930000Y-11370000D01*
X12930000Y-11430000D02*
X12970000Y-11470000D01*
X12970000Y-11430000D02*
X12930000Y-11470000D01*
X12930000Y-11530000D02*
X12970000Y-11570000D01*
X12970000Y-11530000D02*
X12930000Y-11570000D01*
X12930000Y-11630000D02*
X12970000Y-11670000D01*
X12970000Y-11630000D02*
X12930000Y-11670000D01*
X12930000Y-11730000D02*
X12970000Y-11770000D01*
X12970000Y-11730000D02*
X12930000Y-11770000D01*
X12653500Y-10130000D02*
G75*
G03*
X12653500Y-10130000I-37500J0D01*
G01*
X12657500Y-10560000D02*
G75*
G03*
X12657500Y-10560000I-37500J0D01*
G01*
X12780500Y-10130000D02*
G75*
G03*
X12780500Y-10130000I-37500J0D01*
G01*
X12784500Y-10560000D02*
G75*
G03*
X12784500Y-10560000I-37500J0D01*
G01*
X12907500Y-10130000D02*
G75*
G03*
X12907500Y-10130000I-37500J0D01*
G01*
X12911500Y-10560000D02*
G75*
G03*
X12911500Y-10560000I-37500J0D01*
G01*
X7700000Y-15277000D02*
X7700000Y-15357000D01*
X7660000Y-15317000D02*
X7740000Y-15317000D01*
X7700000Y-15531000D02*
X7700000Y-15611000D01*
X7660000Y-15571000D02*
X7740000Y-15571000D01*
X7700000Y-15785000D02*
X7700000Y-15865000D01*
X7660000Y-15825000D02*
X7740000Y-15825000D01*
X9138000Y-7810000D02*
X9138000Y-7890000D01*
X9098000Y-7850000D02*
X9178000Y-7850000D01*
X9900000Y-7810000D02*
X9900000Y-7890000D01*
X9860000Y-7850000D02*
X9940000Y-7850000D01*
X10698000Y-12270000D02*
X10698000Y-12350000D01*
X10658000Y-12310000D02*
X10738000Y-12310000D01*
X10698000Y-12524000D02*
X10698000Y-12604000D01*
X10658000Y-12564000D02*
X10738000Y-12564000D01*
X10698000Y-12778000D02*
X10698000Y-12858000D01*
X10658000Y-12818000D02*
X10738000Y-12818000D01*
X10698000Y-13032000D02*
X10698000Y-13112000D01*
X10658000Y-13072000D02*
X10738000Y-13072000D01*
X10698000Y-13286000D02*
X10698000Y-13366000D01*
X10658000Y-13326000D02*
X10738000Y-13326000D01*
X10698000Y-13540000D02*
X10698000Y-13620000D01*
X10658000Y-13580000D02*
X10738000Y-13580000D01*
X10698000Y-13794000D02*
X10698000Y-13874000D01*
X10658000Y-13834000D02*
X10738000Y-13834000D01*
X10700000Y-14278000D02*
X10700000Y-14358000D01*
X10660000Y-14318000D02*
X10740000Y-14318000D01*
X10700000Y-15040000D02*
X10700000Y-15120000D01*
X10660000Y-15080000D02*
X10740000Y-15080000D01*
X10700000Y-15278000D02*
X10700000Y-15358000D01*
X10660000Y-15318000D02*
X10740000Y-15318000D01*
X10700000Y-16040000D02*
X10700000Y-16120000D01*
X10660000Y-16080000D02*
X10740000Y-16080000D01*
X10910000Y-5855000D02*
X10910000Y-5935000D01*
X10870000Y-5895000D02*
X10950000Y-5895000D01*
X10910000Y-6105000D02*
X10910000Y-6185000D01*
X10870000Y-6145000D02*
X10950000Y-6145000D01*
X10980000Y-11560000D02*
X10980000Y-11640000D01*
X10940000Y-11600000D02*
X11020000Y-11600000D01*
X10980000Y-11910000D02*
X10980000Y-11990000D01*
X10940000Y-11950000D02*
X11020000Y-11950000D01*
X11040000Y-14510000D02*
X11040000Y-14590000D01*
X11000000Y-14550000D02*
X11080000Y-14550000D01*
X11040000Y-15010000D02*
X11040000Y-15090000D01*
X11000000Y-15050000D02*
X11080000Y-15050000D01*
X11040000Y-15270000D02*
X11040000Y-15350000D01*
X11000000Y-15310000D02*
X11080000Y-15310000D01*
X11040000Y-16032000D02*
X11040000Y-16112000D01*
X11000000Y-16072000D02*
X11080000Y-16072000D01*
X11378000Y-14470000D02*
X11378000Y-14550000D01*
X11338000Y-14510000D02*
X11418000Y-14510000D01*
X11378000Y-14724000D02*
X11378000Y-14804000D01*
X11338000Y-14764000D02*
X11418000Y-14764000D01*
X11378000Y-14978000D02*
X11378000Y-15058000D01*
X11338000Y-15018000D02*
X11418000Y-15018000D01*
X11378000Y-15232000D02*
X11378000Y-15312000D01*
X11338000Y-15272000D02*
X11418000Y-15272000D01*
X11378000Y-15486000D02*
X11378000Y-15566000D01*
X11338000Y-15526000D02*
X11418000Y-15526000D01*
X11378000Y-15740000D02*
X11378000Y-15820000D01*
X11338000Y-15780000D02*
X11418000Y-15780000D01*
X11378000Y-15994000D02*
X11378000Y-16074000D01*
X11338000Y-16034000D02*
X11418000Y-16034000D01*
X11460000Y-12270000D02*
X11460000Y-12350000D01*
X11420000Y-12310000D02*
X11500000Y-12310000D01*
X11460000Y-12524000D02*
X11460000Y-12604000D01*
X11420000Y-12564000D02*
X11500000Y-12564000D01*
X11460000Y-12778000D02*
X11460000Y-12858000D01*
X11420000Y-12818000D02*
X11500000Y-12818000D01*
X11460000Y-13032000D02*
X11460000Y-13112000D01*
X11420000Y-13072000D02*
X11500000Y-13072000D01*
X11460000Y-13286000D02*
X11460000Y-13366000D01*
X11420000Y-13326000D02*
X11500000Y-13326000D01*
X11460000Y-13540000D02*
X11460000Y-13620000D01*
X11420000Y-13580000D02*
X11500000Y-13580000D01*
X11460000Y-13794000D02*
X11460000Y-13874000D01*
X11420000Y-13834000D02*
X11500000Y-13834000D01*
X11480000Y-11560000D02*
X11480000Y-11640000D01*
X11440000Y-11600000D02*
X11520000Y-11600000D01*
X11480000Y-11910000D02*
X11480000Y-11990000D01*
X11440000Y-11950000D02*
X11520000Y-11950000D01*
X11560000Y-11150000D02*
X11560000Y-11230000D01*
X11520000Y-11190000D02*
X11600000Y-11190000D01*
X11563000Y-8630000D02*
X11563000Y-8710000D01*
X11523000Y-8670000D02*
X11603000Y-8670000D01*
X11563000Y-8945000D02*
X11563000Y-9025000D01*
X11523000Y-8985000D02*
X11603000Y-8985000D01*
X11563000Y-9575000D02*
X11563000Y-9655000D01*
X11523000Y-9615000D02*
X11603000Y-9615000D01*
X11563000Y-9890000D02*
X11563000Y-9970000D01*
X11523000Y-9930000D02*
X11603000Y-9930000D01*
X11563000Y-10205000D02*
X11563000Y-10285000D01*
X11523000Y-10245000D02*
X11603000Y-10245000D01*
X11563000Y-10520000D02*
X11563000Y-10600000D01*
X11523000Y-10560000D02*
X11603000Y-10560000D01*
X11563000Y-10835000D02*
X11563000Y-10915000D01*
X11523000Y-10875000D02*
X11603000Y-10875000D01*
X11565000Y-9260000D02*
X11565000Y-9340000D01*
X11525000Y-9300000D02*
X11605000Y-9300000D01*
X11570000Y-7930000D02*
X11570000Y-8010000D01*
X11530000Y-7970000D02*
X11610000Y-7970000D01*
X11820000Y-7930000D02*
X11820000Y-8010000D01*
X11780000Y-7970000D02*
X11860000Y-7970000D01*
X11893000Y-13805000D02*
X11893000Y-13885000D01*
X11853000Y-13845000D02*
X11933000Y-13845000D01*
X11898000Y-12910000D02*
X11898000Y-12990000D01*
X11858000Y-12950000D02*
X11938000Y-12950000D01*
X11898000Y-13495000D02*
X11898000Y-13575000D01*
X11858000Y-13535000D02*
X11938000Y-13535000D01*
X11900000Y-13190000D02*
X11900000Y-13270000D01*
X11860000Y-13230000D02*
X11940000Y-13230000D01*
X12030000Y-11580000D02*
X12030000Y-11660000D01*
X11990000Y-11620000D02*
X12070000Y-11620000D01*
X12030000Y-11830000D02*
X12030000Y-11910000D01*
X11990000Y-11870000D02*
X12070000Y-11870000D01*
X12140000Y-14470000D02*
X12140000Y-14550000D01*
X12100000Y-14510000D02*
X12180000Y-14510000D01*
X12140000Y-14724000D02*
X12140000Y-14804000D01*
X12100000Y-14764000D02*
X12180000Y-14764000D01*
X12140000Y-14978000D02*
X12140000Y-15058000D01*
X12100000Y-15018000D02*
X12180000Y-15018000D01*
X12140000Y-15232000D02*
X12140000Y-15312000D01*
X12100000Y-15272000D02*
X12180000Y-15272000D01*
X12140000Y-15486000D02*
X12140000Y-15566000D01*
X12100000Y-15526000D02*
X12180000Y-15526000D01*
X12140000Y-15740000D02*
X12140000Y-15820000D01*
X12100000Y-15780000D02*
X12180000Y-15780000D01*
X12140000Y-15994000D02*
X12140000Y-16074000D01*
X12100000Y-16034000D02*
X12180000Y-16034000D01*
X12322000Y-11150000D02*
X12322000Y-11230000D01*
X12282000Y-11190000D02*
X12362000Y-11190000D01*
X12325000Y-8630000D02*
X12325000Y-8710000D01*
X12285000Y-8670000D02*
X12365000Y-8670000D01*
X12325000Y-8945000D02*
X12325000Y-9025000D01*
X12285000Y-8985000D02*
X12365000Y-8985000D01*
X12325000Y-9575000D02*
X12325000Y-9655000D01*
X12285000Y-9615000D02*
X12365000Y-9615000D01*
X12325000Y-9890000D02*
X12325000Y-9970000D01*
X12285000Y-9930000D02*
X12365000Y-9930000D01*
X12325000Y-10205000D02*
X12325000Y-10285000D01*
X12285000Y-10245000D02*
X12365000Y-10245000D01*
X12325000Y-10520000D02*
X12325000Y-10600000D01*
X12285000Y-10560000D02*
X12365000Y-10560000D01*
X12325000Y-10835000D02*
X12325000Y-10915000D01*
X12285000Y-10875000D02*
X12365000Y-10875000D01*
X12327000Y-9260000D02*
X12327000Y-9340000D01*
X12287000Y-9300000D02*
X12367000Y-9300000D01*
X12420000Y-15370000D02*
X12420000Y-15450000D01*
X12380000Y-15410000D02*
X12460000Y-15410000D01*
X12420000Y-15690000D02*
X12420000Y-15770000D01*
X12380000Y-15730000D02*
X12460000Y-15730000D01*
X12420000Y-16010000D02*
X12420000Y-16090000D01*
X12380000Y-16050000D02*
X12460000Y-16050000D01*
X12440000Y-15040000D02*
X12440000Y-15120000D01*
X12400000Y-15080000D02*
X12480000Y-15080000D01*
X12590000Y-14470000D02*
X12590000Y-14550000D01*
X12550000Y-14510000D02*
X12630000Y-14510000D01*
X12620000Y-8640000D02*
X12620000Y-8720000D01*
X12580000Y-8680000D02*
X12660000Y-8680000D01*
X12620000Y-8970000D02*
X12620000Y-9050000D01*
X12580000Y-9010000D02*
X12660000Y-9010000D01*
X12625000Y-9300000D02*
X12625000Y-9380000D01*
X12585000Y-9340000D02*
X12665000Y-9340000D01*
X12625000Y-9630000D02*
X12625000Y-9710000D01*
X12585000Y-9670000D02*
X12665000Y-9670000D01*
X12655000Y-13805000D02*
X12655000Y-13885000D01*
X12615000Y-13845000D02*
X12695000Y-13845000D01*
X12660000Y-12910000D02*
X12660000Y-12990000D01*
X12620000Y-12950000D02*
X12700000Y-12950000D01*
X12660000Y-13495000D02*
X12660000Y-13575000D01*
X12620000Y-13535000D02*
X12700000Y-13535000D01*
X12662000Y-13190000D02*
X12662000Y-13270000D01*
X12622000Y-13230000D02*
X12702000Y-13230000D01*
X12840000Y-14470000D02*
X12840000Y-14550000D01*
X12800000Y-14510000D02*
X12880000Y-14510000D01*
X12870000Y-8640000D02*
X12870000Y-8720000D01*
X12830000Y-8680000D02*
X12910000Y-8680000D01*
X12870000Y-8970000D02*
X12870000Y-9050000D01*
X12830000Y-9010000D02*
X12910000Y-9010000D01*
X12875000Y-9300000D02*
X12875000Y-9380000D01*
X12835000Y-9340000D02*
X12915000Y-9340000D01*
X12875000Y-9630000D02*
X12875000Y-9710000D01*
X12835000Y-9670000D02*
X12915000Y-9670000D01*
X12940000Y-15040000D02*
X12940000Y-15120000D01*
X12900000Y-15080000D02*
X12980000Y-15080000D01*
X13182000Y-15370000D02*
X13182000Y-15450000D01*
X13142000Y-15410000D02*
X13222000Y-15410000D01*
X13182000Y-15690000D02*
X13182000Y-15770000D01*
X13142000Y-15730000D02*
X13222000Y-15730000D01*
X13182000Y-16010000D02*
X13182000Y-16090000D01*
X13142000Y-16050000D02*
X13222000Y-16050000D01*
X9656820Y-7131820D02*
X9656820Y-7068180D01*
X9593180Y-7068180D01*
X9593180Y-7131820D01*
X9656820Y-7131820D01*
X9910820Y-7131820D02*
X9910820Y-7068180D01*
X9847180Y-7068180D01*
X9847180Y-7131820D01*
X9910820Y-7131820D01*
X11760000Y-5942500D02*
X11807500Y-5895000D01*
X11760000Y-5847500D01*
X11712500Y-5895000D01*
X11760000Y-5942500D01*
X11760000Y-6192500D02*
X11807500Y-6145000D01*
X11760000Y-6097500D01*
X11712500Y-6145000D01*
X11760000Y-6192500D01*
X11760000Y-6442500D02*
X11807500Y-6395000D01*
X11760000Y-6347500D01*
X11712500Y-6395000D01*
X11760000Y-6442500D01*
X11760000Y-6692500D02*
X11807500Y-6645000D01*
X11760000Y-6597500D01*
X11712500Y-6645000D01*
X11760000Y-6692500D01*
X11760000Y-6942500D02*
X11807500Y-6895000D01*
X11760000Y-6847500D01*
X11712500Y-6895000D01*
X11760000Y-6942500D01*
X11760000Y-7192500D02*
X11807500Y-7145000D01*
X11760000Y-7097500D01*
X11712500Y-7145000D01*
X11760000Y-7192500D01*
X7450000Y-7200000D02*
X7550000Y-7300000D01*
X7550000Y-7200000D02*
X7450000Y-7300000D01*
X7550000Y-7250000D02*
G75*
G03*
X7550000Y-7250000I-50000J0D01*
G01*
X7450000Y-7454000D02*
X7550000Y-7554000D01*
X7550000Y-7454000D02*
X7450000Y-7554000D01*
X7550000Y-7504000D02*
G75*
G03*
X7550000Y-7504000I-50000J0D01*
G01*
X7450000Y-7708000D02*
X7550000Y-7808000D01*
X7550000Y-7708000D02*
X7450000Y-7808000D01*
X7550000Y-7758000D02*
G75*
G03*
X7550000Y-7758000I-50000J0D01*
G01*
X7450000Y-7962000D02*
X7550000Y-8062000D01*
X7550000Y-7962000D02*
X7450000Y-8062000D01*
X7550000Y-8012000D02*
G75*
G03*
X7550000Y-8012000I-50000J0D01*
G01*
X7450000Y-8216000D02*
X7550000Y-8316000D01*
X7550000Y-8216000D02*
X7450000Y-8316000D01*
X7550000Y-8266000D02*
G75*
G03*
X7550000Y-8266000I-50000J0D01*
G01*
X7450000Y-8470000D02*
X7550000Y-8570000D01*
X7550000Y-8470000D02*
X7450000Y-8570000D01*
X7550000Y-8520000D02*
G75*
G03*
X7550000Y-8520000I-50000J0D01*
G01*
X7450000Y-8724000D02*
X7550000Y-8824000D01*
X7550000Y-8724000D02*
X7450000Y-8824000D01*
X7550000Y-8774000D02*
G75*
G03*
X7550000Y-8774000I-50000J0D01*
G01*
X7450000Y-8978000D02*
X7550000Y-9078000D01*
X7550000Y-8978000D02*
X7450000Y-9078000D01*
X7550000Y-9028000D02*
G75*
G03*
X7550000Y-9028000I-50000J0D01*
G01*
X7450000Y-9232000D02*
X7550000Y-9332000D01*
X7550000Y-9232000D02*
X7450000Y-9332000D01*
X7550000Y-9282000D02*
G75*
G03*
X7550000Y-9282000I-50000J0D01*
G01*
X7450000Y-9486000D02*
X7550000Y-9586000D01*
X7550000Y-9486000D02*
X7450000Y-9586000D01*
X7550000Y-9536000D02*
G75*
G03*
X7550000Y-9536000I-50000J0D01*
G01*
X7450000Y-9740000D02*
X7550000Y-9840000D01*
X7550000Y-9740000D02*
X7450000Y-9840000D01*
X7550000Y-9790000D02*
G75*
G03*
X7550000Y-9790000I-50000J0D01*
G01*
X7450000Y-9994000D02*
X7550000Y-10094000D01*
X7550000Y-9994000D02*
X7450000Y-10094000D01*
X7550000Y-10044000D02*
G75*
G03*
X7550000Y-10044000I-50000J0D01*
G01*
X7450000Y-10248000D02*
X7550000Y-10348000D01*
X7550000Y-10248000D02*
X7450000Y-10348000D01*
X7550000Y-10298000D02*
G75*
G03*
X7550000Y-10298000I-50000J0D01*
G01*
X7450000Y-10502000D02*
X7550000Y-10602000D01*
X7550000Y-10502000D02*
X7450000Y-10602000D01*
X7550000Y-10552000D02*
G75*
G03*
X7550000Y-10552000I-50000J0D01*
G01*
X7450000Y-10756000D02*
X7550000Y-10856000D01*
X7550000Y-10756000D02*
X7450000Y-10856000D01*
X7550000Y-10806000D02*
G75*
G03*
X7550000Y-10806000I-50000J0D01*
G01*
X7450000Y-11010000D02*
X7550000Y-11110000D01*
X7550000Y-11010000D02*
X7450000Y-11110000D01*
X7550000Y-11060000D02*
G75*
G03*
X7550000Y-11060000I-50000J0D01*
G01*
X8040000Y-7300000D02*
X8140000Y-7400000D01*
X8140000Y-7300000D02*
X8040000Y-7400000D01*
X8140000Y-7350000D02*
G75*
G03*
X8140000Y-7350000I-50000J0D01*
G01*
X8290000Y-7300000D02*
X8390000Y-7400000D01*
X8390000Y-7300000D02*
X8290000Y-7400000D01*
X8390000Y-7350000D02*
G75*
G03*
X8390000Y-7350000I-50000J0D01*
G01*
X8540000Y-7300000D02*
X8640000Y-7400000D01*
X8640000Y-7300000D02*
X8540000Y-7400000D01*
X8640000Y-7350000D02*
G75*
G03*
X8640000Y-7350000I-50000J0D01*
G01*
X8800000Y-9450000D02*
X8900000Y-9550000D01*
X8900000Y-9450000D02*
X8800000Y-9550000D01*
X8900000Y-9500000D02*
G75*
G03*
X8900000Y-9500000I-50000J0D01*
G01*
X8800000Y-10150000D02*
X8900000Y-10250000D01*
X8900000Y-10150000D02*
X8800000Y-10250000D01*
X8900000Y-10200000D02*
G75*
G03*
X8900000Y-10200000I-50000J0D01*
G01*
X8800000Y-13900000D02*
X8900000Y-14000000D01*
X8900000Y-13900000D02*
X8800000Y-14000000D01*
X8900000Y-13950000D02*
G75*
G03*
X8900000Y-13950000I-50000J0D01*
G01*
X9050000Y-9450000D02*
X9150000Y-9550000D01*
X9150000Y-9450000D02*
X9050000Y-9550000D01*
X9150000Y-9500000D02*
G75*
G03*
X9150000Y-9500000I-50000J0D01*
G01*
X9050000Y-10150000D02*
X9150000Y-10250000D01*
X9150000Y-10150000D02*
X9050000Y-10250000D01*
X9150000Y-10200000D02*
G75*
G03*
X9150000Y-10200000I-50000J0D01*
G01*
X9050000Y-13900000D02*
X9150000Y-14000000D01*
X9150000Y-13900000D02*
X9050000Y-14000000D01*
X9150000Y-13950000D02*
G75*
G03*
X9150000Y-13950000I-50000J0D01*
G01*
X9300000Y-9450000D02*
X9400000Y-9550000D01*
X9400000Y-9450000D02*
X9300000Y-9550000D01*
X9400000Y-9500000D02*
G75*
G03*
X9400000Y-9500000I-50000J0D01*
G01*
X9300000Y-10150000D02*
X9400000Y-10250000D01*
X9400000Y-10150000D02*
X9300000Y-10250000D01*
X9400000Y-10200000D02*
G75*
G03*
X9400000Y-10200000I-50000J0D01*
G01*
X9300000Y-13900000D02*
X9400000Y-14000000D01*
X9400000Y-13900000D02*
X9300000Y-14000000D01*
X9400000Y-13950000D02*
G75*
G03*
X9400000Y-13950000I-50000J0D01*
G01*
X10650000Y-7200000D02*
X10750000Y-7300000D01*
X10750000Y-7200000D02*
X10650000Y-7300000D01*
X10750000Y-7250000D02*
G75*
G03*
X10750000Y-7250000I-50000J0D01*
G01*
X10650000Y-7454000D02*
X10750000Y-7554000D01*
X10750000Y-7454000D02*
X10650000Y-7554000D01*
X10750000Y-7504000D02*
G75*
G03*
X10750000Y-7504000I-50000J0D01*
G01*
X10650000Y-7708000D02*
X10750000Y-7808000D01*
X10750000Y-7708000D02*
X10650000Y-7808000D01*
X10750000Y-7758000D02*
G75*
G03*
X10750000Y-7758000I-50000J0D01*
G01*
X10650000Y-7962000D02*
X10750000Y-8062000D01*
X10750000Y-7962000D02*
X10650000Y-8062000D01*
X10750000Y-8012000D02*
G75*
G03*
X10750000Y-8012000I-50000J0D01*
G01*
X10650000Y-8216000D02*
X10750000Y-8316000D01*
X10750000Y-8216000D02*
X10650000Y-8316000D01*
X10750000Y-8266000D02*
G75*
G03*
X10750000Y-8266000I-50000J0D01*
G01*
X10650000Y-8470000D02*
X10750000Y-8570000D01*
X10750000Y-8470000D02*
X10650000Y-8570000D01*
X10750000Y-8520000D02*
G75*
G03*
X10750000Y-8520000I-50000J0D01*
G01*
X10650000Y-8724000D02*
X10750000Y-8824000D01*
X10750000Y-8724000D02*
X10650000Y-8824000D01*
X10750000Y-8774000D02*
G75*
G03*
X10750000Y-8774000I-50000J0D01*
G01*
X10650000Y-8978000D02*
X10750000Y-9078000D01*
X10750000Y-8978000D02*
X10650000Y-9078000D01*
X10750000Y-9028000D02*
G75*
G03*
X10750000Y-9028000I-50000J0D01*
G01*
X10650000Y-9232000D02*
X10750000Y-9332000D01*
X10750000Y-9232000D02*
X10650000Y-9332000D01*
X10750000Y-9282000D02*
G75*
G03*
X10750000Y-9282000I-50000J0D01*
G01*
X10650000Y-9486000D02*
X10750000Y-9586000D01*
X10750000Y-9486000D02*
X10650000Y-9586000D01*
X10750000Y-9536000D02*
G75*
G03*
X10750000Y-9536000I-50000J0D01*
G01*
X10650000Y-9740000D02*
X10750000Y-9840000D01*
X10750000Y-9740000D02*
X10650000Y-9840000D01*
X10750000Y-9790000D02*
G75*
G03*
X10750000Y-9790000I-50000J0D01*
G01*
X10650000Y-9994000D02*
X10750000Y-10094000D01*
X10750000Y-9994000D02*
X10650000Y-10094000D01*
X10750000Y-10044000D02*
G75*
G03*
X10750000Y-10044000I-50000J0D01*
G01*
X10650000Y-10248000D02*
X10750000Y-10348000D01*
X10750000Y-10248000D02*
X10650000Y-10348000D01*
X10750000Y-10298000D02*
G75*
G03*
X10750000Y-10298000I-50000J0D01*
G01*
X10650000Y-10502000D02*
X10750000Y-10602000D01*
X10750000Y-10502000D02*
X10650000Y-10602000D01*
X10750000Y-10552000D02*
G75*
G03*
X10750000Y-10552000I-50000J0D01*
G01*
X10650000Y-10756000D02*
X10750000Y-10856000D01*
X10750000Y-10756000D02*
X10650000Y-10856000D01*
X10750000Y-10806000D02*
G75*
G03*
X10750000Y-10806000I-50000J0D01*
G01*
X10650000Y-11010000D02*
X10750000Y-11110000D01*
X10750000Y-11010000D02*
X10650000Y-11110000D01*
X10750000Y-11060000D02*
G75*
G03*
X10750000Y-11060000I-50000J0D01*
G01*
X12426000Y-6110000D02*
X12526000Y-6210000D01*
X12526000Y-6110000D02*
X12426000Y-6210000D01*
X12526000Y-6160000D02*
G75*
G03*
X12526000Y-6160000I-50000J0D01*
G01*
X12426000Y-6364000D02*
X12526000Y-6464000D01*
X12526000Y-6364000D02*
X12426000Y-6464000D01*
X12526000Y-6414000D02*
G75*
G03*
X12526000Y-6414000I-50000J0D01*
G01*
X12426000Y-6618000D02*
X12526000Y-6718000D01*
X12526000Y-6618000D02*
X12426000Y-6718000D01*
X12526000Y-6668000D02*
G75*
G03*
X12526000Y-6668000I-50000J0D01*
G01*
X12426000Y-6872000D02*
X12526000Y-6972000D01*
X12526000Y-6872000D02*
X12426000Y-6972000D01*
X12526000Y-6922000D02*
G75*
G03*
X12526000Y-6922000I-50000J0D01*
G01*
X12426000Y-7126000D02*
X12526000Y-7226000D01*
X12526000Y-7126000D02*
X12426000Y-7226000D01*
X12526000Y-7176000D02*
G75*
G03*
X12526000Y-7176000I-50000J0D01*
G01*
X12426000Y-7380000D02*
X12526000Y-7480000D01*
X12526000Y-7380000D02*
X12426000Y-7480000D01*
X12526000Y-7430000D02*
G75*
G03*
X12526000Y-7430000I-50000J0D01*
G01*
X12426000Y-7634000D02*
X12526000Y-7734000D01*
X12526000Y-7634000D02*
X12426000Y-7734000D01*
X12526000Y-7684000D02*
G75*
G03*
X12526000Y-7684000I-50000J0D01*
G01*
X12426000Y-7888000D02*
X12526000Y-7988000D01*
X12526000Y-7888000D02*
X12426000Y-7988000D01*
X12526000Y-7938000D02*
G75*
G03*
X12526000Y-7938000I-50000J0D01*
G01*
X12680000Y-6110000D02*
X12780000Y-6210000D01*
X12780000Y-6110000D02*
X12680000Y-6210000D01*
X12780000Y-6160000D02*
G75*
G03*
X12780000Y-6160000I-50000J0D01*
G01*
X12680000Y-6364000D02*
X12780000Y-6464000D01*
X12780000Y-6364000D02*
X12680000Y-6464000D01*
X12780000Y-6414000D02*
G75*
G03*
X12780000Y-6414000I-50000J0D01*
G01*
X12680000Y-6618000D02*
X12780000Y-6718000D01*
X12780000Y-6618000D02*
X12680000Y-6718000D01*
X12780000Y-6668000D02*
G75*
G03*
X12780000Y-6668000I-50000J0D01*
G01*
X12680000Y-6872000D02*
X12780000Y-6972000D01*
X12780000Y-6872000D02*
X12680000Y-6972000D01*
X12780000Y-6922000D02*
G75*
G03*
X12780000Y-6922000I-50000J0D01*
G01*
X12680000Y-7126000D02*
X12780000Y-7226000D01*
X12780000Y-7126000D02*
X12680000Y-7226000D01*
X12780000Y-7176000D02*
G75*
G03*
X12780000Y-7176000I-50000J0D01*
G01*
X12680000Y-7380000D02*
X12780000Y-7480000D01*
X12780000Y-7380000D02*
X12680000Y-7480000D01*
X12780000Y-7430000D02*
G75*
G03*
X12780000Y-7430000I-50000J0D01*
G01*
X12680000Y-7634000D02*
X12780000Y-7734000D01*
X12780000Y-7634000D02*
X12680000Y-7734000D01*
X12780000Y-7684000D02*
G75*
G03*
X12780000Y-7684000I-50000J0D01*
G01*
X12680000Y-7888000D02*
X12780000Y-7988000D01*
X12780000Y-7888000D02*
X12680000Y-7988000D01*
X12780000Y-7938000D02*
G75*
G03*
X12780000Y-7938000I-50000J0D01*
G01*
X7805000Y-6545000D02*
X7915000Y-6655000D01*
X7915000Y-6545000D02*
X7805000Y-6655000D01*
X7860000Y-6545000D02*
X7860000Y-6655000D01*
X7805000Y-6600000D02*
X7915000Y-6600000D01*
X7905000Y-6635000D02*
X7905000Y-6565000D01*
X7815000Y-6635000D02*
X7815000Y-6565000D01*
X7905000Y-6565000D02*
G75*
G03*
X7815000Y-6565000I-45000J0D01*
G01*
X7815000Y-6635000D02*
G75*
G03*
X7905000Y-6635000I45000J0D01*
G01*
X8565000Y-8695000D02*
X8675000Y-8805000D01*
X8675000Y-8695000D02*
X8565000Y-8805000D01*
X8620000Y-8695000D02*
X8620000Y-8805000D01*
X8565000Y-8750000D02*
X8675000Y-8750000D01*
X8665000Y-8785000D02*
X8665000Y-8715000D01*
X8575000Y-8785000D02*
X8575000Y-8715000D01*
X8665000Y-8715000D02*
G75*
G03*
X8575000Y-8715000I-45000J0D01*
G01*
X8575000Y-8785000D02*
G75*
G03*
X8665000Y-8785000I45000J0D01*
G01*
X8565000Y-10895000D02*
X8675000Y-11005000D01*
X8675000Y-10895000D02*
X8565000Y-11005000D01*
X8620000Y-10895000D02*
X8620000Y-11005000D01*
X8565000Y-10950000D02*
X8675000Y-10950000D01*
X8575000Y-10915000D02*
X8575000Y-10985000D01*
X8665000Y-10915000D02*
X8665000Y-10985000D01*
X8575000Y-10985000D02*
G75*
G03*
X8665000Y-10985000I45000J0D01*
G01*
X8665000Y-10915000D02*
G75*
G03*
X8575000Y-10915000I-45000J0D01*
G01*
X8565000Y-13145000D02*
X8675000Y-13255000D01*
X8675000Y-13145000D02*
X8565000Y-13255000D01*
X8620000Y-13145000D02*
X8620000Y-13255000D01*
X8565000Y-13200000D02*
X8675000Y-13200000D01*
X8665000Y-13235000D02*
X8665000Y-13165000D01*
X8575000Y-13235000D02*
X8575000Y-13165000D01*
X8665000Y-13165000D02*
G75*
G03*
X8575000Y-13165000I-45000J0D01*
G01*
X8575000Y-13235000D02*
G75*
G03*
X8665000Y-13235000I45000J0D01*
G01*
X8765000Y-6545000D02*
X8875000Y-6655000D01*
X8875000Y-6545000D02*
X8765000Y-6655000D01*
X8820000Y-6545000D02*
X8820000Y-6655000D01*
X8765000Y-6600000D02*
X8875000Y-6600000D01*
X8865000Y-6635000D02*
X8865000Y-6565000D01*
X8775000Y-6635000D02*
X8775000Y-6565000D01*
X8865000Y-6565000D02*
G75*
G03*
X8775000Y-6565000I-45000J0D01*
G01*
X8775000Y-6635000D02*
G75*
G03*
X8865000Y-6635000I45000J0D01*
G01*
X9525000Y-8695000D02*
X9635000Y-8805000D01*
X9635000Y-8695000D02*
X9525000Y-8805000D01*
X9580000Y-8695000D02*
X9580000Y-8805000D01*
X9525000Y-8750000D02*
X9635000Y-8750000D01*
X9625000Y-8785000D02*
X9625000Y-8715000D01*
X9535000Y-8785000D02*
X9535000Y-8715000D01*
X9625000Y-8715000D02*
G75*
G03*
X9535000Y-8715000I-45000J0D01*
G01*
X9535000Y-8785000D02*
G75*
G03*
X9625000Y-8785000I45000J0D01*
G01*
X9525000Y-10895000D02*
X9635000Y-11005000D01*
X9635000Y-10895000D02*
X9525000Y-11005000D01*
X9580000Y-10895000D02*
X9580000Y-11005000D01*
X9525000Y-10950000D02*
X9635000Y-10950000D01*
X9535000Y-10915000D02*
X9535000Y-10985000D01*
X9625000Y-10915000D02*
X9625000Y-10985000D01*
X9535000Y-10985000D02*
G75*
G03*
X9625000Y-10985000I45000J0D01*
G01*
X9625000Y-10915000D02*
G75*
G03*
X9535000Y-10915000I-45000J0D01*
G01*
X9525000Y-13145000D02*
X9635000Y-13255000D01*
X9635000Y-13145000D02*
X9525000Y-13255000D01*
X9580000Y-13145000D02*
X9580000Y-13255000D01*
X9525000Y-13200000D02*
X9635000Y-13200000D01*
X9625000Y-13235000D02*
X9625000Y-13165000D01*
X9535000Y-13235000D02*
X9535000Y-13165000D01*
X9625000Y-13165000D02*
G75*
G03*
X9535000Y-13165000I-45000J0D01*
G01*
X9535000Y-13235000D02*
G75*
G03*
X9625000Y-13235000I45000J0D01*
G01*
X7739000Y-11389000D02*
X7861000Y-11511000D01*
X7861000Y-11389000D02*
X7739000Y-11511000D01*
X7843134Y-11493134D02*
X7843134Y-11406866D01*
X7756866Y-11406866D01*
X7756866Y-11493134D01*
X7843134Y-11493134D01*
X7739000Y-13339000D02*
X7861000Y-13461000D01*
X7861000Y-13339000D02*
X7739000Y-13461000D01*
X7843134Y-13443134D02*
X7843134Y-13356866D01*
X7756866Y-13356866D01*
X7756866Y-13443134D01*
X7843134Y-13443134D01*
X8439000Y-14879000D02*
X8561000Y-15001000D01*
X8561000Y-14879000D02*
X8439000Y-15001000D01*
X8543134Y-14983134D02*
X8543134Y-14896866D01*
X8456866Y-14896866D01*
X8456866Y-14983134D01*
X8543134Y-14983134D01*
X9539000Y-14889000D02*
X9661000Y-15011000D01*
X9661000Y-14889000D02*
X9539000Y-15011000D01*
X9643134Y-14993134D02*
X9643134Y-14906866D01*
X9556866Y-14906866D01*
X9556866Y-14993134D01*
X9643134Y-14993134D01*
X7729000Y-11689000D02*
X7871000Y-11831000D01*
X7871000Y-11689000D02*
X7729000Y-11831000D01*
X7800000Y-11831000D02*
X7871000Y-11760000D01*
X7800000Y-11689000D01*
X7729000Y-11760000D01*
X7800000Y-11831000D01*
X7729000Y-13639000D02*
X7871000Y-13781000D01*
X7871000Y-13639000D02*
X7729000Y-13781000D01*
X7800000Y-13781000D02*
X7871000Y-13710000D01*
X7800000Y-13639000D01*
X7729000Y-13710000D01*
X7800000Y-13781000D01*
X8429000Y-15179000D02*
X8571000Y-15321000D01*
X8571000Y-15179000D02*
X8429000Y-15321000D01*
X8500000Y-15321000D02*
X8571000Y-15250000D01*
X8500000Y-15179000D01*
X8429000Y-15250000D01*
X8500000Y-15321000D01*
X9529000Y-15189000D02*
X9671000Y-15331000D01*
X9671000Y-15189000D02*
X9529000Y-15331000D01*
X9600000Y-15331000D02*
X9671000Y-15260000D01*
X9600000Y-15189000D01*
X9529000Y-15260000D01*
X9600000Y-15331000D01*
X7800000Y-12518500D02*
X7800000Y-12661500D01*
X7728500Y-12590000D02*
X7871500Y-12590000D01*
X7871500Y-12590000D02*
G75*
G03*
X7871500Y-12590000I-71500J0D01*
G01*
X7800000Y-14468500D02*
X7800000Y-14611500D01*
X7728500Y-14540000D02*
X7871500Y-14540000D01*
X7871500Y-14540000D02*
G75*
G03*
X7871500Y-14540000I-71500J0D01*
G01*
X8500000Y-16008500D02*
X8500000Y-16151500D01*
X8428500Y-16080000D02*
X8571500Y-16080000D01*
X8571500Y-16080000D02*
G75*
G03*
X8571500Y-16080000I-71500J0D01*
G01*
X9600000Y-16018500D02*
X9600000Y-16161500D01*
X9528500Y-16090000D02*
X9671500Y-16090000D01*
X9671500Y-16090000D02*
G75*
G03*
X9671500Y-16090000I-71500J0D01*
G01*
X7042678Y-6342678D02*
X7042678Y-6307322D01*
X7007322Y-6307322D01*
X7007322Y-6342678D01*
X7042678Y-6342678D01*
X7050000Y-6325000D02*
G75*
G03*
X7050000Y-6325000I-25000J0D01*
G01*
X7042678Y-6417678D02*
X7042678Y-6382322D01*
X7007322Y-6382322D01*
X7007322Y-6417678D01*
X7042678Y-6417678D01*
X7050000Y-6400000D02*
G75*
G03*
X7050000Y-6400000I-25000J0D01*
G01*
X7042678Y-6492678D02*
X7042678Y-6457322D01*
X7007322Y-6457322D01*
X7007322Y-6492678D01*
X7042678Y-6492678D01*
X7050000Y-6475000D02*
G75*
G03*
X7050000Y-6475000I-25000J0D01*
G01*
X7042678Y-14242678D02*
X7042678Y-14207322D01*
X7007322Y-14207322D01*
X7007322Y-14242678D01*
X7042678Y-14242678D01*
X7050000Y-14225000D02*
G75*
G03*
X7050000Y-14225000I-25000J0D01*
G01*
X7042678Y-14317678D02*
X7042678Y-14282322D01*
X7007322Y-14282322D01*
X7007322Y-14317678D01*
X7042678Y-14317678D01*
X7050000Y-14300000D02*
G75*
G03*
X7050000Y-14300000I-25000J0D01*
G01*
X7042678Y-14392678D02*
X7042678Y-14357322D01*
X7007322Y-14357322D01*
X7007322Y-14392678D01*
X7042678Y-14392678D01*
X7050000Y-14375000D02*
G75*
G03*
X7050000Y-14375000I-25000J0D01*
G01*
X7192678Y-6342678D02*
X7192678Y-6307322D01*
X7157322Y-6307322D01*
X7157322Y-6342678D01*
X7192678Y-6342678D01*
X7200000Y-6325000D02*
G75*
G03*
X7200000Y-6325000I-25000J0D01*
G01*
X7192678Y-6417678D02*
X7192678Y-6382322D01*
X7157322Y-6382322D01*
X7157322Y-6417678D01*
X7192678Y-6417678D01*
X7200000Y-6400000D02*
G75*
G03*
X7200000Y-6400000I-25000J0D01*
G01*
X7192678Y-6492678D02*
X7192678Y-6457322D01*
X7157322Y-6457322D01*
X7157322Y-6492678D01*
X7192678Y-6492678D01*
X7200000Y-6475000D02*
G75*
G03*
X7200000Y-6475000I-25000J0D01*
G01*
X7192678Y-14242678D02*
X7192678Y-14207322D01*
X7157322Y-14207322D01*
X7157322Y-14242678D01*
X7192678Y-14242678D01*
X7200000Y-14225000D02*
G75*
G03*
X7200000Y-14225000I-25000J0D01*
G01*
X7192678Y-14317678D02*
X7192678Y-14282322D01*
X7157322Y-14282322D01*
X7157322Y-14317678D01*
X7192678Y-14317678D01*
X7200000Y-14300000D02*
G75*
G03*
X7200000Y-14300000I-25000J0D01*
G01*
X7192678Y-14392678D02*
X7192678Y-14357322D01*
X7157322Y-14357322D01*
X7157322Y-14392678D01*
X7192678Y-14392678D01*
X7200000Y-14375000D02*
G75*
G03*
X7200000Y-14375000I-25000J0D01*
G01*
X10242678Y-6342678D02*
X10242678Y-6307322D01*
X10207322Y-6307322D01*
X10207322Y-6342678D01*
X10242678Y-6342678D01*
X10250000Y-6325000D02*
G75*
G03*
X10250000Y-6325000I-25000J0D01*
G01*
X10242678Y-6417678D02*
X10242678Y-6382322D01*
X10207322Y-6382322D01*
X10207322Y-6417678D01*
X10242678Y-6417678D01*
X10250000Y-6400000D02*
G75*
G03*
X10250000Y-6400000I-25000J0D01*
G01*
X10242678Y-6492678D02*
X10242678Y-6457322D01*
X10207322Y-6457322D01*
X10207322Y-6492678D01*
X10242678Y-6492678D01*
X10250000Y-6475000D02*
G75*
G03*
X10250000Y-6475000I-25000J0D01*
G01*
X10242678Y-14242678D02*
X10242678Y-14207322D01*
X10207322Y-14207322D01*
X10207322Y-14242678D01*
X10242678Y-14242678D01*
X10250000Y-14225000D02*
G75*
G03*
X10250000Y-14225000I-25000J0D01*
G01*
X10242678Y-14317678D02*
X10242678Y-14282322D01*
X10207322Y-14282322D01*
X10207322Y-14317678D01*
X10242678Y-14317678D01*
X10250000Y-14300000D02*
G75*
G03*
X10250000Y-14300000I-25000J0D01*
G01*
X10242678Y-14392678D02*
X10242678Y-14357322D01*
X10207322Y-14357322D01*
X10207322Y-14392678D01*
X10242678Y-14392678D01*
X10250000Y-14375000D02*
G75*
G03*
X10250000Y-14375000I-25000J0D01*
G01*
X10392678Y-6342678D02*
X10392678Y-6307322D01*
X10357322Y-6307322D01*
X10357322Y-6342678D01*
X10392678Y-6342678D01*
X10400000Y-6325000D02*
G75*
G03*
X10400000Y-6325000I-25000J0D01*
G01*
X10392678Y-6417678D02*
X10392678Y-6382322D01*
X10357322Y-6382322D01*
X10357322Y-6417678D01*
X10392678Y-6417678D01*
X10400000Y-6400000D02*
G75*
G03*
X10400000Y-6400000I-25000J0D01*
G01*
X10392678Y-6492678D02*
X10392678Y-6457322D01*
X10357322Y-6457322D01*
X10357322Y-6492678D01*
X10392678Y-6492678D01*
X10400000Y-6475000D02*
G75*
G03*
X10400000Y-6475000I-25000J0D01*
G01*
X10392678Y-14242678D02*
X10392678Y-14207322D01*
X10357322Y-14207322D01*
X10357322Y-14242678D01*
X10392678Y-14242678D01*
X10400000Y-14225000D02*
G75*
G03*
X10400000Y-14225000I-25000J0D01*
G01*
X10392678Y-14317678D02*
X10392678Y-14282322D01*
X10357322Y-14282322D01*
X10357322Y-14317678D01*
X10392678Y-14317678D01*
X10400000Y-14300000D02*
G75*
G03*
X10400000Y-14300000I-25000J0D01*
G01*
X10392678Y-14392678D02*
X10392678Y-14357322D01*
X10357322Y-14357322D01*
X10357322Y-14392678D01*
X10392678Y-14392678D01*
X10400000Y-14375000D02*
G75*
G03*
X10400000Y-14375000I-25000J0D01*
G01*
X9480000Y-12360000D02*
X9640000Y-12200000D01*
X9480000Y-12040000D01*
X9320000Y-12200000D01*
X9480000Y-12360000D01*
X9640000Y-12200000D02*
G75*
G03*
X9640000Y-12200000I-160000J0D01*
G01*
X12710000Y-12360000D02*
X12870000Y-12200000D01*
X12710000Y-12040000D01*
X12550000Y-12200000D01*
X12710000Y-12360000D01*
X12870000Y-12200000D02*
G75*
G03*
X12870000Y-12200000I-160000J0D01*
G01*
D12*
X4281428Y-17820714D02*
X4281428Y-17520714D01*
X4352857Y-17520714D01*
X4395714Y-17535000D01*
X4424286Y-17563572D01*
X4438571Y-17592143D01*
X4452857Y-17649286D01*
X4452857Y-17692143D01*
X4438571Y-17749286D01*
X4424286Y-17777857D01*
X4395714Y-17806429D01*
X4352857Y-17820714D01*
X4281428Y-17820714D01*
X4581428Y-17820714D02*
X4581428Y-17620714D01*
X4581428Y-17677857D02*
X4595714Y-17649286D01*
X4610000Y-17635000D01*
X4638571Y-17620714D01*
X4667143Y-17620714D01*
X4767143Y-17820714D02*
X4767143Y-17620714D01*
X4767143Y-17520714D02*
X4752857Y-17535000D01*
X4767143Y-17549286D01*
X4781428Y-17535000D01*
X4767143Y-17520714D01*
X4767143Y-17549286D01*
X4952857Y-17820714D02*
X4924286Y-17806429D01*
X4910000Y-17777857D01*
X4910000Y-17520714D01*
X5110000Y-17820714D02*
X5081428Y-17806429D01*
X5067143Y-17777857D01*
X5067143Y-17520714D01*
X5452857Y-17820714D02*
X5452857Y-17520714D01*
X5552857Y-17735000D01*
X5652857Y-17520714D01*
X5652857Y-17820714D01*
X5924286Y-17820714D02*
X5924286Y-17663572D01*
X5910000Y-17635000D01*
X5881428Y-17620714D01*
X5824286Y-17620714D01*
X5795714Y-17635000D01*
X5924286Y-17806429D02*
X5895714Y-17820714D01*
X5824286Y-17820714D01*
X5795714Y-17806429D01*
X5781428Y-17777857D01*
X5781428Y-17749286D01*
X5795714Y-17720714D01*
X5824286Y-17706429D01*
X5895714Y-17706429D01*
X5924286Y-17692143D01*
X6067143Y-17620714D02*
X6067143Y-17920714D01*
X6067143Y-17635000D02*
X6095714Y-17620714D01*
X6152857Y-17620714D01*
X6181428Y-17635000D01*
X6195714Y-17649286D01*
X6210000Y-17677857D01*
X6210000Y-17763572D01*
X6195714Y-17792143D01*
X6181428Y-17806429D01*
X6152857Y-17820714D01*
X6095714Y-17820714D01*
X6067143Y-17806429D01*
X6338571Y-17792143D02*
X6352857Y-17806429D01*
X6338571Y-17820714D01*
X6324286Y-17806429D01*
X6338571Y-17792143D01*
X6338571Y-17820714D01*
X6338571Y-17635000D02*
X6352857Y-17649286D01*
X6338571Y-17663572D01*
X6324286Y-17649286D01*
X6338571Y-17635000D01*
X6338571Y-17663572D01*
X3955000Y-18295000D02*
X3995000Y-18335000D01*
X3995000Y-18295000D02*
X3955000Y-18335000D01*
X4338571Y-18150714D02*
X4367143Y-18150714D01*
X4395714Y-18165000D01*
X4410000Y-18179286D01*
X4424286Y-18207857D01*
X4438571Y-18265000D01*
X4438571Y-18336429D01*
X4424286Y-18393572D01*
X4410000Y-18422143D01*
X4395714Y-18436429D01*
X4367143Y-18450714D01*
X4338571Y-18450714D01*
X4310000Y-18436429D01*
X4295714Y-18422143D01*
X4281428Y-18393572D01*
X4267143Y-18336429D01*
X4267143Y-18265000D01*
X4281428Y-18207857D01*
X4295714Y-18179286D01*
X4310000Y-18165000D01*
X4338571Y-18150714D01*
X4567143Y-18422143D02*
X4581428Y-18436429D01*
X4567143Y-18450714D01*
X4552857Y-18436429D01*
X4567143Y-18422143D01*
X4567143Y-18450714D01*
X4838571Y-18250714D02*
X4838571Y-18450714D01*
X4767143Y-18136429D02*
X4695714Y-18350714D01*
X4881428Y-18350714D01*
X5052857Y-18150714D02*
X5081428Y-18150714D01*
X5110000Y-18165000D01*
X5124286Y-18179286D01*
X5138571Y-18207857D01*
X5152857Y-18265000D01*
X5152857Y-18336429D01*
X5138571Y-18393572D01*
X5124286Y-18422143D01*
X5110000Y-18436429D01*
X5081428Y-18450714D01*
X5052857Y-18450714D01*
X5024286Y-18436429D01*
X5010000Y-18422143D01*
X4995714Y-18393572D01*
X4981428Y-18336429D01*
X4981428Y-18265000D01*
X4995714Y-18207857D01*
X5010000Y-18179286D01*
X5024286Y-18165000D01*
X5052857Y-18150714D01*
X5281428Y-18450714D02*
X5281428Y-18250714D01*
X5281428Y-18279286D02*
X5295714Y-18265000D01*
X5324286Y-18250714D01*
X5367143Y-18250714D01*
X5395714Y-18265000D01*
X5410000Y-18293572D01*
X5410000Y-18450714D01*
X5410000Y-18293572D02*
X5424286Y-18265000D01*
X5452857Y-18250714D01*
X5495714Y-18250714D01*
X5524286Y-18265000D01*
X5538571Y-18293572D01*
X5538571Y-18450714D01*
X5681428Y-18450714D02*
X5681428Y-18250714D01*
X5681428Y-18279286D02*
X5695714Y-18265000D01*
X5724286Y-18250714D01*
X5767143Y-18250714D01*
X5795714Y-18265000D01*
X5810000Y-18293572D01*
X5810000Y-18450714D01*
X5810000Y-18293572D02*
X5824286Y-18265000D01*
X5852857Y-18250714D01*
X5895714Y-18250714D01*
X5924286Y-18265000D01*
X5938571Y-18293572D01*
X5938571Y-18450714D01*
X6524286Y-18136429D02*
X6267143Y-18522143D01*
X6910000Y-18150714D02*
X6938571Y-18150714D01*
X6967143Y-18165000D01*
X6981428Y-18179286D01*
X6995714Y-18207857D01*
X7010000Y-18265000D01*
X7010000Y-18336429D01*
X6995714Y-18393572D01*
X6981428Y-18422143D01*
X6967143Y-18436429D01*
X6938571Y-18450714D01*
X6910000Y-18450714D01*
X6881428Y-18436429D01*
X6867143Y-18422143D01*
X6852857Y-18393572D01*
X6838571Y-18336429D01*
X6838571Y-18265000D01*
X6852857Y-18207857D01*
X6867143Y-18179286D01*
X6881428Y-18165000D01*
X6910000Y-18150714D01*
X7138571Y-18422143D02*
X7152857Y-18436429D01*
X7138571Y-18450714D01*
X7124286Y-18436429D01*
X7138571Y-18422143D01*
X7138571Y-18450714D01*
X7338571Y-18150714D02*
X7367143Y-18150714D01*
X7395714Y-18165000D01*
X7410000Y-18179286D01*
X7424286Y-18207857D01*
X7438571Y-18265000D01*
X7438571Y-18336429D01*
X7424286Y-18393572D01*
X7410000Y-18422143D01*
X7395714Y-18436429D01*
X7367143Y-18450714D01*
X7338571Y-18450714D01*
X7310000Y-18436429D01*
X7295714Y-18422143D01*
X7281428Y-18393572D01*
X7267143Y-18336429D01*
X7267143Y-18265000D01*
X7281428Y-18207857D01*
X7295714Y-18179286D01*
X7310000Y-18165000D01*
X7338571Y-18150714D01*
X7724286Y-18450714D02*
X7552857Y-18450714D01*
X7638571Y-18450714D02*
X7638571Y-18150714D01*
X7610000Y-18193572D01*
X7581428Y-18222143D01*
X7552857Y-18236429D01*
X7981428Y-18150714D02*
X7924286Y-18150714D01*
X7895714Y-18165000D01*
X7881428Y-18179286D01*
X7852857Y-18222143D01*
X7838571Y-18279286D01*
X7838571Y-18393572D01*
X7852857Y-18422143D01*
X7867143Y-18436429D01*
X7895714Y-18450714D01*
X7952857Y-18450714D01*
X7981428Y-18436429D01*
X7995714Y-18422143D01*
X8010000Y-18393572D01*
X8010000Y-18322143D01*
X7995714Y-18293572D01*
X7981428Y-18279286D01*
X7952857Y-18265000D01*
X7895714Y-18265000D01*
X7867143Y-18279286D01*
X7852857Y-18293572D01*
X7838571Y-18322143D01*
X8124286Y-18150714D02*
X8124286Y-18207857D01*
X8238571Y-18150714D02*
X8238571Y-18207857D01*
X8681428Y-18565000D02*
X8667143Y-18550714D01*
X8638571Y-18507857D01*
X8624286Y-18479286D01*
X8610000Y-18436429D01*
X8595714Y-18365000D01*
X8595714Y-18307857D01*
X8610000Y-18236429D01*
X8624286Y-18193572D01*
X8638571Y-18165000D01*
X8667143Y-18122143D01*
X8681428Y-18107857D01*
X8767143Y-18150714D02*
X8952857Y-18150714D01*
X8852857Y-18265000D01*
X8895714Y-18265000D01*
X8924286Y-18279286D01*
X8938571Y-18293572D01*
X8952857Y-18322143D01*
X8952857Y-18393572D01*
X8938571Y-18422143D01*
X8924286Y-18436429D01*
X8895714Y-18450714D01*
X8810000Y-18450714D01*
X8781428Y-18436429D01*
X8767143Y-18422143D01*
X9138571Y-18150714D02*
X9167143Y-18150714D01*
X9195714Y-18165000D01*
X9210000Y-18179286D01*
X9224286Y-18207857D01*
X9238571Y-18265000D01*
X9238571Y-18336429D01*
X9224286Y-18393572D01*
X9210000Y-18422143D01*
X9195714Y-18436429D01*
X9167143Y-18450714D01*
X9138571Y-18450714D01*
X9110000Y-18436429D01*
X9095714Y-18422143D01*
X9081428Y-18393572D01*
X9067143Y-18336429D01*
X9067143Y-18265000D01*
X9081428Y-18207857D01*
X9095714Y-18179286D01*
X9110000Y-18165000D01*
X9138571Y-18150714D01*
X9338571Y-18150714D02*
X9538571Y-18150714D01*
X9410000Y-18450714D01*
X9881428Y-18450714D02*
X9881428Y-18150714D01*
X10010000Y-18450714D02*
X10010000Y-18293572D01*
X9995714Y-18265000D01*
X9967143Y-18250714D01*
X9924286Y-18250714D01*
X9895714Y-18265000D01*
X9881428Y-18279286D01*
X10195714Y-18450714D02*
X10167143Y-18436429D01*
X10152857Y-18422143D01*
X10138571Y-18393572D01*
X10138571Y-18307857D01*
X10152857Y-18279286D01*
X10167143Y-18265000D01*
X10195714Y-18250714D01*
X10238571Y-18250714D01*
X10267143Y-18265000D01*
X10281428Y-18279286D01*
X10295714Y-18307857D01*
X10295714Y-18393572D01*
X10281428Y-18422143D01*
X10267143Y-18436429D01*
X10238571Y-18450714D01*
X10195714Y-18450714D01*
X10467143Y-18450714D02*
X10438571Y-18436429D01*
X10424286Y-18407857D01*
X10424286Y-18150714D01*
X10695714Y-18436429D02*
X10667143Y-18450714D01*
X10610000Y-18450714D01*
X10581428Y-18436429D01*
X10567143Y-18407857D01*
X10567143Y-18293572D01*
X10581428Y-18265000D01*
X10610000Y-18250714D01*
X10667143Y-18250714D01*
X10695714Y-18265000D01*
X10710000Y-18293572D01*
X10710000Y-18322143D01*
X10567143Y-18350714D01*
X10824286Y-18436429D02*
X10852857Y-18450714D01*
X10910000Y-18450714D01*
X10938571Y-18436429D01*
X10952857Y-18407857D01*
X10952857Y-18393572D01*
X10938571Y-18365000D01*
X10910000Y-18350714D01*
X10867143Y-18350714D01*
X10838571Y-18336429D01*
X10824286Y-18307857D01*
X10824286Y-18293572D01*
X10838571Y-18265000D01*
X10867143Y-18250714D01*
X10910000Y-18250714D01*
X10938571Y-18265000D01*
X11052857Y-18565000D02*
X11067143Y-18550714D01*
X11095714Y-18507857D01*
X11110000Y-18479286D01*
X11124286Y-18436429D01*
X11138571Y-18365000D01*
X11138571Y-18307857D01*
X11124286Y-18236429D01*
X11110000Y-18193572D01*
X11095714Y-18165000D01*
X11067143Y-18122143D01*
X11052857Y-18107857D01*
X3995000Y-18711000D02*
G75*
G03*
X3995000Y-18711000I-37500J0D01*
G01*
X4338571Y-18546714D02*
X4367143Y-18546714D01*
X4395714Y-18561000D01*
X4410000Y-18575286D01*
X4424286Y-18603857D01*
X4438571Y-18661000D01*
X4438571Y-18732429D01*
X4424286Y-18789572D01*
X4410000Y-18818143D01*
X4395714Y-18832429D01*
X4367143Y-18846714D01*
X4338571Y-18846714D01*
X4310000Y-18832429D01*
X4295714Y-18818143D01*
X4281428Y-18789572D01*
X4267143Y-18732429D01*
X4267143Y-18661000D01*
X4281428Y-18603857D01*
X4295714Y-18575286D01*
X4310000Y-18561000D01*
X4338571Y-18546714D01*
X4567143Y-18818143D02*
X4581428Y-18832429D01*
X4567143Y-18846714D01*
X4552857Y-18832429D01*
X4567143Y-18818143D01*
X4567143Y-18846714D01*
X4681428Y-18546714D02*
X4881428Y-18546714D01*
X4752857Y-18846714D01*
X5138571Y-18546714D02*
X4995714Y-18546714D01*
X4981428Y-18689572D01*
X4995714Y-18675286D01*
X5024286Y-18661000D01*
X5095714Y-18661000D01*
X5124286Y-18675286D01*
X5138571Y-18689572D01*
X5152857Y-18718143D01*
X5152857Y-18789572D01*
X5138571Y-18818143D01*
X5124286Y-18832429D01*
X5095714Y-18846714D01*
X5024286Y-18846714D01*
X4995714Y-18832429D01*
X4981428Y-18818143D01*
X5281428Y-18846714D02*
X5281428Y-18646714D01*
X5281428Y-18675286D02*
X5295714Y-18661000D01*
X5324286Y-18646714D01*
X5367143Y-18646714D01*
X5395714Y-18661000D01*
X5410000Y-18689572D01*
X5410000Y-18846714D01*
X5410000Y-18689572D02*
X5424286Y-18661000D01*
X5452857Y-18646714D01*
X5495714Y-18646714D01*
X5524286Y-18661000D01*
X5538571Y-18689572D01*
X5538571Y-18846714D01*
X5681428Y-18846714D02*
X5681428Y-18646714D01*
X5681428Y-18675286D02*
X5695714Y-18661000D01*
X5724286Y-18646714D01*
X5767143Y-18646714D01*
X5795714Y-18661000D01*
X5810000Y-18689572D01*
X5810000Y-18846714D01*
X5810000Y-18689572D02*
X5824286Y-18661000D01*
X5852857Y-18646714D01*
X5895714Y-18646714D01*
X5924286Y-18661000D01*
X5938571Y-18689572D01*
X5938571Y-18846714D01*
X6524286Y-18532429D02*
X6267143Y-18918143D01*
X6910000Y-18546714D02*
X6938571Y-18546714D01*
X6967143Y-18561000D01*
X6981428Y-18575286D01*
X6995714Y-18603857D01*
X7010000Y-18661000D01*
X7010000Y-18732429D01*
X6995714Y-18789572D01*
X6981428Y-18818143D01*
X6967143Y-18832429D01*
X6938571Y-18846714D01*
X6910000Y-18846714D01*
X6881428Y-18832429D01*
X6867143Y-18818143D01*
X6852857Y-18789572D01*
X6838571Y-18732429D01*
X6838571Y-18661000D01*
X6852857Y-18603857D01*
X6867143Y-18575286D01*
X6881428Y-18561000D01*
X6910000Y-18546714D01*
X7138571Y-18818143D02*
X7152857Y-18832429D01*
X7138571Y-18846714D01*
X7124286Y-18832429D01*
X7138571Y-18818143D01*
X7138571Y-18846714D01*
X7338571Y-18546714D02*
X7367143Y-18546714D01*
X7395714Y-18561000D01*
X7410000Y-18575286D01*
X7424286Y-18603857D01*
X7438571Y-18661000D01*
X7438571Y-18732429D01*
X7424286Y-18789572D01*
X7410000Y-18818143D01*
X7395714Y-18832429D01*
X7367143Y-18846714D01*
X7338571Y-18846714D01*
X7310000Y-18832429D01*
X7295714Y-18818143D01*
X7281428Y-18789572D01*
X7267143Y-18732429D01*
X7267143Y-18661000D01*
X7281428Y-18603857D01*
X7295714Y-18575286D01*
X7310000Y-18561000D01*
X7338571Y-18546714D01*
X7538571Y-18546714D02*
X7724286Y-18546714D01*
X7624286Y-18661000D01*
X7667143Y-18661000D01*
X7695714Y-18675286D01*
X7710000Y-18689572D01*
X7724286Y-18718143D01*
X7724286Y-18789572D01*
X7710000Y-18818143D01*
X7695714Y-18832429D01*
X7667143Y-18846714D01*
X7581428Y-18846714D01*
X7552857Y-18832429D01*
X7538571Y-18818143D01*
X7910000Y-18546714D02*
X7938571Y-18546714D01*
X7967143Y-18561000D01*
X7981428Y-18575286D01*
X7995714Y-18603857D01*
X8010000Y-18661000D01*
X8010000Y-18732429D01*
X7995714Y-18789572D01*
X7981428Y-18818143D01*
X7967143Y-18832429D01*
X7938571Y-18846714D01*
X7910000Y-18846714D01*
X7881428Y-18832429D01*
X7867143Y-18818143D01*
X7852857Y-18789572D01*
X7838571Y-18732429D01*
X7838571Y-18661000D01*
X7852857Y-18603857D01*
X7867143Y-18575286D01*
X7881428Y-18561000D01*
X7910000Y-18546714D01*
X8124286Y-18546714D02*
X8124286Y-18603857D01*
X8238571Y-18546714D02*
X8238571Y-18603857D01*
X8681428Y-18961000D02*
X8667143Y-18946714D01*
X8638571Y-18903857D01*
X8624286Y-18875286D01*
X8610000Y-18832429D01*
X8595714Y-18761000D01*
X8595714Y-18703857D01*
X8610000Y-18632429D01*
X8624286Y-18589572D01*
X8638571Y-18561000D01*
X8667143Y-18518143D01*
X8681428Y-18503857D01*
X8924286Y-18546714D02*
X8867143Y-18546714D01*
X8838571Y-18561000D01*
X8824286Y-18575286D01*
X8795714Y-18618143D01*
X8781428Y-18675286D01*
X8781428Y-18789572D01*
X8795714Y-18818143D01*
X8810000Y-18832429D01*
X8838571Y-18846714D01*
X8895714Y-18846714D01*
X8924286Y-18832429D01*
X8938571Y-18818143D01*
X8952857Y-18789572D01*
X8952857Y-18718143D01*
X8938571Y-18689572D01*
X8924286Y-18675286D01*
X8895714Y-18661000D01*
X8838571Y-18661000D01*
X8810000Y-18675286D01*
X8795714Y-18689572D01*
X8781428Y-18718143D01*
X9310000Y-18846714D02*
X9310000Y-18546714D01*
X9438571Y-18846714D02*
X9438571Y-18689572D01*
X9424286Y-18661000D01*
X9395714Y-18646714D01*
X9352857Y-18646714D01*
X9324286Y-18661000D01*
X9310000Y-18675286D01*
X9624286Y-18846714D02*
X9595714Y-18832429D01*
X9581428Y-18818143D01*
X9567143Y-18789572D01*
X9567143Y-18703857D01*
X9581428Y-18675286D01*
X9595714Y-18661000D01*
X9624286Y-18646714D01*
X9667143Y-18646714D01*
X9695714Y-18661000D01*
X9710000Y-18675286D01*
X9724286Y-18703857D01*
X9724286Y-18789572D01*
X9710000Y-18818143D01*
X9695714Y-18832429D01*
X9667143Y-18846714D01*
X9624286Y-18846714D01*
X9895714Y-18846714D02*
X9867143Y-18832429D01*
X9852857Y-18803857D01*
X9852857Y-18546714D01*
X10124286Y-18832429D02*
X10095714Y-18846714D01*
X10038571Y-18846714D01*
X10010000Y-18832429D01*
X9995714Y-18803857D01*
X9995714Y-18689572D01*
X10010000Y-18661000D01*
X10038571Y-18646714D01*
X10095714Y-18646714D01*
X10124286Y-18661000D01*
X10138571Y-18689572D01*
X10138571Y-18718143D01*
X9995714Y-18746714D01*
X10252857Y-18832429D02*
X10281428Y-18846714D01*
X10338571Y-18846714D01*
X10367143Y-18832429D01*
X10381428Y-18803857D01*
X10381428Y-18789572D01*
X10367143Y-18761000D01*
X10338571Y-18746714D01*
X10295714Y-18746714D01*
X10267143Y-18732429D01*
X10252857Y-18703857D01*
X10252857Y-18689572D01*
X10267143Y-18661000D01*
X10295714Y-18646714D01*
X10338571Y-18646714D01*
X10367143Y-18661000D01*
X10481428Y-18961000D02*
X10495714Y-18946714D01*
X10524286Y-18903857D01*
X10538571Y-18875286D01*
X10552857Y-18832429D01*
X10567143Y-18761000D01*
X10567143Y-18703857D01*
X10552857Y-18632429D01*
X10538571Y-18589572D01*
X10524286Y-18561000D01*
X10495714Y-18518143D01*
X10481428Y-18503857D01*
X3955000Y-19067000D02*
X3955000Y-19147000D01*
X3915000Y-19107000D02*
X3995000Y-19107000D01*
X4338571Y-18942714D02*
X4367143Y-18942714D01*
X4395714Y-18957000D01*
X4410000Y-18971286D01*
X4424286Y-18999857D01*
X4438571Y-19057000D01*
X4438571Y-19128429D01*
X4424286Y-19185572D01*
X4410000Y-19214143D01*
X4395714Y-19228429D01*
X4367143Y-19242714D01*
X4338571Y-19242714D01*
X4310000Y-19228429D01*
X4295714Y-19214143D01*
X4281428Y-19185572D01*
X4267143Y-19128429D01*
X4267143Y-19057000D01*
X4281428Y-18999857D01*
X4295714Y-18971286D01*
X4310000Y-18957000D01*
X4338571Y-18942714D01*
X4567143Y-19214143D02*
X4581428Y-19228429D01*
X4567143Y-19242714D01*
X4552857Y-19228429D01*
X4567143Y-19214143D01*
X4567143Y-19242714D01*
X4752857Y-19071286D02*
X4724286Y-19057000D01*
X4710000Y-19042714D01*
X4695714Y-19014143D01*
X4695714Y-18999857D01*
X4710000Y-18971286D01*
X4724286Y-18957000D01*
X4752857Y-18942714D01*
X4810000Y-18942714D01*
X4838571Y-18957000D01*
X4852857Y-18971286D01*
X4867143Y-18999857D01*
X4867143Y-19014143D01*
X4852857Y-19042714D01*
X4838571Y-19057000D01*
X4810000Y-19071286D01*
X4752857Y-19071286D01*
X4724286Y-19085572D01*
X4710000Y-19099857D01*
X4695714Y-19128429D01*
X4695714Y-19185572D01*
X4710000Y-19214143D01*
X4724286Y-19228429D01*
X4752857Y-19242714D01*
X4810000Y-19242714D01*
X4838571Y-19228429D01*
X4852857Y-19214143D01*
X4867143Y-19185572D01*
X4867143Y-19128429D01*
X4852857Y-19099857D01*
X4838571Y-19085572D01*
X4810000Y-19071286D01*
X5052857Y-18942714D02*
X5081428Y-18942714D01*
X5110000Y-18957000D01*
X5124286Y-18971286D01*
X5138571Y-18999857D01*
X5152857Y-19057000D01*
X5152857Y-19128429D01*
X5138571Y-19185572D01*
X5124286Y-19214143D01*
X5110000Y-19228429D01*
X5081428Y-19242714D01*
X5052857Y-19242714D01*
X5024286Y-19228429D01*
X5010000Y-19214143D01*
X4995714Y-19185572D01*
X4981428Y-19128429D01*
X4981428Y-19057000D01*
X4995714Y-18999857D01*
X5010000Y-18971286D01*
X5024286Y-18957000D01*
X5052857Y-18942714D01*
X5281428Y-19242714D02*
X5281428Y-19042714D01*
X5281428Y-19071286D02*
X5295714Y-19057000D01*
X5324286Y-19042714D01*
X5367143Y-19042714D01*
X5395714Y-19057000D01*
X5410000Y-19085572D01*
X5410000Y-19242714D01*
X5410000Y-19085572D02*
X5424286Y-19057000D01*
X5452857Y-19042714D01*
X5495714Y-19042714D01*
X5524286Y-19057000D01*
X5538571Y-19085572D01*
X5538571Y-19242714D01*
X5681428Y-19242714D02*
X5681428Y-19042714D01*
X5681428Y-19071286D02*
X5695714Y-19057000D01*
X5724286Y-19042714D01*
X5767143Y-19042714D01*
X5795714Y-19057000D01*
X5810000Y-19085572D01*
X5810000Y-19242714D01*
X5810000Y-19085572D02*
X5824286Y-19057000D01*
X5852857Y-19042714D01*
X5895714Y-19042714D01*
X5924286Y-19057000D01*
X5938571Y-19085572D01*
X5938571Y-19242714D01*
X6524286Y-18928429D02*
X6267143Y-19314143D01*
X6910000Y-18942714D02*
X6938571Y-18942714D01*
X6967143Y-18957000D01*
X6981428Y-18971286D01*
X6995714Y-18999857D01*
X7010000Y-19057000D01*
X7010000Y-19128429D01*
X6995714Y-19185572D01*
X6981428Y-19214143D01*
X6967143Y-19228429D01*
X6938571Y-19242714D01*
X6910000Y-19242714D01*
X6881428Y-19228429D01*
X6867143Y-19214143D01*
X6852857Y-19185572D01*
X6838571Y-19128429D01*
X6838571Y-19057000D01*
X6852857Y-18999857D01*
X6867143Y-18971286D01*
X6881428Y-18957000D01*
X6910000Y-18942714D01*
X7138571Y-19214143D02*
X7152857Y-19228429D01*
X7138571Y-19242714D01*
X7124286Y-19228429D01*
X7138571Y-19214143D01*
X7138571Y-19242714D01*
X7338571Y-18942714D02*
X7367143Y-18942714D01*
X7395714Y-18957000D01*
X7410000Y-18971286D01*
X7424286Y-18999857D01*
X7438571Y-19057000D01*
X7438571Y-19128429D01*
X7424286Y-19185572D01*
X7410000Y-19214143D01*
X7395714Y-19228429D01*
X7367143Y-19242714D01*
X7338571Y-19242714D01*
X7310000Y-19228429D01*
X7295714Y-19214143D01*
X7281428Y-19185572D01*
X7267143Y-19128429D01*
X7267143Y-19057000D01*
X7281428Y-18999857D01*
X7295714Y-18971286D01*
X7310000Y-18957000D01*
X7338571Y-18942714D01*
X7538571Y-18942714D02*
X7724286Y-18942714D01*
X7624286Y-19057000D01*
X7667143Y-19057000D01*
X7695714Y-19071286D01*
X7710000Y-19085572D01*
X7724286Y-19114143D01*
X7724286Y-19185572D01*
X7710000Y-19214143D01*
X7695714Y-19228429D01*
X7667143Y-19242714D01*
X7581428Y-19242714D01*
X7552857Y-19228429D01*
X7538571Y-19214143D01*
X8010000Y-19242714D02*
X7838571Y-19242714D01*
X7924286Y-19242714D02*
X7924286Y-18942714D01*
X7895714Y-18985572D01*
X7867143Y-19014143D01*
X7838571Y-19028429D01*
X8124286Y-18942714D02*
X8124286Y-18999857D01*
X8238571Y-18942714D02*
X8238571Y-18999857D01*
X8681428Y-19357000D02*
X8667143Y-19342714D01*
X8638571Y-19299857D01*
X8624286Y-19271286D01*
X8610000Y-19228429D01*
X8595714Y-19157000D01*
X8595714Y-19099857D01*
X8610000Y-19028429D01*
X8624286Y-18985572D01*
X8638571Y-18957000D01*
X8667143Y-18914143D01*
X8681428Y-18899857D01*
X8810000Y-19242714D02*
X8867143Y-19242714D01*
X8895714Y-19228429D01*
X8910000Y-19214143D01*
X8938571Y-19171286D01*
X8952857Y-19114143D01*
X8952857Y-18999857D01*
X8938571Y-18971286D01*
X8924286Y-18957000D01*
X8895714Y-18942714D01*
X8838571Y-18942714D01*
X8810000Y-18957000D01*
X8795714Y-18971286D01*
X8781428Y-18999857D01*
X8781428Y-19071286D01*
X8795714Y-19099857D01*
X8810000Y-19114143D01*
X8838571Y-19128429D01*
X8895714Y-19128429D01*
X8924286Y-19114143D01*
X8938571Y-19099857D01*
X8952857Y-19071286D01*
X9224286Y-18942714D02*
X9081428Y-18942714D01*
X9067143Y-19085572D01*
X9081428Y-19071286D01*
X9110000Y-19057000D01*
X9181428Y-19057000D01*
X9210000Y-19071286D01*
X9224286Y-19085572D01*
X9238571Y-19114143D01*
X9238571Y-19185572D01*
X9224286Y-19214143D01*
X9210000Y-19228429D01*
X9181428Y-19242714D01*
X9110000Y-19242714D01*
X9081428Y-19228429D01*
X9067143Y-19214143D01*
X9595714Y-19242714D02*
X9595714Y-18942714D01*
X9724286Y-19242714D02*
X9724286Y-19085572D01*
X9710000Y-19057000D01*
X9681428Y-19042714D01*
X9638571Y-19042714D01*
X9610000Y-19057000D01*
X9595714Y-19071286D01*
X9910000Y-19242714D02*
X9881428Y-19228429D01*
X9867143Y-19214143D01*
X9852857Y-19185572D01*
X9852857Y-19099857D01*
X9867143Y-19071286D01*
X9881428Y-19057000D01*
X9910000Y-19042714D01*
X9952857Y-19042714D01*
X9981428Y-19057000D01*
X9995714Y-19071286D01*
X10010000Y-19099857D01*
X10010000Y-19185572D01*
X9995714Y-19214143D01*
X9981428Y-19228429D01*
X9952857Y-19242714D01*
X9910000Y-19242714D01*
X10181428Y-19242714D02*
X10152857Y-19228429D01*
X10138571Y-19199857D01*
X10138571Y-18942714D01*
X10410000Y-19228429D02*
X10381428Y-19242714D01*
X10324286Y-19242714D01*
X10295714Y-19228429D01*
X10281428Y-19199857D01*
X10281428Y-19085572D01*
X10295714Y-19057000D01*
X10324286Y-19042714D01*
X10381428Y-19042714D01*
X10410000Y-19057000D01*
X10424286Y-19085572D01*
X10424286Y-19114143D01*
X10281428Y-19142714D01*
X10538571Y-19228429D02*
X10567143Y-19242714D01*
X10624286Y-19242714D01*
X10652857Y-19228429D01*
X10667143Y-19199857D01*
X10667143Y-19185572D01*
X10652857Y-19157000D01*
X10624286Y-19142714D01*
X10581428Y-19142714D01*
X10552857Y-19128429D01*
X10538571Y-19099857D01*
X10538571Y-19085572D01*
X10552857Y-19057000D01*
X10581428Y-19042714D01*
X10624286Y-19042714D01*
X10652857Y-19057000D01*
X10767143Y-19357000D02*
X10781428Y-19342714D01*
X10810000Y-19299857D01*
X10824286Y-19271286D01*
X10838571Y-19228429D01*
X10852857Y-19157000D01*
X10852857Y-19099857D01*
X10838571Y-19028429D01*
X10824286Y-18985572D01*
X10810000Y-18957000D01*
X10781428Y-18914143D01*
X10767143Y-18899857D01*
X3981820Y-19534820D02*
X3981820Y-19471180D01*
X3918180Y-19471180D01*
X3918180Y-19534820D01*
X3981820Y-19534820D01*
X4338571Y-19338714D02*
X4367143Y-19338714D01*
X4395714Y-19353000D01*
X4410000Y-19367286D01*
X4424286Y-19395857D01*
X4438571Y-19453000D01*
X4438571Y-19524429D01*
X4424286Y-19581572D01*
X4410000Y-19610143D01*
X4395714Y-19624429D01*
X4367143Y-19638714D01*
X4338571Y-19638714D01*
X4310000Y-19624429D01*
X4295714Y-19610143D01*
X4281428Y-19581572D01*
X4267143Y-19524429D01*
X4267143Y-19453000D01*
X4281428Y-19395857D01*
X4295714Y-19367286D01*
X4310000Y-19353000D01*
X4338571Y-19338714D01*
X4567143Y-19610143D02*
X4581428Y-19624429D01*
X4567143Y-19638714D01*
X4552857Y-19624429D01*
X4567143Y-19610143D01*
X4567143Y-19638714D01*
X4724286Y-19638714D02*
X4781428Y-19638714D01*
X4810000Y-19624429D01*
X4824286Y-19610143D01*
X4852857Y-19567286D01*
X4867143Y-19510143D01*
X4867143Y-19395857D01*
X4852857Y-19367286D01*
X4838571Y-19353000D01*
X4810000Y-19338714D01*
X4752857Y-19338714D01*
X4724286Y-19353000D01*
X4710000Y-19367286D01*
X4695714Y-19395857D01*
X4695714Y-19467286D01*
X4710000Y-19495857D01*
X4724286Y-19510143D01*
X4752857Y-19524429D01*
X4810000Y-19524429D01*
X4838571Y-19510143D01*
X4852857Y-19495857D01*
X4867143Y-19467286D01*
X5052857Y-19338714D02*
X5081428Y-19338714D01*
X5110000Y-19353000D01*
X5124286Y-19367286D01*
X5138571Y-19395857D01*
X5152857Y-19453000D01*
X5152857Y-19524429D01*
X5138571Y-19581572D01*
X5124286Y-19610143D01*
X5110000Y-19624429D01*
X5081428Y-19638714D01*
X5052857Y-19638714D01*
X5024286Y-19624429D01*
X5010000Y-19610143D01*
X4995714Y-19581572D01*
X4981428Y-19524429D01*
X4981428Y-19453000D01*
X4995714Y-19395857D01*
X5010000Y-19367286D01*
X5024286Y-19353000D01*
X5052857Y-19338714D01*
X5281428Y-19638714D02*
X5281428Y-19438714D01*
X5281428Y-19467286D02*
X5295714Y-19453000D01*
X5324286Y-19438714D01*
X5367143Y-19438714D01*
X5395714Y-19453000D01*
X5410000Y-19481572D01*
X5410000Y-19638714D01*
X5410000Y-19481572D02*
X5424286Y-19453000D01*
X5452857Y-19438714D01*
X5495714Y-19438714D01*
X5524286Y-19453000D01*
X5538571Y-19481572D01*
X5538571Y-19638714D01*
X5681428Y-19638714D02*
X5681428Y-19438714D01*
X5681428Y-19467286D02*
X5695714Y-19453000D01*
X5724286Y-19438714D01*
X5767143Y-19438714D01*
X5795714Y-19453000D01*
X5810000Y-19481572D01*
X5810000Y-19638714D01*
X5810000Y-19481572D02*
X5824286Y-19453000D01*
X5852857Y-19438714D01*
X5895714Y-19438714D01*
X5924286Y-19453000D01*
X5938571Y-19481572D01*
X5938571Y-19638714D01*
X6524286Y-19324429D02*
X6267143Y-19710143D01*
X6910000Y-19338714D02*
X6938571Y-19338714D01*
X6967143Y-19353000D01*
X6981428Y-19367286D01*
X6995714Y-19395857D01*
X7010000Y-19453000D01*
X7010000Y-19524429D01*
X6995714Y-19581572D01*
X6981428Y-19610143D01*
X6967143Y-19624429D01*
X6938571Y-19638714D01*
X6910000Y-19638714D01*
X6881428Y-19624429D01*
X6867143Y-19610143D01*
X6852857Y-19581572D01*
X6838571Y-19524429D01*
X6838571Y-19453000D01*
X6852857Y-19395857D01*
X6867143Y-19367286D01*
X6881428Y-19353000D01*
X6910000Y-19338714D01*
X7138571Y-19610143D02*
X7152857Y-19624429D01*
X7138571Y-19638714D01*
X7124286Y-19624429D01*
X7138571Y-19610143D01*
X7138571Y-19638714D01*
X7338571Y-19338714D02*
X7367143Y-19338714D01*
X7395714Y-19353000D01*
X7410000Y-19367286D01*
X7424286Y-19395857D01*
X7438571Y-19453000D01*
X7438571Y-19524429D01*
X7424286Y-19581572D01*
X7410000Y-19610143D01*
X7395714Y-19624429D01*
X7367143Y-19638714D01*
X7338571Y-19638714D01*
X7310000Y-19624429D01*
X7295714Y-19610143D01*
X7281428Y-19581572D01*
X7267143Y-19524429D01*
X7267143Y-19453000D01*
X7281428Y-19395857D01*
X7295714Y-19367286D01*
X7310000Y-19353000D01*
X7338571Y-19338714D01*
X7538571Y-19338714D02*
X7724286Y-19338714D01*
X7624286Y-19453000D01*
X7667143Y-19453000D01*
X7695714Y-19467286D01*
X7710000Y-19481572D01*
X7724286Y-19510143D01*
X7724286Y-19581572D01*
X7710000Y-19610143D01*
X7695714Y-19624429D01*
X7667143Y-19638714D01*
X7581428Y-19638714D01*
X7552857Y-19624429D01*
X7538571Y-19610143D01*
X7995714Y-19338714D02*
X7852857Y-19338714D01*
X7838571Y-19481572D01*
X7852857Y-19467286D01*
X7881428Y-19453000D01*
X7952857Y-19453000D01*
X7981428Y-19467286D01*
X7995714Y-19481572D01*
X8010000Y-19510143D01*
X8010000Y-19581572D01*
X7995714Y-19610143D01*
X7981428Y-19624429D01*
X7952857Y-19638714D01*
X7881428Y-19638714D01*
X7852857Y-19624429D01*
X7838571Y-19610143D01*
X8124286Y-19338714D02*
X8124286Y-19395857D01*
X8238571Y-19338714D02*
X8238571Y-19395857D01*
X8681428Y-19753000D02*
X8667143Y-19738714D01*
X8638571Y-19695857D01*
X8624286Y-19667286D01*
X8610000Y-19624429D01*
X8595714Y-19553000D01*
X8595714Y-19495857D01*
X8610000Y-19424429D01*
X8624286Y-19381572D01*
X8638571Y-19353000D01*
X8667143Y-19310143D01*
X8681428Y-19295857D01*
X8781428Y-19367286D02*
X8795714Y-19353000D01*
X8824286Y-19338714D01*
X8895714Y-19338714D01*
X8924286Y-19353000D01*
X8938571Y-19367286D01*
X8952857Y-19395857D01*
X8952857Y-19424429D01*
X8938571Y-19467286D01*
X8767143Y-19638714D01*
X8952857Y-19638714D01*
X9310000Y-19638714D02*
X9310000Y-19338714D01*
X9438571Y-19638714D02*
X9438571Y-19481572D01*
X9424286Y-19453000D01*
X9395714Y-19438714D01*
X9352857Y-19438714D01*
X9324286Y-19453000D01*
X9310000Y-19467286D01*
X9624286Y-19638714D02*
X9595714Y-19624429D01*
X9581428Y-19610143D01*
X9567143Y-19581572D01*
X9567143Y-19495857D01*
X9581428Y-19467286D01*
X9595714Y-19453000D01*
X9624286Y-19438714D01*
X9667143Y-19438714D01*
X9695714Y-19453000D01*
X9710000Y-19467286D01*
X9724286Y-19495857D01*
X9724286Y-19581572D01*
X9710000Y-19610143D01*
X9695714Y-19624429D01*
X9667143Y-19638714D01*
X9624286Y-19638714D01*
X9895714Y-19638714D02*
X9867143Y-19624429D01*
X9852857Y-19595857D01*
X9852857Y-19338714D01*
X10124286Y-19624429D02*
X10095714Y-19638714D01*
X10038571Y-19638714D01*
X10010000Y-19624429D01*
X9995714Y-19595857D01*
X9995714Y-19481572D01*
X10010000Y-19453000D01*
X10038571Y-19438714D01*
X10095714Y-19438714D01*
X10124286Y-19453000D01*
X10138571Y-19481572D01*
X10138571Y-19510143D01*
X9995714Y-19538714D01*
X10252857Y-19624429D02*
X10281428Y-19638714D01*
X10338571Y-19638714D01*
X10367143Y-19624429D01*
X10381428Y-19595857D01*
X10381428Y-19581572D01*
X10367143Y-19553000D01*
X10338571Y-19538714D01*
X10295714Y-19538714D01*
X10267143Y-19524429D01*
X10252857Y-19495857D01*
X10252857Y-19481572D01*
X10267143Y-19453000D01*
X10295714Y-19438714D01*
X10338571Y-19438714D01*
X10367143Y-19453000D01*
X10481428Y-19753000D02*
X10495714Y-19738714D01*
X10524286Y-19695857D01*
X10538571Y-19667286D01*
X10552857Y-19624429D01*
X10567143Y-19553000D01*
X10567143Y-19495857D01*
X10552857Y-19424429D01*
X10538571Y-19381572D01*
X10524286Y-19353000D01*
X10495714Y-19310143D01*
X10481428Y-19295857D01*
X3947500Y-19946500D02*
X3995000Y-19899000D01*
X3947500Y-19851500D01*
X3900000Y-19899000D01*
X3947500Y-19946500D01*
X4338571Y-19734714D02*
X4367143Y-19734714D01*
X4395714Y-19749000D01*
X4410000Y-19763286D01*
X4424286Y-19791857D01*
X4438571Y-19849000D01*
X4438571Y-19920429D01*
X4424286Y-19977572D01*
X4410000Y-20006143D01*
X4395714Y-20020429D01*
X4367143Y-20034714D01*
X4338571Y-20034714D01*
X4310000Y-20020429D01*
X4295714Y-20006143D01*
X4281428Y-19977572D01*
X4267143Y-19920429D01*
X4267143Y-19849000D01*
X4281428Y-19791857D01*
X4295714Y-19763286D01*
X4310000Y-19749000D01*
X4338571Y-19734714D01*
X4567143Y-20006143D02*
X4581428Y-20020429D01*
X4567143Y-20034714D01*
X4552857Y-20020429D01*
X4567143Y-20006143D01*
X4567143Y-20034714D01*
X4724286Y-20034714D02*
X4781428Y-20034714D01*
X4810000Y-20020429D01*
X4824286Y-20006143D01*
X4852857Y-19963286D01*
X4867143Y-19906143D01*
X4867143Y-19791857D01*
X4852857Y-19763286D01*
X4838571Y-19749000D01*
X4810000Y-19734714D01*
X4752857Y-19734714D01*
X4724286Y-19749000D01*
X4710000Y-19763286D01*
X4695714Y-19791857D01*
X4695714Y-19863286D01*
X4710000Y-19891857D01*
X4724286Y-19906143D01*
X4752857Y-19920429D01*
X4810000Y-19920429D01*
X4838571Y-19906143D01*
X4852857Y-19891857D01*
X4867143Y-19863286D01*
X5138571Y-19734714D02*
X4995714Y-19734714D01*
X4981428Y-19877572D01*
X4995714Y-19863286D01*
X5024286Y-19849000D01*
X5095714Y-19849000D01*
X5124286Y-19863286D01*
X5138571Y-19877572D01*
X5152857Y-19906143D01*
X5152857Y-19977572D01*
X5138571Y-20006143D01*
X5124286Y-20020429D01*
X5095714Y-20034714D01*
X5024286Y-20034714D01*
X4995714Y-20020429D01*
X4981428Y-20006143D01*
X5281428Y-20034714D02*
X5281428Y-19834714D01*
X5281428Y-19863286D02*
X5295714Y-19849000D01*
X5324286Y-19834714D01*
X5367143Y-19834714D01*
X5395714Y-19849000D01*
X5410000Y-19877572D01*
X5410000Y-20034714D01*
X5410000Y-19877572D02*
X5424286Y-19849000D01*
X5452857Y-19834714D01*
X5495714Y-19834714D01*
X5524286Y-19849000D01*
X5538571Y-19877572D01*
X5538571Y-20034714D01*
X5681428Y-20034714D02*
X5681428Y-19834714D01*
X5681428Y-19863286D02*
X5695714Y-19849000D01*
X5724286Y-19834714D01*
X5767143Y-19834714D01*
X5795714Y-19849000D01*
X5810000Y-19877572D01*
X5810000Y-20034714D01*
X5810000Y-19877572D02*
X5824286Y-19849000D01*
X5852857Y-19834714D01*
X5895714Y-19834714D01*
X5924286Y-19849000D01*
X5938571Y-19877572D01*
X5938571Y-20034714D01*
X6524286Y-19720429D02*
X6267143Y-20106143D01*
X6910000Y-19734714D02*
X6938571Y-19734714D01*
X6967143Y-19749000D01*
X6981428Y-19763286D01*
X6995714Y-19791857D01*
X7010000Y-19849000D01*
X7010000Y-19920429D01*
X6995714Y-19977572D01*
X6981428Y-20006143D01*
X6967143Y-20020429D01*
X6938571Y-20034714D01*
X6910000Y-20034714D01*
X6881428Y-20020429D01*
X6867143Y-20006143D01*
X6852857Y-19977572D01*
X6838571Y-19920429D01*
X6838571Y-19849000D01*
X6852857Y-19791857D01*
X6867143Y-19763286D01*
X6881428Y-19749000D01*
X6910000Y-19734714D01*
X7138571Y-20006143D02*
X7152857Y-20020429D01*
X7138571Y-20034714D01*
X7124286Y-20020429D01*
X7138571Y-20006143D01*
X7138571Y-20034714D01*
X7338571Y-19734714D02*
X7367143Y-19734714D01*
X7395714Y-19749000D01*
X7410000Y-19763286D01*
X7424286Y-19791857D01*
X7438571Y-19849000D01*
X7438571Y-19920429D01*
X7424286Y-19977572D01*
X7410000Y-20006143D01*
X7395714Y-20020429D01*
X7367143Y-20034714D01*
X7338571Y-20034714D01*
X7310000Y-20020429D01*
X7295714Y-20006143D01*
X7281428Y-19977572D01*
X7267143Y-19920429D01*
X7267143Y-19849000D01*
X7281428Y-19791857D01*
X7295714Y-19763286D01*
X7310000Y-19749000D01*
X7338571Y-19734714D01*
X7538571Y-19734714D02*
X7724286Y-19734714D01*
X7624286Y-19849000D01*
X7667143Y-19849000D01*
X7695714Y-19863286D01*
X7710000Y-19877572D01*
X7724286Y-19906143D01*
X7724286Y-19977572D01*
X7710000Y-20006143D01*
X7695714Y-20020429D01*
X7667143Y-20034714D01*
X7581428Y-20034714D01*
X7552857Y-20020429D01*
X7538571Y-20006143D01*
X7824286Y-19734714D02*
X8024286Y-19734714D01*
X7895714Y-20034714D01*
X8124286Y-19734714D02*
X8124286Y-19791857D01*
X8238571Y-19734714D02*
X8238571Y-19791857D01*
X8681428Y-20149000D02*
X8667143Y-20134714D01*
X8638571Y-20091857D01*
X8624286Y-20063286D01*
X8610000Y-20020429D01*
X8595714Y-19949000D01*
X8595714Y-19891857D01*
X8610000Y-19820429D01*
X8624286Y-19777572D01*
X8638571Y-19749000D01*
X8667143Y-19706143D01*
X8681428Y-19691857D01*
X8924286Y-19734714D02*
X8867143Y-19734714D01*
X8838571Y-19749000D01*
X8824286Y-19763286D01*
X8795714Y-19806143D01*
X8781428Y-19863286D01*
X8781428Y-19977572D01*
X8795714Y-20006143D01*
X8810000Y-20020429D01*
X8838571Y-20034714D01*
X8895714Y-20034714D01*
X8924286Y-20020429D01*
X8938571Y-20006143D01*
X8952857Y-19977572D01*
X8952857Y-19906143D01*
X8938571Y-19877572D01*
X8924286Y-19863286D01*
X8895714Y-19849000D01*
X8838571Y-19849000D01*
X8810000Y-19863286D01*
X8795714Y-19877572D01*
X8781428Y-19906143D01*
X9310000Y-20034714D02*
X9310000Y-19734714D01*
X9438571Y-20034714D02*
X9438571Y-19877572D01*
X9424286Y-19849000D01*
X9395714Y-19834714D01*
X9352857Y-19834714D01*
X9324286Y-19849000D01*
X9310000Y-19863286D01*
X9624286Y-20034714D02*
X9595714Y-20020429D01*
X9581428Y-20006143D01*
X9567143Y-19977572D01*
X9567143Y-19891857D01*
X9581428Y-19863286D01*
X9595714Y-19849000D01*
X9624286Y-19834714D01*
X9667143Y-19834714D01*
X9695714Y-19849000D01*
X9710000Y-19863286D01*
X9724286Y-19891857D01*
X9724286Y-19977572D01*
X9710000Y-20006143D01*
X9695714Y-20020429D01*
X9667143Y-20034714D01*
X9624286Y-20034714D01*
X9895714Y-20034714D02*
X9867143Y-20020429D01*
X9852857Y-19991857D01*
X9852857Y-19734714D01*
X10124286Y-20020429D02*
X10095714Y-20034714D01*
X10038571Y-20034714D01*
X10010000Y-20020429D01*
X9995714Y-19991857D01*
X9995714Y-19877572D01*
X10010000Y-19849000D01*
X10038571Y-19834714D01*
X10095714Y-19834714D01*
X10124286Y-19849000D01*
X10138571Y-19877572D01*
X10138571Y-19906143D01*
X9995714Y-19934714D01*
X10252857Y-20020429D02*
X10281428Y-20034714D01*
X10338571Y-20034714D01*
X10367143Y-20020429D01*
X10381428Y-19991857D01*
X10381428Y-19977572D01*
X10367143Y-19949000D01*
X10338571Y-19934714D01*
X10295714Y-19934714D01*
X10267143Y-19920429D01*
X10252857Y-19891857D01*
X10252857Y-19877572D01*
X10267143Y-19849000D01*
X10295714Y-19834714D01*
X10338571Y-19834714D01*
X10367143Y-19849000D01*
X10481428Y-20149000D02*
X10495714Y-20134714D01*
X10524286Y-20091857D01*
X10538571Y-20063286D01*
X10552857Y-20020429D01*
X10567143Y-19949000D01*
X10567143Y-19891857D01*
X10552857Y-19820429D01*
X10538571Y-19777572D01*
X10524286Y-19749000D01*
X10495714Y-19706143D01*
X10481428Y-19691857D01*
X3895000Y-20245000D02*
X3995000Y-20345000D01*
X3995000Y-20245000D02*
X3895000Y-20345000D01*
X3995000Y-20295000D02*
G75*
G03*
X3995000Y-20295000I-50000J0D01*
G01*
X4438571Y-20430714D02*
X4267143Y-20430714D01*
X4352857Y-20430714D02*
X4352857Y-20130714D01*
X4324286Y-20173572D01*
X4295714Y-20202143D01*
X4267143Y-20216429D01*
X4567143Y-20402143D02*
X4581428Y-20416429D01*
X4567143Y-20430714D01*
X4552857Y-20416429D01*
X4567143Y-20402143D01*
X4567143Y-20430714D01*
X4767143Y-20130714D02*
X4795714Y-20130714D01*
X4824286Y-20145000D01*
X4838571Y-20159286D01*
X4852857Y-20187857D01*
X4867143Y-20245000D01*
X4867143Y-20316429D01*
X4852857Y-20373572D01*
X4838571Y-20402143D01*
X4824286Y-20416429D01*
X4795714Y-20430714D01*
X4767143Y-20430714D01*
X4738571Y-20416429D01*
X4724286Y-20402143D01*
X4710000Y-20373572D01*
X4695714Y-20316429D01*
X4695714Y-20245000D01*
X4710000Y-20187857D01*
X4724286Y-20159286D01*
X4738571Y-20145000D01*
X4767143Y-20130714D01*
X5052857Y-20130714D02*
X5081428Y-20130714D01*
X5110000Y-20145000D01*
X5124286Y-20159286D01*
X5138571Y-20187857D01*
X5152857Y-20245000D01*
X5152857Y-20316429D01*
X5138571Y-20373572D01*
X5124286Y-20402143D01*
X5110000Y-20416429D01*
X5081428Y-20430714D01*
X5052857Y-20430714D01*
X5024286Y-20416429D01*
X5010000Y-20402143D01*
X4995714Y-20373572D01*
X4981428Y-20316429D01*
X4981428Y-20245000D01*
X4995714Y-20187857D01*
X5010000Y-20159286D01*
X5024286Y-20145000D01*
X5052857Y-20130714D01*
X5281428Y-20430714D02*
X5281428Y-20230714D01*
X5281428Y-20259286D02*
X5295714Y-20245000D01*
X5324286Y-20230714D01*
X5367143Y-20230714D01*
X5395714Y-20245000D01*
X5410000Y-20273572D01*
X5410000Y-20430714D01*
X5410000Y-20273572D02*
X5424286Y-20245000D01*
X5452857Y-20230714D01*
X5495714Y-20230714D01*
X5524286Y-20245000D01*
X5538571Y-20273572D01*
X5538571Y-20430714D01*
X5681428Y-20430714D02*
X5681428Y-20230714D01*
X5681428Y-20259286D02*
X5695714Y-20245000D01*
X5724286Y-20230714D01*
X5767143Y-20230714D01*
X5795714Y-20245000D01*
X5810000Y-20273572D01*
X5810000Y-20430714D01*
X5810000Y-20273572D02*
X5824286Y-20245000D01*
X5852857Y-20230714D01*
X5895714Y-20230714D01*
X5924286Y-20245000D01*
X5938571Y-20273572D01*
X5938571Y-20430714D01*
X6524286Y-20116429D02*
X6267143Y-20502143D01*
X6910000Y-20130714D02*
X6938571Y-20130714D01*
X6967143Y-20145000D01*
X6981428Y-20159286D01*
X6995714Y-20187857D01*
X7010000Y-20245000D01*
X7010000Y-20316429D01*
X6995714Y-20373572D01*
X6981428Y-20402143D01*
X6967143Y-20416429D01*
X6938571Y-20430714D01*
X6910000Y-20430714D01*
X6881428Y-20416429D01*
X6867143Y-20402143D01*
X6852857Y-20373572D01*
X6838571Y-20316429D01*
X6838571Y-20245000D01*
X6852857Y-20187857D01*
X6867143Y-20159286D01*
X6881428Y-20145000D01*
X6910000Y-20130714D01*
X7138571Y-20402143D02*
X7152857Y-20416429D01*
X7138571Y-20430714D01*
X7124286Y-20416429D01*
X7138571Y-20402143D01*
X7138571Y-20430714D01*
X7338571Y-20130714D02*
X7367143Y-20130714D01*
X7395714Y-20145000D01*
X7410000Y-20159286D01*
X7424286Y-20187857D01*
X7438571Y-20245000D01*
X7438571Y-20316429D01*
X7424286Y-20373572D01*
X7410000Y-20402143D01*
X7395714Y-20416429D01*
X7367143Y-20430714D01*
X7338571Y-20430714D01*
X7310000Y-20416429D01*
X7295714Y-20402143D01*
X7281428Y-20373572D01*
X7267143Y-20316429D01*
X7267143Y-20245000D01*
X7281428Y-20187857D01*
X7295714Y-20159286D01*
X7310000Y-20145000D01*
X7338571Y-20130714D01*
X7538571Y-20130714D02*
X7724286Y-20130714D01*
X7624286Y-20245000D01*
X7667143Y-20245000D01*
X7695714Y-20259286D01*
X7710000Y-20273572D01*
X7724286Y-20302143D01*
X7724286Y-20373572D01*
X7710000Y-20402143D01*
X7695714Y-20416429D01*
X7667143Y-20430714D01*
X7581428Y-20430714D01*
X7552857Y-20416429D01*
X7538571Y-20402143D01*
X7867143Y-20430714D02*
X7924286Y-20430714D01*
X7952857Y-20416429D01*
X7967143Y-20402143D01*
X7995714Y-20359286D01*
X8010000Y-20302143D01*
X8010000Y-20187857D01*
X7995714Y-20159286D01*
X7981428Y-20145000D01*
X7952857Y-20130714D01*
X7895714Y-20130714D01*
X7867143Y-20145000D01*
X7852857Y-20159286D01*
X7838571Y-20187857D01*
X7838571Y-20259286D01*
X7852857Y-20287857D01*
X7867143Y-20302143D01*
X7895714Y-20316429D01*
X7952857Y-20316429D01*
X7981428Y-20302143D01*
X7995714Y-20287857D01*
X8010000Y-20259286D01*
X8124286Y-20130714D02*
X8124286Y-20187857D01*
X8238571Y-20130714D02*
X8238571Y-20187857D01*
X8681428Y-20545000D02*
X8667143Y-20530714D01*
X8638571Y-20487857D01*
X8624286Y-20459286D01*
X8610000Y-20416429D01*
X8595714Y-20345000D01*
X8595714Y-20287857D01*
X8610000Y-20216429D01*
X8624286Y-20173572D01*
X8638571Y-20145000D01*
X8667143Y-20102143D01*
X8681428Y-20087857D01*
X8924286Y-20130714D02*
X8867143Y-20130714D01*
X8838571Y-20145000D01*
X8824286Y-20159286D01*
X8795714Y-20202143D01*
X8781428Y-20259286D01*
X8781428Y-20373572D01*
X8795714Y-20402143D01*
X8810000Y-20416429D01*
X8838571Y-20430714D01*
X8895714Y-20430714D01*
X8924286Y-20416429D01*
X8938571Y-20402143D01*
X8952857Y-20373572D01*
X8952857Y-20302143D01*
X8938571Y-20273572D01*
X8924286Y-20259286D01*
X8895714Y-20245000D01*
X8838571Y-20245000D01*
X8810000Y-20259286D01*
X8795714Y-20273572D01*
X8781428Y-20302143D01*
X9138571Y-20130714D02*
X9167143Y-20130714D01*
X9195714Y-20145000D01*
X9210000Y-20159286D01*
X9224286Y-20187857D01*
X9238571Y-20245000D01*
X9238571Y-20316429D01*
X9224286Y-20373572D01*
X9210000Y-20402143D01*
X9195714Y-20416429D01*
X9167143Y-20430714D01*
X9138571Y-20430714D01*
X9110000Y-20416429D01*
X9095714Y-20402143D01*
X9081428Y-20373572D01*
X9067143Y-20316429D01*
X9067143Y-20245000D01*
X9081428Y-20187857D01*
X9095714Y-20159286D01*
X9110000Y-20145000D01*
X9138571Y-20130714D01*
X9595714Y-20430714D02*
X9595714Y-20130714D01*
X9724286Y-20430714D02*
X9724286Y-20273572D01*
X9710000Y-20245000D01*
X9681428Y-20230714D01*
X9638571Y-20230714D01*
X9610000Y-20245000D01*
X9595714Y-20259286D01*
X9910000Y-20430714D02*
X9881428Y-20416429D01*
X9867143Y-20402143D01*
X9852857Y-20373572D01*
X9852857Y-20287857D01*
X9867143Y-20259286D01*
X9881428Y-20245000D01*
X9910000Y-20230714D01*
X9952857Y-20230714D01*
X9981428Y-20245000D01*
X9995714Y-20259286D01*
X10010000Y-20287857D01*
X10010000Y-20373572D01*
X9995714Y-20402143D01*
X9981428Y-20416429D01*
X9952857Y-20430714D01*
X9910000Y-20430714D01*
X10181428Y-20430714D02*
X10152857Y-20416429D01*
X10138571Y-20387857D01*
X10138571Y-20130714D01*
X10410000Y-20416429D02*
X10381428Y-20430714D01*
X10324286Y-20430714D01*
X10295714Y-20416429D01*
X10281428Y-20387857D01*
X10281428Y-20273572D01*
X10295714Y-20245000D01*
X10324286Y-20230714D01*
X10381428Y-20230714D01*
X10410000Y-20245000D01*
X10424286Y-20273572D01*
X10424286Y-20302143D01*
X10281428Y-20330714D01*
X10538571Y-20416429D02*
X10567143Y-20430714D01*
X10624286Y-20430714D01*
X10652857Y-20416429D01*
X10667143Y-20387857D01*
X10667143Y-20373572D01*
X10652857Y-20345000D01*
X10624286Y-20330714D01*
X10581428Y-20330714D01*
X10552857Y-20316429D01*
X10538571Y-20287857D01*
X10538571Y-20273572D01*
X10552857Y-20245000D01*
X10581428Y-20230714D01*
X10624286Y-20230714D01*
X10652857Y-20245000D01*
X10767143Y-20545000D02*
X10781428Y-20530714D01*
X10810000Y-20487857D01*
X10824286Y-20459286D01*
X10838571Y-20416429D01*
X10852857Y-20345000D01*
X10852857Y-20287857D01*
X10838571Y-20216429D01*
X10824286Y-20173572D01*
X10810000Y-20145000D01*
X10781428Y-20102143D01*
X10767143Y-20087857D01*
X3885000Y-20636000D02*
X3995000Y-20746000D01*
X3995000Y-20636000D02*
X3885000Y-20746000D01*
X3940000Y-20636000D02*
X3940000Y-20746000D01*
X3885000Y-20691000D02*
X3995000Y-20691000D01*
X4438571Y-20826714D02*
X4267143Y-20826714D01*
X4352857Y-20826714D02*
X4352857Y-20526714D01*
X4324286Y-20569572D01*
X4295714Y-20598143D01*
X4267143Y-20612429D01*
X4567143Y-20798143D02*
X4581428Y-20812429D01*
X4567143Y-20826714D01*
X4552857Y-20812429D01*
X4567143Y-20798143D01*
X4567143Y-20826714D01*
X4867143Y-20826714D02*
X4695714Y-20826714D01*
X4781428Y-20826714D02*
X4781428Y-20526714D01*
X4752857Y-20569572D01*
X4724286Y-20598143D01*
X4695714Y-20612429D01*
X5052857Y-20526714D02*
X5081428Y-20526714D01*
X5110000Y-20541000D01*
X5124286Y-20555286D01*
X5138571Y-20583857D01*
X5152857Y-20641000D01*
X5152857Y-20712429D01*
X5138571Y-20769572D01*
X5124286Y-20798143D01*
X5110000Y-20812429D01*
X5081428Y-20826714D01*
X5052857Y-20826714D01*
X5024286Y-20812429D01*
X5010000Y-20798143D01*
X4995714Y-20769572D01*
X4981428Y-20712429D01*
X4981428Y-20641000D01*
X4995714Y-20583857D01*
X5010000Y-20555286D01*
X5024286Y-20541000D01*
X5052857Y-20526714D01*
X5281428Y-20826714D02*
X5281428Y-20626714D01*
X5281428Y-20655286D02*
X5295714Y-20641000D01*
X5324286Y-20626714D01*
X5367143Y-20626714D01*
X5395714Y-20641000D01*
X5410000Y-20669572D01*
X5410000Y-20826714D01*
X5410000Y-20669572D02*
X5424286Y-20641000D01*
X5452857Y-20626714D01*
X5495714Y-20626714D01*
X5524286Y-20641000D01*
X5538571Y-20669572D01*
X5538571Y-20826714D01*
X5681428Y-20826714D02*
X5681428Y-20626714D01*
X5681428Y-20655286D02*
X5695714Y-20641000D01*
X5724286Y-20626714D01*
X5767143Y-20626714D01*
X5795714Y-20641000D01*
X5810000Y-20669572D01*
X5810000Y-20826714D01*
X5810000Y-20669572D02*
X5824286Y-20641000D01*
X5852857Y-20626714D01*
X5895714Y-20626714D01*
X5924286Y-20641000D01*
X5938571Y-20669572D01*
X5938571Y-20826714D01*
X6524286Y-20512429D02*
X6267143Y-20898143D01*
X6910000Y-20526714D02*
X6938571Y-20526714D01*
X6967143Y-20541000D01*
X6981428Y-20555286D01*
X6995714Y-20583857D01*
X7010000Y-20641000D01*
X7010000Y-20712429D01*
X6995714Y-20769572D01*
X6981428Y-20798143D01*
X6967143Y-20812429D01*
X6938571Y-20826714D01*
X6910000Y-20826714D01*
X6881428Y-20812429D01*
X6867143Y-20798143D01*
X6852857Y-20769572D01*
X6838571Y-20712429D01*
X6838571Y-20641000D01*
X6852857Y-20583857D01*
X6867143Y-20555286D01*
X6881428Y-20541000D01*
X6910000Y-20526714D01*
X7138571Y-20798143D02*
X7152857Y-20812429D01*
X7138571Y-20826714D01*
X7124286Y-20812429D01*
X7138571Y-20798143D01*
X7138571Y-20826714D01*
X7338571Y-20526714D02*
X7367143Y-20526714D01*
X7395714Y-20541000D01*
X7410000Y-20555286D01*
X7424286Y-20583857D01*
X7438571Y-20641000D01*
X7438571Y-20712429D01*
X7424286Y-20769572D01*
X7410000Y-20798143D01*
X7395714Y-20812429D01*
X7367143Y-20826714D01*
X7338571Y-20826714D01*
X7310000Y-20812429D01*
X7295714Y-20798143D01*
X7281428Y-20769572D01*
X7267143Y-20712429D01*
X7267143Y-20641000D01*
X7281428Y-20583857D01*
X7295714Y-20555286D01*
X7310000Y-20541000D01*
X7338571Y-20526714D01*
X7695714Y-20626714D02*
X7695714Y-20826714D01*
X7624286Y-20512429D02*
X7552857Y-20726714D01*
X7738571Y-20726714D01*
X7824286Y-20526714D02*
X8010000Y-20526714D01*
X7910000Y-20641000D01*
X7952857Y-20641000D01*
X7981428Y-20655286D01*
X7995714Y-20669572D01*
X8010000Y-20698143D01*
X8010000Y-20769572D01*
X7995714Y-20798143D01*
X7981428Y-20812429D01*
X7952857Y-20826714D01*
X7867143Y-20826714D01*
X7838571Y-20812429D01*
X7824286Y-20798143D01*
X8124286Y-20526714D02*
X8124286Y-20583857D01*
X8238571Y-20526714D02*
X8238571Y-20583857D01*
X8681428Y-20941000D02*
X8667143Y-20926714D01*
X8638571Y-20883857D01*
X8624286Y-20855286D01*
X8610000Y-20812429D01*
X8595714Y-20741000D01*
X8595714Y-20683857D01*
X8610000Y-20612429D01*
X8624286Y-20569572D01*
X8638571Y-20541000D01*
X8667143Y-20498143D01*
X8681428Y-20483857D01*
X8852857Y-20526714D02*
X8881428Y-20526714D01*
X8910000Y-20541000D01*
X8924286Y-20555286D01*
X8938571Y-20583857D01*
X8952857Y-20641000D01*
X8952857Y-20712429D01*
X8938571Y-20769572D01*
X8924286Y-20798143D01*
X8910000Y-20812429D01*
X8881428Y-20826714D01*
X8852857Y-20826714D01*
X8824286Y-20812429D01*
X8810000Y-20798143D01*
X8795714Y-20769572D01*
X8781428Y-20712429D01*
X8781428Y-20641000D01*
X8795714Y-20583857D01*
X8810000Y-20555286D01*
X8824286Y-20541000D01*
X8852857Y-20526714D01*
X9310000Y-20826714D02*
X9310000Y-20526714D01*
X9438571Y-20826714D02*
X9438571Y-20669572D01*
X9424286Y-20641000D01*
X9395714Y-20626714D01*
X9352857Y-20626714D01*
X9324286Y-20641000D01*
X9310000Y-20655286D01*
X9624286Y-20826714D02*
X9595714Y-20812429D01*
X9581428Y-20798143D01*
X9567143Y-20769572D01*
X9567143Y-20683857D01*
X9581428Y-20655286D01*
X9595714Y-20641000D01*
X9624286Y-20626714D01*
X9667143Y-20626714D01*
X9695714Y-20641000D01*
X9710000Y-20655286D01*
X9724286Y-20683857D01*
X9724286Y-20769572D01*
X9710000Y-20798143D01*
X9695714Y-20812429D01*
X9667143Y-20826714D01*
X9624286Y-20826714D01*
X9895714Y-20826714D02*
X9867143Y-20812429D01*
X9852857Y-20783857D01*
X9852857Y-20526714D01*
X10124286Y-20812429D02*
X10095714Y-20826714D01*
X10038571Y-20826714D01*
X10010000Y-20812429D01*
X9995714Y-20783857D01*
X9995714Y-20669572D01*
X10010000Y-20641000D01*
X10038571Y-20626714D01*
X10095714Y-20626714D01*
X10124286Y-20641000D01*
X10138571Y-20669572D01*
X10138571Y-20698143D01*
X9995714Y-20726714D01*
X10252857Y-20812429D02*
X10281428Y-20826714D01*
X10338571Y-20826714D01*
X10367143Y-20812429D01*
X10381428Y-20783857D01*
X10381428Y-20769572D01*
X10367143Y-20741000D01*
X10338571Y-20726714D01*
X10295714Y-20726714D01*
X10267143Y-20712429D01*
X10252857Y-20683857D01*
X10252857Y-20669572D01*
X10267143Y-20641000D01*
X10295714Y-20626714D01*
X10338571Y-20626714D01*
X10367143Y-20641000D01*
X10738571Y-20712429D02*
X10967143Y-20712429D01*
X10852857Y-20826714D02*
X10852857Y-20598143D01*
X11381428Y-20655286D02*
X11352857Y-20641000D01*
X11338571Y-20626714D01*
X11324286Y-20598143D01*
X11324286Y-20583857D01*
X11338571Y-20555286D01*
X11352857Y-20541000D01*
X11381428Y-20526714D01*
X11438571Y-20526714D01*
X11467143Y-20541000D01*
X11481428Y-20555286D01*
X11495714Y-20583857D01*
X11495714Y-20598143D01*
X11481428Y-20626714D01*
X11467143Y-20641000D01*
X11438571Y-20655286D01*
X11381428Y-20655286D01*
X11352857Y-20669572D01*
X11338571Y-20683857D01*
X11324286Y-20712429D01*
X11324286Y-20769572D01*
X11338571Y-20798143D01*
X11352857Y-20812429D01*
X11381428Y-20826714D01*
X11438571Y-20826714D01*
X11467143Y-20812429D01*
X11481428Y-20798143D01*
X11495714Y-20769572D01*
X11495714Y-20712429D01*
X11481428Y-20683857D01*
X11467143Y-20669572D01*
X11438571Y-20655286D01*
X11838571Y-20812429D02*
X11867143Y-20826714D01*
X11924286Y-20826714D01*
X11952857Y-20812429D01*
X11967143Y-20783857D01*
X11967143Y-20769572D01*
X11952857Y-20741000D01*
X11924286Y-20726714D01*
X11881428Y-20726714D01*
X11852857Y-20712429D01*
X11838571Y-20683857D01*
X11838571Y-20669572D01*
X11852857Y-20641000D01*
X11881428Y-20626714D01*
X11924286Y-20626714D01*
X11952857Y-20641000D01*
X12138571Y-20826714D02*
X12110000Y-20812429D01*
X12095714Y-20783857D01*
X12095714Y-20526714D01*
X12295714Y-20826714D02*
X12267143Y-20812429D01*
X12252857Y-20798143D01*
X12238571Y-20769572D01*
X12238571Y-20683857D01*
X12252857Y-20655286D01*
X12267143Y-20641000D01*
X12295714Y-20626714D01*
X12338571Y-20626714D01*
X12367143Y-20641000D01*
X12381428Y-20655286D01*
X12395714Y-20683857D01*
X12395714Y-20769572D01*
X12381428Y-20798143D01*
X12367143Y-20812429D01*
X12338571Y-20826714D01*
X12295714Y-20826714D01*
X12481428Y-20626714D02*
X12595714Y-20626714D01*
X12524286Y-20526714D02*
X12524286Y-20783857D01*
X12538571Y-20812429D01*
X12567143Y-20826714D01*
X12595714Y-20826714D01*
X12681428Y-20812429D02*
X12710000Y-20826714D01*
X12767143Y-20826714D01*
X12795714Y-20812429D01*
X12810000Y-20783857D01*
X12810000Y-20769572D01*
X12795714Y-20741000D01*
X12767143Y-20726714D01*
X12724286Y-20726714D01*
X12695714Y-20712429D01*
X12681428Y-20683857D01*
X12681428Y-20669572D01*
X12695714Y-20641000D01*
X12724286Y-20626714D01*
X12767143Y-20626714D01*
X12795714Y-20641000D01*
X12910000Y-20941000D02*
X12924286Y-20926714D01*
X12952857Y-20883857D01*
X12967143Y-20855286D01*
X12981428Y-20812429D01*
X12995714Y-20741000D01*
X12995714Y-20683857D01*
X12981428Y-20612429D01*
X12967143Y-20569572D01*
X12952857Y-20541000D01*
X12924286Y-20498143D01*
X12910000Y-20483857D01*
X3873000Y-21026000D02*
X3995000Y-21148000D01*
X3995000Y-21026000D02*
X3873000Y-21148000D01*
X3977134Y-21130134D02*
X3977134Y-21043866D01*
X3890866Y-21043866D01*
X3890866Y-21130134D01*
X3977134Y-21130134D01*
X4438571Y-21222714D02*
X4267143Y-21222714D01*
X4352857Y-21222714D02*
X4352857Y-20922714D01*
X4324286Y-20965572D01*
X4295714Y-20994143D01*
X4267143Y-21008429D01*
X4567143Y-21194143D02*
X4581428Y-21208429D01*
X4567143Y-21222714D01*
X4552857Y-21208429D01*
X4567143Y-21194143D01*
X4567143Y-21222714D01*
X4695714Y-20951286D02*
X4710000Y-20937000D01*
X4738571Y-20922714D01*
X4810000Y-20922714D01*
X4838571Y-20937000D01*
X4852857Y-20951286D01*
X4867143Y-20979857D01*
X4867143Y-21008429D01*
X4852857Y-21051286D01*
X4681428Y-21222714D01*
X4867143Y-21222714D01*
X4981428Y-20951286D02*
X4995714Y-20937000D01*
X5024286Y-20922714D01*
X5095714Y-20922714D01*
X5124286Y-20937000D01*
X5138571Y-20951286D01*
X5152857Y-20979857D01*
X5152857Y-21008429D01*
X5138571Y-21051286D01*
X4967143Y-21222714D01*
X5152857Y-21222714D01*
X5281428Y-21222714D02*
X5281428Y-21022714D01*
X5281428Y-21051286D02*
X5295714Y-21037000D01*
X5324286Y-21022714D01*
X5367143Y-21022714D01*
X5395714Y-21037000D01*
X5410000Y-21065572D01*
X5410000Y-21222714D01*
X5410000Y-21065572D02*
X5424286Y-21037000D01*
X5452857Y-21022714D01*
X5495714Y-21022714D01*
X5524286Y-21037000D01*
X5538571Y-21065572D01*
X5538571Y-21222714D01*
X5681428Y-21222714D02*
X5681428Y-21022714D01*
X5681428Y-21051286D02*
X5695714Y-21037000D01*
X5724286Y-21022714D01*
X5767143Y-21022714D01*
X5795714Y-21037000D01*
X5810000Y-21065572D01*
X5810000Y-21222714D01*
X5810000Y-21065572D02*
X5824286Y-21037000D01*
X5852857Y-21022714D01*
X5895714Y-21022714D01*
X5924286Y-21037000D01*
X5938571Y-21065572D01*
X5938571Y-21222714D01*
X6524286Y-20908429D02*
X6267143Y-21294143D01*
X6910000Y-20922714D02*
X6938571Y-20922714D01*
X6967143Y-20937000D01*
X6981428Y-20951286D01*
X6995714Y-20979857D01*
X7010000Y-21037000D01*
X7010000Y-21108429D01*
X6995714Y-21165572D01*
X6981428Y-21194143D01*
X6967143Y-21208429D01*
X6938571Y-21222714D01*
X6910000Y-21222714D01*
X6881428Y-21208429D01*
X6867143Y-21194143D01*
X6852857Y-21165572D01*
X6838571Y-21108429D01*
X6838571Y-21037000D01*
X6852857Y-20979857D01*
X6867143Y-20951286D01*
X6881428Y-20937000D01*
X6910000Y-20922714D01*
X7138571Y-21194143D02*
X7152857Y-21208429D01*
X7138571Y-21222714D01*
X7124286Y-21208429D01*
X7138571Y-21194143D01*
X7138571Y-21222714D01*
X7338571Y-20922714D02*
X7367143Y-20922714D01*
X7395714Y-20937000D01*
X7410000Y-20951286D01*
X7424286Y-20979857D01*
X7438571Y-21037000D01*
X7438571Y-21108429D01*
X7424286Y-21165572D01*
X7410000Y-21194143D01*
X7395714Y-21208429D01*
X7367143Y-21222714D01*
X7338571Y-21222714D01*
X7310000Y-21208429D01*
X7295714Y-21194143D01*
X7281428Y-21165572D01*
X7267143Y-21108429D01*
X7267143Y-21037000D01*
X7281428Y-20979857D01*
X7295714Y-20951286D01*
X7310000Y-20937000D01*
X7338571Y-20922714D01*
X7695714Y-21022714D02*
X7695714Y-21222714D01*
X7624286Y-20908429D02*
X7552857Y-21122714D01*
X7738571Y-21122714D01*
X7895714Y-21051286D02*
X7867143Y-21037000D01*
X7852857Y-21022714D01*
X7838571Y-20994143D01*
X7838571Y-20979857D01*
X7852857Y-20951286D01*
X7867143Y-20937000D01*
X7895714Y-20922714D01*
X7952857Y-20922714D01*
X7981428Y-20937000D01*
X7995714Y-20951286D01*
X8010000Y-20979857D01*
X8010000Y-20994143D01*
X7995714Y-21022714D01*
X7981428Y-21037000D01*
X7952857Y-21051286D01*
X7895714Y-21051286D01*
X7867143Y-21065572D01*
X7852857Y-21079857D01*
X7838571Y-21108429D01*
X7838571Y-21165572D01*
X7852857Y-21194143D01*
X7867143Y-21208429D01*
X7895714Y-21222714D01*
X7952857Y-21222714D01*
X7981428Y-21208429D01*
X7995714Y-21194143D01*
X8010000Y-21165572D01*
X8010000Y-21108429D01*
X7995714Y-21079857D01*
X7981428Y-21065572D01*
X7952857Y-21051286D01*
X8124286Y-20922714D02*
X8124286Y-20979857D01*
X8238571Y-20922714D02*
X8238571Y-20979857D01*
X8681428Y-21337000D02*
X8667143Y-21322714D01*
X8638571Y-21279857D01*
X8624286Y-21251286D01*
X8610000Y-21208429D01*
X8595714Y-21137000D01*
X8595714Y-21079857D01*
X8610000Y-21008429D01*
X8624286Y-20965572D01*
X8638571Y-20937000D01*
X8667143Y-20894143D01*
X8681428Y-20879857D01*
X8924286Y-21022714D02*
X8924286Y-21222714D01*
X8852857Y-20908429D02*
X8781428Y-21122714D01*
X8967143Y-21122714D01*
X9310000Y-21222714D02*
X9310000Y-20922714D01*
X9438571Y-21222714D02*
X9438571Y-21065572D01*
X9424286Y-21037000D01*
X9395714Y-21022714D01*
X9352857Y-21022714D01*
X9324286Y-21037000D01*
X9310000Y-21051286D01*
X9624286Y-21222714D02*
X9595714Y-21208429D01*
X9581428Y-21194143D01*
X9567143Y-21165572D01*
X9567143Y-21079857D01*
X9581428Y-21051286D01*
X9595714Y-21037000D01*
X9624286Y-21022714D01*
X9667143Y-21022714D01*
X9695714Y-21037000D01*
X9710000Y-21051286D01*
X9724286Y-21079857D01*
X9724286Y-21165572D01*
X9710000Y-21194143D01*
X9695714Y-21208429D01*
X9667143Y-21222714D01*
X9624286Y-21222714D01*
X9895714Y-21222714D02*
X9867143Y-21208429D01*
X9852857Y-21179857D01*
X9852857Y-20922714D01*
X10124286Y-21208429D02*
X10095714Y-21222714D01*
X10038571Y-21222714D01*
X10010000Y-21208429D01*
X9995714Y-21179857D01*
X9995714Y-21065572D01*
X10010000Y-21037000D01*
X10038571Y-21022714D01*
X10095714Y-21022714D01*
X10124286Y-21037000D01*
X10138571Y-21065572D01*
X10138571Y-21094143D01*
X9995714Y-21122714D01*
X10252857Y-21208429D02*
X10281428Y-21222714D01*
X10338571Y-21222714D01*
X10367143Y-21208429D01*
X10381428Y-21179857D01*
X10381428Y-21165572D01*
X10367143Y-21137000D01*
X10338571Y-21122714D01*
X10295714Y-21122714D01*
X10267143Y-21108429D01*
X10252857Y-21079857D01*
X10252857Y-21065572D01*
X10267143Y-21037000D01*
X10295714Y-21022714D01*
X10338571Y-21022714D01*
X10367143Y-21037000D01*
X10481428Y-21337000D02*
X10495714Y-21322714D01*
X10524286Y-21279857D01*
X10538571Y-21251286D01*
X10552857Y-21208429D01*
X10567143Y-21137000D01*
X10567143Y-21079857D01*
X10552857Y-21008429D01*
X10538571Y-20965572D01*
X10524286Y-20937000D01*
X10495714Y-20894143D01*
X10481428Y-20879857D01*
X3853000Y-21412000D02*
X3995000Y-21554000D01*
X3995000Y-21412000D02*
X3853000Y-21554000D01*
X3924000Y-21554000D02*
X3995000Y-21483000D01*
X3924000Y-21412000D01*
X3853000Y-21483000D01*
X3924000Y-21554000D01*
X4438571Y-21618714D02*
X4267143Y-21618714D01*
X4352857Y-21618714D02*
X4352857Y-21318714D01*
X4324286Y-21361572D01*
X4295714Y-21390143D01*
X4267143Y-21404429D01*
X4567143Y-21590143D02*
X4581428Y-21604429D01*
X4567143Y-21618714D01*
X4552857Y-21604429D01*
X4567143Y-21590143D01*
X4567143Y-21618714D01*
X4838571Y-21418714D02*
X4838571Y-21618714D01*
X4767143Y-21304429D02*
X4695714Y-21518714D01*
X4881428Y-21518714D01*
X4981428Y-21347286D02*
X4995714Y-21333000D01*
X5024286Y-21318714D01*
X5095714Y-21318714D01*
X5124286Y-21333000D01*
X5138571Y-21347286D01*
X5152857Y-21375857D01*
X5152857Y-21404429D01*
X5138571Y-21447286D01*
X4967143Y-21618714D01*
X5152857Y-21618714D01*
X5281428Y-21618714D02*
X5281428Y-21418714D01*
X5281428Y-21447286D02*
X5295714Y-21433000D01*
X5324286Y-21418714D01*
X5367143Y-21418714D01*
X5395714Y-21433000D01*
X5410000Y-21461572D01*
X5410000Y-21618714D01*
X5410000Y-21461572D02*
X5424286Y-21433000D01*
X5452857Y-21418714D01*
X5495714Y-21418714D01*
X5524286Y-21433000D01*
X5538571Y-21461572D01*
X5538571Y-21618714D01*
X5681428Y-21618714D02*
X5681428Y-21418714D01*
X5681428Y-21447286D02*
X5695714Y-21433000D01*
X5724286Y-21418714D01*
X5767143Y-21418714D01*
X5795714Y-21433000D01*
X5810000Y-21461572D01*
X5810000Y-21618714D01*
X5810000Y-21461572D02*
X5824286Y-21433000D01*
X5852857Y-21418714D01*
X5895714Y-21418714D01*
X5924286Y-21433000D01*
X5938571Y-21461572D01*
X5938571Y-21618714D01*
X6524286Y-21304429D02*
X6267143Y-21690143D01*
X6910000Y-21318714D02*
X6938571Y-21318714D01*
X6967143Y-21333000D01*
X6981428Y-21347286D01*
X6995714Y-21375857D01*
X7010000Y-21433000D01*
X7010000Y-21504429D01*
X6995714Y-21561572D01*
X6981428Y-21590143D01*
X6967143Y-21604429D01*
X6938571Y-21618714D01*
X6910000Y-21618714D01*
X6881428Y-21604429D01*
X6867143Y-21590143D01*
X6852857Y-21561572D01*
X6838571Y-21504429D01*
X6838571Y-21433000D01*
X6852857Y-21375857D01*
X6867143Y-21347286D01*
X6881428Y-21333000D01*
X6910000Y-21318714D01*
X7138571Y-21590143D02*
X7152857Y-21604429D01*
X7138571Y-21618714D01*
X7124286Y-21604429D01*
X7138571Y-21590143D01*
X7138571Y-21618714D01*
X7338571Y-21318714D02*
X7367143Y-21318714D01*
X7395714Y-21333000D01*
X7410000Y-21347286D01*
X7424286Y-21375857D01*
X7438571Y-21433000D01*
X7438571Y-21504429D01*
X7424286Y-21561572D01*
X7410000Y-21590143D01*
X7395714Y-21604429D01*
X7367143Y-21618714D01*
X7338571Y-21618714D01*
X7310000Y-21604429D01*
X7295714Y-21590143D01*
X7281428Y-21561572D01*
X7267143Y-21504429D01*
X7267143Y-21433000D01*
X7281428Y-21375857D01*
X7295714Y-21347286D01*
X7310000Y-21333000D01*
X7338571Y-21318714D01*
X7710000Y-21318714D02*
X7567143Y-21318714D01*
X7552857Y-21461572D01*
X7567143Y-21447286D01*
X7595714Y-21433000D01*
X7667143Y-21433000D01*
X7695714Y-21447286D01*
X7710000Y-21461572D01*
X7724286Y-21490143D01*
X7724286Y-21561572D01*
X7710000Y-21590143D01*
X7695714Y-21604429D01*
X7667143Y-21618714D01*
X7595714Y-21618714D01*
X7567143Y-21604429D01*
X7552857Y-21590143D01*
X7981428Y-21318714D02*
X7924286Y-21318714D01*
X7895714Y-21333000D01*
X7881428Y-21347286D01*
X7852857Y-21390143D01*
X7838571Y-21447286D01*
X7838571Y-21561572D01*
X7852857Y-21590143D01*
X7867143Y-21604429D01*
X7895714Y-21618714D01*
X7952857Y-21618714D01*
X7981428Y-21604429D01*
X7995714Y-21590143D01*
X8010000Y-21561572D01*
X8010000Y-21490143D01*
X7995714Y-21461572D01*
X7981428Y-21447286D01*
X7952857Y-21433000D01*
X7895714Y-21433000D01*
X7867143Y-21447286D01*
X7852857Y-21461572D01*
X7838571Y-21490143D01*
X8124286Y-21318714D02*
X8124286Y-21375857D01*
X8238571Y-21318714D02*
X8238571Y-21375857D01*
X8681428Y-21733000D02*
X8667143Y-21718714D01*
X8638571Y-21675857D01*
X8624286Y-21647286D01*
X8610000Y-21604429D01*
X8595714Y-21533000D01*
X8595714Y-21475857D01*
X8610000Y-21404429D01*
X8624286Y-21361572D01*
X8638571Y-21333000D01*
X8667143Y-21290143D01*
X8681428Y-21275857D01*
X8924286Y-21418714D02*
X8924286Y-21618714D01*
X8852857Y-21304429D02*
X8781428Y-21518714D01*
X8967143Y-21518714D01*
X9310000Y-21618714D02*
X9310000Y-21318714D01*
X9438571Y-21618714D02*
X9438571Y-21461572D01*
X9424286Y-21433000D01*
X9395714Y-21418714D01*
X9352857Y-21418714D01*
X9324286Y-21433000D01*
X9310000Y-21447286D01*
X9624286Y-21618714D02*
X9595714Y-21604429D01*
X9581428Y-21590143D01*
X9567143Y-21561572D01*
X9567143Y-21475857D01*
X9581428Y-21447286D01*
X9595714Y-21433000D01*
X9624286Y-21418714D01*
X9667143Y-21418714D01*
X9695714Y-21433000D01*
X9710000Y-21447286D01*
X9724286Y-21475857D01*
X9724286Y-21561572D01*
X9710000Y-21590143D01*
X9695714Y-21604429D01*
X9667143Y-21618714D01*
X9624286Y-21618714D01*
X9895714Y-21618714D02*
X9867143Y-21604429D01*
X9852857Y-21575857D01*
X9852857Y-21318714D01*
X10124286Y-21604429D02*
X10095714Y-21618714D01*
X10038571Y-21618714D01*
X10010000Y-21604429D01*
X9995714Y-21575857D01*
X9995714Y-21461572D01*
X10010000Y-21433000D01*
X10038571Y-21418714D01*
X10095714Y-21418714D01*
X10124286Y-21433000D01*
X10138571Y-21461572D01*
X10138571Y-21490143D01*
X9995714Y-21518714D01*
X10252857Y-21604429D02*
X10281428Y-21618714D01*
X10338571Y-21618714D01*
X10367143Y-21604429D01*
X10381428Y-21575857D01*
X10381428Y-21561572D01*
X10367143Y-21533000D01*
X10338571Y-21518714D01*
X10295714Y-21518714D01*
X10267143Y-21504429D01*
X10252857Y-21475857D01*
X10252857Y-21461572D01*
X10267143Y-21433000D01*
X10295714Y-21418714D01*
X10338571Y-21418714D01*
X10367143Y-21433000D01*
X10481428Y-21733000D02*
X10495714Y-21718714D01*
X10524286Y-21675857D01*
X10538571Y-21647286D01*
X10552857Y-21604429D01*
X10567143Y-21533000D01*
X10567143Y-21475857D01*
X10552857Y-21404429D01*
X10538571Y-21361572D01*
X10524286Y-21333000D01*
X10495714Y-21290143D01*
X10481428Y-21275857D01*
X3923500Y-21807500D02*
X3923500Y-21950500D01*
X3852000Y-21879000D02*
X3995000Y-21879000D01*
X3995000Y-21879000D02*
G75*
G03*
X3995000Y-21879000I-71500J0D01*
G01*
X4438571Y-22014714D02*
X4267143Y-22014714D01*
X4352857Y-22014714D02*
X4352857Y-21714714D01*
X4324286Y-21757572D01*
X4295714Y-21786143D01*
X4267143Y-21800429D01*
X4567143Y-21986143D02*
X4581428Y-22000429D01*
X4567143Y-22014714D01*
X4552857Y-22000429D01*
X4567143Y-21986143D01*
X4567143Y-22014714D01*
X4838571Y-21814714D02*
X4838571Y-22014714D01*
X4767143Y-21700429D02*
X4695714Y-21914714D01*
X4881428Y-21914714D01*
X4967143Y-21714714D02*
X5152857Y-21714714D01*
X5052857Y-21829000D01*
X5095714Y-21829000D01*
X5124286Y-21843286D01*
X5138571Y-21857572D01*
X5152857Y-21886143D01*
X5152857Y-21957572D01*
X5138571Y-21986143D01*
X5124286Y-22000429D01*
X5095714Y-22014714D01*
X5010000Y-22014714D01*
X4981428Y-22000429D01*
X4967143Y-21986143D01*
X5281428Y-22014714D02*
X5281428Y-21814714D01*
X5281428Y-21843286D02*
X5295714Y-21829000D01*
X5324286Y-21814714D01*
X5367143Y-21814714D01*
X5395714Y-21829000D01*
X5410000Y-21857572D01*
X5410000Y-22014714D01*
X5410000Y-21857572D02*
X5424286Y-21829000D01*
X5452857Y-21814714D01*
X5495714Y-21814714D01*
X5524286Y-21829000D01*
X5538571Y-21857572D01*
X5538571Y-22014714D01*
X5681428Y-22014714D02*
X5681428Y-21814714D01*
X5681428Y-21843286D02*
X5695714Y-21829000D01*
X5724286Y-21814714D01*
X5767143Y-21814714D01*
X5795714Y-21829000D01*
X5810000Y-21857572D01*
X5810000Y-22014714D01*
X5810000Y-21857572D02*
X5824286Y-21829000D01*
X5852857Y-21814714D01*
X5895714Y-21814714D01*
X5924286Y-21829000D01*
X5938571Y-21857572D01*
X5938571Y-22014714D01*
X6524286Y-21700429D02*
X6267143Y-22086143D01*
X6910000Y-21714714D02*
X6938571Y-21714714D01*
X6967143Y-21729000D01*
X6981428Y-21743286D01*
X6995714Y-21771857D01*
X7010000Y-21829000D01*
X7010000Y-21900429D01*
X6995714Y-21957572D01*
X6981428Y-21986143D01*
X6967143Y-22000429D01*
X6938571Y-22014714D01*
X6910000Y-22014714D01*
X6881428Y-22000429D01*
X6867143Y-21986143D01*
X6852857Y-21957572D01*
X6838571Y-21900429D01*
X6838571Y-21829000D01*
X6852857Y-21771857D01*
X6867143Y-21743286D01*
X6881428Y-21729000D01*
X6910000Y-21714714D01*
X7138571Y-21986143D02*
X7152857Y-22000429D01*
X7138571Y-22014714D01*
X7124286Y-22000429D01*
X7138571Y-21986143D01*
X7138571Y-22014714D01*
X7338571Y-21714714D02*
X7367143Y-21714714D01*
X7395714Y-21729000D01*
X7410000Y-21743286D01*
X7424286Y-21771857D01*
X7438571Y-21829000D01*
X7438571Y-21900429D01*
X7424286Y-21957572D01*
X7410000Y-21986143D01*
X7395714Y-22000429D01*
X7367143Y-22014714D01*
X7338571Y-22014714D01*
X7310000Y-22000429D01*
X7295714Y-21986143D01*
X7281428Y-21957572D01*
X7267143Y-21900429D01*
X7267143Y-21829000D01*
X7281428Y-21771857D01*
X7295714Y-21743286D01*
X7310000Y-21729000D01*
X7338571Y-21714714D01*
X7710000Y-21714714D02*
X7567143Y-21714714D01*
X7552857Y-21857572D01*
X7567143Y-21843286D01*
X7595714Y-21829000D01*
X7667143Y-21829000D01*
X7695714Y-21843286D01*
X7710000Y-21857572D01*
X7724286Y-21886143D01*
X7724286Y-21957572D01*
X7710000Y-21986143D01*
X7695714Y-22000429D01*
X7667143Y-22014714D01*
X7595714Y-22014714D01*
X7567143Y-22000429D01*
X7552857Y-21986143D01*
X7981428Y-21714714D02*
X7924286Y-21714714D01*
X7895714Y-21729000D01*
X7881428Y-21743286D01*
X7852857Y-21786143D01*
X7838571Y-21843286D01*
X7838571Y-21957572D01*
X7852857Y-21986143D01*
X7867143Y-22000429D01*
X7895714Y-22014714D01*
X7952857Y-22014714D01*
X7981428Y-22000429D01*
X7995714Y-21986143D01*
X8010000Y-21957572D01*
X8010000Y-21886143D01*
X7995714Y-21857572D01*
X7981428Y-21843286D01*
X7952857Y-21829000D01*
X7895714Y-21829000D01*
X7867143Y-21843286D01*
X7852857Y-21857572D01*
X7838571Y-21886143D01*
X8124286Y-21714714D02*
X8124286Y-21771857D01*
X8238571Y-21714714D02*
X8238571Y-21771857D01*
X8681428Y-22129000D02*
X8667143Y-22114714D01*
X8638571Y-22071857D01*
X8624286Y-22043286D01*
X8610000Y-22000429D01*
X8595714Y-21929000D01*
X8595714Y-21871857D01*
X8610000Y-21800429D01*
X8624286Y-21757572D01*
X8638571Y-21729000D01*
X8667143Y-21686143D01*
X8681428Y-21671857D01*
X8924286Y-21814714D02*
X8924286Y-22014714D01*
X8852857Y-21700429D02*
X8781428Y-21914714D01*
X8967143Y-21914714D01*
X9310000Y-22014714D02*
X9310000Y-21714714D01*
X9438571Y-22014714D02*
X9438571Y-21857572D01*
X9424286Y-21829000D01*
X9395714Y-21814714D01*
X9352857Y-21814714D01*
X9324286Y-21829000D01*
X9310000Y-21843286D01*
X9624286Y-22014714D02*
X9595714Y-22000429D01*
X9581428Y-21986143D01*
X9567143Y-21957572D01*
X9567143Y-21871857D01*
X9581428Y-21843286D01*
X9595714Y-21829000D01*
X9624286Y-21814714D01*
X9667143Y-21814714D01*
X9695714Y-21829000D01*
X9710000Y-21843286D01*
X9724286Y-21871857D01*
X9724286Y-21957572D01*
X9710000Y-21986143D01*
X9695714Y-22000429D01*
X9667143Y-22014714D01*
X9624286Y-22014714D01*
X9895714Y-22014714D02*
X9867143Y-22000429D01*
X9852857Y-21971857D01*
X9852857Y-21714714D01*
X10124286Y-22000429D02*
X10095714Y-22014714D01*
X10038571Y-22014714D01*
X10010000Y-22000429D01*
X9995714Y-21971857D01*
X9995714Y-21857572D01*
X10010000Y-21829000D01*
X10038571Y-21814714D01*
X10095714Y-21814714D01*
X10124286Y-21829000D01*
X10138571Y-21857572D01*
X10138571Y-21886143D01*
X9995714Y-21914714D01*
X10252857Y-22000429D02*
X10281428Y-22014714D01*
X10338571Y-22014714D01*
X10367143Y-22000429D01*
X10381428Y-21971857D01*
X10381428Y-21957572D01*
X10367143Y-21929000D01*
X10338571Y-21914714D01*
X10295714Y-21914714D01*
X10267143Y-21900429D01*
X10252857Y-21871857D01*
X10252857Y-21857572D01*
X10267143Y-21829000D01*
X10295714Y-21814714D01*
X10338571Y-21814714D01*
X10367143Y-21829000D01*
X10481428Y-22129000D02*
X10495714Y-22114714D01*
X10524286Y-22071857D01*
X10538571Y-22043286D01*
X10552857Y-22000429D01*
X10567143Y-21929000D01*
X10567143Y-21871857D01*
X10552857Y-21800429D01*
X10538571Y-21757572D01*
X10524286Y-21729000D01*
X10495714Y-21686143D01*
X10481428Y-21671857D01*
X3987678Y-22292678D02*
X3987678Y-22257322D01*
X3952322Y-22257322D01*
X3952322Y-22292678D01*
X3987678Y-22292678D01*
X3995000Y-22275000D02*
G75*
G03*
X3995000Y-22275000I-25000J0D01*
G01*
X4338571Y-22110714D02*
X4367143Y-22110714D01*
X4395714Y-22125000D01*
X4410000Y-22139286D01*
X4424286Y-22167857D01*
X4438571Y-22225000D01*
X4438571Y-22296429D01*
X4424286Y-22353572D01*
X4410000Y-22382143D01*
X4395714Y-22396429D01*
X4367143Y-22410714D01*
X4338571Y-22410714D01*
X4310000Y-22396429D01*
X4295714Y-22382143D01*
X4281428Y-22353572D01*
X4267143Y-22296429D01*
X4267143Y-22225000D01*
X4281428Y-22167857D01*
X4295714Y-22139286D01*
X4310000Y-22125000D01*
X4338571Y-22110714D01*
X4567143Y-22382143D02*
X4581428Y-22396429D01*
X4567143Y-22410714D01*
X4552857Y-22396429D01*
X4567143Y-22382143D01*
X4567143Y-22410714D01*
X4852857Y-22110714D02*
X4710000Y-22110714D01*
X4695714Y-22253572D01*
X4710000Y-22239286D01*
X4738571Y-22225000D01*
X4810000Y-22225000D01*
X4838571Y-22239286D01*
X4852857Y-22253572D01*
X4867143Y-22282143D01*
X4867143Y-22353572D01*
X4852857Y-22382143D01*
X4838571Y-22396429D01*
X4810000Y-22410714D01*
X4738571Y-22410714D01*
X4710000Y-22396429D01*
X4695714Y-22382143D01*
X5052857Y-22110714D02*
X5081428Y-22110714D01*
X5110000Y-22125000D01*
X5124286Y-22139286D01*
X5138571Y-22167857D01*
X5152857Y-22225000D01*
X5152857Y-22296429D01*
X5138571Y-22353572D01*
X5124286Y-22382143D01*
X5110000Y-22396429D01*
X5081428Y-22410714D01*
X5052857Y-22410714D01*
X5024286Y-22396429D01*
X5010000Y-22382143D01*
X4995714Y-22353572D01*
X4981428Y-22296429D01*
X4981428Y-22225000D01*
X4995714Y-22167857D01*
X5010000Y-22139286D01*
X5024286Y-22125000D01*
X5052857Y-22110714D01*
X5281428Y-22410714D02*
X5281428Y-22210714D01*
X5281428Y-22239286D02*
X5295714Y-22225000D01*
X5324286Y-22210714D01*
X5367143Y-22210714D01*
X5395714Y-22225000D01*
X5410000Y-22253572D01*
X5410000Y-22410714D01*
X5410000Y-22253572D02*
X5424286Y-22225000D01*
X5452857Y-22210714D01*
X5495714Y-22210714D01*
X5524286Y-22225000D01*
X5538571Y-22253572D01*
X5538571Y-22410714D01*
X5681428Y-22410714D02*
X5681428Y-22210714D01*
X5681428Y-22239286D02*
X5695714Y-22225000D01*
X5724286Y-22210714D01*
X5767143Y-22210714D01*
X5795714Y-22225000D01*
X5810000Y-22253572D01*
X5810000Y-22410714D01*
X5810000Y-22253572D02*
X5824286Y-22225000D01*
X5852857Y-22210714D01*
X5895714Y-22210714D01*
X5924286Y-22225000D01*
X5938571Y-22253572D01*
X5938571Y-22410714D01*
X6524286Y-22096429D02*
X6267143Y-22482143D01*
X6910000Y-22110714D02*
X6938571Y-22110714D01*
X6967143Y-22125000D01*
X6981428Y-22139286D01*
X6995714Y-22167857D01*
X7010000Y-22225000D01*
X7010000Y-22296429D01*
X6995714Y-22353572D01*
X6981428Y-22382143D01*
X6967143Y-22396429D01*
X6938571Y-22410714D01*
X6910000Y-22410714D01*
X6881428Y-22396429D01*
X6867143Y-22382143D01*
X6852857Y-22353572D01*
X6838571Y-22296429D01*
X6838571Y-22225000D01*
X6852857Y-22167857D01*
X6867143Y-22139286D01*
X6881428Y-22125000D01*
X6910000Y-22110714D01*
X7138571Y-22382143D02*
X7152857Y-22396429D01*
X7138571Y-22410714D01*
X7124286Y-22396429D01*
X7138571Y-22382143D01*
X7138571Y-22410714D01*
X7338571Y-22110714D02*
X7367143Y-22110714D01*
X7395714Y-22125000D01*
X7410000Y-22139286D01*
X7424286Y-22167857D01*
X7438571Y-22225000D01*
X7438571Y-22296429D01*
X7424286Y-22353572D01*
X7410000Y-22382143D01*
X7395714Y-22396429D01*
X7367143Y-22410714D01*
X7338571Y-22410714D01*
X7310000Y-22396429D01*
X7295714Y-22382143D01*
X7281428Y-22353572D01*
X7267143Y-22296429D01*
X7267143Y-22225000D01*
X7281428Y-22167857D01*
X7295714Y-22139286D01*
X7310000Y-22125000D01*
X7338571Y-22110714D01*
X7552857Y-22139286D02*
X7567143Y-22125000D01*
X7595714Y-22110714D01*
X7667143Y-22110714D01*
X7695714Y-22125000D01*
X7710000Y-22139286D01*
X7724286Y-22167857D01*
X7724286Y-22196429D01*
X7710000Y-22239286D01*
X7538571Y-22410714D01*
X7724286Y-22410714D01*
X7910000Y-22110714D02*
X7938571Y-22110714D01*
X7967143Y-22125000D01*
X7981428Y-22139286D01*
X7995714Y-22167857D01*
X8010000Y-22225000D01*
X8010000Y-22296429D01*
X7995714Y-22353572D01*
X7981428Y-22382143D01*
X7967143Y-22396429D01*
X7938571Y-22410714D01*
X7910000Y-22410714D01*
X7881428Y-22396429D01*
X7867143Y-22382143D01*
X7852857Y-22353572D01*
X7838571Y-22296429D01*
X7838571Y-22225000D01*
X7852857Y-22167857D01*
X7867143Y-22139286D01*
X7881428Y-22125000D01*
X7910000Y-22110714D01*
X8124286Y-22110714D02*
X8124286Y-22167857D01*
X8238571Y-22110714D02*
X8238571Y-22167857D01*
X8681428Y-22525000D02*
X8667143Y-22510714D01*
X8638571Y-22467857D01*
X8624286Y-22439286D01*
X8610000Y-22396429D01*
X8595714Y-22325000D01*
X8595714Y-22267857D01*
X8610000Y-22196429D01*
X8624286Y-22153572D01*
X8638571Y-22125000D01*
X8667143Y-22082143D01*
X8681428Y-22067857D01*
X8781428Y-22139286D02*
X8795714Y-22125000D01*
X8824286Y-22110714D01*
X8895714Y-22110714D01*
X8924286Y-22125000D01*
X8938571Y-22139286D01*
X8952857Y-22167857D01*
X8952857Y-22196429D01*
X8938571Y-22239286D01*
X8767143Y-22410714D01*
X8952857Y-22410714D01*
X9210000Y-22210714D02*
X9210000Y-22410714D01*
X9138571Y-22096429D02*
X9067143Y-22310714D01*
X9252857Y-22310714D01*
X9595714Y-22410714D02*
X9595714Y-22110714D01*
X9724286Y-22410714D02*
X9724286Y-22253572D01*
X9710000Y-22225000D01*
X9681428Y-22210714D01*
X9638571Y-22210714D01*
X9610000Y-22225000D01*
X9595714Y-22239286D01*
X9910000Y-22410714D02*
X9881428Y-22396429D01*
X9867143Y-22382143D01*
X9852857Y-22353572D01*
X9852857Y-22267857D01*
X9867143Y-22239286D01*
X9881428Y-22225000D01*
X9910000Y-22210714D01*
X9952857Y-22210714D01*
X9981428Y-22225000D01*
X9995714Y-22239286D01*
X10010000Y-22267857D01*
X10010000Y-22353572D01*
X9995714Y-22382143D01*
X9981428Y-22396429D01*
X9952857Y-22410714D01*
X9910000Y-22410714D01*
X10181428Y-22410714D02*
X10152857Y-22396429D01*
X10138571Y-22367857D01*
X10138571Y-22110714D01*
X10410000Y-22396429D02*
X10381428Y-22410714D01*
X10324286Y-22410714D01*
X10295714Y-22396429D01*
X10281428Y-22367857D01*
X10281428Y-22253572D01*
X10295714Y-22225000D01*
X10324286Y-22210714D01*
X10381428Y-22210714D01*
X10410000Y-22225000D01*
X10424286Y-22253572D01*
X10424286Y-22282143D01*
X10281428Y-22310714D01*
X10538571Y-22396429D02*
X10567143Y-22410714D01*
X10624286Y-22410714D01*
X10652857Y-22396429D01*
X10667143Y-22367857D01*
X10667143Y-22353572D01*
X10652857Y-22325000D01*
X10624286Y-22310714D01*
X10581428Y-22310714D01*
X10552857Y-22296429D01*
X10538571Y-22267857D01*
X10538571Y-22253572D01*
X10552857Y-22225000D01*
X10581428Y-22210714D01*
X10624286Y-22210714D01*
X10652857Y-22225000D01*
X10767143Y-22525000D02*
X10781428Y-22510714D01*
X10810000Y-22467857D01*
X10824286Y-22439286D01*
X10838571Y-22396429D01*
X10852857Y-22325000D01*
X10852857Y-22267857D01*
X10838571Y-22196429D01*
X10824286Y-22153572D01*
X10810000Y-22125000D01*
X10781428Y-22082143D01*
X10767143Y-22067857D01*
X11310000Y-22525000D02*
X11295714Y-22510714D01*
X11267143Y-22467857D01*
X11252857Y-22439286D01*
X11238571Y-22396429D01*
X11224286Y-22325000D01*
X11224286Y-22267857D01*
X11238571Y-22196429D01*
X11252857Y-22153572D01*
X11267143Y-22125000D01*
X11295714Y-22082143D01*
X11310000Y-22067857D01*
X11424286Y-22210714D02*
X11424286Y-22410714D01*
X11424286Y-22239286D02*
X11438571Y-22225000D01*
X11467143Y-22210714D01*
X11510000Y-22210714D01*
X11538571Y-22225000D01*
X11552857Y-22253572D01*
X11552857Y-22410714D01*
X11738571Y-22410714D02*
X11710000Y-22396429D01*
X11695714Y-22382143D01*
X11681428Y-22353572D01*
X11681428Y-22267857D01*
X11695714Y-22239286D01*
X11710000Y-22225000D01*
X11738571Y-22210714D01*
X11781428Y-22210714D01*
X11810000Y-22225000D01*
X11824286Y-22239286D01*
X11838571Y-22267857D01*
X11838571Y-22353572D01*
X11824286Y-22382143D01*
X11810000Y-22396429D01*
X11781428Y-22410714D01*
X11738571Y-22410714D01*
X11924286Y-22210714D02*
X12038571Y-22210714D01*
X11967143Y-22110714D02*
X11967143Y-22367857D01*
X11981428Y-22396429D01*
X12010000Y-22410714D01*
X12038571Y-22410714D01*
X12367143Y-22210714D02*
X12367143Y-22510714D01*
X12367143Y-22225000D02*
X12395714Y-22210714D01*
X12452857Y-22210714D01*
X12481428Y-22225000D01*
X12495714Y-22239286D01*
X12510000Y-22267857D01*
X12510000Y-22353572D01*
X12495714Y-22382143D01*
X12481428Y-22396429D01*
X12452857Y-22410714D01*
X12395714Y-22410714D01*
X12367143Y-22396429D01*
X12681428Y-22410714D02*
X12652857Y-22396429D01*
X12638571Y-22367857D01*
X12638571Y-22110714D01*
X12924286Y-22410714D02*
X12924286Y-22253572D01*
X12910000Y-22225000D01*
X12881428Y-22210714D01*
X12824286Y-22210714D01*
X12795714Y-22225000D01*
X12924286Y-22396429D02*
X12895714Y-22410714D01*
X12824286Y-22410714D01*
X12795714Y-22396429D01*
X12781428Y-22367857D01*
X12781428Y-22339286D01*
X12795714Y-22310714D01*
X12824286Y-22296429D01*
X12895714Y-22296429D01*
X12924286Y-22282143D01*
X13024286Y-22210714D02*
X13138571Y-22210714D01*
X13067143Y-22110714D02*
X13067143Y-22367857D01*
X13081428Y-22396429D01*
X13110000Y-22410714D01*
X13138571Y-22410714D01*
X13352857Y-22396429D02*
X13324286Y-22410714D01*
X13267143Y-22410714D01*
X13238571Y-22396429D01*
X13224286Y-22367857D01*
X13224286Y-22253572D01*
X13238571Y-22225000D01*
X13267143Y-22210714D01*
X13324286Y-22210714D01*
X13352857Y-22225000D01*
X13367143Y-22253572D01*
X13367143Y-22282143D01*
X13224286Y-22310714D01*
X13624286Y-22410714D02*
X13624286Y-22110714D01*
X13624286Y-22396429D02*
X13595714Y-22410714D01*
X13538571Y-22410714D01*
X13510000Y-22396429D01*
X13495714Y-22382143D01*
X13481428Y-22353572D01*
X13481428Y-22267857D01*
X13495714Y-22239286D01*
X13510000Y-22225000D01*
X13538571Y-22210714D01*
X13595714Y-22210714D01*
X13624286Y-22225000D01*
X13738571Y-22525000D02*
X13752857Y-22510714D01*
X13781428Y-22467857D01*
X13795714Y-22439286D01*
X13810000Y-22396429D01*
X13824286Y-22325000D01*
X13824286Y-22267857D01*
X13810000Y-22196429D01*
X13795714Y-22153572D01*
X13781428Y-22125000D01*
X13752857Y-22082143D01*
X13738571Y-22067857D01*
X3835000Y-22831000D02*
X3995000Y-22671000D01*
X3835000Y-22511000D01*
X3675000Y-22671000D01*
X3835000Y-22831000D01*
X3995000Y-22671000D02*
G75*
G03*
X3995000Y-22671000I-160000J0D01*
G01*
X4252857Y-22506714D02*
X4438571Y-22506714D01*
X4338571Y-22621000D01*
X4381428Y-22621000D01*
X4410000Y-22635286D01*
X4424286Y-22649571D01*
X4438571Y-22678143D01*
X4438571Y-22749571D01*
X4424286Y-22778143D01*
X4410000Y-22792429D01*
X4381428Y-22806714D01*
X4295714Y-22806714D01*
X4267143Y-22792429D01*
X4252857Y-22778143D01*
X4567143Y-22778143D02*
X4581428Y-22792429D01*
X4567143Y-22806714D01*
X4552857Y-22792429D01*
X4567143Y-22778143D01*
X4567143Y-22806714D01*
X4695714Y-22535286D02*
X4710000Y-22521000D01*
X4738571Y-22506714D01*
X4810000Y-22506714D01*
X4838571Y-22521000D01*
X4852857Y-22535286D01*
X4867143Y-22563857D01*
X4867143Y-22592429D01*
X4852857Y-22635286D01*
X4681428Y-22806714D01*
X4867143Y-22806714D01*
X5052857Y-22506714D02*
X5081428Y-22506714D01*
X5110000Y-22521000D01*
X5124286Y-22535286D01*
X5138571Y-22563857D01*
X5152857Y-22621000D01*
X5152857Y-22692429D01*
X5138571Y-22749571D01*
X5124286Y-22778143D01*
X5110000Y-22792429D01*
X5081428Y-22806714D01*
X5052857Y-22806714D01*
X5024286Y-22792429D01*
X5010000Y-22778143D01*
X4995714Y-22749571D01*
X4981428Y-22692429D01*
X4981428Y-22621000D01*
X4995714Y-22563857D01*
X5010000Y-22535286D01*
X5024286Y-22521000D01*
X5052857Y-22506714D01*
X5281428Y-22806714D02*
X5281428Y-22606714D01*
X5281428Y-22635286D02*
X5295714Y-22621000D01*
X5324286Y-22606714D01*
X5367143Y-22606714D01*
X5395714Y-22621000D01*
X5410000Y-22649571D01*
X5410000Y-22806714D01*
X5410000Y-22649571D02*
X5424286Y-22621000D01*
X5452857Y-22606714D01*
X5495714Y-22606714D01*
X5524286Y-22621000D01*
X5538571Y-22649571D01*
X5538571Y-22806714D01*
X5681428Y-22806714D02*
X5681428Y-22606714D01*
X5681428Y-22635286D02*
X5695714Y-22621000D01*
X5724286Y-22606714D01*
X5767143Y-22606714D01*
X5795714Y-22621000D01*
X5810000Y-22649571D01*
X5810000Y-22806714D01*
X5810000Y-22649571D02*
X5824286Y-22621000D01*
X5852857Y-22606714D01*
X5895714Y-22606714D01*
X5924286Y-22621000D01*
X5938571Y-22649571D01*
X5938571Y-22806714D01*
X6524286Y-22492429D02*
X6267143Y-22878143D01*
X6910000Y-22506714D02*
X6938571Y-22506714D01*
X6967143Y-22521000D01*
X6981428Y-22535286D01*
X6995714Y-22563857D01*
X7010000Y-22621000D01*
X7010000Y-22692429D01*
X6995714Y-22749571D01*
X6981428Y-22778143D01*
X6967143Y-22792429D01*
X6938571Y-22806714D01*
X6910000Y-22806714D01*
X6881428Y-22792429D01*
X6867143Y-22778143D01*
X6852857Y-22749571D01*
X6838571Y-22692429D01*
X6838571Y-22621000D01*
X6852857Y-22563857D01*
X6867143Y-22535286D01*
X6881428Y-22521000D01*
X6910000Y-22506714D01*
X7138571Y-22778143D02*
X7152857Y-22792429D01*
X7138571Y-22806714D01*
X7124286Y-22792429D01*
X7138571Y-22778143D01*
X7138571Y-22806714D01*
X7438571Y-22806714D02*
X7267143Y-22806714D01*
X7352857Y-22806714D02*
X7352857Y-22506714D01*
X7324286Y-22549571D01*
X7295714Y-22578143D01*
X7267143Y-22592429D01*
X7552857Y-22535286D02*
X7567143Y-22521000D01*
X7595714Y-22506714D01*
X7667143Y-22506714D01*
X7695714Y-22521000D01*
X7710000Y-22535286D01*
X7724286Y-22563857D01*
X7724286Y-22592429D01*
X7710000Y-22635286D01*
X7538571Y-22806714D01*
X7724286Y-22806714D01*
X7981428Y-22506714D02*
X7924286Y-22506714D01*
X7895714Y-22521000D01*
X7881428Y-22535286D01*
X7852857Y-22578143D01*
X7838571Y-22635286D01*
X7838571Y-22749571D01*
X7852857Y-22778143D01*
X7867143Y-22792429D01*
X7895714Y-22806714D01*
X7952857Y-22806714D01*
X7981428Y-22792429D01*
X7995714Y-22778143D01*
X8010000Y-22749571D01*
X8010000Y-22678143D01*
X7995714Y-22649571D01*
X7981428Y-22635286D01*
X7952857Y-22621000D01*
X7895714Y-22621000D01*
X7867143Y-22635286D01*
X7852857Y-22649571D01*
X7838571Y-22678143D01*
X8124286Y-22506714D02*
X8124286Y-22563857D01*
X8238571Y-22506714D02*
X8238571Y-22563857D01*
X8681428Y-22921000D02*
X8667143Y-22906714D01*
X8638571Y-22863857D01*
X8624286Y-22835286D01*
X8610000Y-22792429D01*
X8595714Y-22721000D01*
X8595714Y-22663857D01*
X8610000Y-22592429D01*
X8624286Y-22549571D01*
X8638571Y-22521000D01*
X8667143Y-22478143D01*
X8681428Y-22463857D01*
X8781428Y-22535286D02*
X8795714Y-22521000D01*
X8824286Y-22506714D01*
X8895714Y-22506714D01*
X8924286Y-22521000D01*
X8938571Y-22535286D01*
X8952857Y-22563857D01*
X8952857Y-22592429D01*
X8938571Y-22635286D01*
X8767143Y-22806714D01*
X8952857Y-22806714D01*
X9310000Y-22806714D02*
X9310000Y-22506714D01*
X9438571Y-22806714D02*
X9438571Y-22649571D01*
X9424286Y-22621000D01*
X9395714Y-22606714D01*
X9352857Y-22606714D01*
X9324286Y-22621000D01*
X9310000Y-22635286D01*
X9624286Y-22806714D02*
X9595714Y-22792429D01*
X9581428Y-22778143D01*
X9567143Y-22749571D01*
X9567143Y-22663857D01*
X9581428Y-22635286D01*
X9595714Y-22621000D01*
X9624286Y-22606714D01*
X9667143Y-22606714D01*
X9695714Y-22621000D01*
X9710000Y-22635286D01*
X9724286Y-22663857D01*
X9724286Y-22749571D01*
X9710000Y-22778143D01*
X9695714Y-22792429D01*
X9667143Y-22806714D01*
X9624286Y-22806714D01*
X9895714Y-22806714D02*
X9867143Y-22792429D01*
X9852857Y-22763857D01*
X9852857Y-22506714D01*
X10124286Y-22792429D02*
X10095714Y-22806714D01*
X10038571Y-22806714D01*
X10010000Y-22792429D01*
X9995714Y-22763857D01*
X9995714Y-22649571D01*
X10010000Y-22621000D01*
X10038571Y-22606714D01*
X10095714Y-22606714D01*
X10124286Y-22621000D01*
X10138571Y-22649571D01*
X10138571Y-22678143D01*
X9995714Y-22706714D01*
X10252857Y-22792429D02*
X10281428Y-22806714D01*
X10338571Y-22806714D01*
X10367143Y-22792429D01*
X10381428Y-22763857D01*
X10381428Y-22749571D01*
X10367143Y-22721000D01*
X10338571Y-22706714D01*
X10295714Y-22706714D01*
X10267143Y-22692429D01*
X10252857Y-22663857D01*
X10252857Y-22649571D01*
X10267143Y-22621000D01*
X10295714Y-22606714D01*
X10338571Y-22606714D01*
X10367143Y-22621000D01*
X10481428Y-22921000D02*
X10495714Y-22906714D01*
X10524286Y-22863857D01*
X10538571Y-22835286D01*
X10552857Y-22792429D01*
X10567143Y-22721000D01*
X10567143Y-22663857D01*
X10552857Y-22592429D01*
X10538571Y-22549571D01*
X10524286Y-22521000D01*
X10495714Y-22478143D01*
X10481428Y-22463857D01*
X11024286Y-22921000D02*
X11010000Y-22906714D01*
X10981428Y-22863857D01*
X10967143Y-22835286D01*
X10952857Y-22792429D01*
X10938571Y-22721000D01*
X10938571Y-22663857D01*
X10952857Y-22592429D01*
X10967143Y-22549571D01*
X10981428Y-22521000D01*
X11010000Y-22478143D01*
X11024286Y-22463857D01*
X11138571Y-22606714D02*
X11138571Y-22806714D01*
X11138571Y-22635286D02*
X11152857Y-22621000D01*
X11181428Y-22606714D01*
X11224286Y-22606714D01*
X11252857Y-22621000D01*
X11267143Y-22649571D01*
X11267143Y-22806714D01*
X11452857Y-22806714D02*
X11424286Y-22792429D01*
X11410000Y-22778143D01*
X11395714Y-22749571D01*
X11395714Y-22663857D01*
X11410000Y-22635286D01*
X11424286Y-22621000D01*
X11452857Y-22606714D01*
X11495714Y-22606714D01*
X11524286Y-22621000D01*
X11538571Y-22635286D01*
X11552857Y-22663857D01*
X11552857Y-22749571D01*
X11538571Y-22778143D01*
X11524286Y-22792429D01*
X11495714Y-22806714D01*
X11452857Y-22806714D01*
X11638571Y-22606714D02*
X11752857Y-22606714D01*
X11681428Y-22506714D02*
X11681428Y-22763857D01*
X11695714Y-22792429D01*
X11724286Y-22806714D01*
X11752857Y-22806714D01*
X12081428Y-22606714D02*
X12081428Y-22906714D01*
X12081428Y-22621000D02*
X12110000Y-22606714D01*
X12167143Y-22606714D01*
X12195714Y-22621000D01*
X12210000Y-22635286D01*
X12224286Y-22663857D01*
X12224286Y-22749571D01*
X12210000Y-22778143D01*
X12195714Y-22792429D01*
X12167143Y-22806714D01*
X12110000Y-22806714D01*
X12081428Y-22792429D01*
X12395714Y-22806714D02*
X12367143Y-22792429D01*
X12352857Y-22763857D01*
X12352857Y-22506714D01*
X12638571Y-22806714D02*
X12638571Y-22649571D01*
X12624286Y-22621000D01*
X12595714Y-22606714D01*
X12538571Y-22606714D01*
X12510000Y-22621000D01*
X12638571Y-22792429D02*
X12610000Y-22806714D01*
X12538571Y-22806714D01*
X12510000Y-22792429D01*
X12495714Y-22763857D01*
X12495714Y-22735286D01*
X12510000Y-22706714D01*
X12538571Y-22692429D01*
X12610000Y-22692429D01*
X12638571Y-22678143D01*
X12738571Y-22606714D02*
X12852857Y-22606714D01*
X12781428Y-22506714D02*
X12781428Y-22763857D01*
X12795714Y-22792429D01*
X12824286Y-22806714D01*
X12852857Y-22806714D01*
X13067143Y-22792429D02*
X13038571Y-22806714D01*
X12981428Y-22806714D01*
X12952857Y-22792429D01*
X12938571Y-22763857D01*
X12938571Y-22649571D01*
X12952857Y-22621000D01*
X12981428Y-22606714D01*
X13038571Y-22606714D01*
X13067143Y-22621000D01*
X13081428Y-22649571D01*
X13081428Y-22678143D01*
X12938571Y-22706714D01*
X13338571Y-22806714D02*
X13338571Y-22506714D01*
X13338571Y-22792429D02*
X13310000Y-22806714D01*
X13252857Y-22806714D01*
X13224286Y-22792429D01*
X13210000Y-22778143D01*
X13195714Y-22749571D01*
X13195714Y-22663857D01*
X13210000Y-22635286D01*
X13224286Y-22621000D01*
X13252857Y-22606714D01*
X13310000Y-22606714D01*
X13338571Y-22621000D01*
X13452857Y-22921000D02*
X13467143Y-22906714D01*
X13495714Y-22863857D01*
X13510000Y-22835286D01*
X13524286Y-22792429D01*
X13538571Y-22721000D01*
X13538571Y-22663857D01*
X13524286Y-22592429D01*
X13510000Y-22549571D01*
X13495714Y-22521000D01*
X13467143Y-22478143D01*
X13452857Y-22463857D01*
M02*
