%TF.GenerationSoftware,KiCad,Pcbnew,5.1.9+dfsg1-1~bpo10+1*%
%TF.CreationDate,2021-12-03T10:41:42+08:00*%
%TF.ProjectId,MiniOSC,4d696e69-4f53-4432-9e6b-696361645f70,rev?*%
%TF.SameCoordinates,Original*%
%TF.FileFunction,Soldermask,Bot*%
%TF.FilePolarity,Negative*%
%FSLAX46Y46*%
G04 Gerber Fmt 4.6, Leading zero omitted, Abs format (unit mm)*
G04 Created by KiCad (PCBNEW 5.1.9+dfsg1-1~bpo10+1) date 2021-12-03 10:41:42*
%MOMM*%
%LPD*%
G01*
G04 APERTURE LIST*
%ADD10C,0.500000*%
%ADD11C,3.200000*%
%ADD12O,1.700000X1.700000*%
%ADD13R,1.700000X1.700000*%
%ADD14C,1.440000*%
%ADD15C,1.600000*%
%ADD16R,1.600000X1.600000*%
%ADD17O,1.600000X1.600000*%
%ADD18R,1.800000X1.800000*%
%ADD19C,1.800000*%
%ADD20O,2.720000X3.240000*%
%ADD21C,2.130000*%
%ADD22R,1.930000X1.830000*%
%ADD23O,1.950000X1.700000*%
%ADD24C,1.700000*%
%ADD25R,1.050000X1.500000*%
%ADD26O,1.050000X1.500000*%
G04 APERTURE END LIST*
D10*
%TO.C,mouse-bite-2mm-slot*%
X70250000Y-64000000D03*
X71750000Y-64000000D03*
X70250000Y-63250000D03*
X70250000Y-64750000D03*
X71750000Y-64750000D03*
X71750000Y-63250000D03*
%TD*%
%TO.C,mouse-bite-2mm-slot*%
X102250000Y-64000000D03*
X103750000Y-64000000D03*
X102250000Y-63250000D03*
X102250000Y-64750000D03*
X103750000Y-64750000D03*
X103750000Y-63250000D03*
%TD*%
D11*
%TO.C,REF\u002A\u002A*%
X94800000Y-122000000D03*
%TD*%
D10*
%TO.C,mouse-bite-2mm-slot*%
X103750000Y-142250000D03*
X103750000Y-143750000D03*
X102250000Y-143750000D03*
X102250000Y-142250000D03*
X103750000Y-143000000D03*
X102250000Y-143000000D03*
%TD*%
%TO.C,mouse-bite-2mm-slot*%
X71750000Y-142250000D03*
X71750000Y-143750000D03*
X70250000Y-143750000D03*
X70250000Y-142250000D03*
X71750000Y-143000000D03*
X70250000Y-143000000D03*
%TD*%
D11*
%TO.C,REF\u002A\u002A*%
X127100000Y-122000000D03*
%TD*%
D12*
%TO.C,J2*%
X75000000Y-110600000D03*
X75000000Y-108060000D03*
X75000000Y-105520000D03*
X75000000Y-102980000D03*
X75000000Y-100440000D03*
X75000000Y-97900000D03*
X75000000Y-95360000D03*
X75000000Y-92820000D03*
X75000000Y-90280000D03*
X75000000Y-87740000D03*
X75000000Y-85200000D03*
X75000000Y-82660000D03*
X75000000Y-80120000D03*
X75000000Y-77580000D03*
X75000000Y-75040000D03*
D13*
X75000000Y-72500000D03*
%TD*%
D14*
%TO.C,SCALE1*%
X77000000Y-153170000D03*
X77000000Y-155710000D03*
X77000000Y-158250000D03*
%TD*%
D15*
%TO.C,C1*%
X109800000Y-116000000D03*
X114800000Y-116000000D03*
%TD*%
%TO.C,C2*%
X128400000Y-145100000D03*
D16*
X125900000Y-145100000D03*
%TD*%
%TO.C,C3*%
X120300000Y-118700000D03*
D15*
X120300000Y-116200000D03*
%TD*%
%TO.C,C6*%
X109800000Y-119500000D03*
X114800000Y-119500000D03*
%TD*%
%TO.C,C7*%
X124400000Y-150800000D03*
X129400000Y-150800000D03*
%TD*%
%TO.C,C8*%
X110400000Y-150500000D03*
X110400000Y-145500000D03*
%TD*%
D16*
%TO.C,D1*%
X126600000Y-129500000D03*
D17*
X118980000Y-129500000D03*
%TD*%
%TO.C,D2*%
X126620000Y-132300000D03*
D16*
X119000000Y-132300000D03*
%TD*%
D18*
%TO.C,D3*%
X96250000Y-71000000D03*
D19*
X98790000Y-71000000D03*
%TD*%
D18*
%TO.C,FM_AMOUNT1*%
X93500000Y-102000000D03*
D19*
X91000000Y-102000000D03*
X88500000Y-102000000D03*
D20*
X86200000Y-109500000D03*
X95800000Y-109500000D03*
%TD*%
D21*
%TO.C,J3*%
X78000000Y-137100000D03*
D22*
X78000000Y-134000000D03*
D21*
X78000000Y-145400000D03*
%TD*%
%TO.C,J4*%
X78000000Y-125900000D03*
D22*
X78000000Y-114500000D03*
D21*
X78000000Y-117600000D03*
%TD*%
%TO.C,J5*%
X96000000Y-152600000D03*
D22*
X96000000Y-149500000D03*
D21*
X96000000Y-160900000D03*
%TD*%
%TO.C,J6*%
X85000000Y-160800000D03*
D22*
X85000000Y-149400000D03*
D21*
X85000000Y-152500000D03*
%TD*%
%TO.C,J7*%
G36*
G01*
X118325000Y-72300000D02*
X116875000Y-72300000D01*
G75*
G02*
X116625000Y-72050000I0J250000D01*
G01*
X116625000Y-70850000D01*
G75*
G02*
X116875000Y-70600000I250000J0D01*
G01*
X118325000Y-70600000D01*
G75*
G02*
X118575000Y-70850000I0J-250000D01*
G01*
X118575000Y-72050000D01*
G75*
G02*
X118325000Y-72300000I-250000J0D01*
G01*
G37*
D23*
X117600000Y-68950000D03*
X117600000Y-66450000D03*
X117600000Y-63950000D03*
X117600000Y-61450000D03*
X117600000Y-58950000D03*
%TD*%
%TO.C,J8*%
G36*
G01*
X128150000Y-61000000D02*
X128150000Y-62200000D01*
G75*
G02*
X127900000Y-62450000I-250000J0D01*
G01*
X126700000Y-62450000D01*
G75*
G02*
X126450000Y-62200000I0J250000D01*
G01*
X126450000Y-61000000D01*
G75*
G02*
X126700000Y-60750000I250000J0D01*
G01*
X127900000Y-60750000D01*
G75*
G02*
X128150000Y-61000000I0J-250000D01*
G01*
G37*
D24*
X127300000Y-64140000D03*
X127300000Y-66680000D03*
X127300000Y-69220000D03*
X127300000Y-71760000D03*
X127300000Y-74300000D03*
X127300000Y-76840000D03*
X127300000Y-79380000D03*
X124760000Y-61600000D03*
X124760000Y-64140000D03*
X124760000Y-66680000D03*
X124760000Y-69220000D03*
X124760000Y-71760000D03*
X124760000Y-74300000D03*
X124760000Y-76840000D03*
X124760000Y-79380000D03*
%TD*%
D18*
%TO.C,PULSE_WIDTH1*%
X88500000Y-139500000D03*
D19*
X91000000Y-139500000D03*
X93500000Y-139500000D03*
D20*
X95800000Y-132000000D03*
X86200000Y-132000000D03*
%TD*%
D25*
%TO.C,Q1*%
X128700000Y-101300000D03*
D26*
X126160000Y-101300000D03*
X127430000Y-101300000D03*
%TD*%
%TO.C,Q2*%
X127470000Y-105600000D03*
X128740000Y-105600000D03*
D25*
X126200000Y-105600000D03*
%TD*%
D15*
%TO.C,R1*%
X123250000Y-99300000D03*
D17*
X115630000Y-99300000D03*
%TD*%
%TO.C,R2*%
X115630000Y-96150000D03*
D15*
X123250000Y-96150000D03*
%TD*%
D17*
%TO.C,R3*%
X115630000Y-89850000D03*
D15*
X123250000Y-89850000D03*
%TD*%
%TO.C,R4*%
X123250000Y-86700000D03*
D17*
X115630000Y-86700000D03*
%TD*%
%TO.C,R5*%
X123270000Y-93000000D03*
D15*
X115650000Y-93000000D03*
%TD*%
%TO.C,R6*%
X123250000Y-102450000D03*
D17*
X115630000Y-102450000D03*
%TD*%
D15*
%TO.C,R7*%
X110400000Y-153100000D03*
D17*
X110400000Y-160720000D03*
%TD*%
%TO.C,R8*%
X118980000Y-135350000D03*
D15*
X126600000Y-135350000D03*
%TD*%
%TO.C,R9*%
X126550000Y-138450000D03*
D17*
X118930000Y-138450000D03*
%TD*%
D15*
%TO.C,R10*%
X115600000Y-111900000D03*
D17*
X123220000Y-111900000D03*
%TD*%
%TO.C,R11*%
X115630000Y-105600000D03*
D15*
X123250000Y-105600000D03*
%TD*%
%TO.C,R12*%
X123250000Y-108750000D03*
D17*
X115630000Y-108750000D03*
%TD*%
D15*
%TO.C,R13*%
X124200000Y-154100000D03*
D17*
X131820000Y-154100000D03*
%TD*%
%TO.C,R14*%
X131820000Y-157300000D03*
D15*
X124200000Y-157300000D03*
%TD*%
D17*
%TO.C,R15*%
X131820000Y-160500000D03*
D15*
X124200000Y-160500000D03*
%TD*%
D17*
%TO.C,R16*%
X107000000Y-143180000D03*
D15*
X107000000Y-150800000D03*
%TD*%
%TO.C,R17*%
X107000000Y-160800000D03*
D17*
X107000000Y-153180000D03*
%TD*%
%TO.C,R18*%
X91380000Y-78500000D03*
D15*
X99000000Y-78500000D03*
%TD*%
%TO.C,TH1*%
X126250000Y-96700000D03*
X128750000Y-96700000D03*
%TD*%
%TO.C,TH2*%
X128750000Y-93400000D03*
X126250000Y-93400000D03*
%TD*%
%TO.C,TH3*%
X128700000Y-90100000D03*
X126200000Y-90100000D03*
%TD*%
%TO.C,TH4*%
X128700000Y-86800000D03*
X126200000Y-86800000D03*
%TD*%
D20*
%TO.C,TUNING_COARSE1*%
X78600000Y-66000000D03*
X88200000Y-66000000D03*
D19*
X85900000Y-73500000D03*
X83400000Y-73500000D03*
D18*
X80900000Y-73500000D03*
%TD*%
D20*
%TO.C,TUNING_FINE1*%
X86200000Y-87500000D03*
X95800000Y-87500000D03*
D19*
X93500000Y-95000000D03*
X91000000Y-95000000D03*
D18*
X88500000Y-95000000D03*
%TD*%
D17*
%TO.C,U1*%
X113780000Y-145100000D03*
X121400000Y-160340000D03*
X113780000Y-147640000D03*
X121400000Y-157800000D03*
X113780000Y-150180000D03*
X121400000Y-155260000D03*
X113780000Y-152720000D03*
X121400000Y-152720000D03*
X113780000Y-155260000D03*
X121400000Y-150180000D03*
X113780000Y-157800000D03*
X121400000Y-147640000D03*
X113780000Y-160340000D03*
D16*
X121400000Y-145100000D03*
%TD*%
%TO.C,U2*%
X114600000Y-123100000D03*
D17*
X106980000Y-138340000D03*
X114600000Y-125640000D03*
X106980000Y-135800000D03*
X114600000Y-128180000D03*
X106980000Y-133260000D03*
X114600000Y-130720000D03*
X106980000Y-130720000D03*
X114600000Y-133260000D03*
X106980000Y-128180000D03*
X114600000Y-135800000D03*
X106980000Y-125640000D03*
X114600000Y-138340000D03*
X106980000Y-123100000D03*
%TD*%
D13*
%TO.C,J1*%
X107000000Y-72500000D03*
D12*
X107000000Y-75040000D03*
X107000000Y-77580000D03*
X107000000Y-80120000D03*
X107000000Y-82660000D03*
X107000000Y-85200000D03*
X107000000Y-87740000D03*
X107000000Y-90280000D03*
X107000000Y-92820000D03*
X107000000Y-95360000D03*
X107000000Y-97900000D03*
X107000000Y-100440000D03*
X107000000Y-102980000D03*
X107000000Y-105520000D03*
X107000000Y-108060000D03*
X107000000Y-110600000D03*
%TD*%
D15*
%TO.C,C4*%
X118200000Y-79700000D03*
D16*
X115700000Y-79700000D03*
%TD*%
%TO.C,C5*%
X109100000Y-58950000D03*
D15*
X109100000Y-61450000D03*
%TD*%
M02*
