%TF.GenerationSoftware,KiCad,Pcbnew,5.1.9+dfsg1-1~bpo10+1*%
%TF.CreationDate,2021-12-03T10:41:42+08:00*%
%TF.ProjectId,MiniOSC,4d696e69-4f53-4432-9e6b-696361645f70,rev?*%
%TF.SameCoordinates,Original*%
%TF.FileFunction,Legend,Top*%
%TF.FilePolarity,Positive*%
%FSLAX46Y46*%
G04 Gerber Fmt 4.6, Leading zero omitted, Abs format (unit mm)*
G04 Created by KiCad (PCBNEW 5.1.9+dfsg1-1~bpo10+1) date 2021-12-03 10:41:42*
%MOMM*%
%LPD*%
G01*
G04 APERTURE LIST*
%ADD10C,0.100000*%
%ADD11C,0.150000*%
%ADD12C,0.300000*%
%ADD13C,0.500000*%
%ADD14C,0.120000*%
G04 APERTURE END LIST*
D10*
X124116666Y-58483333D02*
X124083333Y-58450000D01*
X124016666Y-58416666D01*
X123950000Y-58416666D01*
X123883333Y-58450000D01*
X123850000Y-58483333D01*
X123816666Y-58550000D01*
X123816666Y-58616666D01*
X123850000Y-58683333D01*
X123883333Y-58716666D01*
X123950000Y-58750000D01*
X124016666Y-58750000D01*
X124083333Y-58716666D01*
X124116666Y-58683333D01*
X124116666Y-58416666D02*
X124116666Y-58683333D01*
X124150000Y-58716666D01*
X124183333Y-58716666D01*
X124250000Y-58683333D01*
X124283333Y-58616666D01*
X124283333Y-58450000D01*
X124216666Y-58350000D01*
X124116666Y-58283333D01*
X123983333Y-58250000D01*
X123850000Y-58283333D01*
X123750000Y-58350000D01*
X123683333Y-58450000D01*
X123650000Y-58583333D01*
X123683333Y-58716666D01*
X123750000Y-58816666D01*
X123850000Y-58883333D01*
X123983333Y-58916666D01*
X124116666Y-58883333D01*
X124216666Y-58816666D01*
X124583333Y-58816666D02*
X124583333Y-58116666D01*
X124583333Y-58383333D02*
X124650000Y-58350000D01*
X124783333Y-58350000D01*
X124850000Y-58383333D01*
X124883333Y-58416666D01*
X124916666Y-58483333D01*
X124916666Y-58683333D01*
X124883333Y-58750000D01*
X124850000Y-58783333D01*
X124783333Y-58816666D01*
X124650000Y-58816666D01*
X124583333Y-58783333D01*
X125483333Y-58783333D02*
X125416666Y-58816666D01*
X125283333Y-58816666D01*
X125216666Y-58783333D01*
X125183333Y-58716666D01*
X125183333Y-58450000D01*
X125216666Y-58383333D01*
X125283333Y-58350000D01*
X125416666Y-58350000D01*
X125483333Y-58383333D01*
X125516666Y-58450000D01*
X125516666Y-58516666D01*
X125183333Y-58583333D01*
X125816666Y-58350000D02*
X125816666Y-58816666D01*
X125816666Y-58416666D02*
X125850000Y-58383333D01*
X125916666Y-58350000D01*
X126016666Y-58350000D01*
X126083333Y-58383333D01*
X126116666Y-58450000D01*
X126116666Y-58816666D01*
X126450000Y-58350000D02*
X126450000Y-58950000D01*
X126416666Y-59016666D01*
X126350000Y-59050000D01*
X126316666Y-59050000D01*
X126450000Y-58116666D02*
X126416666Y-58150000D01*
X126450000Y-58183333D01*
X126483333Y-58150000D01*
X126450000Y-58116666D01*
X126450000Y-58183333D01*
X126783333Y-58816666D02*
X126783333Y-58350000D01*
X126783333Y-58116666D02*
X126750000Y-58150000D01*
X126783333Y-58183333D01*
X126816666Y-58150000D01*
X126783333Y-58116666D01*
X126783333Y-58183333D01*
X127416666Y-58816666D02*
X127416666Y-58450000D01*
X127383333Y-58383333D01*
X127316666Y-58350000D01*
X127183333Y-58350000D01*
X127116666Y-58383333D01*
X127416666Y-58783333D02*
X127350000Y-58816666D01*
X127183333Y-58816666D01*
X127116666Y-58783333D01*
X127083333Y-58716666D01*
X127083333Y-58650000D01*
X127116666Y-58583333D01*
X127183333Y-58550000D01*
X127350000Y-58550000D01*
X127416666Y-58516666D01*
X127850000Y-58816666D02*
X127783333Y-58783333D01*
X127750000Y-58750000D01*
X127716666Y-58683333D01*
X127716666Y-58483333D01*
X127750000Y-58416666D01*
X127783333Y-58383333D01*
X127850000Y-58350000D01*
X127950000Y-58350000D01*
X128016666Y-58383333D01*
X128050000Y-58416666D01*
X128083333Y-58483333D01*
X128083333Y-58683333D01*
X128050000Y-58750000D01*
X128016666Y-58783333D01*
X127950000Y-58816666D01*
X127850000Y-58816666D01*
X128383333Y-58816666D02*
X128383333Y-58350000D01*
X128383333Y-58416666D02*
X128416666Y-58383333D01*
X128483333Y-58350000D01*
X128583333Y-58350000D01*
X128650000Y-58383333D01*
X128683333Y-58450000D01*
X128683333Y-58816666D01*
X128683333Y-58450000D02*
X128716666Y-58383333D01*
X128783333Y-58350000D01*
X128883333Y-58350000D01*
X128950000Y-58383333D01*
X128983333Y-58450000D01*
X128983333Y-58816666D01*
X129416666Y-58816666D02*
X129350000Y-58783333D01*
X129316666Y-58750000D01*
X129283333Y-58683333D01*
X129283333Y-58483333D01*
X129316666Y-58416666D01*
X129350000Y-58383333D01*
X129416666Y-58350000D01*
X129516666Y-58350000D01*
X129583333Y-58383333D01*
X129616666Y-58416666D01*
X129650000Y-58483333D01*
X129650000Y-58683333D01*
X129616666Y-58750000D01*
X129583333Y-58783333D01*
X129516666Y-58816666D01*
X129416666Y-58816666D01*
X130250000Y-58816666D02*
X130250000Y-58116666D01*
X130250000Y-58783333D02*
X130183333Y-58816666D01*
X130050000Y-58816666D01*
X129983333Y-58783333D01*
X129950000Y-58750000D01*
X129916666Y-58683333D01*
X129916666Y-58483333D01*
X129950000Y-58416666D01*
X129983333Y-58383333D01*
X130050000Y-58350000D01*
X130183333Y-58350000D01*
X130250000Y-58383333D01*
X130883333Y-58350000D02*
X130883333Y-58816666D01*
X130583333Y-58350000D02*
X130583333Y-58716666D01*
X130616666Y-58783333D01*
X130683333Y-58816666D01*
X130783333Y-58816666D01*
X130850000Y-58783333D01*
X130883333Y-58750000D01*
X131316666Y-58816666D02*
X131250000Y-58783333D01*
X131216666Y-58716666D01*
X131216666Y-58116666D01*
X131883333Y-58816666D02*
X131883333Y-58450000D01*
X131850000Y-58383333D01*
X131783333Y-58350000D01*
X131650000Y-58350000D01*
X131583333Y-58383333D01*
X131883333Y-58783333D02*
X131816666Y-58816666D01*
X131650000Y-58816666D01*
X131583333Y-58783333D01*
X131550000Y-58716666D01*
X131550000Y-58650000D01*
X131583333Y-58583333D01*
X131650000Y-58550000D01*
X131816666Y-58550000D01*
X131883333Y-58516666D01*
X132216666Y-58816666D02*
X132216666Y-58350000D01*
X132216666Y-58483333D02*
X132250000Y-58416666D01*
X132283333Y-58383333D01*
X132350000Y-58350000D01*
X132416666Y-58350000D01*
X91616666Y-58483333D02*
X91583333Y-58450000D01*
X91516666Y-58416666D01*
X91450000Y-58416666D01*
X91383333Y-58450000D01*
X91350000Y-58483333D01*
X91316666Y-58550000D01*
X91316666Y-58616666D01*
X91350000Y-58683333D01*
X91383333Y-58716666D01*
X91450000Y-58750000D01*
X91516666Y-58750000D01*
X91583333Y-58716666D01*
X91616666Y-58683333D01*
X91616666Y-58416666D02*
X91616666Y-58683333D01*
X91650000Y-58716666D01*
X91683333Y-58716666D01*
X91750000Y-58683333D01*
X91783333Y-58616666D01*
X91783333Y-58450000D01*
X91716666Y-58350000D01*
X91616666Y-58283333D01*
X91483333Y-58250000D01*
X91350000Y-58283333D01*
X91250000Y-58350000D01*
X91183333Y-58450000D01*
X91150000Y-58583333D01*
X91183333Y-58716666D01*
X91250000Y-58816666D01*
X91350000Y-58883333D01*
X91483333Y-58916666D01*
X91616666Y-58883333D01*
X91716666Y-58816666D01*
X92083333Y-58816666D02*
X92083333Y-58116666D01*
X92083333Y-58383333D02*
X92150000Y-58350000D01*
X92283333Y-58350000D01*
X92350000Y-58383333D01*
X92383333Y-58416666D01*
X92416666Y-58483333D01*
X92416666Y-58683333D01*
X92383333Y-58750000D01*
X92350000Y-58783333D01*
X92283333Y-58816666D01*
X92150000Y-58816666D01*
X92083333Y-58783333D01*
X92983333Y-58783333D02*
X92916666Y-58816666D01*
X92783333Y-58816666D01*
X92716666Y-58783333D01*
X92683333Y-58716666D01*
X92683333Y-58450000D01*
X92716666Y-58383333D01*
X92783333Y-58350000D01*
X92916666Y-58350000D01*
X92983333Y-58383333D01*
X93016666Y-58450000D01*
X93016666Y-58516666D01*
X92683333Y-58583333D01*
X93316666Y-58350000D02*
X93316666Y-58816666D01*
X93316666Y-58416666D02*
X93350000Y-58383333D01*
X93416666Y-58350000D01*
X93516666Y-58350000D01*
X93583333Y-58383333D01*
X93616666Y-58450000D01*
X93616666Y-58816666D01*
X93950000Y-58350000D02*
X93950000Y-58950000D01*
X93916666Y-59016666D01*
X93850000Y-59050000D01*
X93816666Y-59050000D01*
X93950000Y-58116666D02*
X93916666Y-58150000D01*
X93950000Y-58183333D01*
X93983333Y-58150000D01*
X93950000Y-58116666D01*
X93950000Y-58183333D01*
X94283333Y-58816666D02*
X94283333Y-58350000D01*
X94283333Y-58116666D02*
X94250000Y-58150000D01*
X94283333Y-58183333D01*
X94316666Y-58150000D01*
X94283333Y-58116666D01*
X94283333Y-58183333D01*
X94916666Y-58816666D02*
X94916666Y-58450000D01*
X94883333Y-58383333D01*
X94816666Y-58350000D01*
X94683333Y-58350000D01*
X94616666Y-58383333D01*
X94916666Y-58783333D02*
X94850000Y-58816666D01*
X94683333Y-58816666D01*
X94616666Y-58783333D01*
X94583333Y-58716666D01*
X94583333Y-58650000D01*
X94616666Y-58583333D01*
X94683333Y-58550000D01*
X94850000Y-58550000D01*
X94916666Y-58516666D01*
X95350000Y-58816666D02*
X95283333Y-58783333D01*
X95250000Y-58750000D01*
X95216666Y-58683333D01*
X95216666Y-58483333D01*
X95250000Y-58416666D01*
X95283333Y-58383333D01*
X95350000Y-58350000D01*
X95450000Y-58350000D01*
X95516666Y-58383333D01*
X95550000Y-58416666D01*
X95583333Y-58483333D01*
X95583333Y-58683333D01*
X95550000Y-58750000D01*
X95516666Y-58783333D01*
X95450000Y-58816666D01*
X95350000Y-58816666D01*
X95883333Y-58816666D02*
X95883333Y-58350000D01*
X95883333Y-58416666D02*
X95916666Y-58383333D01*
X95983333Y-58350000D01*
X96083333Y-58350000D01*
X96150000Y-58383333D01*
X96183333Y-58450000D01*
X96183333Y-58816666D01*
X96183333Y-58450000D02*
X96216666Y-58383333D01*
X96283333Y-58350000D01*
X96383333Y-58350000D01*
X96450000Y-58383333D01*
X96483333Y-58450000D01*
X96483333Y-58816666D01*
X96916666Y-58816666D02*
X96850000Y-58783333D01*
X96816666Y-58750000D01*
X96783333Y-58683333D01*
X96783333Y-58483333D01*
X96816666Y-58416666D01*
X96850000Y-58383333D01*
X96916666Y-58350000D01*
X97016666Y-58350000D01*
X97083333Y-58383333D01*
X97116666Y-58416666D01*
X97150000Y-58483333D01*
X97150000Y-58683333D01*
X97116666Y-58750000D01*
X97083333Y-58783333D01*
X97016666Y-58816666D01*
X96916666Y-58816666D01*
X97750000Y-58816666D02*
X97750000Y-58116666D01*
X97750000Y-58783333D02*
X97683333Y-58816666D01*
X97550000Y-58816666D01*
X97483333Y-58783333D01*
X97450000Y-58750000D01*
X97416666Y-58683333D01*
X97416666Y-58483333D01*
X97450000Y-58416666D01*
X97483333Y-58383333D01*
X97550000Y-58350000D01*
X97683333Y-58350000D01*
X97750000Y-58383333D01*
X98383333Y-58350000D02*
X98383333Y-58816666D01*
X98083333Y-58350000D02*
X98083333Y-58716666D01*
X98116666Y-58783333D01*
X98183333Y-58816666D01*
X98283333Y-58816666D01*
X98350000Y-58783333D01*
X98383333Y-58750000D01*
X98816666Y-58816666D02*
X98750000Y-58783333D01*
X98716666Y-58716666D01*
X98716666Y-58116666D01*
X99383333Y-58816666D02*
X99383333Y-58450000D01*
X99350000Y-58383333D01*
X99283333Y-58350000D01*
X99150000Y-58350000D01*
X99083333Y-58383333D01*
X99383333Y-58783333D02*
X99316666Y-58816666D01*
X99150000Y-58816666D01*
X99083333Y-58783333D01*
X99050000Y-58716666D01*
X99050000Y-58650000D01*
X99083333Y-58583333D01*
X99150000Y-58550000D01*
X99316666Y-58550000D01*
X99383333Y-58516666D01*
X99716666Y-58816666D02*
X99716666Y-58350000D01*
X99716666Y-58483333D02*
X99750000Y-58416666D01*
X99783333Y-58383333D01*
X99850000Y-58350000D01*
X99916666Y-58350000D01*
X122094523Y-57611904D02*
X122094523Y-56811904D01*
X122361190Y-57383333D01*
X122627857Y-56811904D01*
X122627857Y-57611904D01*
X123008809Y-57611904D02*
X123008809Y-57078571D01*
X123008809Y-56811904D02*
X122970714Y-56850000D01*
X123008809Y-56888095D01*
X123046904Y-56850000D01*
X123008809Y-56811904D01*
X123008809Y-56888095D01*
X123389761Y-57078571D02*
X123389761Y-57611904D01*
X123389761Y-57154761D02*
X123427857Y-57116666D01*
X123504047Y-57078571D01*
X123618333Y-57078571D01*
X123694523Y-57116666D01*
X123732619Y-57192857D01*
X123732619Y-57611904D01*
X124113571Y-57611904D02*
X124113571Y-57078571D01*
X124113571Y-56811904D02*
X124075476Y-56850000D01*
X124113571Y-56888095D01*
X124151666Y-56850000D01*
X124113571Y-56811904D01*
X124113571Y-56888095D01*
X124646904Y-56811904D02*
X124799285Y-56811904D01*
X124875476Y-56850000D01*
X124951666Y-56926190D01*
X124989761Y-57078571D01*
X124989761Y-57345238D01*
X124951666Y-57497619D01*
X124875476Y-57573809D01*
X124799285Y-57611904D01*
X124646904Y-57611904D01*
X124570714Y-57573809D01*
X124494523Y-57497619D01*
X124456428Y-57345238D01*
X124456428Y-57078571D01*
X124494523Y-56926190D01*
X124570714Y-56850000D01*
X124646904Y-56811904D01*
X125294523Y-57573809D02*
X125408809Y-57611904D01*
X125599285Y-57611904D01*
X125675476Y-57573809D01*
X125713571Y-57535714D01*
X125751666Y-57459523D01*
X125751666Y-57383333D01*
X125713571Y-57307142D01*
X125675476Y-57269047D01*
X125599285Y-57230952D01*
X125446904Y-57192857D01*
X125370714Y-57154761D01*
X125332619Y-57116666D01*
X125294523Y-57040476D01*
X125294523Y-56964285D01*
X125332619Y-56888095D01*
X125370714Y-56850000D01*
X125446904Y-56811904D01*
X125637380Y-56811904D01*
X125751666Y-56850000D01*
X126551666Y-57535714D02*
X126513571Y-57573809D01*
X126399285Y-57611904D01*
X126323095Y-57611904D01*
X126208809Y-57573809D01*
X126132619Y-57497619D01*
X126094523Y-57421428D01*
X126056428Y-57269047D01*
X126056428Y-57154761D01*
X126094523Y-57002380D01*
X126132619Y-56926190D01*
X126208809Y-56850000D01*
X126323095Y-56811904D01*
X126399285Y-56811904D01*
X126513571Y-56850000D01*
X126551666Y-56888095D01*
X127732619Y-57916666D02*
X127694523Y-57878571D01*
X127618333Y-57764285D01*
X127580238Y-57688095D01*
X127542142Y-57573809D01*
X127504047Y-57383333D01*
X127504047Y-57230952D01*
X127542142Y-57040476D01*
X127580238Y-56926190D01*
X127618333Y-56850000D01*
X127694523Y-56735714D01*
X127732619Y-56697619D01*
X128037380Y-57611904D02*
X128037380Y-57078571D01*
X128037380Y-57230952D02*
X128075476Y-57154761D01*
X128113571Y-57116666D01*
X128189761Y-57078571D01*
X128265952Y-57078571D01*
X128837380Y-57573809D02*
X128761190Y-57611904D01*
X128608809Y-57611904D01*
X128532619Y-57573809D01*
X128494523Y-57497619D01*
X128494523Y-57192857D01*
X128532619Y-57116666D01*
X128608809Y-57078571D01*
X128761190Y-57078571D01*
X128837380Y-57116666D01*
X128875476Y-57192857D01*
X128875476Y-57269047D01*
X128494523Y-57345238D01*
X129142142Y-57078571D02*
X129332619Y-57611904D01*
X129523095Y-57078571D01*
X130856428Y-57611904D02*
X130399285Y-57611904D01*
X130627857Y-57611904D02*
X130627857Y-56811904D01*
X130551666Y-56926190D01*
X130475476Y-57002380D01*
X130399285Y-57040476D01*
X131199285Y-57535714D02*
X131237380Y-57573809D01*
X131199285Y-57611904D01*
X131161190Y-57573809D01*
X131199285Y-57535714D01*
X131199285Y-57611904D01*
X131999285Y-57611904D02*
X131542142Y-57611904D01*
X131770714Y-57611904D02*
X131770714Y-56811904D01*
X131694523Y-56926190D01*
X131618333Y-57002380D01*
X131542142Y-57040476D01*
X132265952Y-57916666D02*
X132304047Y-57878571D01*
X132380238Y-57764285D01*
X132418333Y-57688095D01*
X132456428Y-57573809D01*
X132494523Y-57383333D01*
X132494523Y-57230952D01*
X132456428Y-57040476D01*
X132418333Y-56926190D01*
X132380238Y-56850000D01*
X132304047Y-56735714D01*
X132265952Y-56697619D01*
X89594523Y-57611904D02*
X89594523Y-56811904D01*
X89861190Y-57383333D01*
X90127857Y-56811904D01*
X90127857Y-57611904D01*
X90508809Y-57611904D02*
X90508809Y-57078571D01*
X90508809Y-56811904D02*
X90470714Y-56850000D01*
X90508809Y-56888095D01*
X90546904Y-56850000D01*
X90508809Y-56811904D01*
X90508809Y-56888095D01*
X90889761Y-57078571D02*
X90889761Y-57611904D01*
X90889761Y-57154761D02*
X90927857Y-57116666D01*
X91004047Y-57078571D01*
X91118333Y-57078571D01*
X91194523Y-57116666D01*
X91232619Y-57192857D01*
X91232619Y-57611904D01*
X91613571Y-57611904D02*
X91613571Y-57078571D01*
X91613571Y-56811904D02*
X91575476Y-56850000D01*
X91613571Y-56888095D01*
X91651666Y-56850000D01*
X91613571Y-56811904D01*
X91613571Y-56888095D01*
X92146904Y-56811904D02*
X92299285Y-56811904D01*
X92375476Y-56850000D01*
X92451666Y-56926190D01*
X92489761Y-57078571D01*
X92489761Y-57345238D01*
X92451666Y-57497619D01*
X92375476Y-57573809D01*
X92299285Y-57611904D01*
X92146904Y-57611904D01*
X92070714Y-57573809D01*
X91994523Y-57497619D01*
X91956428Y-57345238D01*
X91956428Y-57078571D01*
X91994523Y-56926190D01*
X92070714Y-56850000D01*
X92146904Y-56811904D01*
X92794523Y-57573809D02*
X92908809Y-57611904D01*
X93099285Y-57611904D01*
X93175476Y-57573809D01*
X93213571Y-57535714D01*
X93251666Y-57459523D01*
X93251666Y-57383333D01*
X93213571Y-57307142D01*
X93175476Y-57269047D01*
X93099285Y-57230952D01*
X92946904Y-57192857D01*
X92870714Y-57154761D01*
X92832619Y-57116666D01*
X92794523Y-57040476D01*
X92794523Y-56964285D01*
X92832619Y-56888095D01*
X92870714Y-56850000D01*
X92946904Y-56811904D01*
X93137380Y-56811904D01*
X93251666Y-56850000D01*
X94051666Y-57535714D02*
X94013571Y-57573809D01*
X93899285Y-57611904D01*
X93823095Y-57611904D01*
X93708809Y-57573809D01*
X93632619Y-57497619D01*
X93594523Y-57421428D01*
X93556428Y-57269047D01*
X93556428Y-57154761D01*
X93594523Y-57002380D01*
X93632619Y-56926190D01*
X93708809Y-56850000D01*
X93823095Y-56811904D01*
X93899285Y-56811904D01*
X94013571Y-56850000D01*
X94051666Y-56888095D01*
X95232619Y-57916666D02*
X95194523Y-57878571D01*
X95118333Y-57764285D01*
X95080238Y-57688095D01*
X95042142Y-57573809D01*
X95004047Y-57383333D01*
X95004047Y-57230952D01*
X95042142Y-57040476D01*
X95080238Y-56926190D01*
X95118333Y-56850000D01*
X95194523Y-56735714D01*
X95232619Y-56697619D01*
X95537380Y-57611904D02*
X95537380Y-57078571D01*
X95537380Y-57230952D02*
X95575476Y-57154761D01*
X95613571Y-57116666D01*
X95689761Y-57078571D01*
X95765952Y-57078571D01*
X96337380Y-57573809D02*
X96261190Y-57611904D01*
X96108809Y-57611904D01*
X96032619Y-57573809D01*
X95994523Y-57497619D01*
X95994523Y-57192857D01*
X96032619Y-57116666D01*
X96108809Y-57078571D01*
X96261190Y-57078571D01*
X96337380Y-57116666D01*
X96375476Y-57192857D01*
X96375476Y-57269047D01*
X95994523Y-57345238D01*
X96642142Y-57078571D02*
X96832619Y-57611904D01*
X97023095Y-57078571D01*
X98356428Y-57611904D02*
X97899285Y-57611904D01*
X98127857Y-57611904D02*
X98127857Y-56811904D01*
X98051666Y-56926190D01*
X97975476Y-57002380D01*
X97899285Y-57040476D01*
X98699285Y-57535714D02*
X98737380Y-57573809D01*
X98699285Y-57611904D01*
X98661190Y-57573809D01*
X98699285Y-57535714D01*
X98699285Y-57611904D01*
X99499285Y-57611904D02*
X99042142Y-57611904D01*
X99270714Y-57611904D02*
X99270714Y-56811904D01*
X99194523Y-56926190D01*
X99118333Y-57002380D01*
X99042142Y-57040476D01*
X99765952Y-57916666D02*
X99804047Y-57878571D01*
X99880238Y-57764285D01*
X99918333Y-57688095D01*
X99956428Y-57573809D01*
X99994523Y-57383333D01*
X99994523Y-57230952D01*
X99956428Y-57040476D01*
X99918333Y-56926190D01*
X99880238Y-56850000D01*
X99804047Y-56735714D01*
X99765952Y-56697619D01*
D11*
X42233333Y-170466666D02*
X42166666Y-170400000D01*
X42033333Y-170333333D01*
X41899999Y-170333333D01*
X41766666Y-170400000D01*
X41699999Y-170466666D01*
X41633333Y-170600000D01*
X41633333Y-170733333D01*
X41699999Y-170866666D01*
X41766666Y-170933333D01*
X41899999Y-171000000D01*
X42033333Y-171000000D01*
X42166666Y-170933333D01*
X42233333Y-170866666D01*
X42233333Y-170333333D02*
X42233333Y-170866666D01*
X42299999Y-170933333D01*
X42366666Y-170933333D01*
X42499999Y-170866666D01*
X42566666Y-170733333D01*
X42566666Y-170400000D01*
X42433333Y-170200000D01*
X42233333Y-170066666D01*
X41966666Y-170000000D01*
X41699999Y-170066666D01*
X41499999Y-170200000D01*
X41366666Y-170400000D01*
X41299999Y-170666666D01*
X41366666Y-170933333D01*
X41499999Y-171133333D01*
X41699999Y-171266666D01*
X41966666Y-171333333D01*
X42233333Y-171266666D01*
X42433333Y-171133333D01*
X43166666Y-171133333D02*
X43166666Y-169733333D01*
X43166666Y-170266666D02*
X43299999Y-170200000D01*
X43566666Y-170200000D01*
X43699999Y-170266666D01*
X43766666Y-170333333D01*
X43833333Y-170466666D01*
X43833333Y-170866666D01*
X43766666Y-171000000D01*
X43699999Y-171066666D01*
X43566666Y-171133333D01*
X43299999Y-171133333D01*
X43166666Y-171066666D01*
X44966666Y-171066666D02*
X44833333Y-171133333D01*
X44566666Y-171133333D01*
X44433333Y-171066666D01*
X44366666Y-170933333D01*
X44366666Y-170400000D01*
X44433333Y-170266666D01*
X44566666Y-170200000D01*
X44833333Y-170200000D01*
X44966666Y-170266666D01*
X45033333Y-170400000D01*
X45033333Y-170533333D01*
X44366666Y-170666666D01*
X45633333Y-170200000D02*
X45633333Y-171133333D01*
X45633333Y-170333333D02*
X45699999Y-170266666D01*
X45833333Y-170200000D01*
X46033333Y-170200000D01*
X46166666Y-170266666D01*
X46233333Y-170400000D01*
X46233333Y-171133333D01*
X46899999Y-170200000D02*
X46899999Y-171400000D01*
X46833333Y-171533333D01*
X46699999Y-171600000D01*
X46633333Y-171600000D01*
X46899999Y-169733333D02*
X46833333Y-169800000D01*
X46899999Y-169866666D01*
X46966666Y-169800000D01*
X46899999Y-169733333D01*
X46899999Y-169866666D01*
X47566666Y-171133333D02*
X47566666Y-170200000D01*
X47566666Y-169733333D02*
X47499999Y-169800000D01*
X47566666Y-169866666D01*
X47633333Y-169800000D01*
X47566666Y-169733333D01*
X47566666Y-169866666D01*
X48833333Y-171133333D02*
X48833333Y-170400000D01*
X48766666Y-170266666D01*
X48633333Y-170200000D01*
X48366666Y-170200000D01*
X48233333Y-170266666D01*
X48833333Y-171066666D02*
X48699999Y-171133333D01*
X48366666Y-171133333D01*
X48233333Y-171066666D01*
X48166666Y-170933333D01*
X48166666Y-170800000D01*
X48233333Y-170666666D01*
X48366666Y-170600000D01*
X48699999Y-170600000D01*
X48833333Y-170533333D01*
X49699999Y-171133333D02*
X49566666Y-171066666D01*
X49499999Y-171000000D01*
X49433333Y-170866666D01*
X49433333Y-170466666D01*
X49499999Y-170333333D01*
X49566666Y-170266666D01*
X49699999Y-170200000D01*
X49899999Y-170200000D01*
X50033333Y-170266666D01*
X50099999Y-170333333D01*
X50166666Y-170466666D01*
X50166666Y-170866666D01*
X50099999Y-171000000D01*
X50033333Y-171066666D01*
X49899999Y-171133333D01*
X49699999Y-171133333D01*
X50766666Y-171133333D02*
X50766666Y-170200000D01*
X50766666Y-170333333D02*
X50833333Y-170266666D01*
X50966666Y-170200000D01*
X51166666Y-170200000D01*
X51299999Y-170266666D01*
X51366666Y-170400000D01*
X51366666Y-171133333D01*
X51366666Y-170400000D02*
X51433333Y-170266666D01*
X51566666Y-170200000D01*
X51766666Y-170200000D01*
X51899999Y-170266666D01*
X51966666Y-170400000D01*
X51966666Y-171133333D01*
X52833333Y-171133333D02*
X52699999Y-171066666D01*
X52633333Y-171000000D01*
X52566666Y-170866666D01*
X52566666Y-170466666D01*
X52633333Y-170333333D01*
X52699999Y-170266666D01*
X52833333Y-170200000D01*
X53033333Y-170200000D01*
X53166666Y-170266666D01*
X53233333Y-170333333D01*
X53299999Y-170466666D01*
X53299999Y-170866666D01*
X53233333Y-171000000D01*
X53166666Y-171066666D01*
X53033333Y-171133333D01*
X52833333Y-171133333D01*
X54499999Y-171133333D02*
X54499999Y-169733333D01*
X54499999Y-171066666D02*
X54366666Y-171133333D01*
X54099999Y-171133333D01*
X53966666Y-171066666D01*
X53899999Y-171000000D01*
X53833333Y-170866666D01*
X53833333Y-170466666D01*
X53899999Y-170333333D01*
X53966666Y-170266666D01*
X54099999Y-170200000D01*
X54366666Y-170200000D01*
X54499999Y-170266666D01*
X55766666Y-170200000D02*
X55766666Y-171133333D01*
X55166666Y-170200000D02*
X55166666Y-170933333D01*
X55233333Y-171066666D01*
X55366666Y-171133333D01*
X55566666Y-171133333D01*
X55699999Y-171066666D01*
X55766666Y-171000000D01*
X56633333Y-171133333D02*
X56499999Y-171066666D01*
X56433333Y-170933333D01*
X56433333Y-169733333D01*
X57766666Y-171133333D02*
X57766666Y-170400000D01*
X57699999Y-170266666D01*
X57566666Y-170200000D01*
X57299999Y-170200000D01*
X57166666Y-170266666D01*
X57766666Y-171066666D02*
X57633333Y-171133333D01*
X57299999Y-171133333D01*
X57166666Y-171066666D01*
X57099999Y-170933333D01*
X57099999Y-170800000D01*
X57166666Y-170666666D01*
X57299999Y-170600000D01*
X57633333Y-170600000D01*
X57766666Y-170533333D01*
X58433333Y-171133333D02*
X58433333Y-170200000D01*
X58433333Y-170466666D02*
X58499999Y-170333333D01*
X58566666Y-170266666D01*
X58699999Y-170200000D01*
X58833333Y-170200000D01*
D12*
X69500000Y-45500000D02*
X69500000Y-66500000D01*
X40500000Y-45500000D02*
X69500000Y-45500000D01*
D11*
X45728571Y-98346428D02*
X45128571Y-98346428D01*
X45128571Y-99289285D02*
X45128571Y-97489285D01*
X45985714Y-97489285D01*
X46671428Y-99289285D02*
X46671428Y-97489285D01*
X47271428Y-98775000D01*
X47871428Y-97489285D01*
X47871428Y-99289285D01*
X41528571Y-101625000D02*
X42385714Y-101625000D01*
X41357142Y-102139285D02*
X41957142Y-100339285D01*
X42557142Y-102139285D01*
X43157142Y-102139285D02*
X43157142Y-100339285D01*
X43757142Y-101625000D01*
X44357142Y-100339285D01*
X44357142Y-102139285D01*
X45557142Y-100339285D02*
X45900000Y-100339285D01*
X46071428Y-100425000D01*
X46242857Y-100596428D01*
X46328571Y-100939285D01*
X46328571Y-101539285D01*
X46242857Y-101882142D01*
X46071428Y-102053571D01*
X45900000Y-102139285D01*
X45557142Y-102139285D01*
X45385714Y-102053571D01*
X45214285Y-101882142D01*
X45128571Y-101539285D01*
X45128571Y-100939285D01*
X45214285Y-100596428D01*
X45385714Y-100425000D01*
X45557142Y-100339285D01*
X47100000Y-100339285D02*
X47100000Y-101796428D01*
X47185714Y-101967857D01*
X47271428Y-102053571D01*
X47442857Y-102139285D01*
X47785714Y-102139285D01*
X47957142Y-102053571D01*
X48042857Y-101967857D01*
X48128571Y-101796428D01*
X48128571Y-100339285D01*
X48985714Y-102139285D02*
X48985714Y-100339285D01*
X50014285Y-102139285D01*
X50014285Y-100339285D01*
X50614285Y-100339285D02*
X51642857Y-100339285D01*
X51128571Y-102139285D02*
X51128571Y-100339285D01*
X55041838Y-144679173D02*
X55041838Y-142879173D01*
X55727552Y-142879173D01*
X55898981Y-142964888D01*
X55984695Y-143050602D01*
X56070409Y-143222030D01*
X56070409Y-143479173D01*
X55984695Y-143650602D01*
X55898981Y-143736316D01*
X55727552Y-143822030D01*
X55041838Y-143822030D01*
X56841838Y-142879173D02*
X56841838Y-144336316D01*
X56927552Y-144507745D01*
X57013266Y-144593459D01*
X57184695Y-144679173D01*
X57527552Y-144679173D01*
X57698981Y-144593459D01*
X57784695Y-144507745D01*
X57870409Y-144336316D01*
X57870409Y-142879173D01*
X59584695Y-144679173D02*
X58727552Y-144679173D01*
X58727552Y-142879173D01*
X60098981Y-144593459D02*
X60356124Y-144679173D01*
X60784695Y-144679173D01*
X60956124Y-144593459D01*
X61041838Y-144507745D01*
X61127552Y-144336316D01*
X61127552Y-144164888D01*
X61041838Y-143993459D01*
X60956124Y-143907745D01*
X60784695Y-143822030D01*
X60441838Y-143736316D01*
X60270409Y-143650602D01*
X60184695Y-143564888D01*
X60098981Y-143393459D01*
X60098981Y-143222030D01*
X60184695Y-143050602D01*
X60270409Y-142964888D01*
X60441838Y-142879173D01*
X60870409Y-142879173D01*
X61127552Y-142964888D01*
X61898981Y-143736316D02*
X62498981Y-143736316D01*
X62756124Y-144679173D02*
X61898981Y-144679173D01*
X61898981Y-142879173D01*
X62756124Y-142879173D01*
X55127552Y-145729173D02*
X55556124Y-147529173D01*
X55898981Y-146243459D01*
X56241838Y-147529173D01*
X56670409Y-145729173D01*
X57356124Y-147529173D02*
X57356124Y-145729173D01*
X58213266Y-147529173D02*
X58213266Y-145729173D01*
X58641838Y-145729173D01*
X58898981Y-145814888D01*
X59070409Y-145986316D01*
X59156124Y-146157745D01*
X59241838Y-146500602D01*
X59241838Y-146757745D01*
X59156124Y-147100602D01*
X59070409Y-147272030D01*
X58898981Y-147443459D01*
X58641838Y-147529173D01*
X58213266Y-147529173D01*
X59756124Y-145729173D02*
X60784695Y-145729173D01*
X60270409Y-147529173D02*
X60270409Y-145729173D01*
X61384695Y-147529173D02*
X61384695Y-145729173D01*
X61384695Y-146586316D02*
X62413266Y-146586316D01*
X62413266Y-147529173D02*
X62413266Y-145729173D01*
X41500000Y-162000000D02*
X41500000Y-155500000D01*
X46500000Y-162000000D02*
X41500000Y-162000000D01*
X46500000Y-155500000D02*
X46500000Y-162000000D01*
X41500000Y-155500000D02*
X46500000Y-155500000D01*
X41928571Y-161404761D02*
X42071428Y-161452380D01*
X42309523Y-161452380D01*
X42404761Y-161404761D01*
X42452380Y-161357142D01*
X42500000Y-161261904D01*
X42500000Y-161166666D01*
X42452380Y-161071428D01*
X42404761Y-161023809D01*
X42309523Y-160976190D01*
X42119047Y-160928571D01*
X42023809Y-160880952D01*
X41976190Y-160833333D01*
X41928571Y-160738095D01*
X41928571Y-160642857D01*
X41976190Y-160547619D01*
X42023809Y-160500000D01*
X42119047Y-160452380D01*
X42357142Y-160452380D01*
X42500000Y-160500000D01*
X43500000Y-161357142D02*
X43452380Y-161404761D01*
X43309523Y-161452380D01*
X43214285Y-161452380D01*
X43071428Y-161404761D01*
X42976190Y-161309523D01*
X42928571Y-161214285D01*
X42880952Y-161023809D01*
X42880952Y-160880952D01*
X42928571Y-160690476D01*
X42976190Y-160595238D01*
X43071428Y-160500000D01*
X43214285Y-160452380D01*
X43309523Y-160452380D01*
X43452380Y-160500000D01*
X43500000Y-160547619D01*
X43880952Y-161166666D02*
X44357142Y-161166666D01*
X43785714Y-161452380D02*
X44119047Y-160452380D01*
X44452380Y-161452380D01*
X45261904Y-161452380D02*
X44785714Y-161452380D01*
X44785714Y-160452380D01*
X45595238Y-160928571D02*
X45928571Y-160928571D01*
X46071428Y-161452380D02*
X45595238Y-161452380D01*
X45595238Y-160452380D01*
X46071428Y-160452380D01*
D12*
X69500000Y-167500000D02*
X69500000Y-66500000D01*
X40500000Y-167500000D02*
X69500000Y-167500000D01*
X40500000Y-45500000D02*
X40500000Y-167500000D01*
X46300000Y-45600000D02*
X69300000Y-68500000D01*
D13*
X52666666Y-49857142D02*
X52666666Y-46857142D01*
X53600000Y-49000000D01*
X54533333Y-46857142D01*
X54533333Y-49857142D01*
X55866666Y-49857142D02*
X55866666Y-47857142D01*
X55866666Y-46857142D02*
X55733333Y-47000000D01*
X55866666Y-47142857D01*
X56000000Y-47000000D01*
X55866666Y-46857142D01*
X55866666Y-47142857D01*
X57200000Y-47857142D02*
X57200000Y-49857142D01*
X57200000Y-48142857D02*
X57333333Y-48000000D01*
X57600000Y-47857142D01*
X58000000Y-47857142D01*
X58266666Y-48000000D01*
X58400000Y-48285714D01*
X58400000Y-49857142D01*
X59733333Y-49857142D02*
X59733333Y-47857142D01*
X59733333Y-46857142D02*
X59600000Y-47000000D01*
X59733333Y-47142857D01*
X59866666Y-47000000D01*
X59733333Y-46857142D01*
X59733333Y-47142857D01*
X61600000Y-46857142D02*
X62133333Y-46857142D01*
X62400000Y-47000000D01*
X62666666Y-47285714D01*
X62800000Y-47857142D01*
X62800000Y-48857142D01*
X62666666Y-49428571D01*
X62400000Y-49714285D01*
X62133333Y-49857142D01*
X61600000Y-49857142D01*
X61333333Y-49714285D01*
X61066666Y-49428571D01*
X60933333Y-48857142D01*
X60933333Y-47857142D01*
X61066666Y-47285714D01*
X61333333Y-47000000D01*
X61600000Y-46857142D01*
X63866666Y-49714285D02*
X64266666Y-49857142D01*
X64933333Y-49857142D01*
X65200000Y-49714285D01*
X65333333Y-49571428D01*
X65466666Y-49285714D01*
X65466666Y-49000000D01*
X65333333Y-48714285D01*
X65200000Y-48571428D01*
X64933333Y-48428571D01*
X64400000Y-48285714D01*
X64133333Y-48142857D01*
X64000000Y-48000000D01*
X63866666Y-47714285D01*
X63866666Y-47428571D01*
X64000000Y-47142857D01*
X64133333Y-47000000D01*
X64400000Y-46857142D01*
X65066666Y-46857142D01*
X65466666Y-47000000D01*
X68266666Y-49571428D02*
X68133333Y-49714285D01*
X67733333Y-49857142D01*
X67466666Y-49857142D01*
X67066666Y-49714285D01*
X66800000Y-49428571D01*
X66666666Y-49142857D01*
X66533333Y-48571428D01*
X66533333Y-48142857D01*
X66666666Y-47571428D01*
X66800000Y-47285714D01*
X67066666Y-47000000D01*
X67466666Y-46857142D01*
X67733333Y-46857142D01*
X68133333Y-47000000D01*
X68266666Y-47142857D01*
D12*
X48500000Y-119500000D02*
X51500000Y-116500000D01*
X64000000Y-144000000D02*
X62800000Y-141600000D01*
X64000000Y-153000000D02*
X64000000Y-144000000D01*
D11*
X41280952Y-144914285D02*
X41814285Y-146714285D01*
X42347619Y-144914285D01*
X44023809Y-144828571D02*
X42652380Y-147142857D01*
X44861904Y-144914285D02*
X45166666Y-144914285D01*
X45319047Y-145000000D01*
X45471428Y-145171428D01*
X45547619Y-145514285D01*
X45547619Y-146114285D01*
X45471428Y-146457142D01*
X45319047Y-146628571D01*
X45166666Y-146714285D01*
X44861904Y-146714285D01*
X44709523Y-146628571D01*
X44557142Y-146457142D01*
X44480952Y-146114285D01*
X44480952Y-145514285D01*
X44557142Y-145171428D01*
X44709523Y-145000000D01*
X44861904Y-144914285D01*
X47147619Y-146542857D02*
X47071428Y-146628571D01*
X46842857Y-146714285D01*
X46690476Y-146714285D01*
X46461904Y-146628571D01*
X46309523Y-146457142D01*
X46233333Y-146285714D01*
X46157142Y-145942857D01*
X46157142Y-145685714D01*
X46233333Y-145342857D01*
X46309523Y-145171428D01*
X46461904Y-145000000D01*
X46690476Y-144914285D01*
X46842857Y-144914285D01*
X47071428Y-145000000D01*
X47147619Y-145085714D01*
X47604761Y-144914285D02*
X48519047Y-144914285D01*
X48061904Y-146714285D02*
X48061904Y-144914285D01*
X51100000Y-161903571D02*
X51300000Y-161989285D01*
X51633333Y-161989285D01*
X51766666Y-161903571D01*
X51833333Y-161817857D01*
X51900000Y-161646428D01*
X51900000Y-161475000D01*
X51833333Y-161303571D01*
X51766666Y-161217857D01*
X51633333Y-161132142D01*
X51366666Y-161046428D01*
X51233333Y-160960714D01*
X51166666Y-160875000D01*
X51100000Y-160703571D01*
X51100000Y-160532142D01*
X51166666Y-160360714D01*
X51233333Y-160275000D01*
X51366666Y-160189285D01*
X51700000Y-160189285D01*
X51900000Y-160275000D01*
X52433333Y-161475000D02*
X53100000Y-161475000D01*
X52300000Y-161989285D02*
X52766666Y-160189285D01*
X53233333Y-161989285D01*
X53566666Y-160189285D02*
X53900000Y-161989285D01*
X54166666Y-160703571D01*
X54433333Y-161989285D01*
X54766666Y-160189285D01*
X51500000Y-163039285D02*
X51766666Y-163039285D01*
X51900000Y-163125000D01*
X52033333Y-163296428D01*
X52100000Y-163639285D01*
X52100000Y-164239285D01*
X52033333Y-164582142D01*
X51900000Y-164753571D01*
X51766666Y-164839285D01*
X51500000Y-164839285D01*
X51366666Y-164753571D01*
X51233333Y-164582142D01*
X51166666Y-164239285D01*
X51166666Y-163639285D01*
X51233333Y-163296428D01*
X51366666Y-163125000D01*
X51500000Y-163039285D01*
X52700000Y-163039285D02*
X52700000Y-164496428D01*
X52766666Y-164667857D01*
X52833333Y-164753571D01*
X52966666Y-164839285D01*
X53233333Y-164839285D01*
X53366666Y-164753571D01*
X53433333Y-164667857D01*
X53500000Y-164496428D01*
X53500000Y-163039285D01*
X53966666Y-163039285D02*
X54766666Y-163039285D01*
X54366666Y-164839285D02*
X54366666Y-163039285D01*
X60609523Y-162089285D02*
X60609523Y-160289285D01*
X61219047Y-160289285D01*
X61371428Y-160375000D01*
X61447619Y-160460714D01*
X61523809Y-160632142D01*
X61523809Y-160889285D01*
X61447619Y-161060714D01*
X61371428Y-161146428D01*
X61219047Y-161232142D01*
X60609523Y-161232142D01*
X62209523Y-160289285D02*
X62209523Y-161746428D01*
X62285714Y-161917857D01*
X62361904Y-162003571D01*
X62514285Y-162089285D01*
X62819047Y-162089285D01*
X62971428Y-162003571D01*
X63047619Y-161917857D01*
X63123809Y-161746428D01*
X63123809Y-160289285D01*
X64647619Y-162089285D02*
X63885714Y-162089285D01*
X63885714Y-160289285D01*
X65104761Y-162003571D02*
X65333333Y-162089285D01*
X65714285Y-162089285D01*
X65866666Y-162003571D01*
X65942857Y-161917857D01*
X66019047Y-161746428D01*
X66019047Y-161575000D01*
X65942857Y-161403571D01*
X65866666Y-161317857D01*
X65714285Y-161232142D01*
X65409523Y-161146428D01*
X65257142Y-161060714D01*
X65180952Y-160975000D01*
X65104761Y-160803571D01*
X65104761Y-160632142D01*
X65180952Y-160460714D01*
X65257142Y-160375000D01*
X65409523Y-160289285D01*
X65790476Y-160289285D01*
X66019047Y-160375000D01*
X66704761Y-161146428D02*
X67238095Y-161146428D01*
X67466666Y-162089285D02*
X66704761Y-162089285D01*
X66704761Y-160289285D01*
X67466666Y-160289285D01*
X62400000Y-163139285D02*
X62704761Y-163139285D01*
X62857142Y-163225000D01*
X63009523Y-163396428D01*
X63085714Y-163739285D01*
X63085714Y-164339285D01*
X63009523Y-164682142D01*
X62857142Y-164853571D01*
X62704761Y-164939285D01*
X62400000Y-164939285D01*
X62247619Y-164853571D01*
X62095238Y-164682142D01*
X62019047Y-164339285D01*
X62019047Y-163739285D01*
X62095238Y-163396428D01*
X62247619Y-163225000D01*
X62400000Y-163139285D01*
X63771428Y-163139285D02*
X63771428Y-164596428D01*
X63847619Y-164767857D01*
X63923809Y-164853571D01*
X64076190Y-164939285D01*
X64380952Y-164939285D01*
X64533333Y-164853571D01*
X64609523Y-164767857D01*
X64685714Y-164596428D01*
X64685714Y-163139285D01*
X65219047Y-163139285D02*
X66133333Y-163139285D01*
X65676190Y-164939285D02*
X65676190Y-163139285D01*
X41785714Y-126371428D02*
X41252380Y-126371428D01*
X41252380Y-127314285D02*
X41252380Y-125514285D01*
X42014285Y-125514285D01*
X42623809Y-127314285D02*
X42623809Y-125514285D01*
X43157142Y-126800000D01*
X43690476Y-125514285D01*
X43690476Y-127314285D01*
X45671428Y-127314285D02*
X45671428Y-125514285D01*
X46433333Y-127314285D02*
X46433333Y-125514285D01*
X47347619Y-127314285D01*
X47347619Y-125514285D01*
X64371428Y-76371428D02*
X63771428Y-76371428D01*
X63771428Y-77314285D02*
X63771428Y-75514285D01*
X64628571Y-75514285D01*
X65314285Y-77314285D02*
X65314285Y-75514285D01*
X66171428Y-77314285D02*
X66171428Y-75514285D01*
X67200000Y-77314285D01*
X67200000Y-75514285D01*
X68057142Y-76371428D02*
X68657142Y-76371428D01*
X68914285Y-77314285D02*
X68057142Y-77314285D01*
X68057142Y-75514285D01*
X68914285Y-75514285D01*
X42271428Y-78342857D02*
X42185714Y-78428571D01*
X41928571Y-78514285D01*
X41757142Y-78514285D01*
X41500000Y-78428571D01*
X41328571Y-78257142D01*
X41242857Y-78085714D01*
X41157142Y-77742857D01*
X41157142Y-77485714D01*
X41242857Y-77142857D01*
X41328571Y-76971428D01*
X41500000Y-76800000D01*
X41757142Y-76714285D01*
X41928571Y-76714285D01*
X42185714Y-76800000D01*
X42271428Y-76885714D01*
X43385714Y-76714285D02*
X43728571Y-76714285D01*
X43900000Y-76800000D01*
X44071428Y-76971428D01*
X44157142Y-77314285D01*
X44157142Y-77914285D01*
X44071428Y-78257142D01*
X43900000Y-78428571D01*
X43728571Y-78514285D01*
X43385714Y-78514285D01*
X43214285Y-78428571D01*
X43042857Y-78257142D01*
X42957142Y-77914285D01*
X42957142Y-77314285D01*
X43042857Y-76971428D01*
X43214285Y-76800000D01*
X43385714Y-76714285D01*
X44842857Y-78000000D02*
X45700000Y-78000000D01*
X44671428Y-78514285D02*
X45271428Y-76714285D01*
X45871428Y-78514285D01*
X47500000Y-78514285D02*
X46900000Y-77657142D01*
X46471428Y-78514285D02*
X46471428Y-76714285D01*
X47157142Y-76714285D01*
X47328571Y-76800000D01*
X47414285Y-76885714D01*
X47500000Y-77057142D01*
X47500000Y-77314285D01*
X47414285Y-77485714D01*
X47328571Y-77571428D01*
X47157142Y-77657142D01*
X46471428Y-77657142D01*
X48185714Y-78428571D02*
X48442857Y-78514285D01*
X48871428Y-78514285D01*
X49042857Y-78428571D01*
X49128571Y-78342857D01*
X49214285Y-78171428D01*
X49214285Y-78000000D01*
X49128571Y-77828571D01*
X49042857Y-77742857D01*
X48871428Y-77657142D01*
X48528571Y-77571428D01*
X48357142Y-77485714D01*
X48271428Y-77400000D01*
X48185714Y-77228571D01*
X48185714Y-77057142D01*
X48271428Y-76885714D01*
X48357142Y-76800000D01*
X48528571Y-76714285D01*
X48957142Y-76714285D01*
X49214285Y-76800000D01*
X49985714Y-77571428D02*
X50585714Y-77571428D01*
X50842857Y-78514285D02*
X49985714Y-78514285D01*
X49985714Y-76714285D01*
X50842857Y-76714285D01*
D12*
X69000000Y-132000000D02*
G75*
G03*
X69000000Y-132000000I-10000000J0D01*
G01*
X61512492Y-66012492D02*
G75*
G03*
X61512492Y-66012492I-10012492J0D01*
G01*
X69000000Y-87000000D02*
G75*
G03*
X69000000Y-87000000I-10000000J0D01*
G01*
X69000626Y-109611874D02*
G75*
G03*
X69000626Y-109611874I-10000626J0D01*
G01*
D10*
%TO.C,mouse-bite-2mm-slot*%
X72000000Y-66000000D02*
G75*
G03*
X70000000Y-66000000I-1000000J0D01*
G01*
X70000000Y-62000000D02*
G75*
G03*
X72000000Y-62000000I1000000J0D01*
G01*
X104000000Y-66000000D02*
G75*
G03*
X102000000Y-66000000I-1000000J0D01*
G01*
X102000000Y-62000000D02*
G75*
G03*
X104000000Y-62000000I1000000J0D01*
G01*
X102000000Y-141000000D02*
G75*
G03*
X104000000Y-141000000I1000000J0D01*
G01*
X104000000Y-145000000D02*
G75*
G03*
X102000000Y-145000000I-1000000J0D01*
G01*
X70000000Y-141000000D02*
G75*
G03*
X72000000Y-141000000I1000000J0D01*
G01*
X72000000Y-145000000D02*
G75*
G03*
X70000000Y-145000000I-1000000J0D01*
G01*
D14*
%TO.C,SCALE1*%
X79280000Y-152235000D02*
X79280000Y-159185000D01*
X74540000Y-152235000D02*
X74540000Y-159185000D01*
X79280000Y-152235000D02*
X77494000Y-152235000D01*
X76504000Y-152235000D02*
X74540000Y-152235000D01*
X79280000Y-159185000D02*
X77494000Y-159185000D01*
X76504000Y-159185000D02*
X74540000Y-159185000D01*
%TO.C,D3*%
X95960000Y-72080000D02*
X95960000Y-72236000D01*
X95960000Y-69764000D02*
X95960000Y-69920000D01*
X99192335Y-69921392D02*
G75*
G03*
X95960000Y-69764484I-1672335J-1078608D01*
G01*
X99192335Y-72078608D02*
G75*
G02*
X95960000Y-72235516I-1672335J1078608D01*
G01*
X98561130Y-69920163D02*
G75*
G03*
X96479039Y-69920000I-1041130J-1079837D01*
G01*
X98561130Y-72079837D02*
G75*
G02*
X96479039Y-72080000I-1041130J1079837D01*
G01*
%TO.C,FM_AMOUNT1*%
X89340000Y-102880000D02*
X90170000Y-102880000D01*
X91790000Y-102880000D02*
X92320000Y-102880000D01*
X94690000Y-102880000D02*
X95870000Y-102880000D01*
X86130000Y-102880000D02*
X86130000Y-107600000D01*
X95870000Y-111410000D02*
X95870000Y-114470000D01*
X95880000Y-102880000D02*
X95880000Y-107600000D01*
X86130000Y-111410000D02*
X86130000Y-114470000D01*
X86130000Y-102880000D02*
X87620000Y-102880000D01*
X86130000Y-114470000D02*
X95870000Y-114470000D01*
%TO.C,J3*%
X76940000Y-133000000D02*
X77800000Y-133000000D01*
X76940000Y-133000000D02*
X76940000Y-133800000D01*
X79800000Y-140480000D02*
G75*
G03*
X79800000Y-140480000I-1800000J0D01*
G01*
X77650000Y-135980000D02*
X73500000Y-135980000D01*
X82500000Y-135980000D02*
X78350000Y-135980000D01*
X77500000Y-146480000D02*
X73500000Y-146480000D01*
X82500000Y-146480000D02*
X78500000Y-146480000D01*
X82500000Y-135980000D02*
X82500000Y-146480000D01*
X73500000Y-135980000D02*
X73500000Y-146480000D01*
%TO.C,J4*%
X73500000Y-116480000D02*
X73500000Y-126980000D01*
X82500000Y-116480000D02*
X82500000Y-126980000D01*
X82500000Y-126980000D02*
X78500000Y-126980000D01*
X77500000Y-126980000D02*
X73500000Y-126980000D01*
X82500000Y-116480000D02*
X78350000Y-116480000D01*
X77650000Y-116480000D02*
X73500000Y-116480000D01*
X79800000Y-120980000D02*
G75*
G03*
X79800000Y-120980000I-1800000J0D01*
G01*
X76940000Y-113500000D02*
X76940000Y-114300000D01*
X76940000Y-113500000D02*
X77800000Y-113500000D01*
%TO.C,J5*%
X94940000Y-148500000D02*
X95800000Y-148500000D01*
X94940000Y-148500000D02*
X94940000Y-149300000D01*
X97800000Y-155980000D02*
G75*
G03*
X97800000Y-155980000I-1800000J0D01*
G01*
X95650000Y-151480000D02*
X91500000Y-151480000D01*
X100500000Y-151480000D02*
X96350000Y-151480000D01*
X95500000Y-161980000D02*
X91500000Y-161980000D01*
X100500000Y-161980000D02*
X96500000Y-161980000D01*
X100500000Y-151480000D02*
X100500000Y-161980000D01*
X91500000Y-151480000D02*
X91500000Y-161980000D01*
%TO.C,J6*%
X80500000Y-151380000D02*
X80500000Y-161880000D01*
X89500000Y-151380000D02*
X89500000Y-161880000D01*
X89500000Y-161880000D02*
X85500000Y-161880000D01*
X84500000Y-161880000D02*
X80500000Y-161880000D01*
X89500000Y-151380000D02*
X85350000Y-151380000D01*
X84650000Y-151380000D02*
X80500000Y-151380000D01*
X86800000Y-155880000D02*
G75*
G03*
X86800000Y-155880000I-1800000J0D01*
G01*
X83940000Y-148400000D02*
X83940000Y-149200000D01*
X83940000Y-148400000D02*
X84800000Y-148400000D01*
%TO.C,PULSE_WIDTH1*%
X92660000Y-138620000D02*
X91830000Y-138620000D01*
X90210000Y-138620000D02*
X89680000Y-138620000D01*
X87310000Y-138620000D02*
X86130000Y-138620000D01*
X95870000Y-138620000D02*
X95870000Y-133900000D01*
X86130000Y-130090000D02*
X86130000Y-127030000D01*
X86120000Y-138620000D02*
X86120000Y-133900000D01*
X95870000Y-130090000D02*
X95870000Y-127030000D01*
X95870000Y-138620000D02*
X94380000Y-138620000D01*
X95870000Y-127030000D02*
X86130000Y-127030000D01*
%TO.C,R18*%
X98460000Y-79540000D02*
X98460000Y-79870000D01*
X98460000Y-79870000D02*
X91920000Y-79870000D01*
X91920000Y-79870000D02*
X91920000Y-79540000D01*
X98460000Y-77460000D02*
X98460000Y-77130000D01*
X98460000Y-77130000D02*
X91920000Y-77130000D01*
X91920000Y-77130000D02*
X91920000Y-77460000D01*
%TO.C,TUNING_COARSE1*%
X88270000Y-61030000D02*
X78530000Y-61030000D01*
X88270000Y-72620000D02*
X86780000Y-72620000D01*
X88270000Y-64090000D02*
X88270000Y-61030000D01*
X78520000Y-72620000D02*
X78520000Y-67900000D01*
X78530000Y-64090000D02*
X78530000Y-61030000D01*
X88270000Y-72620000D02*
X88270000Y-67900000D01*
X79710000Y-72620000D02*
X78530000Y-72620000D01*
X82610000Y-72620000D02*
X82080000Y-72620000D01*
X85060000Y-72620000D02*
X84230000Y-72620000D01*
%TO.C,TUNING_FINE1*%
X95870000Y-82530000D02*
X86130000Y-82530000D01*
X95870000Y-94120000D02*
X94380000Y-94120000D01*
X95870000Y-85590000D02*
X95870000Y-82530000D01*
X86120000Y-94120000D02*
X86120000Y-89400000D01*
X86130000Y-85590000D02*
X86130000Y-82530000D01*
X95870000Y-94120000D02*
X95870000Y-89400000D01*
X87310000Y-94120000D02*
X86130000Y-94120000D01*
X90210000Y-94120000D02*
X89680000Y-94120000D01*
X92660000Y-94120000D02*
X91830000Y-94120000D01*
%TO.C,J1*%
X105670000Y-111930000D02*
X108330000Y-111930000D01*
X105670000Y-73770000D02*
X105670000Y-111930000D01*
X108330000Y-73770000D02*
X108330000Y-111930000D01*
X105670000Y-73770000D02*
X108330000Y-73770000D01*
X105670000Y-72500000D02*
X105670000Y-71170000D01*
X105670000Y-71170000D02*
X107000000Y-71170000D01*
%TO.C,SCALE1*%
D11*
X80814761Y-158257619D02*
X80862380Y-158114761D01*
X80862380Y-157876666D01*
X80814761Y-157781428D01*
X80767142Y-157733809D01*
X80671904Y-157686190D01*
X80576666Y-157686190D01*
X80481428Y-157733809D01*
X80433809Y-157781428D01*
X80386190Y-157876666D01*
X80338571Y-158067142D01*
X80290952Y-158162380D01*
X80243333Y-158210000D01*
X80148095Y-158257619D01*
X80052857Y-158257619D01*
X79957619Y-158210000D01*
X79910000Y-158162380D01*
X79862380Y-158067142D01*
X79862380Y-157829047D01*
X79910000Y-157686190D01*
X80767142Y-156686190D02*
X80814761Y-156733809D01*
X80862380Y-156876666D01*
X80862380Y-156971904D01*
X80814761Y-157114761D01*
X80719523Y-157210000D01*
X80624285Y-157257619D01*
X80433809Y-157305238D01*
X80290952Y-157305238D01*
X80100476Y-157257619D01*
X80005238Y-157210000D01*
X79910000Y-157114761D01*
X79862380Y-156971904D01*
X79862380Y-156876666D01*
X79910000Y-156733809D01*
X79957619Y-156686190D01*
X80576666Y-156305238D02*
X80576666Y-155829047D01*
X80862380Y-156400476D02*
X79862380Y-156067142D01*
X80862380Y-155733809D01*
X80862380Y-154924285D02*
X80862380Y-155400476D01*
X79862380Y-155400476D01*
X80338571Y-154590952D02*
X80338571Y-154257619D01*
X80862380Y-154114761D02*
X80862380Y-154590952D01*
X79862380Y-154590952D01*
X79862380Y-154114761D01*
X80862380Y-153162380D02*
X80862380Y-153733809D01*
X80862380Y-153448095D02*
X79862380Y-153448095D01*
X80005238Y-153543333D01*
X80100476Y-153638571D01*
X80148095Y-153733809D01*
%TO.C,D3*%
X96781904Y-68492380D02*
X96781904Y-67492380D01*
X97020000Y-67492380D01*
X97162857Y-67540000D01*
X97258095Y-67635238D01*
X97305714Y-67730476D01*
X97353333Y-67920952D01*
X97353333Y-68063809D01*
X97305714Y-68254285D01*
X97258095Y-68349523D01*
X97162857Y-68444761D01*
X97020000Y-68492380D01*
X96781904Y-68492380D01*
X97686666Y-67492380D02*
X98305714Y-67492380D01*
X97972380Y-67873333D01*
X98115238Y-67873333D01*
X98210476Y-67920952D01*
X98258095Y-67968571D01*
X98305714Y-68063809D01*
X98305714Y-68301904D01*
X98258095Y-68397142D01*
X98210476Y-68444761D01*
X98115238Y-68492380D01*
X97829523Y-68492380D01*
X97734285Y-68444761D01*
X97686666Y-68397142D01*
%TO.C,FM_AMOUNT1*%
X98068571Y-112948095D02*
X98068571Y-113281428D01*
X98592380Y-113281428D02*
X97592380Y-113281428D01*
X97592380Y-112805238D01*
X98592380Y-112424285D02*
X97592380Y-112424285D01*
X98306666Y-112090952D01*
X97592380Y-111757619D01*
X98592380Y-111757619D01*
X98687619Y-111519523D02*
X98687619Y-110757619D01*
X98306666Y-110567142D02*
X98306666Y-110090952D01*
X98592380Y-110662380D02*
X97592380Y-110329047D01*
X98592380Y-109995714D01*
X98592380Y-109662380D02*
X97592380Y-109662380D01*
X98306666Y-109329047D01*
X97592380Y-108995714D01*
X98592380Y-108995714D01*
X97592380Y-108329047D02*
X97592380Y-108138571D01*
X97640000Y-108043333D01*
X97735238Y-107948095D01*
X97925714Y-107900476D01*
X98259047Y-107900476D01*
X98449523Y-107948095D01*
X98544761Y-108043333D01*
X98592380Y-108138571D01*
X98592380Y-108329047D01*
X98544761Y-108424285D01*
X98449523Y-108519523D01*
X98259047Y-108567142D01*
X97925714Y-108567142D01*
X97735238Y-108519523D01*
X97640000Y-108424285D01*
X97592380Y-108329047D01*
X97592380Y-107471904D02*
X98401904Y-107471904D01*
X98497142Y-107424285D01*
X98544761Y-107376666D01*
X98592380Y-107281428D01*
X98592380Y-107090952D01*
X98544761Y-106995714D01*
X98497142Y-106948095D01*
X98401904Y-106900476D01*
X97592380Y-106900476D01*
X98592380Y-106424285D02*
X97592380Y-106424285D01*
X98592380Y-105852857D01*
X97592380Y-105852857D01*
X97592380Y-105519523D02*
X97592380Y-104948095D01*
X98592380Y-105233809D02*
X97592380Y-105233809D01*
X98592380Y-104090952D02*
X98592380Y-104662380D01*
X98592380Y-104376666D02*
X97592380Y-104376666D01*
X97735238Y-104471904D01*
X97830476Y-104567142D01*
X97878095Y-104662380D01*
%TO.C,J3*%
X73636666Y-134532380D02*
X73636666Y-135246666D01*
X73589047Y-135389523D01*
X73493809Y-135484761D01*
X73350952Y-135532380D01*
X73255714Y-135532380D01*
X74017619Y-134532380D02*
X74636666Y-134532380D01*
X74303333Y-134913333D01*
X74446190Y-134913333D01*
X74541428Y-134960952D01*
X74589047Y-135008571D01*
X74636666Y-135103809D01*
X74636666Y-135341904D01*
X74589047Y-135437142D01*
X74541428Y-135484761D01*
X74446190Y-135532380D01*
X74160476Y-135532380D01*
X74065238Y-135484761D01*
X74017619Y-135437142D01*
%TO.C,J4*%
X73636666Y-115032380D02*
X73636666Y-115746666D01*
X73589047Y-115889523D01*
X73493809Y-115984761D01*
X73350952Y-116032380D01*
X73255714Y-116032380D01*
X74541428Y-115365714D02*
X74541428Y-116032380D01*
X74303333Y-114984761D02*
X74065238Y-115699047D01*
X74684285Y-115699047D01*
%TO.C,J5*%
X91636666Y-150032380D02*
X91636666Y-150746666D01*
X91589047Y-150889523D01*
X91493809Y-150984761D01*
X91350952Y-151032380D01*
X91255714Y-151032380D01*
X92589047Y-150032380D02*
X92112857Y-150032380D01*
X92065238Y-150508571D01*
X92112857Y-150460952D01*
X92208095Y-150413333D01*
X92446190Y-150413333D01*
X92541428Y-150460952D01*
X92589047Y-150508571D01*
X92636666Y-150603809D01*
X92636666Y-150841904D01*
X92589047Y-150937142D01*
X92541428Y-150984761D01*
X92446190Y-151032380D01*
X92208095Y-151032380D01*
X92112857Y-150984761D01*
X92065238Y-150937142D01*
%TO.C,J6*%
X80636666Y-149932380D02*
X80636666Y-150646666D01*
X80589047Y-150789523D01*
X80493809Y-150884761D01*
X80350952Y-150932380D01*
X80255714Y-150932380D01*
X81541428Y-149932380D02*
X81350952Y-149932380D01*
X81255714Y-149980000D01*
X81208095Y-150027619D01*
X81112857Y-150170476D01*
X81065238Y-150360952D01*
X81065238Y-150741904D01*
X81112857Y-150837142D01*
X81160476Y-150884761D01*
X81255714Y-150932380D01*
X81446190Y-150932380D01*
X81541428Y-150884761D01*
X81589047Y-150837142D01*
X81636666Y-150741904D01*
X81636666Y-150503809D01*
X81589047Y-150408571D01*
X81541428Y-150360952D01*
X81446190Y-150313333D01*
X81255714Y-150313333D01*
X81160476Y-150360952D01*
X81112857Y-150408571D01*
X81065238Y-150503809D01*
%TO.C,PULSE_WIDTH1*%
X84312380Y-137980476D02*
X83312380Y-137980476D01*
X83312380Y-137599523D01*
X83360000Y-137504285D01*
X83407619Y-137456666D01*
X83502857Y-137409047D01*
X83645714Y-137409047D01*
X83740952Y-137456666D01*
X83788571Y-137504285D01*
X83836190Y-137599523D01*
X83836190Y-137980476D01*
X83312380Y-136980476D02*
X84121904Y-136980476D01*
X84217142Y-136932857D01*
X84264761Y-136885238D01*
X84312380Y-136790000D01*
X84312380Y-136599523D01*
X84264761Y-136504285D01*
X84217142Y-136456666D01*
X84121904Y-136409047D01*
X83312380Y-136409047D01*
X84312380Y-135456666D02*
X84312380Y-135932857D01*
X83312380Y-135932857D01*
X84264761Y-135170952D02*
X84312380Y-135028095D01*
X84312380Y-134790000D01*
X84264761Y-134694761D01*
X84217142Y-134647142D01*
X84121904Y-134599523D01*
X84026666Y-134599523D01*
X83931428Y-134647142D01*
X83883809Y-134694761D01*
X83836190Y-134790000D01*
X83788571Y-134980476D01*
X83740952Y-135075714D01*
X83693333Y-135123333D01*
X83598095Y-135170952D01*
X83502857Y-135170952D01*
X83407619Y-135123333D01*
X83360000Y-135075714D01*
X83312380Y-134980476D01*
X83312380Y-134742380D01*
X83360000Y-134599523D01*
X83788571Y-134170952D02*
X83788571Y-133837619D01*
X84312380Y-133694761D02*
X84312380Y-134170952D01*
X83312380Y-134170952D01*
X83312380Y-133694761D01*
X84407619Y-133504285D02*
X84407619Y-132742380D01*
X83312380Y-132599523D02*
X84312380Y-132361428D01*
X83598095Y-132170952D01*
X84312380Y-131980476D01*
X83312380Y-131742380D01*
X84312380Y-131361428D02*
X83312380Y-131361428D01*
X84312380Y-130885238D02*
X83312380Y-130885238D01*
X83312380Y-130647142D01*
X83360000Y-130504285D01*
X83455238Y-130409047D01*
X83550476Y-130361428D01*
X83740952Y-130313809D01*
X83883809Y-130313809D01*
X84074285Y-130361428D01*
X84169523Y-130409047D01*
X84264761Y-130504285D01*
X84312380Y-130647142D01*
X84312380Y-130885238D01*
X83312380Y-130028095D02*
X83312380Y-129456666D01*
X84312380Y-129742380D02*
X83312380Y-129742380D01*
X84312380Y-129123333D02*
X83312380Y-129123333D01*
X83788571Y-129123333D02*
X83788571Y-128551904D01*
X84312380Y-128551904D02*
X83312380Y-128551904D01*
X84312380Y-127551904D02*
X84312380Y-128123333D01*
X84312380Y-127837619D02*
X83312380Y-127837619D01*
X83455238Y-127932857D01*
X83550476Y-128028095D01*
X83598095Y-128123333D01*
%TO.C,R18*%
X94547142Y-81322380D02*
X94213809Y-80846190D01*
X93975714Y-81322380D02*
X93975714Y-80322380D01*
X94356666Y-80322380D01*
X94451904Y-80370000D01*
X94499523Y-80417619D01*
X94547142Y-80512857D01*
X94547142Y-80655714D01*
X94499523Y-80750952D01*
X94451904Y-80798571D01*
X94356666Y-80846190D01*
X93975714Y-80846190D01*
X95499523Y-81322380D02*
X94928095Y-81322380D01*
X95213809Y-81322380D02*
X95213809Y-80322380D01*
X95118571Y-80465238D01*
X95023333Y-80560476D01*
X94928095Y-80608095D01*
X96070952Y-80750952D02*
X95975714Y-80703333D01*
X95928095Y-80655714D01*
X95880476Y-80560476D01*
X95880476Y-80512857D01*
X95928095Y-80417619D01*
X95975714Y-80370000D01*
X96070952Y-80322380D01*
X96261428Y-80322380D01*
X96356666Y-80370000D01*
X96404285Y-80417619D01*
X96451904Y-80512857D01*
X96451904Y-80560476D01*
X96404285Y-80655714D01*
X96356666Y-80703333D01*
X96261428Y-80750952D01*
X96070952Y-80750952D01*
X95975714Y-80798571D01*
X95928095Y-80846190D01*
X95880476Y-80941428D01*
X95880476Y-81131904D01*
X95928095Y-81227142D01*
X95975714Y-81274761D01*
X96070952Y-81322380D01*
X96261428Y-81322380D01*
X96356666Y-81274761D01*
X96404285Y-81227142D01*
X96451904Y-81131904D01*
X96451904Y-80941428D01*
X96404285Y-80846190D01*
X96356666Y-80798571D01*
X96261428Y-80750952D01*
X94499523Y-78952380D02*
X93928095Y-78952380D01*
X94213809Y-78952380D02*
X94213809Y-77952380D01*
X94118571Y-78095238D01*
X94023333Y-78190476D01*
X93928095Y-78238095D01*
X95118571Y-77952380D02*
X95213809Y-77952380D01*
X95309047Y-78000000D01*
X95356666Y-78047619D01*
X95404285Y-78142857D01*
X95451904Y-78333333D01*
X95451904Y-78571428D01*
X95404285Y-78761904D01*
X95356666Y-78857142D01*
X95309047Y-78904761D01*
X95213809Y-78952380D01*
X95118571Y-78952380D01*
X95023333Y-78904761D01*
X94975714Y-78857142D01*
X94928095Y-78761904D01*
X94880476Y-78571428D01*
X94880476Y-78333333D01*
X94928095Y-78142857D01*
X94975714Y-78047619D01*
X95023333Y-78000000D01*
X95118571Y-77952380D01*
X95880476Y-78952380D02*
X95880476Y-77952380D01*
X96451904Y-78952380D02*
X96023333Y-78380952D01*
X96451904Y-77952380D02*
X95880476Y-78523809D01*
%TO.C,TUNING_COARSE1*%
X90352380Y-73333333D02*
X90352380Y-72761904D01*
X91352380Y-73047619D02*
X90352380Y-73047619D01*
X90352380Y-72428571D02*
X91161904Y-72428571D01*
X91257142Y-72380952D01*
X91304761Y-72333333D01*
X91352380Y-72238095D01*
X91352380Y-72047619D01*
X91304761Y-71952380D01*
X91257142Y-71904761D01*
X91161904Y-71857142D01*
X90352380Y-71857142D01*
X91352380Y-71380952D02*
X90352380Y-71380952D01*
X91352380Y-70809523D01*
X90352380Y-70809523D01*
X91352380Y-70333333D02*
X90352380Y-70333333D01*
X91352380Y-69857142D02*
X90352380Y-69857142D01*
X91352380Y-69285714D01*
X90352380Y-69285714D01*
X90400000Y-68285714D02*
X90352380Y-68380952D01*
X90352380Y-68523809D01*
X90400000Y-68666666D01*
X90495238Y-68761904D01*
X90590476Y-68809523D01*
X90780952Y-68857142D01*
X90923809Y-68857142D01*
X91114285Y-68809523D01*
X91209523Y-68761904D01*
X91304761Y-68666666D01*
X91352380Y-68523809D01*
X91352380Y-68428571D01*
X91304761Y-68285714D01*
X91257142Y-68238095D01*
X90923809Y-68238095D01*
X90923809Y-68428571D01*
X91447619Y-68047619D02*
X91447619Y-67285714D01*
X91257142Y-66476190D02*
X91304761Y-66523809D01*
X91352380Y-66666666D01*
X91352380Y-66761904D01*
X91304761Y-66904761D01*
X91209523Y-67000000D01*
X91114285Y-67047619D01*
X90923809Y-67095238D01*
X90780952Y-67095238D01*
X90590476Y-67047619D01*
X90495238Y-67000000D01*
X90400000Y-66904761D01*
X90352380Y-66761904D01*
X90352380Y-66666666D01*
X90400000Y-66523809D01*
X90447619Y-66476190D01*
X90352380Y-65857142D02*
X90352380Y-65666666D01*
X90400000Y-65571428D01*
X90495238Y-65476190D01*
X90685714Y-65428571D01*
X91019047Y-65428571D01*
X91209523Y-65476190D01*
X91304761Y-65571428D01*
X91352380Y-65666666D01*
X91352380Y-65857142D01*
X91304761Y-65952380D01*
X91209523Y-66047619D01*
X91019047Y-66095238D01*
X90685714Y-66095238D01*
X90495238Y-66047619D01*
X90400000Y-65952380D01*
X90352380Y-65857142D01*
X91066666Y-65047619D02*
X91066666Y-64571428D01*
X91352380Y-65142857D02*
X90352380Y-64809523D01*
X91352380Y-64476190D01*
X91352380Y-63571428D02*
X90876190Y-63904761D01*
X91352380Y-64142857D02*
X90352380Y-64142857D01*
X90352380Y-63761904D01*
X90400000Y-63666666D01*
X90447619Y-63619047D01*
X90542857Y-63571428D01*
X90685714Y-63571428D01*
X90780952Y-63619047D01*
X90828571Y-63666666D01*
X90876190Y-63761904D01*
X90876190Y-64142857D01*
X91304761Y-63190476D02*
X91352380Y-63047619D01*
X91352380Y-62809523D01*
X91304761Y-62714285D01*
X91257142Y-62666666D01*
X91161904Y-62619047D01*
X91066666Y-62619047D01*
X90971428Y-62666666D01*
X90923809Y-62714285D01*
X90876190Y-62809523D01*
X90828571Y-63000000D01*
X90780952Y-63095238D01*
X90733333Y-63142857D01*
X90638095Y-63190476D01*
X90542857Y-63190476D01*
X90447619Y-63142857D01*
X90400000Y-63095238D01*
X90352380Y-63000000D01*
X90352380Y-62761904D01*
X90400000Y-62619047D01*
X90828571Y-62190476D02*
X90828571Y-61857142D01*
X91352380Y-61714285D02*
X91352380Y-62190476D01*
X90352380Y-62190476D01*
X90352380Y-61714285D01*
X91352380Y-60761904D02*
X91352380Y-61333333D01*
X91352380Y-61047619D02*
X90352380Y-61047619D01*
X90495238Y-61142857D01*
X90590476Y-61238095D01*
X90638095Y-61333333D01*
%TO.C,TUNING_FINE1*%
X97702380Y-93595238D02*
X97702380Y-93023809D01*
X98702380Y-93309523D02*
X97702380Y-93309523D01*
X97702380Y-92690476D02*
X98511904Y-92690476D01*
X98607142Y-92642857D01*
X98654761Y-92595238D01*
X98702380Y-92500000D01*
X98702380Y-92309523D01*
X98654761Y-92214285D01*
X98607142Y-92166666D01*
X98511904Y-92119047D01*
X97702380Y-92119047D01*
X98702380Y-91642857D02*
X97702380Y-91642857D01*
X98702380Y-91071428D01*
X97702380Y-91071428D01*
X98702380Y-90595238D02*
X97702380Y-90595238D01*
X98702380Y-90119047D02*
X97702380Y-90119047D01*
X98702380Y-89547619D01*
X97702380Y-89547619D01*
X97750000Y-88547619D02*
X97702380Y-88642857D01*
X97702380Y-88785714D01*
X97750000Y-88928571D01*
X97845238Y-89023809D01*
X97940476Y-89071428D01*
X98130952Y-89119047D01*
X98273809Y-89119047D01*
X98464285Y-89071428D01*
X98559523Y-89023809D01*
X98654761Y-88928571D01*
X98702380Y-88785714D01*
X98702380Y-88690476D01*
X98654761Y-88547619D01*
X98607142Y-88500000D01*
X98273809Y-88500000D01*
X98273809Y-88690476D01*
X98797619Y-88309523D02*
X98797619Y-87547619D01*
X98178571Y-86976190D02*
X98178571Y-87309523D01*
X98702380Y-87309523D02*
X97702380Y-87309523D01*
X97702380Y-86833333D01*
X98702380Y-86452380D02*
X97702380Y-86452380D01*
X98702380Y-85976190D02*
X97702380Y-85976190D01*
X98702380Y-85404761D01*
X97702380Y-85404761D01*
X98178571Y-84928571D02*
X98178571Y-84595238D01*
X98702380Y-84452380D02*
X98702380Y-84928571D01*
X97702380Y-84928571D01*
X97702380Y-84452380D01*
X98702380Y-83500000D02*
X98702380Y-84071428D01*
X98702380Y-83785714D02*
X97702380Y-83785714D01*
X97845238Y-83880952D01*
X97940476Y-83976190D01*
X97988095Y-84071428D01*
%TO.C,J1*%
X106666666Y-69622380D02*
X106666666Y-70336666D01*
X106619047Y-70479523D01*
X106523809Y-70574761D01*
X106380952Y-70622380D01*
X106285714Y-70622380D01*
X107666666Y-70622380D02*
X107095238Y-70622380D01*
X107380952Y-70622380D02*
X107380952Y-69622380D01*
X107285714Y-69765238D01*
X107190476Y-69860476D01*
X107095238Y-69908095D01*
%TD*%
M02*
